<?xml version="1.0" standalone="no"?>
<!DOCTYPE svg PUBLIC "-//W3C//DTD SVG 1.1//EN" "http://www.w3.org/Graphics/SVG/1.1/DTD/svg11.dtd" >
<svg xmlns="http://www.w3.org/2000/svg" xmlns:xlink="http://www.w3.org/1999/xlink" version="1.1">
<metadata>
Created by FontForge 20170731 at Sun Oct  4 01:32:13 2020
 By Aleksey,,,
Copyright (c) 2013 Schick Toikka. All rights reserved. Saol is a trademark of Schick Toikka. Unauthorised copying or modification of any of its data is illegal.
</metadata>
<defs>
<font id="BWI-Light" horiz-adv-x="290" >
  <font-face 
    font-family="BWI Light"
    font-weight="300"
    font-stretch="normal"
    units-per-em="1000"
    panose-1="0 0 0 0 0 0 0 0 0 0"
    ascent="800"
    descent="-200"
    x-height="490"
    cap-height="681"
    bbox="-227 -250 1180 1053"
    underline-thickness="50"
    underline-position="-250"
    unicode-range="U+000D-FB02"
  />
<missing-glyph horiz-adv-x="590" 
d="M48 -226v1002h494v-1002h-494zM295 263l-230 -479h460zM532 757l-231 -482l231 -482v964zM58 -207l231 482l-231 482v-964zM525 766h-460l230 -479z" />
    <glyph glyph-name="fi" unicode="fi" horiz-adv-x="556" 
d="M212 0q-7 0 -17 0.5t-24 1.5t-25.5 1h-22.5h-18.5t-21.5 -1t-20 -1.5t-14 -0.5h-14v7h1q35 0 45 9q9 9 9 41v365q0 34 6 59h-74v9h75q8 33 21.5 61t30.5 51q73 97 194 97q41 0 68 -10q28 -10 28 -30q0 -11 -8 -19t-19 -8q-18 0 -63 17q-42 16 -75 16q-48 0 -83 -35
t-35 -112v-28h158v-9h-158v-424q0 -31 14 -40q13 -10 51 -10h14v-7h-23zM507 0q-5 0 -14 0.5t-20 1.5t-21.5 1h-18.5h-18.5t-21.5 -1t-20 -1.5t-14 -0.5h-14v7h1q35 0 45 9q9 9 9 41v342q0 32 -9 41q-11 8 -45 8h-1v7h6q35 0 68 13q35 14 41 30h6v-441q0 -32 10 -41
q9 -9 44 -9h1v-7h-14z" />
    <glyph glyph-name="fl" unicode="fl" horiz-adv-x="548" 
d="M156 481v-424q0 -31 14 -40q13 -10 51 -10h14v-7h-23q-7 0 -17 0.5t-24 1.5t-25.5 1h-22.5h-18.5t-21.5 -1t-20 -1.5t-14 -0.5h-14v7h1q35 0 45 9q9 9 9 41v360q0 45 3 64h-71v9h72q14 101 62 155q50 54 135 54q68 0 105 -43q55 38 56 68h6v-667q0 -32 10 -41q9 -9 44 -9
h1v-7h-14q-5 0 -14 0.5t-20 1.5t-21.5 1h-18.5h-18.5t-21.5 -1t-20 -1.5t-14 -0.5h-14v7h1q35 0 45 9q9 9 9 41v590q-37 43 -101 43q-135 0 -135 -167v-33h158v-9h-158z" />
    <glyph glyph-name="fb" unicode="fb" horiz-adv-x="841" 
d="M212 0q-7 0 -17 0.5t-24 1.5t-25.5 1h-22.5h-18.5t-21.5 -1t-20 -1.5t-14 -0.5h-14v7h1q35 0 45 9q9 9 9 41v360q0 45 3 64h-71v9h72q14 101 62 155q50 54 135 54q68 0 105 -43q55 38 56 68h6v-291q65 65 152 65q74 0 129 -61t55 -192t-55 -192t-129 -61q-87 0 -154 67
q-51 -35 -58 -69h-6v657q-37 43 -101 43q-135 0 -135 -167v-33h158v-9h-158v-424q0 -31 14 -40q13 -10 51 -10h14v-7h-23zM610 1q25 0 43 9q17 9 33 34q17 26 24 75q4 25 6 56.5t2 69.5t-2 69.5t-6 56.5q-7 50 -24 75q-16 25 -33 34q-18 9 -43 9q-79 0 -152 -67v-354
q73 -67 152 -67z" />
    <glyph glyph-name="fh" unicode="fh" horiz-adv-x="841" 
d="M156 481v-424q0 -31 14 -40q13 -10 51 -10h14v-7h-23q-7 0 -17 0.5t-24 1.5t-25.5 1h-22.5h-18.5t-21.5 -1t-20 -1.5t-14 -0.5h-14v7h1q35 0 45 9q9 9 9 41v360q0 45 3 64h-71v9h72q14 101 62 155q50 54 135 54q68 0 105 -43q55 38 56 68h6v-302l106 41q90 35 127 35
q62 0 62 -70v-371q0 -32 10 -41q9 -9 44 -9h1v-7h-14q-6 0 -14.5 0.5t-19.5 1.5t-21 1h-19h-19t-21 -1t-19.5 -1.5t-14.5 -0.5h-14v7h1q35 0 45 9q9 9 9 41v374q0 48 -35 48q-17 0 -85 -24l-109 -42v-356q0 -32 10 -41q9 -9 44 -9h1v-7h-14q-5 0 -14 0.5t-20 1.5t-21.5 1
h-18.5h-18.5t-21.5 -1t-20 -1.5t-14 -0.5h-14v7h1q35 0 45 9q9 9 9 41v590q-37 43 -101 43q-135 0 -135 -167v-33h158v-9h-158z" />
    <glyph glyph-name="fj" unicode="fj" horiz-adv-x="543" 
d="M466 39q0 -107 -46 -184q-55 -91 -142 -91q-14 0 -22 7q-9 7 -9 19q0 26 29 26q6 0 15 -1.5t22 -3.5q12 -2 20 -3.5t13 -1.5q54 0 54 85v508q0 32 -9 41q-11 8 -45 8h-1v7h6q35 0 68 13q35 14 41 30h6v-459zM212 0q-7 0 -17 0.5t-24 1.5t-25.5 1h-22.5h-18.5t-21.5 -1
t-20 -1.5t-14 -0.5h-14v7h1q35 0 45 9q9 9 9 41v365q0 34 6 59h-74v9h75q8 33 21.5 61t30.5 51q73 97 194 97q41 0 68 -10q28 -10 28 -30q0 -11 -8 -19t-19 -8q-18 0 -63 17q-42 16 -75 16q-48 0 -83 -35t-35 -112v-28h158v-9h-158v-424q0 -31 14 -40q13 -10 51 -10h14v-7
h-23z" />
    <glyph glyph-name="fk" unicode="fk" horiz-adv-x="827" 
d="M156 481v-424q0 -31 14 -40q13 -10 51 -10h14v-7h-23q-7 0 -17 0.5t-24 1.5t-25.5 1h-22.5h-18.5t-21.5 -1t-20 -1.5t-14 -0.5h-14v7h1q35 0 45 9q9 9 9 41v360q0 45 3 64h-71v9h72q14 101 62 155q50 54 135 54q68 0 105 -43q55 38 56 68h6v-537l85 88l-26 43h33
q32 -2 35 0l80 83q30 32 30 51q0 31 -48 31h-1v7h13h13t19 -1t20.5 -1.5t18.5 -0.5q10 0 19.5 0.5t20.5 1.5t19 1h13h14v-7h-1q-57 0 -143 -86l-77 -80l163 -265q17 -28 30 -36q14 -9 38 -9h1v-7h-12q-2 0 -9 0.5t-18 1.5t-22 1h-21h-20.5t-22.5 -1t-19.5 -1.5t-9.5 -0.5
h-24v7h1q43 0 43 18q0 7 -6 17l-139 226l-90 -93v-118q0 -32 10 -41q9 -9 44 -9h1v-7h-14q-5 0 -14 0.5t-20 1.5t-21.5 1h-18.5h-18.5t-21.5 -1t-20 -1.5t-14 -0.5h-14v7h1q35 0 45 9q9 9 9 41v590q-37 43 -101 43q-135 0 -135 -167v-33h158v-9h-158z" />
    <glyph glyph-name=".notdef" horiz-adv-x="590" 
d="M48 -226v1002h494v-1002h-494zM295 263l-230 -479h460zM532 757l-231 -482l231 -482v964zM58 -207l231 482l-231 482v-964zM525 766h-460l230 -479z" />
    <glyph glyph-name="glyph1" horiz-adv-x="0" 
 />
    <glyph glyph-name="glyph1" horiz-adv-x="0" 
 />
    <glyph glyph-name="uni000D" unicode="&#xd;" horiz-adv-x="250" 
 />
    <glyph glyph-name="space" unicode=" " horiz-adv-x="190" 
 />
    <glyph glyph-name="exclam" unicode="!" horiz-adv-x="241" 
d="M116 206v43q0 32 -4 82.5t-12 121.5t-12 117.5t-4 69.5q0 48 37 48q38 0 38 -48q0 -23 -4 -70t-12 -117q-8 -71 -12.5 -121.5t-4.5 -82.5v-43h-10zM121 -8q-21 0 -36 15q-16 15 -16 37t16 37q15 15 36 15t37 -15q15 -15 15 -37t-15 -37q-16 -15 -37 -15z" />
    <glyph glyph-name="quotedbl" unicode="&#x22;" horiz-adv-x="300" 
d="M79 463q-1 39 -6 71t-13 57q-17 51 -17 58q0 20 11 31t28 11t30 -11q11 -11 11 -31q0 -11 -8 -32q-4 -10 -8 -24t-9 -33q-10 -41 -11 -97h-8zM213 463q-1 39 -6 71t-13 57q-17 51 -17 58q0 20 11 31t28 11t30 -11q11 -11 11 -31q0 -11 -8 -32q-4 -10 -8 -24t-9 -33
q-10 -41 -11 -97h-8z" />
    <glyph glyph-name="numbersign" unicode="#" horiz-adv-x="593" 
d="M106 466h136l58 203l10 -3l-57 -200h157l58 203l10 -3l-57 -200h133v-10h-136l-68 -234h133v-10h-136l-58 -203l-10 3l57 200h-157l-58 -203l-10 3l57 200h-133v10h136l68 234h-133v10zM182 222h157l68 234h-157z" />
    <glyph glyph-name="dollar" unicode="$" horiz-adv-x="528" 
d="M267 -72v72q-83 5 -150 43q-67 37 -67 93q0 17 9 27q9 9 22 9q27 0 34 -24q1 -2 2 -6.5t3 -11.5q2 -8 4 -14t4 -11q17 -48 49 -70q32 -25 90 -26v309l-53 16q-64 20 -101 63q-38 44 -38 109q0 76 51 125q52 50 141 50v72h10v-72q63 -1 122 -41q59 -39 59 -91
q0 -14 -9 -22q-10 -8 -20 -8q-20 0 -31 21q-2 8 -6 20t-6 20q-15 47 -39 69q-26 22 -70 23v-279l53 -15q151 -43 151 -180q0 -92 -60 -145q-61 -53 -139 -53h-5v-72h-10zM444 158q0 62 -36 96q-39 36 -113 56l-18 5v-306h4q74 0 118 43q45 42 45 106zM103 538q0 -52 32 -81
q33 -30 104 -52l28 -9v276q-78 0 -121 -38q-43 -37 -43 -96z" />
    <glyph glyph-name="percent" unicode="%" horiz-adv-x="713" 
d="M198 346q-65 0 -102 49q-39 48 -39 122q0 73 39 122q37 49 102 49q49 0 83 -33q46 -46 103 -46q40 0 86 21q46 19 80 58l8 -5l-388 -692l-9 5l374 665q-26 -26 -67 -43q-42 -18 -84 -18q-43 0 -80 25q26 -47 26 -108q0 -73 -34 -122t-98 -49zM198 355q59 0 90 46
q32 47 32 116t-32 116q-31 46 -90 46q-24 0 -41 -12q-18 -15 -25 -37q-8 -26 -11 -50q-3 -27 -3 -63q0 -37 3 -63q3 -25 11 -50q7 -23 25 -36q16 -13 41 -13zM518 -8q-65 0 -102 49q-39 48 -39 122q0 73 39 122q37 49 102 49q64 0 98 -49t34 -122t-34 -122t-98 -49zM518 1
q59 0 90 46q32 47 32 116t-32 116q-31 46 -90 46q-24 0 -41 -12q-18 -15 -25 -37q-8 -26 -11 -50q-3 -27 -3 -63q0 -37 3 -63q3 -25 11 -50q7 -23 25 -36q16 -13 41 -13z" />
    <glyph glyph-name="ampersand" unicode="&#x26;" horiz-adv-x="785" 
d="M277 -10q-85 0 -143 56q-57 56 -57 144q0 87 54 141q52 52 128 69q-43 20 -65 57q-24 38 -24 81q0 72 52 112q53 41 115 41q66 0 124 -33q57 -33 57 -78q0 -29 -28 -29q-26 0 -37 33q-15 43 -41 71q-25 27 -75 27q-51 0 -89 -29q-38 -30 -38 -79q0 -83 119 -131
q87 -35 131 -76q45 -42 60 -123l49 78q52 85 132 85q16 0 27 -7q11 -8 11 -20q0 -30 -40 -30q-12 0 -35 5t-30 5q-31 0 -59 -46l-51 -83q0 -4 10 -47q21 -100 48 -135t73 -35q49 0 86 63l7 -4q-44 -80 -126 -80q-115 0 -150 147q-76 -150 -195 -150zM277 0q112 0 191 154
l-11.5 57.5t-8.5 33.5q-16 49 -43 76q-28 28 -77 49q-46 19 -58 23q-58 -15 -88 -67q-31 -52 -31 -131q0 -195 126 -195z" />
    <glyph glyph-name="quotesingle" unicode="'" horiz-adv-x="166" 
d="M79 463q-1 39 -6 71t-13 57q-17 51 -17 58q0 20 11 31t28 11t30 -11q11 -11 11 -31q0 -11 -8 -32q-4 -10 -8 -24t-9 -33q-10 -41 -11 -97h-8z" />
    <glyph glyph-name="parenleft" unicode="(" 
d="M127 276q0 -137 36 -260q34 -122 119 -184l-5 -7q-97 67 -157 194q-60 126 -60 257t60 258t157 194l5 -7q-85 -62 -119 -184q-36 -123 -36 -261z" />
    <glyph glyph-name="parenright" unicode=")" 
d="M163 276q0 43 -3 84t-8 80q-12 80 -49 159q-38 83 -95 122l5 7q97 -67 157 -194t60 -258t-60 -257q-60 -127 -157 -194l-5 7q57 39 95 122q37 79 49 159q5 38 8 79t3 84z" />
    <glyph glyph-name="asterisk" unicode="*" horiz-adv-x="388" 
d="M194 400q-12 0 -20 9q-9 8 -9 20q0 19 13 58t13 70q-23 -14 -53 -45q-27 -30 -44 -40q-8 -5 -17 -5q-11 0 -19 9q-8 10 -8 21q0 15 14 24q15 8 57 17q43 9 68 24q-25 13 -68 24q-42 9 -57 18q-14 9 -14 25q0 11 8 21q8 8 20 8q8 0 16 -5q17 -10 44 -40q29 -32 53 -46
q0 32 -13 71t-13 57q0 12 9 21q8 8 20 8q11 0 21 -8q8 -10 8 -21q0 -18 -13 -57t-13 -71q26 16 54 46q28 31 43 40q8 5 16 5q12 0 20 -8q8 -10 8 -21q0 -16 -14 -25q-15 -9 -57 -18q-43 -11 -68 -24q26 -15 69 -24q41 -9 56 -17q14 -9 14 -24q0 -13 -7 -21q-7 -9 -20 -9
q-9 0 -17 5q-15 9 -43 40q-28 30 -54 45q0 -31 13 -70t13 -58q0 -12 -8 -20q-9 -9 -21 -9z" />
    <glyph glyph-name="plus" unicode="+" horiz-adv-x="530" 
d="M260 103v214h-215v10h215v216h10v-216h215v-10h-215v-214h-10z" />
    <glyph glyph-name="comma" unicode="," horiz-adv-x="221" 
d="M105 -5q-22 0 -36 15q-14 14 -14 35t15 37q15 15 38 15q25 0 41 -19q17 -20 17 -48q0 -57 -30 -93q-30 -35 -66 -42l-2 7q34 9 61 40q26 32 26 76q0 7 -1 9q-14 -32 -49 -32z" />
    <glyph glyph-name="hyphen" unicode="-" horiz-adv-x="303" 
d="M65 262v39h173v-39h-173z" />
    <glyph glyph-name="period" unicode="." horiz-adv-x="214" 
d="M107 -8q-21 0 -36 15q-16 15 -16 37t16 37q15 15 36 15t37 -15q15 -15 15 -37t-15 -37q-16 -15 -37 -15z" />
    <glyph glyph-name="slash" unicode="/" horiz-adv-x="351" 
d="M30 -172l-9 3l300 893l9 -3z" />
    <glyph glyph-name="zero" unicode="0" horiz-adv-x="604" 
d="M302 -1q47 0 79 19q32 20 50 48q17 28 28 76q5 24 8 47t5 45q1 22 1.5 48.5t0.5 58.5t-0.5 58.5t-1.5 48.5q-2 22 -5 44.5t-8 47.5q-11 48 -28 76q-17 26 -50 47q-32 19 -79 19t-78 -19q-34 -20 -51 -47q-17 -28 -28 -76q-11 -50 -12 -92q-3 -43 -3 -107q0 -63 3 -107
q2 -44 12 -92q11 -48 28 -76q18 -28 51 -48q31 -19 78 -19zM302 -10q-116 0 -184 102q-67 100 -67 249q0 97 28 175q29 79 86 127q59 48 137 48q79 0 137 -48q57 -48 86 -127q28 -78 28 -175q0 -149 -67 -249q-67 -102 -184 -102z" />
    <glyph glyph-name="one" unicode="1" horiz-adv-x="314" 
d="M237 0q-5 0 -13 0.5t-19 1.5t-20.5 1h-17.5h-17.5t-20.5 -1t-19 -1.5t-13 -0.5h-36v8h9q36 0 50 8q13 7 13 38v501q0 24 -18 24q-10 0 -37 -13l-22 -11l-4 8q51 26 94 64q43 37 49 61h6v-630q0 -32 10 -41q9 -9 41 -9h1v-8h-16z" />
    <glyph glyph-name="two" unicode="2" horiz-adv-x="486" 
d="M418 -62l-6 1q2 37 -10 49t-44 12h-342v4l137 145q101 108 154 195q51 86 51 181q0 86 -25 121q-25 36 -81 36q-95 0 -137 -126q-12 -35 -37 -35q-31 0 -31 31q0 47 67 93q65 46 138 46q75 0 130 -43t55 -124q0 -40 -14 -80q-8 -20 -19.5 -40t-27.5 -40t-30.5 -37.5
t-28.5 -31.5q-14 -15 -33.5 -34.5t-44.5 -42.5q-25 -24 -44 -43t-32 -33l-74 -76h355z" />
    <glyph glyph-name="three" unicode="3" horiz-adv-x="525" 
d="M252 -10q-91 0 -159 54t-68 111q0 16 10 26q9 9 21 9q27 0 34 -34q37 -157 162 -157q73 0 113 52t40 152q0 90 -23 131q-22 39 -71 39q-21 0 -49 -16l-73 -37l-5 9l91 47q86 44 86 161q0 70 -21 107q-23 38 -83 38q-95 0 -133 -123q-11 -38 -39 -38q-12 0 -21 9
q-9 8 -9 22q0 46 65 93q64 46 137 46q77 0 127 -40q51 -40 51 -107q0 -50 -37 -93q-19 -22 -42 -38.5t-50 -29.5q26 2 54 -6q29 -7 57 -27q29 -20 48 -56q19 -37 19 -88q0 -101 -73 -158q-73 -58 -159 -58z" />
    <glyph glyph-name="four" unicode="4" horiz-adv-x="515" 
d="M364 196v-138q0 -32 10 -41q9 -9 41 -9h1v-8h-16q-5 0 -13 0.5t-19 1.5t-20.5 1h-17.5h-17.5t-20.5 -1t-19 -1.5t-13 -0.5h-36v8h9q36 0 50 8q13 7 13 38v142h-292v5l298 480h14q5 -1 8 -1h5h5.5t9.5 1h20v-475h5q81 0 135 127l5 -1l-29 -136h-116zM296 651l-276 -445
h276v445z" />
    <glyph glyph-name="five" unicode="5" horiz-adv-x="527" 
d="M244 -10q-72 0 -135 48q-64 46 -64 90q0 14 9 23q8 9 21 9q28 0 38 -34q37 -127 131 -127q84 0 121 64t37 168q0 101 -29 156q-29 53 -102 53q-50 0 -105 -29q-55 -28 -81 -77l-9 3l25 172l18 121l8 51h256q32 0 53 8q19 8 26 33l6 -1l-23 -106h-318l-38 -257
q27 39 80 66q54 26 102 26q99 0 154 -55t55 -159q0 -114 -67 -180t-169 -66z" />
    <glyph glyph-name="six" unicode="6" horiz-adv-x="551" 
d="M279 -10q-30 0 -57 7q-30 8 -60 28q-32 20 -55 52q-23 30 -40 88q-16 54 -16 128q0 144 110 257q109 112 273 142l2 -10q-267 -56 -301 -311q67 79 160 79q36 0 67 -10q16 -5 32 -13t33 -19q33 -24 52 -66q20 -45 20 -103q0 -64 -22 -112q-23 -51 -56 -78
q-35 -29 -71 -44q-37 -15 -71 -15zM279 -1q142 0 142 237q0 204 -126 204q-42 0 -85 -22q-22 -11 -41 -26.5t-35 -35.5q-4 -23 -4 -63q0 -164 38 -229t111 -65z" />
    <glyph glyph-name="seven" unicode="7" horiz-adv-x="466" 
d="M226 33q0 -18 -11 -29q-13 -11 -28 -11q-19 0 -29 11q-12 11 -12 30q0 69 24 148q23 80 66 159q42 80 81 141q40 63 91 133h-282q-35 0 -54 -14q-17 -13 -31 -52l-6 1l36 171l6 -1q-1 -24 12 -31q14 -8 42 -8h330v-4q-32 -48 -57.5 -86t-44.5 -69t-36.5 -66t-34.5 -75
q-34 -79 -48 -162q-7 -42 -10.5 -88t-3.5 -98z" />
    <glyph glyph-name="eight" unicode="8" horiz-adv-x="539" 
d="M275 -10q-104 0 -166 53t-62 140q0 55 38 102t105 75q-113 50 -113 154q0 73 55 125q53 52 139 52q80 0 135 -43q56 -44 56 -114q0 -101 -108 -161q69 -29 103 -72q35 -44 35 -112q0 -88 -61 -143q-62 -56 -156 -56zM275 -1q78 0 121 46q43 44 43 115q0 103 -128 153
l-111 43q-43 -26 -63 -71q-21 -46 -21 -96q0 -78 41 -134t118 -56zM403 533q0 149 -133 149q-65 0 -105 -35q-40 -34 -40 -94q0 -88 108 -132l110 -44q60 50 60 156z" />
    <glyph glyph-name="nine" unicode="9" horiz-adv-x="551" 
d="M272 691q30 0 57 -7q29 -7 60 -27q32 -21 56 -53q22 -31 39 -88q16 -54 16 -128q0 -145 -109 -257t-274 -142l-2 10q267 56 301 311q-67 -79 -160 -79q-36 0 -66 10q-34 11 -65 33q-34 23 -53 66q-20 45 -20 102q0 64 22 112q23 51 57 79t71 43q36 15 70 15zM272 682
q-142 0 -142 -237q0 -204 126 -204q42 0 85 22q22 11 41 26.5t35 35.5q4 23 4 63q0 165 -37 229q-38 65 -112 65z" />
    <glyph glyph-name="colon" unicode=":" horiz-adv-x="214" 
d="M107 360q-21 0 -36 15q-16 15 -16 37t16 37q15 15 36 15t37 -15q15 -15 15 -37t-15 -37q-16 -15 -37 -15zM107 -8q-21 0 -36 15q-16 15 -16 37t16 37q15 15 36 15t37 -15q15 -15 15 -37t-15 -37q-16 -15 -37 -15z" />
    <glyph glyph-name="semicolon" unicode=";" horiz-adv-x="221" 
d="M107 360q-21 0 -36 15q-16 15 -16 37t16 37q15 15 36 15t37 -15q15 -15 15 -37t-15 -37q-16 -15 -37 -15zM105 -5q-22 0 -36 15q-14 14 -14 35t15 37q15 15 38 15q25 0 41 -19q17 -20 17 -48q0 -57 -30 -93q-30 -35 -66 -42l-2 7q34 9 61 40q26 32 26 76q0 7 -1 9
q-14 -32 -49 -32z" />
    <glyph glyph-name="less" unicode="&#x3c;" horiz-adv-x="469" 
d="M419 502l4 -9l-368 -170l368 -170l-4 -9l-376 174v10z" />
    <glyph glyph-name="equal" unicode="=" horiz-adv-x="490" 
d="M45 418h400v-10h-400v10zM45 239h400v-10h-400v10z" />
    <glyph glyph-name="greater" unicode="&#x3e;" horiz-adv-x="469" 
d="M426 328v-10l-376 -174l-4 9l368 170l-368 170l4 9z" />
    <glyph glyph-name="question" unicode="?" horiz-adv-x="345" 
d="M133 206v202q68 13 108 52q39 38 39 83q0 35 -25 60t-73 25q-26 0 -54 -7t-39 -7q-15 0 -23 11q-9 11 -9 25q0 38 57 38q80 0 129 -48q49 -49 49 -122q0 -142 -149 -186v-126h-10zM137 -8q-21 0 -36 15q-16 15 -16 37t16 37q15 15 36 15t37 -15q15 -15 15 -37t-15 -37
q-16 -15 -37 -15z" />
    <glyph glyph-name="at" unicode="@" horiz-adv-x="833" 
d="M433 -145q-161 0 -272 112q-111 114 -111 278q0 162 112 277q111 115 269 115q145 0 249 -92q103 -91 103 -238q0 -105 -71 -200q-72 -96 -171 -96q-41 0 -64 22q-24 23 -24 60q0 48 36 124l70 161l-177 -247q-87 -120 -138 -120q-55 0 -55 61q0 51 43 146q22 48 44 87
t45 71q75 105 153 105q55 0 100 -70q19 7 32.5 14t21.5 14q16 13 30 43l6 -2l-122 -294q-37 -84 -37 -119q0 -46 38 -46q93 0 162 93q68 94 68 193q0 140 -101 230q-100 90 -241 90q-154 0 -262 -112q-109 -112 -109 -270q0 -161 108 -271q106 -109 265 -109q108 0 202 56
q93 57 130 154l9 -4q-38 -100 -133 -158q-97 -58 -208 -58zM276 38q28 0 99 98l194 269q-39 65 -84 65q-30 0 -56 -24q-27 -26 -65 -88q-20 -32 -38 -71.5t-35 -86.5q-34 -93 -34 -133q0 -29 19 -29z" />
    <glyph glyph-name="A" unicode="A" horiz-adv-x="638" 
d="M632 0q-3 0 -11 0.5t-21 1.5t-23 1h-18h-20t-25 -1t-22 -1.5t-10 -0.5h-21v8q52 0 52 31q0 12 -7 25l-52 124h-322l-27 -68q-14 -39 -14 -59q0 -53 71 -53v-8h-12q-5 0 -15.5 0.5t-25.5 1.5t-25.5 1h-17.5h-12t-22 -1t-23 -1.5t-13 -0.5h-21v8q41 1 69 28q28 26 51 86
l187 478l-34 81h21q6 -1 10.5 -1h7.5h7.5t9.5 1h18l260 -621q22 -52 71 -52v-8h-21zM136 198h314l-162 391z" />
    <glyph glyph-name="B" unicode="B" horiz-adv-x="608" 
d="M567 175q0 -83 -67 -129t-156 -46h-120h-18.5t-24.5 1h-51h-38q-11 -1 -19 -1h-13h-16v8h1q33 0 42 9q9 8 9 40v567q0 32 -9 41q-10 8 -42 8h-1v8h16h32q11 -1 20.5 -1h17.5h21.5t25.5 1h42h89q96 0 158 -46q62 -47 62 -125q0 -65 -50 -110q-49 -45 -115 -54
q81 -3 143 -45q61 -43 61 -126zM488 175q0 90 -37 127t-117 37h-170v-329h171q81 0 117 38t36 127zM453 510q0 81 -32 122q-31 39 -118 39h-139v-322h143q85 0 116 40q30 39 30 121z" />
    <glyph glyph-name="C" unicode="C" horiz-adv-x="612" 
d="M317 -8q-125 0 -204 100q-79 98 -79 251q0 84 29 156q29 71 73 110q43 40 93 61q48 21 94 21q35 0 78 -9q41 -10 52 -10q35 0 33 33l6 2l92 -227l-6 -3q-67 112 -128 159q-59 46 -127 46q-93 0 -161 -75q-69 -76 -69 -200q0 -164 78 -265q77 -102 192 -102q138 0 213 140
l7 -3q-37 -78 -109 -132q-73 -53 -157 -53z" />
    <glyph glyph-name="D" unicode="D" horiz-adv-x="634" 
d="M520 340q0 185 -51 258q-52 73 -191 73h-114v-661h114q139 0 191 73q51 72 51 257zM599 340q0 -161 -85 -250q-85 -90 -220 -90h-75h-18t-24 1h-47h-38q-11 -1 -19 -1h-13h-16v8h1q33 0 42 9q9 8 9 40v567q0 32 -9 41q-10 8 -42 8h-1v8h16h32q11 -1 20.5 -1h17.5h21.5
t25.5 1h42h75q135 0 220 -90q85 -89 85 -251z" />
    <glyph glyph-name="E" unicode="E" horiz-adv-x="615" 
d="M487 -29q2 14 -5 21q-8 8 -26 8h-237h-18t-24 1h-47h-38q-11 -1 -19 -1h-13h-16v8h1q33 0 42 9q9 8 9 40v567q0 32 -9 41q-10 8 -42 8h-1v8h16h32q11 -1 20.5 -1h17.5h21.5t25.5 1h42h224q20 0 28 8q7 7 5 22l6 2l92 -226l-6 -3q-38 54 -66.5 91t-46.5 57q-36 39 -96 39
h-195v-320h128q55 0 73 31t25 101h7v-277h-7q-2 17 -4 31t-4 24t-5.5 20t-8.5 21q-11 21 -28 30q-19 9 -48 9h-128v-331h206q33 0 55 9q20 7 46 36q50 58 111 160l6 -3l-95 -243z" />
    <glyph glyph-name="F" unicode="F" horiz-adv-x="568" 
d="M393 196q-2 17 -4 31t-4 24t-5.5 20t-8.5 21q-11 21 -28 29q-19 9 -48 9h-131v-272q0 -29 16 -39q16 -11 54 -11h20v-8h-30q-7 0 -17 0.5t-24 1.5t-26 1h-22h-18.5t-21.5 -1t-20 -1.5t-15 -0.5h-16v8h1q33 0 42 9q9 8 9 40v567q0 32 -9 41q-10 8 -42 8h-1v8h16h32
q11 -1 20.5 -1h17.5h17.5t20.5 1h32h231q20 0 28 8q7 7 5 22l6 2l92 -226l-6 -3q-38 54 -66.5 91t-46.5 57q-36 39 -96 39h-183v-331h131q55 0 73 31q17 30 25 102h7v-277h-7z" />
    <glyph glyph-name="G" unicode="G" horiz-adv-x="648" 
d="M572 -10h-6l-3 15q-3 7 -7 14q-6 8 -9 11q-2 2 -4.5 5t-5.5 6q-4 3 -6 5l-4 4l-4 4t-6 5q-4 2 -5.5 3.5l-2.5 2.5q-73 -73 -182 -73q-127 0 -209 100q-84 101 -84 239q0 90 27 162q26 71 69 113q43 41 93 64q50 21 101 21q46 0 88 -9q40 -10 49 -10q15 0 26 8q9 8 8 25
l6 2l92 -227l-6 -3q-35 57 -68 97t-62 63q-60 45 -133 45q-95 0 -153 -82q-59 -83 -59 -255q0 -167 60 -254t172 -87q48 0 91 22q44 23 69 48v170q0 32 -9 41q-10 8 -42 8h-1v8h16h13t19 -1t20.5 -1.5t17.5 -0.5t17.5 0.5t20.5 1.5t19 1h13h16v-8h-1q-32 0 -42 -8
q-9 -9 -9 -41v-254z" />
    <glyph glyph-name="H" unicode="H" horiz-adv-x="691" 
d="M595 57q0 -32 9 -40q9 -9 42 -9h1v-8h-16q-5 0 -13 0.5t-19 1.5t-20.5 1h-17.5h-17.5t-20.5 -1t-19 -1.5t-13 -0.5h-16v8h1q33 0 42 9q9 8 9 40v284h-363v-284q0 -32 9 -40q9 -9 42 -9h1v-8h-16q-5 0 -13 0.5t-19 1.5t-20.5 1h-17.5h-17.5t-20.5 -1t-19 -1.5t-13 -0.5
h-16v8h1q33 0 42 9q9 8 9 40v567q0 32 -9 41q-10 8 -42 8h-1v8h16h13t19 -1t20.5 -1.5t17.5 -0.5t17.5 0.5t20.5 1.5t19 1h13h16v-8h-1q-32 0 -42 -8q-9 -9 -9 -41v-273h363v273q0 32 -9 41q-10 8 -42 8h-1v8h16h13t19 -1t20.5 -1.5t17.5 -0.5t17.5 0.5t20.5 1.5t19 1h13h16
v-8h-1q-32 0 -42 -8q-9 -9 -9 -41v-567z" />
    <glyph glyph-name="I" unicode="I" horiz-adv-x="260" 
d="M164 57q0 -32 9 -40q9 -9 42 -9h1v-8h-16q-5 0 -13 0.5t-19 1.5t-20.5 1h-17.5h-17.5t-20.5 -1t-19 -1.5t-13 -0.5h-16v8h1q33 0 42 9q9 8 9 40v567q0 32 -9 41q-10 8 -42 8h-1v8h16h13t19 -1t20.5 -1.5t17.5 -0.5t17.5 0.5t20.5 1.5t19 1h13h16v-8h-1q-32 0 -42 -8
q-9 -9 -9 -41v-567z" />
    <glyph glyph-name="J" unicode="J" horiz-adv-x="296" 
d="M207 196q0 -152 -60 -223t-154 -71q-35 0 -35 30q0 31 31 31q9 0 44 -11t49 -11q31 0 44 27q13 26 13 85v571q0 32 -9 41q-10 8 -42 8h-1v8h16h13t19 -1t20.5 -1.5t17.5 -0.5t17.5 0.5t20.5 1.5t19 1h13h16v-8h-1q-32 0 -42 -8q-9 -9 -9 -41v-428z" />
    <glyph glyph-name="K" unicode="K" horiz-adv-x="652" 
d="M613 0q-2 0 -9.5 0.5t-19.5 1.5t-22.5 1h-18.5h-18.5t-22.5 -1t-19.5 -1.5t-10.5 -0.5h-39v8h11q44 0 44 27q0 13 -12 29l-189 297l-123 -147v-157q0 -32 9 -40q9 -9 42 -9h1v-8h-16q-5 0 -13 0.5t-19 1.5t-20.5 1h-17.5h-17.5t-20.5 -1t-19 -1.5t-13 -0.5h-16v8h1
q33 0 42 9q9 8 9 40v567q0 32 -9 41q-10 8 -42 8h-1v8h16h13t19 -1t20.5 -1.5t17.5 -0.5t17.5 0.5t20.5 1.5t19 1h13h16v-8h-1q-32 0 -42 -8q-9 -9 -9 -41v-395l117 140l-34 53q36 -1 79 0l143 170q23 29 23 49q0 18 -13 25t-48 7v8h17h14t22 -1q12 -1 21 -1.5t15 -0.5
q8 0 18.5 0.5t23.5 1.5t20.5 1h11.5h21v-8q-63 0 -138 -86l-144 -172l227 -356q33 -51 92 -51v-8h-39z" />
    <glyph glyph-name="L" unicode="L" horiz-adv-x="561" 
d="M458 -31l-6 2q2 15 -4 22q-7 7 -27 7h-221h-13t-19 1h-38h-38q-11 -1 -19 -1h-13h-16v8h1q33 0 42 9q9 8 9 40v567q0 32 -9 41q-10 8 -42 8h-1v8h16h13t19 -1t20.5 -1.5t17.5 -0.5t17.5 0.5t20.5 1.5t19 1h13h16v-8h-1q-32 0 -42 -8q-9 -9 -9 -41v-614h171q33 0 55 9
q20 7 46 36q22 24 50.5 67t65.5 106l6 -3z" />
    <glyph glyph-name="M" unicode="M" horiz-adv-x="856" 
d="M760 57q0 -32 9 -40q9 -9 42 -9h1v-8h-16q-5 0 -13 0.5t-19 1.5t-20.5 1h-17.5h-17.5t-20.5 -1t-19 -1.5t-13 -0.5h-16v8h1q33 0 42 9q9 8 9 40v597l-251 -577l36 -77h-10.5t-10.5 1h-17h-17q-5 -1 -10 -1h-10l-286 614v-483q0 -57 19 -89q18 -34 70 -34h1v-8h-25
q-2 0 -9.5 0.5t-18.5 1.5t-21.5 1h-19.5h-19.5t-21.5 -1t-18.5 -1.5t-10.5 -0.5h-24v8h1q51 0 69 33t18 90v494q-22 48 -66 48h-4v8h10h28q8 -1 14 -1h11h13t18 1h30l275 -591l257 591h7t14 -1t17.5 -1h16.5h7.5t13.5 1t14.5 1h13.5h16v-8h-1q-32 0 -42 -8q-9 -9 -9 -41
v-567z" />
    <glyph glyph-name="N" unicode="N" horiz-adv-x="690" 
d="M638 0h-11t-11 1h-17h-21q-7 -1 -12.5 -1h-10.5l-437 617v-486q0 -57 19 -89q18 -34 70 -34h1v-8h-25q-2 0 -9.5 0.5t-18.5 1.5t-21.5 1h-19.5h-19.5t-21.5 -1q-12 -1 -19.5 -1.5t-9.5 -0.5h-24v8h1q51 0 69 33t18 90v496q-1 1 -2.5 3.5t-4.5 6.5t-4.5 6.5t-2.5 3.5
q-3 3 -6 7q-2 3 -4 4.5t-3 2.5l-4 2t-4 3q-3 2 -9 4q-2 1 -5 1t-6 1q-5 1 -14 1h-1v8h7h30q8 -1 13.5 -1h9.5h12.5t17.5 1h29l418 -589v458q0 57 -18 90t-70 33h-1v8h25h9.5t18.5 -1t21.5 -1.5t19.5 -0.5t19.5 0.5t21.5 1.5t18.5 1h10.5h24v-8h-1q-52 0 -70 -33t-18 -90
v-472z" />
    <glyph glyph-name="O" unicode="O" horiz-adv-x="658" 
d="M329 -1q215 0 215 342q0 341 -215 341t-215 -341q0 -342 215 -342zM329 -10q-129 0 -211 100q-84 101 -84 251q0 151 84 251q83 99 211 99t212 -99q83 -101 83 -251t-83 -251q-84 -100 -212 -100z" />
    <glyph glyph-name="P" unicode="P" horiz-adv-x="566" 
d="M224 0q-7 0 -17 0.5t-24 1.5t-26 1h-22h-18.5t-21.5 -1t-20 -1.5t-15 -0.5h-16v8h1q33 0 42 9q9 8 9 40v567q0 32 -9 41q-10 8 -42 8h-1v8h16h32q11 -1 20.5 -1h17.5h21.5t25.5 1h42h108q96 0 159 -48q63 -49 63 -135q0 -88 -63 -136q-62 -49 -159 -49h-163v-255
q0 -31 11 -40q10 -10 49 -10h30v-8h-30zM324 323q86 0 117 42q30 42 30 133q0 90 -30 132q-32 41 -117 41h-160v-348h160z" />
    <glyph glyph-name="Q" unicode="Q" horiz-adv-x="658" 
d="M448 -235q-38 0 -79 38l-59 55q-39 36 -68 36q-28 0 -105 -36l-5 8l170 125q-118 10 -193 109t-75 241q0 151 84 251q83 99 211 99t212 -99q83 -101 83 -251t-83 -251q-84 -100 -212 -100h-13l-141 -105q72 34 120 34q38 0 66 -27l47 -44q10 -10 17 -16t11 -10
q8 -6 24 -15q17 -9 29 -9q21 0 41 14q10 8 26 23.5t39 39.5l6 -5q-29 -31 -50.5 -51.5t-35.5 -31.5q-29 -22 -67 -22zM544 341q0 341 -215 341t-215 -341q0 -342 215 -342t215 342z" />
    <glyph glyph-name="R" unicode="R" horiz-adv-x="633" 
d="M625 0q-13 0 -24 0.5t-22 1.5t-21 1h-20h-11.5t-14.5 -1t-13 -1.5t-9 -0.5l-179 320h-147v-263q0 -32 9 -40q9 -9 42 -9h1v-8h-16q-5 0 -13 0.5t-19 1.5t-20.5 1h-17.5h-17.5t-20.5 -1t-19 -1.5t-13 -0.5h-16v8h1q33 0 42 9q9 8 9 40v567q0 32 -9 41q-10 8 -42 8h-1v8h16
h32q11 -1 20.5 -1h17.5h21.5t25.5 1h42h108q96 0 160 -49t64 -132q0 -74 -60 -127q-62 -53 -163 -53h-4q20 -31 40 -41q20 -12 55 -12l92 -165q33 -59 55 -75q22 -18 59 -19v-8zM474 500q0 86 -32 129q-33 42 -118 42h-160v-341h160q84 0 117 40q33 39 33 130z" />
    <glyph glyph-name="S" unicode="S" horiz-adv-x="554" 
d="M516 188q0 -62 -32 -109q-34 -47 -78 -68q-46 -21 -95 -21q-46 0 -100 16q-55 15 -63 15q-36 0 -33 -33l-6 -2l-81 230l6 3q31 -60 68 -104q35 -44 62 -65q25 -21 59 -34q32 -13 48 -15q8 -1 18 -1.5t21 -0.5q68 0 115 41q46 40 46 99q0 109 -165 170l-81 30
q-70 26 -118 73t-48 114q0 75 54 120t135 45q29 0 72 -9q22 -5 36 -7.5t19 -2.5q38 0 33 33l6 2l87 -206l-6 -3q-66 108 -125 146t-122 38q-70 0 -110 -35q-40 -34 -40 -87t37 -87q37 -36 118 -65l83 -31q180 -66 180 -189z" />
    <glyph glyph-name="T" unicode="T" horiz-adv-x="640" 
d="M406 0h-16q-5 0 -13 0.5t-19 1.5t-20.5 1h-17.5h-17.5t-20.5 -1t-19 -1.5t-13 -0.5h-16v8h1q33 0 42 9q9 8 9 40v614h-88q-29 0 -43 -6q-15 -7 -34 -30q-17 -21 -43.5 -65.5t-62.5 -113.5l-6 3l76 253l6 -1q0 -30 36 -30h110h35q14 -1 25.5 -1h22.5h23t26 1h34h110
q36 0 36 30l6 1l76 -253l-6 -3q-36 69 -62.5 113.5t-43.5 65.5q-19 24 -33 30q-13 6 -44 6h-88v-614q0 -32 9 -40q9 -9 42 -9h1v-8z" />
    <glyph glyph-name="U" unicode="U" horiz-adv-x="620" 
d="M533 211q0 -100 -57 -159q-57 -60 -156 -60q-240 0 -240 220v412q0 32 -9 41q-10 8 -42 8h-1v8h16h13t19 -1t20.5 -1.5t17.5 -0.5t17.5 0.5t20.5 1.5t19 1h13h16v-8h-1q-32 0 -42 -8q-9 -9 -9 -41v-371q0 -132 43 -190q42 -59 140 -59q87 0 139 57q53 56 53 150v339
q0 57 -18 90t-70 33h-1v8h25h9.5t18.5 -1t21.5 -1.5t19.5 -0.5t19.5 0.5t21.5 1.5t18.5 1h10.5h24v-8h-1q-52 0 -70 -33t-18 -90v-339z" />
    <glyph glyph-name="V" unicode="V" horiz-adv-x="617" 
d="M350 80l31 -80h-9.5t-9.5 1h-18h-15q-5 -1 -10.5 -1h-10.5l-250 622q-12 28 -27 40q-17 11 -42 11h-1v8h21h11t21 -1t23.5 -1.5t18.5 -0.5q9 0 20 0.5t24 1.5t21 1h10h21v-8h-1q-52 0 -52 -30q0 -9 6 -24l212 -527l165 469q14 39 14 59q0 53 -71 53v8h12h15.5t25.5 -1
t25.5 -1.5t17.5 -0.5q4 0 12.5 0.5t22.5 1.5t22.5 1h12.5h21v-8q-42 -1 -71 -27q-28 -25 -49 -87z" />
    <glyph glyph-name="W" unicode="W" horiz-adv-x="976" 
d="M751 0h-10t-10 1h-17h-15q-5 -1 -10 -1h-10l-191 554l-151 -474l29 -80h-9.5t-9.5 1h-18h-15q-5 -1 -10.5 -1h-10.5l-231 622q-19 51 -69 51v8h21h10.5t20.5 -1t23 -1.5t18 -0.5q9 0 20 0.5t25 1.5t22 1h10h21v-8q-53 0 -53 -30q0 -7 5 -24l195 -524l151 476l-18 52
q-11 30 -27 40t-42 10v8h21h11t22 -1t24.5 -1.5t18.5 -0.5q9 0 19.5 0.5t22.5 1.5t19.5 1h10.5h21v-8q-53 0 -53 -30q0 -7 5 -24l180 -519l146 461q14 39 14 59q0 53 -71 53v8h12h15.5t25.5 -1t25.5 -1.5t17.5 -0.5q4 0 12.5 0.5t22.5 1.5t22.5 1h12.5h21v-8
q-85 -4 -120 -114l-150 -476z" />
    <glyph glyph-name="X" unicode="X" horiz-adv-x="632" 
d="M588 0q-2 0 -8.5 0.5t-17.5 1.5t-21.5 1h-19.5h-18.5t-23.5 -1t-20.5 -1.5t-10.5 -0.5h-39v8q56 0 56 27q0 13 -11 30l-155 249l-142 -197q-29 -41 -29 -66q0 -21 13 -31q12 -12 47 -12h1v-8h-13q-5 0 -15.5 0.5t-24.5 1.5t-24.5 1h-16.5h-11.5t-22.5 -1t-23.5 -1.5
t-13.5 -0.5h-19v8h1q41 0 72 28q31 30 71 87l144 200l-186 298q-33 52 -90 52v8h39h9t18 -1t21.5 -1.5t19.5 -0.5t19.5 0.5t23.5 1.5t20.5 1h9.5h39v-8q-56 0 -56 -27q0 -13 11 -30l149 -240l126 188q29 41 29 66q0 20 -12 32q-14 11 -48 11h-1v8h13h15.5t24.5 -1t24.5 -1.5
t16.5 -0.5q3 0 12 0.5t23 1.5t23 1h13h19v-8h-1q-43 -2 -73 -29q-33 -30 -70 -86l-128 -191l191 -307q33 -52 90 -52v-8h-39z" />
    <glyph glyph-name="Y" unicode="Y" horiz-adv-x="593" 
d="M339 57q0 -32 9 -40q9 -9 42 -9h1v-8h-16q-5 0 -13 0.5t-19 1.5t-20.5 1h-17.5h-17.5t-20.5 -1t-19 -1.5t-13 -0.5h-16v8h1q33 0 42 9q9 8 9 40v253l-202 313q-18 27 -36 39q-19 11 -45 11v8h29h10.5t18.5 -1t21 -1.5t19 -0.5t19.5 0.5t22.5 1.5t19.5 1h10.5h34v-8
q-28 0 -40 -5q-11 -6 -11 -20q0 -13 10 -29l183 -282l139 227q26 44 26 63q0 46 -64 46h-1v8h13h15.5t24.5 -1t24 -1.5t17 -0.5q3 0 12 0.5t23 1.5t23 1h13h19v-8h-1q-40 0 -71 -29q-29 -27 -66 -88l-141 -229v-270z" />
    <glyph glyph-name="Z" unicode="Z" horiz-adv-x="586" 
d="M472 -31l-6 2q2 14 -5 21q-8 8 -26 8h-411v4l445 667h-209q-61 0 -96 -39q-21 -23 -50 -62t-66 -94l-6 3l95 234l6 -2q-1 -15 6 -22q8 -8 27 -8h376v-4l-445 -667h244q33 0 54 9q20 8 45 36q50 58 111 160l6 -3z" />
    <glyph glyph-name="bracketleft" unicode="[" horiz-adv-x="275" 
d="M85 727q62 -3 165 -3v-9h-55q-17 -1 -29 -1h-19l-47 -2q51 -196 51 -436q0 -243 -51 -435l47 -2h20.5t29.5 -1h53v-9q-103 0 -165 -3v901z" />
    <glyph glyph-name="backslash" unicode="\" horiz-adv-x="351" 
d="M21 721l9 3l300 -893l-9 -3z" />
    <glyph glyph-name="bracketright" unicode="]" horiz-adv-x="275" 
d="M190 -174q-60 3 -165 3v9h55q17 1 29 1h19l47 2q-51 192 -51 435q0 240 51 436l-47 2h-20t-29 1h-54v9q105 0 165 3v-901z" />
    <glyph glyph-name="asciicircum" unicode="^" horiz-adv-x="450" 
d="M393 317l-168 374l-168 -374l-9 4l173 384h8l173 -384z" />
    <glyph glyph-name="underscore" unicode="_" horiz-adv-x="442" 
d="M10 -88v10h422v-10h-422z" />
    <glyph glyph-name="grave" unicode="`" horiz-adv-x="233" 
d="M178 542q-25 36 -68 78q-43 38 -54 56q-6 9 -6 20q0 12 8 20t21 8q16 0 26 -15q7 -11 16.5 -29.5t20.5 -44.5q23 -56 42 -89z" />
    <glyph glyph-name="a" unicode="a" horiz-adv-x="500" 
d="M403 -8q-30 0 -45 19q-16 19 -16 47q-78 -66 -158 -66q-64 0 -98 34q-36 35 -36 93q0 108 163 172l129 52v78q0 40 -10 54q-10 15 -41 15q-50 0 -88 -26q-37 -25 -78 -75q-14 -17 -29 -17q-10 0 -18 8t-8 18q0 31 70 65q72 35 152 35q62 0 90 -23q26 -24 26 -68v-362
q0 -35 24 -35q25 0 46 36l5 -3q-27 -51 -80 -51zM193 3q35 0 76 19q20 9 38.5 20.5t34.5 25.5v18v248l-126 -52q-54 -23 -72 -61q-18 -39 -18 -100q0 -118 67 -118z" />
    <glyph glyph-name="b" unicode="b" horiz-adv-x="526" 
d="M479 245q0 -131 -55 -192t-129 -61t-156 67q-47 -32 -56 -69h-6v635q0 32 -9 41q-11 8 -45 8h-1v7h6q35 0 68 13q35 14 41 30h6v-290q70 64 152 64q74 0 129 -61t55 -192zM403 245q0 38 -2 69.5t-6 56.5q-7 50 -24 75q-16 25 -33 34q-18 9 -43 9q-79 0 -152 -67v-354
q71 -67 152 -67q25 0 43 9q17 9 33 34q17 26 24 75q4 25 6 56.5t2 69.5z" />
    <glyph glyph-name="c" unicode="c" horiz-adv-x="472" 
d="M252 -8q-84 0 -147 68t-63 177q0 119 64 190q65 71 151 71q70 0 120 -43q51 -43 51 -88q0 -13 -7 -20q-8 -8 -20 -8q-19 0 -27 20q-1 3 -3 12t-5 23q-19 96 -110 96q-67 0 -102 -59q-36 -58 -36 -155q0 -124 46 -192q46 -70 113 -70q107 0 149 126l6 -2
q-47 -146 -180 -146z" />
    <glyph glyph-name="d" unicode="d" horiz-adv-x="539" 
d="M231 -8q-74 0 -129 61t-55 192t55 192t129 61q82 0 152 -64v191q0 32 -9 41q-11 8 -45 8h-1v7h6q35 0 68 13q35 14 41 30h6v-667q0 -32 10 -41q9 -9 44 -9h1v-7h-14h-14.5t-19.5 1t-21.5 1h-18.5h-9.5t-9.5 -1t-8.5 -1h-5.5v56q-76 -64 -152 -64zM231 1q73 0 152 67v354
q-73 67 -152 67q-25 0 -42 -9q-18 -9 -34 -34t-24 -75q-4 -25 -6 -56.5t-2 -69.5t2 -69.5t6 -56.5q8 -49 24 -75q16 -25 34 -34q17 -9 42 -9z" />
    <glyph glyph-name="e" unicode="e" horiz-adv-x="478" 
d="M252 -8q-84 0 -147 68t-63 176q0 121 64 191q65 71 151 71q70 0 125 -49q56 -50 51 -133h-314q-1 -8 -1 -19v-26q0 -109 44 -183t115 -74q106 0 149 126l6 -2q-47 -146 -180 -146zM365 325q-4 165 -113 165q-56 0 -89 -46q-34 -46 -43 -119h245z" />
    <glyph glyph-name="f" unicode="f" horiz-adv-x="302" 
d="M329 646q-3 0 -11 0.5t-22 1.5t-23 1.5t-14 0.5q-58 0 -81 -33q-22 -32 -22 -115v-12h158v-9h-158v-424q0 -31 14 -40q13 -10 51 -10h14v-7h-23q-7 0 -17 0.5t-24 1.5t-25.5 1h-22.5h-18.5t-21.5 -1t-20 -1.5t-14 -0.5h-14v7h1q35 0 45 9q9 9 9 41v350q0 21 1.5 39.5
t3.5 34.5h-73v9h75q15 59 44 100q34 49 88 80q53 29 100 29q30 0 30 -26q0 -27 -30 -27z" />
    <glyph glyph-name="g" unicode="g" horiz-adv-x="518" 
d="M245 -234q-106 0 -168 33t-62 76q0 77 154 111q-61 9 -91 27q-30 17 -30 49q0 19 10 33q5 7 12 13.5t17 12.5t19 10.5l17 8.5q15 7 41 16q-46 21 -75 63q-29 41 -29 99q0 78 53 129t132 51q70 0 117 -37q51 69 106 69q38 0 38 -27q0 -12 -7 -19t-19 -7q-11 0 -29 8
q-15 7 -32 7q-22 0 -51 -36q62 -51 62 -138q0 -78 -53 -128q-52 -51 -132 -51q-38 0 -71 12q-43 -14 -62 -27q-20 -14 -20 -35q0 -36 102 -47l123 -13q171 -19 171 -125q0 -66 -72 -102q-73 -36 -171 -36zM245 147q115 0 115 171q0 172 -115 172t-115 -172q0 -171 115 -171z
M245 -226q88 0 143 29q54 28 54 80q0 70 -138 87l-117 13q-63 -17 -88 -42q-27 -26 -27 -62q0 -44 46 -75q47 -30 127 -30z" />
    <glyph glyph-name="h" unicode="h" horiz-adv-x="539" 
d="M451 57q0 -32 10 -41q9 -9 44 -9h1v-7h-14q-6 0 -14.5 0.5t-19.5 1.5t-21 1h-19h-19t-21 -1t-19.5 -1.5t-14.5 -0.5h-14v7h1q35 0 45 9q9 9 9 41v374q0 48 -35 48q-17 0 -85 -24l-109 -42v-356q0 -32 10 -41q9 -9 44 -9h1v-7h-14q-5 0 -14 0.5t-20 1.5t-21.5 1h-18.5
h-18.5t-21.5 -1t-20 -1.5t-14 -0.5h-14v7h1q35 0 45 9q9 9 9 41v568q0 32 -9 41q-11 8 -45 8h-1v7h6q35 0 68 13q35 14 41 30h6v-302l106 41q90 35 127 35q62 0 62 -70v-371z" />
    <glyph glyph-name="i" unicode="i" horiz-adv-x="254" 
d="M205 0q-5 0 -14 0.5t-20 1.5t-21.5 1h-18.5h-18.5t-21.5 -1t-20 -1.5t-14 -0.5h-14v7h1q35 0 45 9q9 9 9 41v342q0 32 -9 41q-11 8 -45 8h-1v7h6q35 0 68 13q35 14 41 30h6v-441q0 -32 10 -41q9 -9 44 -9h1v-7h-14zM131 592q-20 0 -34 14t-14 34q0 21 14 35t34 14
q19 0 35 -14q14 -14 14 -35q0 -20 -14 -34t-35 -14z" />
    <glyph glyph-name="j" unicode="j" horiz-adv-x="241" 
d="M-24 -236q-14 0 -22 7q-9 7 -9 19q0 26 29 26q6 0 15 -1.5t22 -3.5q12 -2 20 -3.5t13 -1.5q54 0 54 85v508q0 32 -9 41q-11 8 -45 8h-1v7h6q35 0 68 13q35 14 41 30h6v-459q0 -107 -46 -184q-55 -91 -142 -91zM131 592q-20 0 -34 14t-14 34q0 21 14 35t34 14q19 0 35 -14
q14 -14 14 -35q0 -20 -14 -34t-35 -14z" />
    <glyph glyph-name="k" unicode="k" horiz-adv-x="525" 
d="M293 317l163 -265q18 -28 30 -36q12 -9 38 -9h1v-7h-12q-2 0 -9.5 0.5t-18.5 1.5q-12 1 -23 1h-21h-20.5t-21.5 -1t-18.5 -1.5t-9.5 -0.5h-24v7h1q43 0 43 18q0 7 -6 17l-139 226l-90 -93v-118q0 -32 10 -41q9 -9 44 -9h1v-7h-14q-5 0 -14 0.5t-20 1.5t-21.5 1h-18.5
h-18.5t-21.5 -1t-20 -1.5t-14 -0.5h-14v7h1q35 0 45 9q9 9 9 41v568q0 32 -9 41q-11 8 -45 8h-1v7h6q35 0 68 13q35 14 41 30h6v-537l85 88l-26 43h68l80 83q30 32 30 51q0 31 -48 31h-1v7h13h13t19 -1t20.5 -1.5t18.5 -0.5q10 0 19.5 0.5t20.5 1.5t19 1h13h14v-7h-1
q-57 0 -143 -86z" />
    <glyph glyph-name="l" unicode="l" horiz-adv-x="246" 
d="M156 57q0 -32 10 -41q9 -9 44 -9h1v-7h-14q-5 0 -14 0.5t-20 1.5t-21.5 1h-18.5h-18.5t-21.5 -1t-20 -1.5t-14 -0.5h-14v7h1q35 0 45 9q9 9 9 41v568q0 32 -9 41q-11 8 -45 8h-1v7h6q35 0 68 13q35 14 41 30h6v-667z" />
    <glyph glyph-name="m" unicode="m" horiz-adv-x="822" 
d="M775 0q-5 0 -14 0.5t-20 1.5t-21.5 1h-18.5h-18.5t-21.5 -1t-20 -1.5t-14 -0.5h-14v7h1q35 0 45 9q9 9 9 41v374q0 48 -35 48q-14 0 -83 -26l-101 -40v-356q0 -32 10 -41q9 -9 44 -9h1v-7h-14q-6 0 -14.5 0.5t-19.5 1.5t-21 1h-19h-19t-21 -1t-19.5 -1.5t-14.5 -0.5h-14
v7h1q35 0 45 9q9 9 9 41v374q0 48 -35 48q-14 0 -83 -26l-101 -40v-356q0 -32 10 -41q9 -9 44 -9h1v-7h-14q-5 0 -14 0.5t-20 1.5t-21.5 1h-18.5h-18.5t-21.5 -1t-20 -1.5t-14 -0.5h-14v7h1q35 0 45 9q9 9 9 41v342q0 32 -9 41q-11 8 -45 8h-1v7h6q35 0 68 13q35 14 41 30h6
v-76l98 39q87 37 125 37q29 0 45 -15q17 -15 17 -61l98 39q87 37 125 37q62 0 62 -70v-371q0 -32 10 -41q9 -9 44 -9h1v-7h-14z" />
    <glyph glyph-name="n" unicode="n" horiz-adv-x="547" 
d="M500 0q-6 0 -14.5 0.5t-19.5 1.5t-21 1h-19h-19t-21 -1t-19.5 -1.5t-14.5 -0.5h-14v7h1q35 0 45 9q9 9 9 41v374q0 48 -35 48q-17 0 -85 -24l-109 -42v-356q0 -32 10 -41q9 -9 44 -9h1v-7h-14q-5 0 -14 0.5t-20 1.5t-21.5 1h-18.5h-18.5t-21.5 -1t-20 -1.5t-14 -0.5h-14
v7h1q35 0 45 9q9 9 9 41v342q0 32 -9 41q-11 8 -45 8h-1v7h6q35 0 68 13q35 14 41 30h6v-76l106 41q90 35 127 35q62 0 62 -70v-371q0 -32 10 -41q9 -9 44 -9h1v-7h-14z" />
    <glyph glyph-name="o" unicode="o" horiz-adv-x="512" 
d="M256 -8q-88 0 -151 74t-63 179q0 107 63 180t151 73t151 -73t63 -180q0 -105 -63 -179t-151 -74zM256 0q70 0 104 52q34 50 34 193q0 142 -34 194q-34 51 -104 51q-68 0 -103 -51q-35 -53 -35 -194t35 -193q34 -52 103 -52z" />
    <glyph glyph-name="p" unicode="p" horiz-adv-x="539" 
d="M156 -169q0 -30 14 -41q14 -9 51 -9h14v-7h-23h-17t-24 1t-25.5 1.5t-22.5 0.5q-8 0 -18.5 -0.5t-21.5 -1.5t-20 -1h-14h-14v7h1q35 0 45 9q9 9 9 41v568q0 32 -9 41q-11 8 -45 8h-1v7h6q35 0 68 13q35 14 41 30h6v-64q70 64 152 64q74 0 129 -61t55 -192t-55 -192
t-129 -61q-76 0 -152 64v-225zM308 1q25 0 43 9q17 9 33 34q17 26 24 75q4 25 6 56.5t2 69.5t-2 69.5t-6 56.5q-7 50 -24 75q-16 25 -33 34q-18 9 -43 9q-79 0 -152 -67v-354q79 -67 152 -67z" />
    <glyph glyph-name="q" unicode="q" horiz-adv-x="526" 
d="M47 245q0 131 55 192t129 61q85 0 156 -67q55 38 56 69h6v-669q0 -32 10 -41q9 -9 44 -9h1v-7h-14q-6 0 -14.5 0.5t-19.5 1.5t-21.5 1.5t-18.5 0.5q-9 0 -19 -0.5t-21 -1.5t-19.5 -1.5t-14.5 -0.5h-28v7h14q35 0 45 9t10 41v225q-70 -64 -152 -64q-74 0 -129 61t-55 192z
M123 245q0 -38 2 -69.5t6 -56.5q8 -49 24 -75q16 -25 34 -34q17 -9 42 -9q73 0 152 67v354q-71 67 -152 67q-25 0 -42 -9q-18 -9 -34 -34t-24 -75q-4 -25 -6 -56.5t-2 -69.5z" />
    <glyph glyph-name="r" unicode="r" horiz-adv-x="354" 
d="M219 0q-8 0 -18 0.5t-24 1.5t-25.5 1h-21.5h-19t-21 -1t-19.5 -1.5t-14.5 -0.5h-14v7h1q35 0 45 9q9 9 9 41v342q0 32 -9 41q-11 8 -45 8h-1v7h6q35 0 68 13q35 14 41 30h6v-115q38 56 74 86q38 29 76 29q40 0 40 -26q0 -27 -39 -27q-7 0 -30 5q-19 4 -33 4
q-31 0 -88 -84v-313q0 -31 14 -40q13 -10 51 -10h14v-7h-23z" />
    <glyph glyph-name="s" unicode="s" horiz-adv-x="451" 
d="M245 -8q-28 0 -67 10t-58 10q-10 0 -18 -5q-7 -6 -6 -15l-6 -2l-50 172l6 2q77 -164 200 -164q60 0 92 29q31 28 31 73q0 69 -112 112l-81 31q-107 41 -107 133q0 52 35 87q35 33 95 33q24 0 61 -8q35 -9 48 -9q12 0 20 5q7 4 5 15l6 2l50 -168l-6 -2q-72 157 -184 157
q-50 0 -76 -23q-25 -22 -25 -54q0 -33 25 -57q24 -25 83 -48l80 -31q60 -24 89 -56q28 -31 28 -79q0 -69 -45 -110q-44 -40 -113 -40z" />
    <glyph glyph-name="t" unicode="t" horiz-adv-x="279" 
d="M164 -8q-76 0 -76 83v406h-68v9h68v79q28 0 44 18q16 16 16 42v1h6v-140h101v-9h-101v-417q0 -52 37 -52q15 0 32 14t29 35l6 -3q-14 -27 -38 -46q-24 -20 -56 -20z" />
    <glyph glyph-name="u" unicode="u" horiz-adv-x="534" 
d="M485 0h-14t-20 1t-21.5 1h-18.5h-9.5t-9.5 -1t-8.5 -1h-5.5v68l-101 -41q-87 -35 -127 -35q-62 0 -62 70v337q0 32 -9 41q-11 8 -45 8h-1v7h6q35 0 68 13q35 14 41 30h6v-439q0 -48 35 -48q24 0 85 24l104 42v322q0 32 -9 41q-11 8 -45 8h-1v7h6q35 0 68 13q35 14 41 30
h6v-441q0 -32 10 -41q9 -9 44 -9h1v-7h-14z" />
    <glyph glyph-name="v" unicode="v" horiz-adv-x="465" 
d="M297 0h-10t-10 1h-16h-17q-5 -1 -10 -1h-9l-163 433q-10 28 -25 40q-14 10 -43 10v7h23h10t18 -1t20.5 -1.5t19.5 -0.5t20 0.5t21 1.5t17.5 1h8.5h24v-7q-50 0 -50 -24q0 -6 3 -15l135 -357l110 309q8 24 8 40q0 47 -66 47v7h10h15t20 -1t20.5 -1.5t16.5 -0.5
q8 0 17.5 0.5t20.5 1.5t19 1h12h17v-7q-40 -1 -63 -24q-22 -22 -39 -67l-113 -317z" />
    <glyph glyph-name="w" unicode="w" horiz-adv-x="752" 
d="M585 0h-10t-10 1h-16h-17q-5 -1 -10 -1h-9l-139 370l-105 -295l28 -75h-10t-10 1h-15h-17q-6 -1 -11 -1h-9l-163 433q-10 28 -25 40q-14 10 -43 10v7h23h10t18 -1t20.5 -1.5t19.5 -0.5t20 0.5t21 1.5t17.5 1h8.5h24v-7q-50 0 -50 -24q0 -6 3 -15l135 -357l105 295l-19 51
q-10 28 -25 40q-14 10 -43 10v7h23h9.5t17.5 -1t20.5 -1.5t19.5 -0.5t20 0.5t21 1.5t18 1h9h24v-7q-50 0 -50 -24q0 -7 3 -15l135 -357l110 309q8 24 8 40q0 47 -66 47v7h10h15t20 -1t20.5 -1.5t17.5 -0.5t17.5 0.5t20.5 1.5t18.5 1h11.5h17v-7q-40 -1 -63 -24
q-22 -22 -39 -67l-113 -317z" />
    <glyph glyph-name="x" unicode="x" horiz-adv-x="485" 
d="M454 0q-3 0 -10 0.5t-18 1.5t-21 1h-20h-19.5t-20.5 -1t-17.5 -1.5t-8.5 -0.5h-24v7q47 0 47 22q0 8 -6 17l-114 175l-92 -135q-16 -23 -16 -42t11 -28t44 -9h1v-7h-10q-6 0 -15 0.5t-20 1.5t-20.5 1h-16.5h-16.5t-19.5 -1t-18.5 -1.5t-11.5 -0.5h-17v7h1q31 0 59 20
q27 20 57 63l94 138l-126 196q-20 31 -37 45q-19 14 -42 14v7h26h10t18 -1t21 -1.5t20 -0.5t19.5 0.5t20.5 1.5t17.5 1h8.5h24v-7q-47 0 -47 -22q0 -8 6 -17l107 -165l82 125q16 23 16 42t-11 28q-10 9 -44 9h-1v7h10h15t20 -1t20.5 -1.5t16.5 -0.5q8 0 17 0.5t20 1.5t18 1
h11h17v-7h-1q-62 0 -116 -83l-84 -128l133 -206q21 -32 37 -44q18 -15 42 -15v-7h-26z" />
    <glyph glyph-name="y" unicode="y" horiz-adv-x="465" 
d="M297 0h-10t-10 1h-16h-11q-5 -1 -8.5 -1h-6.5l-20 -45q-50 -111 -82 -150q-33 -41 -95 -41q-41 0 -41 27q0 12 8 18q7 7 20 7t37 -7q26 -6 35 -6q27 0 49 33q11 17 26.5 47t34.5 75l19 42l-164 434q-10 27 -25 39q-14 10 -43 10v7h23h10t18 -1t20.5 -1.5t19.5 -0.5
t20 0.5t21 1.5t17.5 1h8.5h24v-7q-50 0 -50 -24q0 -6 3 -15l135 -357l110 309q8 22 8 40q0 47 -66 47v7h10h15t20 -1t20.5 -1.5t16.5 -0.5q8 0 17.5 0.5t20.5 1.5t19 1h12h17v-7q-39 -1 -63 -25q-22 -22 -39 -66l-113 -317z" />
    <glyph glyph-name="z" unicode="z" horiz-adv-x="446" 
d="M353 -20q0 11 -9 16q-9 4 -32 4h-280v4l299 478h-120q-33 0 -50 -6t-37 -26q-47 -47 -88 -113l-5 3l68 171l6 -1q0 -12 10 -16q8 -4 31 -4h261v-4l-300 -478h135q41 0 60 9q17 7 46 37q11 11 30.5 37t48.5 68l5 -3l-73 -177z" />
    <glyph glyph-name="braceleft" unicode="{" horiz-adv-x="292" 
d="M170 -62q0 -47 21 -69q22 -22 81 -35l-2 -8q-89 23 -123 52q-35 32 -35 105q0 17 1.5 40.5t3.5 54.5t3.5 50t1.5 27q0 58 -16 86q-17 28 -66 29v10q50 2 66 30t16 85q0 8 -1.5 27.5t-3.5 50.5t-3.5 54.5t-1.5 39.5q0 73 35 105q34 29 123 52l2 -8q-59 -13 -81 -35
q-21 -22 -21 -69q0 -10 1.5 -35t3.5 -65t3.5 -66t1.5 -37q0 -60 -25 -92q-25 -34 -93 -42q67 -7 93 -41q25 -34 25 -93q0 -11 -1.5 -37t-3.5 -66t-3.5 -65t-1.5 -35z" />
    <glyph glyph-name="bar" unicode="|" horiz-adv-x="210" 
d="M100 -217v987h10v-987h-10z" />
    <glyph glyph-name="braceright" unicode="}" horiz-adv-x="292" 
d="M122 -62q0 10 -1.5 35t-3.5 65t-3.5 66t-1.5 37q0 58 26 93q26 34 92 41q-66 7 -92 42q-26 34 -26 92q0 11 1.5 37t3.5 66t3.5 65t1.5 35q0 47 -21 69q-22 22 -81 35l2 8q89 -23 123 -52q35 -32 35 -105q0 -16 -1.5 -39.5t-3.5 -54.5t-3.5 -50.5t-1.5 -27.5q0 -57 16 -85
q17 -28 66 -30v-10q-49 -1 -66 -29q-16 -28 -16 -86q0 -8 1.5 -27t3.5 -50t3.5 -54.5t1.5 -40.5q0 -73 -35 -105q-34 -29 -123 -52l-2 8q59 13 81 35q21 22 21 69z" />
    <glyph glyph-name="asciitilde" unicode="~" horiz-adv-x="531" 
d="M379 282q-43 0 -115 31t-112 31q-61 0 -98 -58l-9 5q16 25 43 44q28 19 64 19q44 0 116 -31q71 -31 111 -31q61 0 98 58l9 -5q-15 -24 -43 -43q-29 -20 -64 -20z" />
    <glyph glyph-name="uni00A0" unicode="&#xa0;" horiz-adv-x="190" 
 />
    <glyph glyph-name="exclamdown" unicode="&#xa1;" horiz-adv-x="241" 
d="M125 284v-43q0 -32 4.5 -82.5t12.5 -120.5q8 -71 12 -118t4 -70q0 -48 -38 -48q-37 0 -37 48q0 23 4 69.5t12 117.5t12 121.5t4 82.5v43h10zM120 498q21 0 37 -15q15 -15 15 -37t-15 -37q-16 -15 -37 -15t-36 15q-16 15 -16 37t16 37q15 15 36 15z" />
    <glyph glyph-name="cent" unicode="&#xa2;" horiz-adv-x="500" 
d="M265 -8q-54 0 -101 30l-55 -165l-9 3l55 167q-100 67 -100 210q0 119 64 190q65 71 151 71q8 0 17.5 -1.5t22.5 -3.5l46 138l9 -3l-46 -137q53 -13 87 -51q35 -38 35 -73q0 -13 -7 -20q-8 -8 -20 -8q-19 0 -27 20q-1 3 -3 12t-5 23q-13 68 -63 87l-134 -405
q42 -62 108 -62q107 0 149 126l6 -2q-47 -146 -180 -146zM131 276q0 -117 44 -190l132 398q-16 6 -38 6q-67 0 -102 -59q-36 -58 -36 -155z" />
    <glyph glyph-name="sterling" unicode="&#xa3;" horiz-adv-x="586" 
d="M425 -8q-7 0 -13 0.5t-12 1.5q-12 1 -27 8q-8 2 -13.5 4t-10.5 4t-11.5 5t-14.5 8q-9 5 -15 8t-8 5q-3 2 -9.5 5.5t-16.5 10.5q-11 6 -16.5 9.5t-7.5 4.5q-48 -76 -134 -76q-35 0 -57 19q-24 18 -24 50q0 33 28 55q29 21 75 21q42 0 112 -27q3 17 3 35q0 69 -44 168h-133
v10h129q-16 32 -27.5 59.5t-19.5 50.5q-15 44 -15 91q0 74 59 122q59 47 127 47q63 0 123 -39q60 -40 60 -94q0 -14 -8 -22q-7 -9 -21 -9q-18 0 -26 12t-15 43q-12 51 -38 76q-25 24 -75 24q-56 0 -86 -33q-31 -32 -31 -86q0 -30 7 -61q6 -34 12 -54q2 -11 7 -27t13 -39
t13 -38t7 -23h177v-10h-175q16 -60 16 -102q0 -54 -20 -108q2 -1 8 -3.5t17 -6.5q10 -4 16.5 -6.5t10.5 -3.5l9 -3t14 -5q17 -7 27 -9t23 -6q7 -2 13.5 -3t12.5 -2t12 -1h12q83 0 83 92q0 51 -30 91l7 6q19 -23 28 -58q9 -34 9 -56q0 -61 -32 -98q-31 -37 -84 -37zM116 0
q38 0 72 19q35 18 51 54q-79 46 -124 46q-31 0 -50 -16q-20 -17 -20 -44q0 -26 20 -43q19 -16 51 -16z" />
    <glyph glyph-name="currency" unicode="&#xa4;" horiz-adv-x="664" 
d="M331 110q-102 0 -167 59l-111 -110l-7 7l111 110q-63 63 -63 166q0 104 65 167l-111 113l7 7l112 -113q65 59 164 59q102 0 167 -61l113 113l7 -7l-113 -112q64 -65 64 -166q0 -102 -64 -166l111 -112l-7 -7l-112 112q-65 -59 -166 -59zM331 119q100 0 164 61
q64 60 64 162q0 101 -65 163q-64 61 -163 61q-98 0 -162 -61q-65 -62 -65 -163q0 -102 65 -162q64 -61 162 -61z" />
    <glyph glyph-name="yen" unicode="&#xa5;" horiz-adv-x="601" 
d="M376 0q-6 0 -14.5 0.5t-19.5 1.5t-21 1h-18h-18.5t-21.5 -1t-20 -1.5t-14 -0.5h-12v8h1q34 0 43 10q8 10 8 42v98h-156v10h156v93h-156v10h156v47l-183 305q-29 50 -81 50v8h29h10.5t18.5 -1t21.5 -1.5t18.5 -0.5q9 0 19.5 0.5t23.5 1.5q12 1 19.5 1h10.5h34v-8
q-28 0 -40 -5q-11 -6 -11 -20q0 -13 10 -29l162 -274l120 219q26 47 26 65q0 44 -64 44h-1v8h13h15.5t24.5 -1t24 -1.5t17 -0.5q3 0 12 0.5t23 1.5t23 1h13h19v-8h-1q-77 0 -137 -117l-121 -220v-65h156v-10h-156v-93h156v-10h-156v-98q0 -33 9 -42q9 -10 42 -10h1v-8h-13z
" />
    <glyph glyph-name="brokenbar" unicode="&#xa6;" horiz-adv-x="210" 
d="M100 -217v438h10v-438h-10zM100 342v428h10v-428h-10z" />
    <glyph glyph-name="section" unicode="&#xa7;" horiz-adv-x="509" 
d="M177 -155q-84 0 -84 41q0 13 9 22q9 10 25 10q15 0 52 -18q38 -18 71 -18q41 0 67 23q24 22 24 61q0 21 -11 48q-13 26 -24 41q-7 8 -17.5 21t-25.5 31l-125 147q-44 51 -61 84q-17 32 -17 67q0 83 72 138q12 65 70 105q59 41 130 41q84 0 84 -41q0 -13 -9 -22
q-9 -10 -25 -10q-13 0 -51 18q-37 18 -72 18q-41 0 -66 -23q-25 -22 -25 -61q0 -23 12 -47q10 -23 24 -41q6 -8 16.5 -21.5t25.5 -31.5l125 -147q45 -51 62 -83q16 -31 16 -68q0 -82 -72 -138q-12 -65 -70 -105q-59 -41 -130 -41zM415 77q0 36 -16 62q-8 13 -24.5 33
t-39.5 47l-133 155q-37 44 -54 78q-17 36 -17 80q-37 -34 -37 -75q0 -35 17 -61q17 -27 63 -81l133 -155q19 -22 33 -41.5t22 -36.5q16 -33 16 -80q37 34 37 75z" />
    <glyph glyph-name="dieresis" unicode="&#xa8;" horiz-adv-x="401" 
d="M152 628q0 -19 -13 -31q-13 -13 -32 -13q-18 0 -31 13q-13 12 -13 31t13 32t31 13q19 0 32 -13t13 -32zM341 628q0 -18 -13 -31t-32 -13t-31 13q-13 12 -13 31t13 32q12 13 31 13t32 -13t13 -32z" />
    <glyph glyph-name="copyright" unicode="&#xa9;" horiz-adv-x="792" 
d="M396 -9q-148 0 -246 97q-100 96 -100 252t100 253q99 96 246 96q146 0 246 -97t100 -252q0 -156 -100 -252q-100 -97 -246 -97zM396 1q143 0 240 94q96 93 96 245q0 151 -96 245q-97 94 -240 94q-144 0 -240 -93q-96 -94 -96 -246q0 -153 96 -246t240 -93zM397 127
q-79 0 -134 61q-56 62 -56 148q0 54 18 97q17 42 45 66q29 25 59 36q30 12 60 12q11 0 22.5 -1.5t25.5 -3.5q26 -6 34 -6q25 0 22 23l6 2l64 -138l-6 -4q-25 30 -47 52.5t-41 37.5q-38 29 -81 29q-51 0 -86 -41q-35 -43 -35 -122q0 -88 47 -150t117 -62q42 0 79 21
q36 19 59 59l7 -4q-25 -48 -73 -79q-49 -33 -106 -33z" />
    <glyph glyph-name="ordfeminine" unicode="&#xaa;" horiz-adv-x="378" 
d="M280 361q-41 0 -46 39q-46 -39 -93 -39q-42 0 -67 23q-24 23 -24 63q0 67 98 108l85 34v49q0 24 -5 34q-6 9 -26 9q-52 0 -99 -62q-13 -15 -24 -15q-8 0 -13 6q-6 6 -6 14q0 22 46 44q45 22 99 22q43 0 63 -17q18 -18 18 -53v-209q0 -31 19 -31q11 0 17 15l6 -2
q-9 -32 -48 -32zM157 373q32 0 76 37v26v144l-69 -28q-33 -13 -45 -36q-13 -22 -13 -59q0 -84 51 -84zM52 291v9h276v-9h-276z" />
    <glyph glyph-name="guillemotleft" unicode="&#xab;" horiz-adv-x="502" 
d="M271 69q-13 13 -32.5 30.5t-46.5 40.5t-50.5 42t-43.5 35q-40 32 -48 36q4 2 16 11.5t32 25.5q42 33 94 76q27 23 46.5 40.5t32.5 30.5l5 -5q-11 -13 -24 -30t-28 -37q-16 -20 -29.5 -38.5t-24.5 -35.5q-12 -17 -19 -26.5t-9 -11.5q1 -1 14 -19t39 -53t46 -62t35 -45z
M428 69q-13 13 -32.5 30.5t-46.5 40.5t-50.5 42t-43.5 35q-40 32 -48 36q4 2 16 11.5t32 25.5q42 33 94 76q27 23 46.5 40.5t32.5 30.5l5 -5q-9 -11 -19.5 -23.5t-21.5 -27.5q-12 -16 -22 -29t-18 -24t-16.5 -23t-17.5 -25q-19 -25 -19 -27q94 -131 134 -179z" />
    <glyph glyph-name="logicalnot" unicode="&#xac;" horiz-adv-x="506" 
d="M451 107v213h-406v10h416v-223h-10z" />
    <glyph glyph-name="uni00AD" unicode="&#xad;" horiz-adv-x="303" 
d="M65 262v39h173v-39h-173z" />
    <glyph glyph-name="registered" unicode="&#xae;" horiz-adv-x="520" 
d="M260 304q-88 0 -149 59q-61 58 -61 151q0 94 61 152q59 58 149 58q89 0 150 -58q60 -58 60 -152q0 -92 -60 -151q-62 -59 -150 -59zM260 314q83 0 142 56q58 55 58 144q0 90 -58 145t-142 55t-142 -55t-58 -145q0 -89 58 -144q59 -56 142 -56zM388 394h-10t-11 1h-21h-12
q-5 -1 -12 -1l-54 109h-49v-84q0 -12 5 -15t25 -3v-7h-16h-5.5t-8.5 1h-17h-16q-5 -1 -9 -1h-6h-16v7q21 0 25 3t4 15v190q0 11 -4 14t-25 3v7h16h15q5 -1 9 -1h7h7.5t9.5 1h14h46q41 0 63 -16t22 -49q0 -28 -20 -46q-19 -19 -64 -19h-4q11 -18 32 -18h11l24 -51
q10 -22 19 -27q8 -6 26 -6v-7zM329 568q0 29 -11 43t-41 14h-58v-114h60q50 0 50 57z" />
    <glyph glyph-name="macron" unicode="&#xaf;" horiz-adv-x="360" 
d="M60 608v22h240v-22h-240z" />
    <glyph glyph-name="degree" unicode="&#xb0;" horiz-adv-x="314" 
d="M274 573q0 -54 -34 -85q-34 -33 -83 -33q-48 0 -83 33q-34 31 -34 85q0 53 34 86q35 32 83 32t83 -32q34 -33 34 -86zM264 573q0 49 -31 79t-76 30q-43 0 -75 -30t-32 -79q0 -48 32 -78q31 -31 75 -31q45 0 76 31q31 30 31 78z" />
    <glyph glyph-name="plusminus" unicode="&#xb1;" horiz-adv-x="490" 
d="M45 380h195v165h10v-165h195v-10h-195v-169h-10v169h-195v10zM45 121h400v-10h-400v10z" />
    <glyph glyph-name="twosuperior" unicode="&#xb2;" 
d="M238 620q0 -16 -6 -33q-5 -14 -23 -35q-9 -10 -15.5 -17t-11.5 -12t-15 -13.5t-24 -20.5t-23.5 -19.5t-13.5 -11.5l-19 -17h156l-16 -76l-6 1q1 31 -27 31h-160v4l61 60q87 87 87 159q0 62 -36 62q-31 0 -48 -48q-9 -27 -27 -27q-21 0 -21 21q0 22 28 41q29 20 72 20
q38 0 64 -17q24 -18 24 -52z" />
    <glyph glyph-name="threesuperior" unicode="&#xb3;" 
d="M254 481q0 -40 -33 -66q-34 -26 -74 -26q-49 0 -81 23q-31 22 -31 53q0 9 6 16t15 7q22 0 26 -25q8 -38 23 -52q14 -14 42 -14t40 20q11 20 11 62q0 73 -33 73q-7 0 -21 -6l-33 -16l-3 7l41 20q30 15 30 68q0 57 -36 57q-30 0 -47 -48q-9 -27 -27 -27q-21 0 -21 21
q0 20 28 41q29 20 70 20q39 0 63 -15q24 -16 24 -45q0 -22 -19 -41q-10 -10 -22.5 -17t-26.5 -12q35 0 62 -21t27 -57z" />
    <glyph glyph-name="acute" unicode="&#xb4;" horiz-adv-x="233" 
d="M49 546q19 33 42 89q11 26 20.5 44.5t16.5 29.5q11 15 26 15q11 0 21 -8q8 -8 8 -20q0 -11 -6 -20q-5 -8 -18.5 -21.5t-34.5 -33.5q-44 -41 -69 -79z" />
    <glyph glyph-name="uni00B5" unicode="&#xb5;" horiz-adv-x="534" 
d="M485 0h-14t-20 1t-21.5 1h-18.5h-9.5t-9.5 -1t-8.5 -1h-5.5v68l-101 -41q-87 -35 -127 -35q-39 0 -54 27q4 -63 23 -134q18 -68 18 -79q0 -21 -10 -31q-11 -11 -29 -11q-15 0 -26 11t-11 31q0 5 3.5 27t10.5 62t10 75.5t3 67.5v361q0 32 -9 41q-11 8 -45 8h-1v7h6
q35 0 68 13q35 14 41 30h6v-439q0 -48 35 -48q24 0 85 24l104 42v322q0 32 -9 41q-11 8 -45 8h-1v7h6q35 0 68 13q35 14 41 30h6v-441q0 -32 10 -41q9 -9 44 -9h1v-7h-14z" />
    <glyph glyph-name="paragraph" unicode="&#xb6;" horiz-adv-x="551" 
d="M395 -226v226h-77q-119 0 -193 86q-75 86 -75 255q0 170 75 255q73 85 193 85h183v-10h-96v-661h96v-10h-96v-226h-10zM395 10v661h-80v-661h80z" />
    <glyph glyph-name="periodcentered" unicode="&#xb7;" horiz-adv-x="254" 
d="M127 293q-21 0 -36 15q-16 15 -16 37t16 37q15 15 36 15t37 -15q15 -15 15 -37t-15 -37q-16 -15 -37 -15z" />
    <glyph glyph-name="cedilla" unicode="&#xb8;" horiz-adv-x="288" 
d="M238 -117q0 -51 -60 -88t-128 -45l-1 7q65 8 106 41q40 34 40 70q0 41 -51 41q-35 0 -56 -12l-3 3l86 100h5l-35 -58q7 1 12 1.5t8 0.5q34 0 56 -16q21 -17 21 -45z" />
    <glyph glyph-name="onesuperior" unicode="&#xb9;" 
d="M216 397q-5 0 -12.5 0.5t-16.5 1.5t-18 1h-17h-17t-18 -1t-16.5 -1.5t-12.5 -0.5h-22v7h18q27 0 34 9q8 10 8 41v141q0 22 -16 22q-3 0 -40 -17l-3 6l15 8q34 19 59 43q26 26 32 42h5v-245q0 -30 7 -40t30 -10h8v-7h-7z" />
    <glyph glyph-name="ordmasculine" unicode="&#xba;" horiz-adv-x="385" 
d="M191 369q41 0 62 33q20 32 20 122q0 92 -20 124t-62 32q-40 0 -60 -32t-20 -124q0 -90 20 -122q20 -33 60 -33zM191 360q-59 0 -100 48q-41 49 -41 116q0 69 41 118q41 47 100 47q61 0 103 -47q41 -49 41 -118q0 -67 -41 -116q-42 -48 -103 -48zM53 291v9h276v-9h-276z
" />
    <glyph glyph-name="guillemotright" unicode="&#xbb;" horiz-adv-x="502" 
d="M69 74q35 42 68.5 86t65.5 93q-44 64 -77.5 108.5t-56.5 70.5l5 5q13 -13 32.5 -30.5t46.5 -40.5t51 -41.5t44 -34.5t31.5 -25.5t15.5 -11.5q-4 -2 -15.5 -11t-31.5 -25q-39 -30 -95 -77q-27 -23 -46.5 -40.5t-32.5 -30.5zM226 74q35 42 68.5 86t65.5 93
q-79 120 -134 179l5 5q13 -13 32.5 -30.5t46.5 -40.5t51 -41.5t44 -34.5t31.5 -25.5t15.5 -11.5q-4 -2 -15.5 -11t-31.5 -25q-39 -30 -95 -77q-27 -23 -46.5 -40.5t-32.5 -30.5z" />
    <glyph glyph-name="onequarter" unicode="&#xbc;" horiz-adv-x="390" 
d="M346 346v-9h-302v9h302zM264 397q-5 0 -12.5 0.5t-16.5 1.5t-18 1h-17h-17t-18 -1t-16.5 -1.5t-12.5 -0.5h-22v7h18q27 0 34 9q8 10 8 41v141q0 22 -16 22q-3 0 -40 -17l-3 6l15 8q34 19 59 43q26 26 32 42h5v-245q0 -30 7 -40t30 -10h8v-7h-7zM275 0q-2 0 -7 0.5
t-13 1.5t-16 1h-18h-18t-16 -1t-13 -1.5t-7 -0.5h-22v7h11q25 0 32 9q7 8 7 41v19h-129v4l137 204h9q5 -1 12 -1t12 1h11v-200h3q34 0 65 66l5 -1l-16 -73h-57v-19q0 -33 7 -41q8 -9 30 -9h2v-7h-11zM195 258l-116 -174h116v174z" />
    <glyph glyph-name="onehalf" unicode="&#xbd;" horiz-adv-x="390" 
d="M346 346v-9h-302v9h302zM264 397q-5 0 -12.5 0.5t-16.5 1.5t-18 1h-17h-17t-18 -1t-16.5 -1.5t-12.5 -0.5h-22v7h18q27 0 34 9q8 10 8 41v141q0 22 -16 22q-3 0 -40 -17l-3 6l15 8q34 19 59 43q26 26 32 42h5v-245q0 -30 7 -40t30 -10h8v-7h-7zM280 223q0 -16 -6 -33
q-5 -14 -23 -35q-9 -10 -15.5 -17t-11.5 -12t-15 -13.5t-24 -20.5t-23.5 -19.5t-13.5 -11.5l-19 -17h156l-16 -76l-6 1q1 31 -27 31h-160v4l61 60q87 87 87 159q0 62 -36 62q-31 0 -48 -48q-9 -27 -27 -27q-21 0 -21 21q0 22 28 41q29 20 72 20q38 0 64 -17q24 -18 24 -52z
" />
    <glyph glyph-name="threequarters" unicode="&#xbe;" horiz-adv-x="390" 
d="M346 346v-9h-302v9h302zM275 0q-2 0 -7 0.5t-13 1.5t-16 1h-18h-18t-16 -1t-13 -1.5t-7 -0.5h-22v7h11q25 0 32 9q7 8 7 41v19h-129v4l137 204h9q5 -1 12 -1t12 1h11v-200h3q34 0 65 66l5 -1l-16 -73h-57v-19q0 -33 7 -41q8 -9 30 -9h2v-7h-11zM195 258l-116 -174h116
v174zM308 481q0 -40 -33 -66q-34 -26 -74 -26q-49 0 -81 23q-31 22 -31 53q0 9 6 16t15 7q22 0 26 -25q8 -38 23 -52q14 -14 42 -14t40 20q11 20 11 62q0 73 -33 73q-7 0 -21 -6l-33 -16l-3 7l41 20q30 15 30 68q0 57 -36 57q-30 0 -47 -48q-9 -27 -27 -27q-21 0 -21 21
q0 20 28 41q29 20 70 20q39 0 63 -15q24 -16 24 -45q0 -22 -19 -41q-10 -10 -22.5 -17t-26.5 -12q35 0 62 -21t27 -57z" />
    <glyph glyph-name="questiondown" unicode="&#xbf;" horiz-adv-x="345" 
d="M212 284v-202q-68 -13 -108 -52q-39 -38 -39 -83q0 -35 25 -60t73 -25q26 0 54 7t39 7q15 0 24 -11q8 -11 8 -25q0 -38 -57 -38q-79 0 -129 48q-49 49 -49 122q0 142 149 186v126h10zM208 498q21 0 37 -15q15 -15 15 -37t-15 -37q-16 -15 -37 -15t-36 15q-16 15 -16 37
t16 37q15 15 36 15z" />
    <glyph glyph-name="Agrave" unicode="&#xc0;" horiz-adv-x="638" 
d="M632 0q-3 0 -11 0.5t-21 1.5t-23 1h-18h-20t-25 -1t-22 -1.5t-10 -0.5h-21v8q52 0 52 31q0 12 -7 25l-52 124h-322l-27 -68q-14 -39 -14 -59q0 -53 71 -53v-8h-12q-5 0 -15.5 0.5t-25.5 1.5t-25.5 1h-17.5h-12t-22 -1t-23 -1.5t-13 -0.5h-21v8q41 1 69 28q28 26 51 86
l187 478l-34 81h21q6 -1 10.5 -1h7.5h7.5t9.5 1h18l260 -621q22 -52 71 -52v-8h-21zM136 198h314l-162 391zM352 731q-25 36 -68 78q-43 38 -54 56q-6 9 -6 20q0 10 8 20q8 8 21 8q16 0 26 -15q7 -11 16.5 -29.5t20.5 -44.5q23 -56 42 -89z" />
    <glyph glyph-name="Aacute" unicode="&#xc1;" horiz-adv-x="638" 
d="M632 0q-3 0 -11 0.5t-21 1.5t-23 1h-18h-20t-25 -1t-22 -1.5t-10 -0.5h-21v8q52 0 52 31q0 12 -7 25l-52 124h-322l-27 -68q-14 -39 -14 -59q0 -53 71 -53v-8h-12q-5 0 -15.5 0.5t-25.5 1.5t-25.5 1h-17.5h-12t-22 -1t-23 -1.5t-13 -0.5h-21v8q41 1 69 28q28 26 51 86
l187 478l-34 81h21q6 -1 10.5 -1h7.5h7.5t9.5 1h18l260 -621q22 -52 71 -52v-8h-21zM136 198h314l-162 391zM236 735q19 33 42 89q11 26 20.5 44.5t16.5 29.5q11 15 26 15q13 0 21 -8q8 -10 8 -20q0 -11 -6 -20q-5 -8 -18.5 -21.5t-34.5 -33.5q-44 -41 -69 -79z" />
    <glyph glyph-name="Acircumflex" unicode="&#xc2;" horiz-adv-x="638" 
d="M632 0q-3 0 -11 0.5t-21 1.5t-23 1h-18h-20t-25 -1t-22 -1.5t-10 -0.5h-21v8q52 0 52 31q0 12 -7 25l-52 124h-322l-27 -68q-14 -39 -14 -59q0 -53 71 -53v-8h-12q-5 0 -15.5 0.5t-25.5 1.5t-25.5 1h-17.5h-12t-22 -1t-23 -1.5t-13 -0.5h-21v8q41 1 69 28q28 26 51 86
l187 478l-34 81h21q6 -1 10.5 -1h7.5h7.5t9.5 1h18l260 -621q22 -52 71 -52v-8h-21zM136 198h314l-162 391zM405 731q-8 11 -16.5 20.5t-16.5 19.5q-8 9 -18.5 20t-23.5 24l-33 32l-32 -32l-24 -24t-19 -20q-8 -10 -16.5 -19.5t-16.5 -20.5l-6 4l14 22t14 24q13 25 28 56
q8 15 13 25.5t9 16.5q11 20 18 27t18 7q12 0 19 -7q4 -4 8 -10.5t9 -16.5q4 -6 9 -16.5t13 -25.5q8 -16 15 -29.5t14 -26.5t13.5 -24t13.5 -22z" />
    <glyph glyph-name="Atilde" unicode="&#xc3;" horiz-adv-x="638" 
d="M632 0q-3 0 -11 0.5t-21 1.5t-23 1h-18h-20t-25 -1t-22 -1.5t-10 -0.5h-21v8q52 0 52 31q0 12 -7 25l-52 124h-322l-27 -68q-14 -39 -14 -59q0 -53 71 -53v-8h-12q-5 0 -15.5 0.5t-25.5 1.5t-25.5 1h-17.5h-12t-22 -1t-23 -1.5t-13 -0.5h-21v8q41 1 69 28q28 26 51 86
l187 478l-34 81h21q6 -1 10.5 -1h7.5h7.5t9.5 1h18l260 -621q22 -52 71 -52v-8h-21zM136 198h314l-162 391zM337 777q-21 0 -55 22q-34 21 -61 21q-10 0 -23 -11q-13 -10 -18 -18q-6 -7 -18 -27l-6 4q1 2 4.5 7t8.5 14q11 18 18 27q6 8 18 21q10 13 24 19q15 5 28 5
q21 0 55 -21q34 -22 61 -22q10 0 24 11q6 5 10.5 10t7.5 9q2 4 6.5 10t10.5 16l6 -4q-34 -58 -58 -77q-20 -16 -43 -16z" />
    <glyph glyph-name="Adieresis" unicode="&#xc4;" horiz-adv-x="638" 
d="M632 0q-3 0 -11 0.5t-21 1.5t-23 1h-18h-20t-25 -1t-22 -1.5t-10 -0.5h-21v8q52 0 52 31q0 12 -7 25l-52 124h-322l-27 -68q-14 -39 -14 -59q0 -53 71 -53v-8h-12q-5 0 -15.5 0.5t-25.5 1.5t-25.5 1h-17.5h-12t-22 -1t-23 -1.5t-13 -0.5h-21v8q41 1 69 28q28 26 51 86
l187 478l-34 81h21q6 -1 10.5 -1h7.5h7.5t9.5 1h18l260 -621q22 -52 71 -52v-8h-21zM136 198h314l-162 391zM248 807q0 -19 -13 -31q-13 -13 -32 -13q-18 0 -31 13q-13 12 -13 31t13 32t31 13q19 0 32 -13t13 -32zM437 807q0 -18 -13 -31t-32 -13t-31 13q-13 12 -13 31
t13 32q12 13 31 13t32 -13t13 -32z" />
    <glyph glyph-name="Aring" unicode="&#xc5;" horiz-adv-x="638" 
d="M632 0q-3 0 -11 0.5t-21 1.5t-23 1h-18h-20t-25 -1t-22 -1.5t-10 -0.5h-21v8q52 0 52 31q0 12 -7 25l-52 124h-322l-27 -68q-14 -39 -14 -59q0 -53 71 -53v-8h-12q-5 0 -15.5 0.5t-25.5 1.5t-25.5 1h-17.5h-12t-22 -1t-23 -1.5t-13 -0.5h-21v8q41 1 69 28q28 26 51 86
l187 478l-34 81h21q6 -1 10.5 -1h7.5h7.5t9.5 1h18l260 -621q22 -52 71 -52v-8h-21zM136 198h314l-162 391zM381 828q0 -35 -24 -61q-24 -25 -60 -25t-60 25q-24 26 -24 61q0 36 24 61t60 25t60 -25t24 -61zM371 828q0 32 -21 54t-53 22t-53 -22t-21 -54q0 -30 21 -53
t53 -23t53 23t21 53z" />
    <glyph glyph-name="AE" unicode="&#xc6;" horiz-adv-x="1001" 
d="M482 627l-315 -429h315v429zM873 -29q2 14 -5 21q-8 8 -26 8h-237h-18t-24 1h-47h-38q-11 -1 -19 -1h-13h-16v8h1q33 0 42 9q9 8 9 40v131h-323l-52 -71q-30 -40 -30 -67q0 -21 13 -31q13 -11 48 -11h2v-8h-12q-6 0 -16.5 0.5t-25.5 1.5t-26 1h-18h-13t-23 -1
q-15 -1 -24 -1.5t-14 -0.5h-23v8h2q68 4 151 114l365 496q13 16 13 33q0 22 -41 22h-5v8h16h32q11 -1 20.5 -1h17.5h21.5t25.5 1h42h224q20 0 28 8q7 7 5 22l6 2l92 -226l-6 -3q-39 55 -67.5 91.5t-45.5 56.5q-34 39 -96 39h-195v-320h128q55 0 73 31t25 101h7v-277h-7
q-2 17 -4 31t-4 24t-5.5 20t-8.5 21q-11 21 -28 30q-19 9 -48 9h-128v-331h206q33 0 55 9q20 7 46 36q50 58 111 160l6 -3l-95 -243z" />
    <glyph glyph-name="Ccedilla" unicode="&#xc7;" horiz-adv-x="612" 
d="M368 -117q0 -51 -60 -88t-128 -45l-1 7q65 8 106 41q40 34 40 70q0 41 -51 41q-35 0 -56 -12l-3 3l78 93q-115 10 -187 108t-72 242q0 84 29 156q29 71 73 110q43 40 93 61q48 21 94 21q35 0 78 -9q41 -10 52 -10q35 0 33 33l6 2l92 -227l-6 -3q-67 112 -128 159
q-59 46 -127 46q-93 0 -161 -75q-69 -76 -69 -200q0 -164 78 -265q77 -102 192 -102q138 0 213 140l7 -3q-37 -78 -109 -132q-73 -53 -157 -53q-13 0 -16 1l-30 -51q7 1 12 1.5t8 0.5q34 0 56 -16q21 -17 21 -45z" />
    <glyph glyph-name="Egrave" unicode="&#xc8;" horiz-adv-x="615" 
d="M487 -29q2 14 -5 21q-8 8 -26 8h-237h-18t-24 1h-47h-38q-11 -1 -19 -1h-13h-16v8h1q33 0 42 9q9 8 9 40v567q0 32 -9 41q-10 8 -42 8h-1v8h16h32q11 -1 20.5 -1h17.5h21.5t25.5 1h42h224q20 0 28 8q7 7 5 22l6 2l92 -226l-6 -3q-38 54 -66.5 91t-46.5 57q-36 39 -96 39
h-195v-320h128q55 0 73 31t25 101h7v-277h-7q-2 17 -4 31t-4 24t-5.5 20t-8.5 21q-11 21 -28 30q-19 9 -48 9h-128v-331h206q33 0 55 9q20 7 46 36q50 58 111 160l6 -3l-95 -243zM350 731q-25 36 -68 78q-43 38 -54 56q-6 9 -6 20q0 10 8 20q8 8 21 8q16 0 26 -15
q7 -11 16.5 -29.5t20.5 -44.5q23 -56 42 -89z" />
    <glyph glyph-name="Eacute" unicode="&#xc9;" horiz-adv-x="615" 
d="M487 -29q2 14 -5 21q-8 8 -26 8h-237h-18t-24 1h-47h-38q-11 -1 -19 -1h-13h-16v8h1q33 0 42 9q9 8 9 40v567q0 32 -9 41q-10 8 -42 8h-1v8h16h32q11 -1 20.5 -1h17.5h21.5t25.5 1h42h224q20 0 28 8q7 7 5 22l6 2l92 -226l-6 -3q-38 54 -66.5 91t-46.5 57q-36 39 -96 39
h-195v-320h128q55 0 73 31t25 101h7v-277h-7q-2 17 -4 31t-4 24t-5.5 20t-8.5 21q-11 21 -28 30q-19 9 -48 9h-128v-331h206q33 0 55 9q20 7 46 36q50 58 111 160l6 -3l-95 -243zM234 735q19 33 42 89q11 26 20.5 44.5t16.5 29.5q11 15 26 15q13 0 21 -8q8 -10 8 -20
q0 -11 -6 -20q-5 -8 -18.5 -21.5t-34.5 -33.5q-44 -41 -69 -79z" />
    <glyph glyph-name="Ecircumflex" unicode="&#xca;" horiz-adv-x="615" 
d="M487 -29q2 14 -5 21q-8 8 -26 8h-237h-18t-24 1h-47h-38q-11 -1 -19 -1h-13h-16v8h1q33 0 42 9q9 8 9 40v567q0 32 -9 41q-10 8 -42 8h-1v8h16h32q11 -1 20.5 -1h17.5h21.5t25.5 1h42h224q20 0 28 8q7 7 5 22l6 2l92 -226l-6 -3q-38 54 -66.5 91t-46.5 57q-36 39 -96 39
h-195v-320h128q55 0 73 31t25 101h7v-277h-7q-2 17 -4 31t-4 24t-5.5 20t-8.5 21q-11 21 -28 30q-19 9 -48 9h-128v-331h206q33 0 55 9q20 7 46 36q50 58 111 160l6 -3l-95 -243zM403 731q-8 11 -16.5 20.5t-16.5 19.5q-8 9 -18.5 20t-23.5 24l-33 32l-32 -32l-24 -24
t-19 -20q-8 -10 -16.5 -19.5t-16.5 -20.5l-6 4l14 22t14 24q13 25 28 56q8 15 13 25.5t9 16.5q11 20 18 27t18 7q12 0 19 -7q4 -4 8 -10.5t9 -16.5q4 -6 9 -16.5t13 -25.5q8 -16 15 -29.5t14 -26.5t13.5 -24t13.5 -22z" />
    <glyph glyph-name="Edieresis" unicode="&#xcb;" horiz-adv-x="615" 
d="M487 -29q2 14 -5 21q-8 8 -26 8h-237h-18t-24 1h-47h-38q-11 -1 -19 -1h-13h-16v8h1q33 0 42 9q9 8 9 40v567q0 32 -9 41q-10 8 -42 8h-1v8h16h32q11 -1 20.5 -1h17.5h21.5t25.5 1h42h224q20 0 28 8q7 7 5 22l6 2l92 -226l-6 -3q-38 54 -66.5 91t-46.5 57q-36 39 -96 39
h-195v-320h128q55 0 73 31t25 101h7v-277h-7q-2 17 -4 31t-4 24t-5.5 20t-8.5 21q-11 21 -28 30q-19 9 -48 9h-128v-331h206q33 0 55 9q20 7 46 36q50 58 111 160l6 -3l-95 -243zM246 807q0 -19 -13 -31q-13 -13 -32 -13q-18 0 -31 13q-13 12 -13 31t13 32t31 13
q19 0 32 -13t13 -32zM435 807q0 -18 -13 -31t-32 -13t-31 13q-13 12 -13 31t13 32q12 13 31 13t32 -13t13 -32z" />
    <glyph glyph-name="Igrave" unicode="&#xcc;" horiz-adv-x="260" 
d="M164 57q0 -32 9 -40q9 -9 42 -9h1v-8h-16q-5 0 -13 0.5t-19 1.5t-20.5 1h-17.5h-17.5t-20.5 -1t-19 -1.5t-13 -0.5h-16v8h1q33 0 42 9q9 8 9 40v567q0 32 -9 41q-10 8 -42 8h-1v8h16h13t19 -1t20.5 -1.5t17.5 -0.5t17.5 0.5t20.5 1.5t19 1h13h16v-8h-1q-32 0 -42 -8
q-9 -9 -9 -41v-567zM185 731q-25 36 -68 78q-43 38 -54 56q-6 9 -6 20t9 20q8 8 20 8q16 0 26 -15q7 -11 16.5 -29.5t20.5 -44.5q23 -56 42 -89z" />
    <glyph glyph-name="Iacute" unicode="&#xcd;" horiz-adv-x="260" 
d="M164 57q0 -32 9 -40q9 -9 42 -9h1v-8h-16q-5 0 -13 0.5t-19 1.5t-20.5 1h-17.5h-17.5t-20.5 -1t-19 -1.5t-13 -0.5h-16v8h1q33 0 42 9q9 8 9 40v567q0 32 -9 41q-10 8 -42 8h-1v8h16h13t19 -1t20.5 -1.5t17.5 -0.5t17.5 0.5t20.5 1.5t19 1h13h16v-8h-1q-32 0 -42 -8
q-9 -9 -9 -41v-567zM69 735q19 33 42 89q11 26 20.5 44.5t16.5 29.5q11 15 26 15q11 0 21 -8q8 -10 8 -20q0 -11 -6 -20q-5 -8 -18.5 -21.5t-34.5 -33.5q-44 -41 -69 -79z" />
    <glyph glyph-name="Icircumflex" unicode="&#xce;" horiz-adv-x="260" 
d="M164 57q0 -32 9 -40q9 -9 42 -9h1v-8h-16q-5 0 -13 0.5t-19 1.5t-20.5 1h-17.5h-17.5t-20.5 -1t-19 -1.5t-13 -0.5h-16v8h1q33 0 42 9q9 8 9 40v567q0 32 -9 41q-10 8 -42 8h-1v8h16h13t19 -1t20.5 -1.5t17.5 -0.5t17.5 0.5t20.5 1.5t19 1h13h16v-8h-1q-32 0 -42 -8
q-9 -9 -9 -41v-567zM238 731q-8 11 -16.5 20.5t-16.5 19.5q-8 9 -18.5 20t-23.5 24l-33 32l-32 -32l-24 -24t-19 -20q-8 -10 -16.5 -19.5t-16.5 -20.5l-6 4l14 22t14 24q13 25 28 56q8 15 13 25.5t9 16.5q11 20 18 27t18 7q12 0 19 -7q4 -4 8 -10.5t9 -16.5q4 -6 9 -16.5
t13 -25.5q8 -16 15 -29.5t14 -26.5t13.5 -24t13.5 -22z" />
    <glyph glyph-name="Idieresis" unicode="&#xcf;" horiz-adv-x="260" 
d="M164 57q0 -32 9 -40q9 -9 42 -9h1v-8h-16q-5 0 -13 0.5t-19 1.5t-20.5 1h-17.5h-17.5t-20.5 -1t-19 -1.5t-13 -0.5h-16v8h1q33 0 42 9q9 8 9 40v567q0 32 -9 41q-10 8 -42 8h-1v8h16h13t19 -1t20.5 -1.5t17.5 -0.5t17.5 0.5t20.5 1.5t19 1h13h16v-8h-1q-32 0 -42 -8
q-9 -9 -9 -41v-567zM81 807q0 -19 -13 -31q-13 -13 -32 -13q-18 0 -31 13q-13 12 -13 31t13 32t31 13q19 0 32 -13t13 -32zM270 807q0 -18 -13 -31t-32 -13t-31 13q-13 12 -13 31t13 32q12 13 31 13t32 -13t13 -32z" />
    <glyph glyph-name="Eth" unicode="&#xd0;" horiz-adv-x="634" 
d="M599 340q0 -161 -85 -250q-85 -90 -220 -90h-75h-18t-24 1h-47h-38q-11 -1 -19 -1h-13h-16v8h1q33 0 42 9q9 8 9 40v285h-73v10h73v272q0 32 -9 41q-10 8 -42 8h-1v8h16h32q11 -1 20.5 -1h17.5h21.5t25.5 1h42h75q135 0 220 -90q85 -89 85 -251zM164 342v-332h114
q139 0 191 73q51 72 51 257t-51 258q-52 73 -191 73h-114v-319h136v-10h-136z" />
    <glyph glyph-name="Ntilde" unicode="&#xd1;" horiz-adv-x="690" 
d="M638 0h-11t-11 1h-17h-21q-7 -1 -12.5 -1h-10.5l-437 617v-486q0 -57 19 -89q18 -34 70 -34h1v-8h-25q-2 0 -9.5 0.5t-18.5 1.5t-21.5 1h-19.5h-19.5t-21.5 -1q-12 -1 -19.5 -1.5t-9.5 -0.5h-24v8h1q51 0 69 33t18 90v496q-1 1 -2.5 3.5t-4.5 6.5t-4.5 6.5t-2.5 3.5
q-3 3 -6 7q-2 3 -4 4.5t-3 2.5l-4 2t-4 3q-3 2 -9 4q-2 1 -5 1t-6 1q-5 1 -14 1h-1v8h7h30q8 -1 13.5 -1h9.5h12.5t17.5 1h29l418 -589v458q0 57 -18 90t-70 33h-1v8h25h9.5t18.5 -1t21.5 -1.5t19.5 -0.5t19.5 0.5t21.5 1.5t18.5 1h10.5h24v-8h-1q-52 0 -70 -33t-18 -90
v-472zM398 777q-21 0 -55 22q-34 21 -61 21q-10 0 -23 -11q-13 -10 -18 -18q-6 -7 -18 -27l-6 4q1 2 4.5 7t8.5 14q11 18 18 27q6 8 18 21q10 13 24 19q15 5 28 5q21 0 55 -21q34 -22 61 -22q10 0 24 11q6 5 10.5 10t7.5 9q2 4 6.5 10t10.5 16l6 -4q-34 -58 -58 -77
q-20 -16 -43 -16z" />
    <glyph glyph-name="Ograve" unicode="&#xd2;" horiz-adv-x="658" 
d="M329 -1q215 0 215 342q0 341 -215 341t-215 -341q0 -342 215 -342zM329 -10q-129 0 -211 100q-84 101 -84 251q0 151 84 251q83 99 211 99t212 -99q83 -101 83 -251t-83 -251q-84 -100 -212 -100zM384 731q-25 36 -68 78q-43 38 -54 56q-6 9 -6 20q0 10 8 20q8 8 21 8
q16 0 26 -15q7 -11 16.5 -29.5t20.5 -44.5q23 -56 42 -89z" />
    <glyph glyph-name="Oacute" unicode="&#xd3;" horiz-adv-x="658" 
d="M329 -1q215 0 215 342q0 341 -215 341t-215 -341q0 -342 215 -342zM329 -10q-129 0 -211 100q-84 101 -84 251q0 151 84 251q83 99 211 99t212 -99q83 -101 83 -251t-83 -251q-84 -100 -212 -100zM268 735q19 33 42 89q11 26 20.5 44.5t16.5 29.5q11 15 26 15q13 0 21 -8
q8 -10 8 -20q0 -11 -6 -20q-5 -8 -18.5 -21.5t-34.5 -33.5q-44 -41 -69 -79z" />
    <glyph glyph-name="Ocircumflex" unicode="&#xd4;" horiz-adv-x="658" 
d="M329 -1q215 0 215 342q0 341 -215 341t-215 -341q0 -342 215 -342zM329 -10q-129 0 -211 100q-84 101 -84 251q0 151 84 251q83 99 211 99t212 -99q83 -101 83 -251t-83 -251q-84 -100 -212 -100zM437 731q-8 11 -16.5 20.5t-16.5 19.5q-8 9 -18.5 20t-23.5 24l-33 32
l-32 -32l-24 -24t-19 -20q-8 -10 -16.5 -19.5t-16.5 -20.5l-6 4l14 22t14 24q13 25 28 56q8 15 13 25.5t9 16.5q11 20 18 27t18 7q12 0 19 -7q4 -4 8 -10.5t9 -16.5q4 -6 9 -16.5t13 -25.5q8 -16 15 -29.5t14 -26.5t13.5 -24t13.5 -22z" />
    <glyph glyph-name="Otilde" unicode="&#xd5;" horiz-adv-x="658" 
d="M329 -1q215 0 215 342q0 341 -215 341t-215 -341q0 -342 215 -342zM329 -10q-129 0 -211 100q-84 101 -84 251q0 151 84 251q83 99 211 99t212 -99q83 -101 83 -251t-83 -251q-84 -100 -212 -100zM369 777q-21 0 -55 22q-34 21 -61 21q-10 0 -23 -11q-13 -10 -18 -18
q-6 -7 -18 -27l-6 4q1 2 4.5 7t8.5 14q11 18 18 27q6 8 18 21q10 13 24 19q15 5 28 5q21 0 55 -21q34 -22 61 -22q10 0 24 11q6 5 10.5 10t7.5 9q2 4 6.5 10t10.5 16l6 -4q-34 -58 -58 -77q-20 -16 -43 -16z" />
    <glyph glyph-name="Odieresis" unicode="&#xd6;" horiz-adv-x="658" 
d="M329 -1q215 0 215 342q0 341 -215 341t-215 -341q0 -342 215 -342zM329 -10q-129 0 -211 100q-84 101 -84 251q0 151 84 251q83 99 211 99t212 -99q83 -101 83 -251t-83 -251q-84 -100 -212 -100zM280 807q0 -19 -13 -31q-13 -13 -32 -13q-18 0 -31 13q-13 12 -13 31
t13 32t31 13q19 0 32 -13t13 -32zM469 807q0 -18 -13 -31t-32 -13t-31 13q-13 12 -13 31t13 32q12 13 31 13t32 -13t13 -32z" />
    <glyph glyph-name="multiply" unicode="&#xd7;" horiz-adv-x="407" 
d="M210 323l163 -163l-7 -7l-163 163l-163 -163l-7 7l163 163l-162 162l7 7l162 -162l162 162l7 -7z" />
    <glyph glyph-name="Oslash" unicode="&#xd8;" horiz-adv-x="658" 
d="M329 -10q-99 0 -171 60l-64 -105l-8 5l64 106q-116 102 -116 285q0 151 84 251q83 99 211 99q99 0 171 -60l63 104l9 -5l-64 -105q116 -104 116 -284q0 -150 -83 -251q-84 -100 -212 -100zM329 682q-215 0 -215 -341q0 -171 54 -257l316 521q-53 77 -155 77zM329 -1
q215 0 215 342q0 170 -54 255l-317 -521q57 -76 156 -76z" />
    <glyph glyph-name="Ugrave" unicode="&#xd9;" horiz-adv-x="620" 
d="M533 211q0 -100 -57 -159q-57 -60 -156 -60q-240 0 -240 220v412q0 32 -9 41q-10 8 -42 8h-1v8h16h13t19 -1t20.5 -1.5t17.5 -0.5t17.5 0.5t20.5 1.5t19 1h13h16v-8h-1q-32 0 -42 -8q-9 -9 -9 -41v-371q0 -132 43 -190q42 -59 140 -59q87 0 139 57q53 56 53 150v339
q0 57 -18 90t-70 33h-1v8h25h9.5t18.5 -1t21.5 -1.5t19.5 -0.5t19.5 0.5t21.5 1.5t18.5 1h10.5h24v-8h-1q-52 0 -70 -33t-18 -90v-339zM382 731q-25 36 -68 78q-43 38 -54 56q-6 9 -6 20q0 10 8 20q8 8 21 8q16 0 26 -15q7 -11 16.5 -29.5t20.5 -44.5q23 -56 42 -89z" />
    <glyph glyph-name="Uacute" unicode="&#xda;" horiz-adv-x="620" 
d="M533 211q0 -100 -57 -159q-57 -60 -156 -60q-240 0 -240 220v412q0 32 -9 41q-10 8 -42 8h-1v8h16h13t19 -1t20.5 -1.5t17.5 -0.5t17.5 0.5t20.5 1.5t19 1h13h16v-8h-1q-32 0 -42 -8q-9 -9 -9 -41v-371q0 -132 43 -190q42 -59 140 -59q87 0 139 57q53 56 53 150v339
q0 57 -18 90t-70 33h-1v8h25h9.5t18.5 -1t21.5 -1.5t19.5 -0.5t19.5 0.5t21.5 1.5t18.5 1h10.5h24v-8h-1q-52 0 -70 -33t-18 -90v-339zM266 735q19 33 42 89q11 26 20.5 44.5t16.5 29.5q11 15 26 15q13 0 21 -8q8 -10 8 -20q0 -11 -6 -20q-5 -8 -18.5 -21.5t-34.5 -33.5
q-44 -41 -69 -79z" />
    <glyph glyph-name="Ucircumflex" unicode="&#xdb;" horiz-adv-x="620" 
d="M533 211q0 -100 -57 -159q-57 -60 -156 -60q-240 0 -240 220v412q0 32 -9 41q-10 8 -42 8h-1v8h16h13t19 -1t20.5 -1.5t17.5 -0.5t17.5 0.5t20.5 1.5t19 1h13h16v-8h-1q-32 0 -42 -8q-9 -9 -9 -41v-371q0 -132 43 -190q42 -59 140 -59q87 0 139 57q53 56 53 150v339
q0 57 -18 90t-70 33h-1v8h25h9.5t18.5 -1t21.5 -1.5t19.5 -0.5t19.5 0.5t21.5 1.5t18.5 1h10.5h24v-8h-1q-52 0 -70 -33t-18 -90v-339zM435 731q-8 11 -16.5 20.5t-16.5 19.5q-8 9 -18.5 20t-23.5 24l-33 32l-32 -32l-24 -24t-19 -20q-8 -10 -16.5 -19.5t-16.5 -20.5l-6 4
l14 22t14 24q13 25 28 56q8 15 13 25.5t9 16.5q11 20 18 27t18 7q12 0 19 -7q4 -4 8 -10.5t9 -16.5q4 -6 9 -16.5t13 -25.5q8 -16 15 -29.5t14 -26.5t13.5 -24t13.5 -22z" />
    <glyph glyph-name="Udieresis" unicode="&#xdc;" horiz-adv-x="620" 
d="M533 211q0 -100 -57 -159q-57 -60 -156 -60q-240 0 -240 220v412q0 32 -9 41q-10 8 -42 8h-1v8h16h13t19 -1t20.5 -1.5t17.5 -0.5t17.5 0.5t20.5 1.5t19 1h13h16v-8h-1q-32 0 -42 -8q-9 -9 -9 -41v-371q0 -132 43 -190q42 -59 140 -59q87 0 139 57q53 56 53 150v339
q0 57 -18 90t-70 33h-1v8h25h9.5t18.5 -1t21.5 -1.5t19.5 -0.5t19.5 0.5t21.5 1.5t18.5 1h10.5h24v-8h-1q-52 0 -70 -33t-18 -90v-339zM278 807q0 -19 -13 -31q-13 -13 -32 -13q-18 0 -31 13q-13 12 -13 31t13 32t31 13q19 0 32 -13t13 -32zM467 807q0 -18 -13 -31t-32 -13
t-31 13q-13 12 -13 31t13 32q12 13 31 13t32 -13t13 -32z" />
    <glyph glyph-name="Yacute" unicode="&#xdd;" horiz-adv-x="593" 
d="M339 57q0 -32 9 -40q9 -9 42 -9h1v-8h-16q-5 0 -13 0.5t-19 1.5t-20.5 1h-17.5h-17.5t-20.5 -1t-19 -1.5t-13 -0.5h-16v8h1q33 0 42 9q9 8 9 40v253l-202 313q-18 27 -36 39q-19 11 -45 11v8h29h10.5t18.5 -1t21 -1.5t19 -0.5t19.5 0.5t22.5 1.5t19.5 1h10.5h34v-8
q-28 0 -40 -5q-11 -6 -11 -20q0 -13 10 -29l183 -282l139 227q26 44 26 63q0 46 -64 46h-1v8h13h15.5t24.5 -1t24 -1.5t17 -0.5q3 0 12 0.5t23 1.5t23 1h13h19v-8h-1q-40 0 -71 -29q-29 -27 -66 -88l-141 -229v-270zM252 735q19 33 42 89q11 26 20.5 44.5t16.5 29.5
q11 15 26 15q13 0 21 -8q8 -10 8 -20q0 -11 -6 -20q-5 -8 -18.5 -21.5t-34.5 -33.5q-44 -41 -69 -79z" />
    <glyph glyph-name="Thorn" unicode="&#xde;" horiz-adv-x="566" 
d="M200 0q-5 0 -13 0.5t-19 1.5t-20.5 1h-17.5h-17.5t-20.5 -1t-19 -1.5t-13 -0.5h-16v8h1q33 0 42 9q9 8 9 40v567q0 32 -9 41q-10 8 -42 8h-1v8h16h13t19 -1t20.5 -1.5t17.5 -0.5t17.5 0.5t20.5 1.5t19 1h13h16v-8h-1q-32 0 -42 -8q-9 -9 -9 -41v-83h158q99 0 163 -48
q64 -49 64 -135q0 -87 -64 -136t-163 -49h-158v-116q0 -32 9 -40q9 -9 42 -9h1v-8h-16zM314 183q92 0 125 42q32 43 32 133q0 89 -32 132q-33 41 -125 41h-150v-348h150z" />
    <glyph glyph-name="germandbls" unicode="&#xdf;" horiz-adv-x="568" 
d="M546 159q0 -74 -46 -120q-47 -47 -106 -47q-20 0 -54 10t-47 10q-9 0 -16 -5q-6 -6 -5 -15l-6 -2l-50 172l6 3q90 -165 172 -165q47 0 77 35q29 35 29 83q0 85 -88 134l-65 36q-65 38 -65 80q0 24 12 43q12 18 45 51q59 61 59 129q0 100 -101 100q-77 0 -109 -45
q-32 -47 -32 -140v-506h-6t-11 1h-16h-40q-11 -1 -20 -1h-14h-14v7h1q35 0 45 9q9 9 9 41v424h-68v9h68q5 98 57 153q53 56 150 56q63 0 110 -26q47 -27 47 -77q0 -54 -71 -108q-61 -46 -61 -78q0 -18 15 -32q15 -15 51 -35l62 -34q96 -52 96 -150z" />
    <glyph glyph-name="agrave" unicode="&#xe0;" horiz-adv-x="500" 
d="M403 -8q-30 0 -45 19q-16 19 -16 47q-78 -66 -158 -66q-64 0 -98 34q-36 35 -36 93q0 108 163 172l129 52v78q0 40 -10 54q-10 15 -41 15q-50 0 -88 -26q-37 -25 -78 -75q-14 -17 -29 -17q-10 0 -18 8t-8 18q0 31 70 65q72 35 152 35q62 0 90 -23q26 -24 26 -68v-362
q0 -35 24 -35q25 0 46 36l5 -3q-27 -51 -80 -51zM193 3q35 0 76 19q20 9 38.5 20.5t34.5 25.5v18v248l-126 -52q-54 -23 -72 -61q-18 -39 -18 -100q0 -118 67 -118zM309 542q-25 36 -68 78q-43 38 -54 56q-6 9 -6 20q0 13 9 20q8 8 20 8q16 0 26 -15q7 -11 16.5 -29.5
t20.5 -44.5q23 -56 42 -89z" />
    <glyph glyph-name="aacute" unicode="&#xe1;" horiz-adv-x="500" 
d="M403 -8q-30 0 -45 19q-16 19 -16 47q-78 -66 -158 -66q-64 0 -98 34q-36 35 -36 93q0 108 163 172l129 52v78q0 40 -10 54q-10 15 -41 15q-50 0 -88 -26q-37 -25 -78 -75q-14 -17 -29 -17q-10 0 -18 8t-8 18q0 31 70 65q72 35 152 35q62 0 90 -23q26 -24 26 -68v-362
q0 -35 24 -35q25 0 46 36l5 -3q-27 -51 -80 -51zM193 3q35 0 76 19q20 9 38.5 20.5t34.5 25.5v18v248l-126 -52q-54 -23 -72 -61q-18 -39 -18 -100q0 -118 67 -118zM193 546q19 33 42 89q11 26 20.5 44.5t16.5 29.5q11 15 26 15q11 0 21 -8q8 -8 8 -20q0 -11 -6 -20
q-5 -8 -18.5 -21.5t-34.5 -33.5q-44 -41 -69 -79z" />
    <glyph glyph-name="acircumflex" unicode="&#xe2;" horiz-adv-x="500" 
d="M403 -8q-30 0 -45 19q-16 19 -16 47q-78 -66 -158 -66q-64 0 -98 34q-36 35 -36 93q0 108 163 172l129 52v78q0 40 -10 54q-10 15 -41 15q-50 0 -88 -26q-37 -25 -78 -75q-14 -17 -29 -17q-10 0 -18 8t-8 18q0 31 70 65q72 35 152 35q62 0 90 -23q26 -24 26 -68v-362
q0 -35 24 -35q25 0 46 36l5 -3q-27 -51 -80 -51zM193 3q35 0 76 19q20 9 38.5 20.5t34.5 25.5v18v248l-126 -52q-54 -23 -72 -61q-18 -39 -18 -100q0 -118 67 -118zM362 542q-8 11 -16.5 20.5t-16.5 19.5q-8 9 -18.5 20t-23.5 24l-33 32l-32 -32l-24 -24t-19 -20
q-8 -10 -16.5 -19.5t-16.5 -20.5l-6 4l14 22t14 24q13 25 28 56q8 15 13 25.5t9 16.5q11 20 18 27t18 7q12 0 19 -7q4 -4 8 -10.5t9 -16.5q4 -6 9 -16.5t13 -25.5q8 -16 15 -29.5t14 -26.5t13.5 -24t13.5 -22z" />
    <glyph glyph-name="atilde" unicode="&#xe3;" horiz-adv-x="500" 
d="M403 -8q-30 0 -45 19q-16 19 -16 47q-78 -66 -158 -66q-64 0 -98 34q-36 35 -36 93q0 108 163 172l129 52v78q0 40 -10 54q-10 15 -41 15q-50 0 -88 -26q-37 -25 -78 -75q-14 -17 -29 -17q-10 0 -18 8t-8 18q0 31 70 65q72 35 152 35q62 0 90 -23q26 -24 26 -68v-362
q0 -35 24 -35q25 0 46 36l5 -3q-27 -51 -80 -51zM193 3q35 0 76 19q20 9 38.5 20.5t34.5 25.5v18v248l-126 -52q-54 -23 -72 -61q-18 -39 -18 -100q0 -118 67 -118zM294 588q-21 0 -55 22q-34 21 -61 21q-10 0 -23 -11q-13 -10 -18 -18q-6 -7 -18 -27l-6 4q1 2 4.5 7t8.5 14
q11 18 18 27q6 8 18 21q10 13 24 19q15 5 28 5q21 0 55 -21q34 -22 61 -22q10 0 24 11q6 5 10.5 10t7.5 9q2 4 6.5 10t10.5 16l6 -4q-34 -58 -58 -77q-20 -16 -43 -16z" />
    <glyph glyph-name="adieresis" unicode="&#xe4;" horiz-adv-x="500" 
d="M403 -8q-30 0 -45 19q-16 19 -16 47q-78 -66 -158 -66q-64 0 -98 34q-36 35 -36 93q0 108 163 172l129 52v78q0 40 -10 54q-10 15 -41 15q-50 0 -88 -26q-37 -25 -78 -75q-14 -17 -29 -17q-10 0 -18 8t-8 18q0 31 70 65q72 35 152 35q62 0 90 -23q26 -24 26 -68v-362
q0 -35 24 -35q25 0 46 36l5 -3q-27 -51 -80 -51zM193 3q35 0 76 19q20 9 38.5 20.5t34.5 25.5v18v248l-126 -52q-54 -23 -72 -61q-18 -39 -18 -100q0 -118 67 -118zM205 628q0 -19 -13 -31q-13 -13 -32 -13q-18 0 -31 13q-13 12 -13 31t13 32t31 13q19 0 32 -13t13 -32z
M394 628q0 -18 -13 -31t-32 -13t-31 13q-13 12 -13 31t13 32q12 13 31 13t32 -13t13 -32z" />
    <glyph glyph-name="aring" unicode="&#xe5;" horiz-adv-x="500" 
d="M403 -8q-30 0 -45 19q-16 19 -16 47q-78 -66 -158 -66q-64 0 -98 34q-36 35 -36 93q0 108 163 172l129 52v78q0 40 -10 54q-10 15 -41 15q-50 0 -88 -26q-37 -25 -78 -75q-14 -17 -29 -17q-10 0 -18 8t-8 18q0 31 70 65q72 35 152 35q62 0 90 -23q26 -24 26 -68v-362
q0 -35 24 -35q25 0 46 36l5 -3q-27 -51 -80 -51zM193 3q35 0 76 19q20 9 38.5 20.5t34.5 25.5v18v248l-126 -52q-54 -23 -72 -61q-18 -39 -18 -100q0 -118 67 -118zM338 639q0 -35 -24 -61q-24 -25 -60 -25t-60 25q-24 26 -24 61q0 36 24 61t60 25t60 -25t24 -61zM328 639
q0 32 -21 54t-53 22t-53 -22t-21 -54q0 -30 21 -53t53 -23t53 23t21 53z" />
    <glyph glyph-name="ae" unicode="&#xe6;" horiz-adv-x="770" 
d="M544 -8q-102 0 -164 99q-78 -99 -181 -99q-61 0 -105 39t-44 118q0 82 65 129t157 47h70v94q0 40 -9 56q-10 15 -42 15q-52 0 -87 -25q-18 -13 -37.5 -32t-41.5 -44q-14 -17 -29 -17q-10 0 -18 8t-8 18q0 31 70 65q72 35 152 35q55 0 78 -17q23 -18 29 -59q58 76 150 76
q70 0 125 -49q56 -50 51 -133h-314q-1 -8 -1 -19v-26q0 -109 44 -183t115 -74q106 0 149 126l6 -2q-47 -146 -180 -146zM204 2q95 0 171 96q-33 65 -33 168v50h-68q-83 0 -115 -39q-33 -40 -33 -126q0 -149 78 -149zM545 490q-55 0 -89 -43q-35 -44 -44 -122h245
q-4 165 -112 165z" />
    <glyph glyph-name="ccedilla" unicode="&#xe7;" horiz-adv-x="472" 
d="M312 -117q0 -51 -60 -88t-128 -45l-1 7q65 8 106 41q40 34 40 70q0 41 -51 41q-35 0 -56 -12l-3 3l79 92q-80 6 -138 73t-58 172q0 119 64 190q65 71 151 71q70 0 120 -43q51 -43 51 -88q0 -13 -7 -20q-8 -8 -20 -8q-19 0 -27 20q-1 3 -3 12t-5 23q-19 96 -110 96
q-67 0 -102 -59q-36 -58 -36 -155q0 -124 46 -192q46 -70 113 -70q107 0 149 126l6 -2q-48 -150 -187 -146l-30 -50q7 1 12 1.5t8 0.5q34 0 56 -16q21 -17 21 -45z" />
    <glyph glyph-name="egrave" unicode="&#xe8;" horiz-adv-x="478" 
d="M252 -8q-84 0 -147 68t-63 176q0 121 64 191q65 71 151 71q70 0 125 -49q56 -50 51 -133h-314q-1 -8 -1 -19v-26q0 -109 44 -183t115 -74q106 0 149 126l6 -2q-47 -146 -180 -146zM365 325q-4 165 -113 165q-56 0 -89 -46q-34 -46 -43 -119h245zM309 542q-25 36 -68 78
q-43 38 -54 56q-6 9 -6 20q0 13 9 20q8 8 20 8q16 0 26 -15q7 -11 16.5 -29.5t20.5 -44.5q23 -56 42 -89z" />
    <glyph glyph-name="eacute" unicode="&#xe9;" horiz-adv-x="478" 
d="M252 -8q-84 0 -147 68t-63 176q0 121 64 191q65 71 151 71q70 0 125 -49q56 -50 51 -133h-314q-1 -8 -1 -19v-26q0 -109 44 -183t115 -74q106 0 149 126l6 -2q-47 -146 -180 -146zM365 325q-4 165 -113 165q-56 0 -89 -46q-34 -46 -43 -119h245zM193 546q19 33 42 89
q11 26 20.5 44.5t16.5 29.5q11 15 26 15q11 0 21 -8q8 -8 8 -20q0 -11 -6 -20q-5 -8 -18.5 -21.5t-34.5 -33.5q-44 -41 -69 -79z" />
    <glyph glyph-name="ecircumflex" unicode="&#xea;" horiz-adv-x="478" 
d="M252 -8q-84 0 -147 68t-63 176q0 121 64 191q65 71 151 71q70 0 125 -49q56 -50 51 -133h-314q-1 -8 -1 -19v-26q0 -109 44 -183t115 -74q106 0 149 126l6 -2q-47 -146 -180 -146zM365 325q-4 165 -113 165q-56 0 -89 -46q-34 -46 -43 -119h245zM362 542
q-8 11 -16.5 20.5t-16.5 19.5q-8 9 -18.5 20t-23.5 24l-33 32l-32 -32l-24 -24t-19 -20q-8 -10 -16.5 -19.5t-16.5 -20.5l-6 4l14 22t14 24q13 25 28 56q8 15 13 25.5t9 16.5q11 20 18 27t18 7q12 0 19 -7q4 -4 8 -10.5t9 -16.5q4 -6 9 -16.5t13 -25.5q8 -16 15 -29.5
t14 -26.5t13.5 -24t13.5 -22z" />
    <glyph glyph-name="edieresis" unicode="&#xeb;" horiz-adv-x="478" 
d="M252 -8q-84 0 -147 68t-63 176q0 121 64 191q65 71 151 71q70 0 125 -49q56 -50 51 -133h-314q-1 -8 -1 -19v-26q0 -109 44 -183t115 -74q106 0 149 126l6 -2q-47 -146 -180 -146zM365 325q-4 165 -113 165q-56 0 -89 -46q-34 -46 -43 -119h245zM205 628q0 -19 -13 -31
q-13 -13 -32 -13q-18 0 -31 13q-13 12 -13 31t13 32t31 13q19 0 32 -13t13 -32zM394 628q0 -18 -13 -31t-32 -13t-31 13q-13 12 -13 31t13 32q12 13 31 13t32 -13t13 -32z" />
    <glyph glyph-name="igrave" unicode="&#xec;" horiz-adv-x="254" 
d="M205 0q-5 0 -14 0.5t-20 1.5t-21.5 1h-18.5h-18.5t-21.5 -1t-20 -1.5t-14 -0.5h-14v7h1q35 0 45 9q9 9 9 41v342q0 32 -9 41q-11 8 -45 8h-1v7h6q35 0 68 13q35 14 41 30h6v-441q0 -32 10 -41q9 -9 44 -9h1v-7h-14zM186 542q-25 36 -68 78q-43 38 -54 56q-6 9 -6 20
q0 12 8 20t21 8q16 0 26 -15q7 -11 16.5 -29.5t20.5 -44.5q23 -56 42 -89z" />
    <glyph glyph-name="iacute" unicode="&#xed;" horiz-adv-x="254" 
d="M205 0q-5 0 -14 0.5t-20 1.5t-21.5 1h-18.5h-18.5t-21.5 -1t-20 -1.5t-14 -0.5h-14v7h1q35 0 45 9q9 9 9 41v342q0 32 -9 41q-11 8 -45 8h-1v7h6q35 0 68 13q35 14 41 30h6v-441q0 -32 10 -41q9 -9 44 -9h1v-7h-14zM70 546q19 33 42 89q11 26 20.5 44.5t16.5 29.5
q11 15 26 15q13 0 21 -8t8 -20q0 -11 -6 -20q-5 -8 -18.5 -21.5t-34.5 -33.5q-44 -41 -69 -79z" />
    <glyph glyph-name="icircumflex" unicode="&#xee;" horiz-adv-x="254" 
d="M205 0q-5 0 -14 0.5t-20 1.5t-21.5 1h-18.5h-18.5t-21.5 -1t-20 -1.5t-14 -0.5h-14v7h1q35 0 45 9q9 9 9 41v342q0 32 -9 41q-11 8 -45 8h-1v7h6q35 0 68 13q35 14 41 30h6v-441q0 -32 10 -41q9 -9 44 -9h1v-7h-14zM239 542q-8 11 -16.5 20.5t-16.5 19.5q-8 9 -18.5 20
t-23.5 24l-33 32l-32 -32l-24 -24t-19 -20q-8 -10 -16.5 -19.5t-16.5 -20.5l-6 4l14 22t14 24q13 25 28 56q8 15 13 25.5t9 16.5q11 20 18 27t18 7q12 0 19 -7q4 -4 8 -10.5t9 -16.5q4 -6 9 -16.5t13 -25.5q8 -16 15 -29.5t14 -26.5t13.5 -24t13.5 -22z" />
    <glyph glyph-name="idieresis" unicode="&#xef;" horiz-adv-x="254" 
d="M205 0q-5 0 -14 0.5t-20 1.5t-21.5 1h-18.5h-18.5t-21.5 -1t-20 -1.5t-14 -0.5h-14v7h1q35 0 45 9q9 9 9 41v342q0 32 -9 41q-11 8 -45 8h-1v7h6q35 0 68 13q35 14 41 30h6v-441q0 -32 10 -41q9 -9 44 -9h1v-7h-14zM82 628q0 -19 -13 -31q-13 -13 -32 -13q-18 0 -31 13
q-13 12 -13 31t13 32t31 13q19 0 32 -13t13 -32zM271 628q0 -18 -13 -31t-32 -13t-31 13q-13 12 -13 31t13 32q12 13 31 13t32 -13t13 -32z" />
    <glyph glyph-name="eth" unicode="&#xf0;" horiz-adv-x="512" 
d="M255 -8q-88 0 -151 74t-63 179q0 107 63 180t151 73q66 0 112 -42q-28 90 -95 151l-106 -71l-5 7l104 70q-67 55 -162 73l2 8q98 -19 176 -71l97 65l5 -7l-95 -63q84 -56 134 -142q48 -85 48 -182q0 -81 -20 -144q-20 -62 -53 -94q-33 -33 -68 -48q-35 -16 -74 -16z
M255 0q33 0 57 11q11 5 22 14.5t21 23.5t17 35t12 49q9 56 9 142q0 96 -21 166q-46 49 -117 49q-69 0 -103 -52q-35 -53 -35 -193t35 -193q34 -52 103 -52z" />
    <glyph glyph-name="ntilde" unicode="&#xf1;" horiz-adv-x="547" 
d="M500 0q-6 0 -14.5 0.5t-19.5 1.5t-21 1h-19h-19t-21 -1t-19.5 -1.5t-14.5 -0.5h-14v7h1q35 0 45 9q9 9 9 41v374q0 48 -35 48q-17 0 -85 -24l-109 -42v-356q0 -32 10 -41q9 -9 44 -9h1v-7h-14q-5 0 -14 0.5t-20 1.5t-21.5 1h-18.5h-18.5t-21.5 -1t-20 -1.5t-14 -0.5h-14
v7h1q35 0 45 9q9 9 9 41v342q0 32 -9 41q-11 8 -45 8h-1v7h6q35 0 68 13q35 14 41 30h6v-76l106 41q90 35 127 35q62 0 62 -70v-371q0 -32 10 -41q9 -9 44 -9h1v-7h-14zM319 588q-21 0 -55 22q-34 21 -61 21q-10 0 -23 -11q-13 -10 -18 -18q-6 -7 -18 -27l-6 4q1 2 4.5 7
t8.5 14q11 18 18 27q6 8 18 21q10 13 24 19q15 5 28 5q21 0 55 -21q34 -22 61 -22q10 0 24 11q6 5 10.5 10t7.5 9q2 4 6.5 10t10.5 16l6 -4q-34 -58 -58 -77q-20 -16 -43 -16z" />
    <glyph glyph-name="ograve" unicode="&#xf2;" horiz-adv-x="512" 
d="M256 -8q-88 0 -151 74t-63 179q0 107 63 180t151 73t151 -73t63 -180q0 -105 -63 -179t-151 -74zM256 0q70 0 104 52q34 50 34 193q0 142 -34 194q-34 51 -104 51q-68 0 -103 -51q-35 -53 -35 -194t35 -193q34 -52 103 -52zM311 542q-25 36 -68 78q-43 38 -54 56
q-6 9 -6 20q0 13 9 20q8 8 20 8q16 0 26 -15q7 -11 16.5 -29.5t20.5 -44.5q23 -56 42 -89z" />
    <glyph glyph-name="oacute" unicode="&#xf3;" horiz-adv-x="512" 
d="M256 -8q-88 0 -151 74t-63 179q0 107 63 180t151 73t151 -73t63 -180q0 -105 -63 -179t-151 -74zM256 0q70 0 104 52q34 50 34 193q0 142 -34 194q-34 51 -104 51q-68 0 -103 -51q-35 -53 -35 -194t35 -193q34 -52 103 -52zM195 546q19 33 42 89q11 26 20.5 44.5
t16.5 29.5q11 15 26 15q11 0 21 -8q8 -8 8 -20q0 -11 -6 -20q-5 -8 -18.5 -21.5t-34.5 -33.5q-44 -41 -69 -79z" />
    <glyph glyph-name="ocircumflex" unicode="&#xf4;" horiz-adv-x="512" 
d="M256 -8q-88 0 -151 74t-63 179q0 107 63 180t151 73t151 -73t63 -180q0 -105 -63 -179t-151 -74zM256 0q70 0 104 52q34 50 34 193q0 142 -34 194q-34 51 -104 51q-68 0 -103 -51q-35 -53 -35 -194t35 -193q34 -52 103 -52zM364 542q-8 11 -16.5 20.5t-16.5 19.5
q-8 9 -18.5 20t-23.5 24l-33 32l-32 -32l-24 -24t-19 -20q-8 -10 -16.5 -19.5t-16.5 -20.5l-6 4l14 22t14 24q13 25 28 56q8 15 13 25.5t9 16.5q11 20 18 27t18 7q12 0 19 -7q4 -4 8 -10.5t9 -16.5q4 -6 9 -16.5t13 -25.5q8 -16 15 -29.5t14 -26.5t13.5 -24t13.5 -22z" />
    <glyph glyph-name="otilde" unicode="&#xf5;" horiz-adv-x="512" 
d="M256 -8q-88 0 -151 74t-63 179q0 107 63 180t151 73t151 -73t63 -180q0 -105 -63 -179t-151 -74zM256 0q70 0 104 52q34 50 34 193q0 142 -34 194q-34 51 -104 51q-68 0 -103 -51q-35 -53 -35 -194t35 -193q34 -52 103 -52zM296 588q-21 0 -55 22q-34 21 -61 21
q-10 0 -23 -11q-13 -10 -18 -18q-6 -7 -18 -27l-6 4q1 2 4.5 7t8.5 14q11 18 18 27q6 8 18 21q10 13 24 19q15 5 28 5q21 0 55 -21q34 -22 61 -22q10 0 24 11q6 5 10.5 10t7.5 9q2 4 6.5 10t10.5 16l6 -4q-34 -58 -58 -77q-20 -16 -43 -16z" />
    <glyph glyph-name="odieresis" unicode="&#xf6;" horiz-adv-x="512" 
d="M256 -8q-88 0 -151 74t-63 179q0 107 63 180t151 73t151 -73t63 -180q0 -105 -63 -179t-151 -74zM256 0q70 0 104 52q34 50 34 193q0 142 -34 194q-34 51 -104 51q-68 0 -103 -51q-35 -53 -35 -194t35 -193q34 -52 103 -52zM207 628q0 -19 -13 -31q-13 -13 -32 -13
q-18 0 -31 13q-13 12 -13 31t13 32t31 13q19 0 32 -13t13 -32zM396 628q0 -18 -13 -31t-32 -13t-31 13q-13 12 -13 31t13 32q12 13 31 13t32 -13t13 -32z" />
    <glyph glyph-name="divide" unicode="&#xf7;" horiz-adv-x="530" 
d="M259 426q-20 0 -34 14t-14 34q0 21 14 35t34 14q19 0 35 -14q14 -14 14 -35q0 -20 -14 -34t-35 -14zM45 327h440v-10h-440v10zM259 122q-20 0 -34 14t-14 34q0 21 14 35t34 14q19 0 35 -14q14 -14 14 -35q0 -20 -14 -34t-35 -14z" />
    <glyph glyph-name="oslash" unicode="&#xf8;" horiz-adv-x="512" 
d="M256 -8q-66 0 -122 44l-53 -86l-7 5l53 87q-85 73 -85 203q0 107 63 180t151 73q67 0 122 -45l53 88l8 -5l-54 -88q85 -78 85 -203q0 -105 -63 -179t-151 -74zM256 0q70 0 104 52q34 50 34 193q0 114 -26 175l-220 -360q32 -60 108 -60zM256 490q-68 0 -103 -51
q-35 -53 -35 -194q0 -115 26 -176l219 361q-31 60 -107 60z" />
    <glyph glyph-name="ugrave" unicode="&#xf9;" horiz-adv-x="534" 
d="M485 0h-14t-20 1t-21.5 1h-18.5h-9.5t-9.5 -1t-8.5 -1h-5.5v68l-101 -41q-87 -35 -127 -35q-62 0 -62 70v337q0 32 -9 41q-11 8 -45 8h-1v7h6q35 0 68 13q35 14 41 30h6v-439q0 -48 35 -48q24 0 85 24l104 42v322q0 32 -9 41q-11 8 -45 8h-1v7h6q35 0 68 13q35 14 41 30
h6v-441q0 -32 10 -41q9 -9 44 -9h1v-7h-14zM321 542q-25 36 -68 78q-43 38 -54 56q-6 9 -6 20q0 13 9 20q8 8 20 8q16 0 26 -15q7 -11 16.5 -29.5t20.5 -44.5q23 -56 42 -89z" />
    <glyph glyph-name="uacute" unicode="&#xfa;" horiz-adv-x="534" 
d="M485 0h-14t-20 1t-21.5 1h-18.5h-9.5t-9.5 -1t-8.5 -1h-5.5v68l-101 -41q-87 -35 -127 -35q-62 0 -62 70v337q0 32 -9 41q-11 8 -45 8h-1v7h6q35 0 68 13q35 14 41 30h6v-439q0 -48 35 -48q24 0 85 24l104 42v322q0 32 -9 41q-11 8 -45 8h-1v7h6q35 0 68 13q35 14 41 30
h6v-441q0 -32 10 -41q9 -9 44 -9h1v-7h-14zM205 546q19 33 42 89q11 26 20.5 44.5t16.5 29.5q11 15 26 15q11 0 21 -8q8 -8 8 -20q0 -11 -6 -20q-5 -8 -18.5 -21.5t-34.5 -33.5q-44 -41 -69 -79z" />
    <glyph glyph-name="ucircumflex" unicode="&#xfb;" horiz-adv-x="534" 
d="M485 0h-14t-20 1t-21.5 1h-18.5h-9.5t-9.5 -1t-8.5 -1h-5.5v68l-101 -41q-87 -35 -127 -35q-62 0 -62 70v337q0 32 -9 41q-11 8 -45 8h-1v7h6q35 0 68 13q35 14 41 30h6v-439q0 -48 35 -48q24 0 85 24l104 42v322q0 32 -9 41q-11 8 -45 8h-1v7h6q35 0 68 13q35 14 41 30
h6v-441q0 -32 10 -41q9 -9 44 -9h1v-7h-14zM374 542q-8 11 -16.5 20.5t-16.5 19.5q-8 9 -18.5 20t-23.5 24l-33 32l-32 -32l-24 -24t-19 -20q-8 -10 -16.5 -19.5t-16.5 -20.5l-6 4l14 22t14 24q13 25 28 56q8 15 13 25.5t9 16.5q11 20 18 27t18 7q12 0 19 -7q4 -4 8 -10.5
t9 -16.5q4 -6 9 -16.5t13 -25.5q8 -16 15 -29.5t14 -26.5t13.5 -24t13.5 -22z" />
    <glyph glyph-name="udieresis" unicode="&#xfc;" horiz-adv-x="534" 
d="M485 0h-14t-20 1t-21.5 1h-18.5h-9.5t-9.5 -1t-8.5 -1h-5.5v68l-101 -41q-87 -35 -127 -35q-62 0 -62 70v337q0 32 -9 41q-11 8 -45 8h-1v7h6q35 0 68 13q35 14 41 30h6v-439q0 -48 35 -48q24 0 85 24l104 42v322q0 32 -9 41q-11 8 -45 8h-1v7h6q35 0 68 13q35 14 41 30
h6v-441q0 -32 10 -41q9 -9 44 -9h1v-7h-14zM217 628q0 -19 -13 -31q-13 -13 -32 -13q-18 0 -31 13q-13 12 -13 31t13 32t31 13q19 0 32 -13t13 -32zM406 628q0 -18 -13 -31t-32 -13t-31 13q-13 12 -13 31t13 32q12 13 31 13t32 -13t13 -32z" />
    <glyph glyph-name="yacute" unicode="&#xfd;" horiz-adv-x="465" 
d="M297 0h-10t-10 1h-16h-11q-5 -1 -8.5 -1h-6.5l-20 -45q-50 -111 -82 -150q-33 -41 -95 -41q-41 0 -41 27q0 12 8 18q7 7 20 7t37 -7q26 -6 35 -6q27 0 49 33q11 17 26.5 47t34.5 75l19 42l-164 434q-10 27 -25 39q-14 10 -43 10v7h23h10t18 -1t20.5 -1.5t19.5 -0.5
t20 0.5t21 1.5t17.5 1h8.5h24v-7q-50 0 -50 -24q0 -6 3 -15l135 -357l110 309q8 22 8 40q0 47 -66 47v7h10h15t20 -1t20.5 -1.5t16.5 -0.5q8 0 17.5 0.5t20.5 1.5t19 1h12h17v-7q-39 -1 -63 -25q-22 -22 -39 -66l-113 -317zM181 546q19 33 42 89q11 26 20.5 44.5t16.5 29.5
q11 15 26 15q11 0 21 -8q8 -8 8 -20q0 -11 -6 -20q-5 -8 -18.5 -21.5t-34.5 -33.5q-44 -41 -69 -79z" />
    <glyph glyph-name="thorn" unicode="&#xfe;" horiz-adv-x="539" 
d="M156 -169q0 -30 14 -41q14 -9 51 -9h14v-7h-23h-17t-24 1t-25.5 1.5t-22.5 0.5q-8 0 -18.5 -0.5t-21.5 -1.5t-20 -1h-14h-14v7h1q35 0 45 9q9 9 9 41v794q0 32 -9 41q-11 8 -45 8h-1v7h6q35 0 68 13q35 14 41 30h6v-290q70 64 152 64q74 0 129 -61t55 -192t-55 -192
t-129 -61q-76 0 -152 64v-225zM416 245q0 38 -2 69.5t-6 56.5q-7 50 -24 75q-16 25 -33 34q-18 9 -43 9q-79 0 -152 -67v-354q79 -67 152 -67q25 0 43 9q17 9 33 34q17 26 24 75q4 25 6 56.5t2 69.5z" />
    <glyph glyph-name="ydieresis" unicode="&#xff;" horiz-adv-x="465" 
d="M297 0h-10t-10 1h-16h-11q-5 -1 -8.5 -1h-6.5l-20 -45q-50 -111 -82 -150q-33 -41 -95 -41q-41 0 -41 27q0 12 8 18q7 7 20 7t37 -7q26 -6 35 -6q27 0 49 33q11 17 26.5 47t34.5 75l19 42l-164 434q-10 27 -25 39q-14 10 -43 10v7h23h10t18 -1t20.5 -1.5t19.5 -0.5
t20 0.5t21 1.5t17.5 1h8.5h24v-7q-50 0 -50 -24q0 -6 3 -15l135 -357l110 309q8 22 8 40q0 47 -66 47v7h10h15t20 -1t20.5 -1.5t16.5 -0.5q8 0 17.5 0.5t20.5 1.5t19 1h12h17v-7q-39 -1 -63 -25q-22 -22 -39 -66l-113 -317zM193 628q0 -19 -13 -31q-13 -13 -32 -13
q-18 0 -31 13q-13 12 -13 31t13 32t31 13q19 0 32 -13t13 -32zM382 628q0 -18 -13 -31t-32 -13t-31 13q-13 12 -13 31t13 32q12 13 31 13t32 -13t13 -32z" />
    <glyph glyph-name="Amacron" unicode="&#x100;" horiz-adv-x="638" 
d="M632 0q-3 0 -11 0.5t-21 1.5t-23 1h-18h-20t-25 -1t-22 -1.5t-10 -0.5h-21v8q52 0 52 31q0 12 -7 25l-52 124h-322l-27 -68q-14 -39 -14 -59q0 -53 71 -53v-8h-12q-5 0 -15.5 0.5t-25.5 1.5t-25.5 1h-17.5h-12t-22 -1t-23 -1.5t-13 -0.5h-21v8q41 1 69 28q28 26 51 86
l187 478l-34 81h21q6 -1 10.5 -1h7.5h7.5t9.5 1h18l260 -621q22 -52 71 -52v-8h-21zM136 198h314l-162 391zM176 797v22h240v-22h-240z" />
    <glyph glyph-name="amacron" unicode="&#x101;" horiz-adv-x="500" 
d="M403 -8q-30 0 -45 19q-16 19 -16 47q-78 -66 -158 -66q-64 0 -98 34q-36 35 -36 93q0 108 163 172l129 52v78q0 40 -10 54q-10 15 -41 15q-50 0 -88 -26q-37 -25 -78 -75q-14 -17 -29 -17q-10 0 -18 8t-8 18q0 31 70 65q72 35 152 35q62 0 90 -23q26 -24 26 -68v-362
q0 -35 24 -35q25 0 46 36l5 -3q-27 -51 -80 -51zM193 3q35 0 76 19q20 9 38.5 20.5t34.5 25.5v18v248l-126 -52q-54 -23 -72 -61q-18 -39 -18 -100q0 -118 67 -118zM133 608v22h240v-22h-240z" />
    <glyph glyph-name="Abreve" unicode="&#x102;" horiz-adv-x="638" 
d="M632 0q-3 0 -11 0.5t-21 1.5t-23 1h-18h-20t-25 -1t-22 -1.5t-10 -0.5h-21v8q52 0 52 31q0 12 -7 25l-52 124h-322l-27 -68q-14 -39 -14 -59q0 -53 71 -53v-8h-12q-5 0 -15.5 0.5t-25.5 1.5t-25.5 1h-17.5h-12t-22 -1t-23 -1.5t-13 -0.5h-21v8q41 1 69 28q28 26 51 86
l187 478l-34 81h21q6 -1 10.5 -1h7.5h7.5t9.5 1h18l260 -621q22 -52 71 -52v-8h-21zM136 198h314l-162 391zM297 758q-46 0 -79 35q-34 35 -50 80l6 3q34 -67 123 -67t123 67l6 -3q-16 -45 -50 -80q-33 -35 -79 -35z" />
    <glyph glyph-name="abreve" unicode="&#x103;" horiz-adv-x="500" 
d="M403 -8q-30 0 -45 19q-16 19 -16 47q-78 -66 -158 -66q-64 0 -98 34q-36 35 -36 93q0 108 163 172l129 52v78q0 40 -10 54q-10 15 -41 15q-50 0 -88 -26q-37 -25 -78 -75q-14 -17 -29 -17q-10 0 -18 8t-8 18q0 31 70 65q72 35 152 35q62 0 90 -23q26 -24 26 -68v-362
q0 -35 24 -35q25 0 46 36l5 -3q-27 -51 -80 -51zM193 3q35 0 76 19q20 9 38.5 20.5t34.5 25.5v18v248l-126 -52q-54 -23 -72 -61q-18 -39 -18 -100q0 -118 67 -118zM254 569q-46 0 -79 35q-34 35 -50 80l6 3q34 -67 123 -67t123 67l6 -3q-16 -45 -50 -80q-33 -35 -79 -35z
" />
    <glyph glyph-name="Aogonek" unicode="&#x104;" horiz-adv-x="638" 
d="M481 -178q-39 0 -62 18q-23 20 -23 49q0 32 43 63q22 16 44.5 29t47.5 24l-77 183h-322l-27 -68q-14 -39 -14 -59q0 -53 71 -53v-8h-12q-5 0 -15.5 0.5t-25.5 1.5t-25.5 1h-17.5h-12t-22 -1t-23 -1.5t-13 -0.5h-21v8q41 1 69 28q28 26 51 86l187 478l-34 81h21
q6 -1 10.5 -1h7.5h7.5t9.5 1h18l260 -621q22 -52 71 -52v-8h-21q-3 0 -11 0.5t-21 1.5t-23 1h-18h-8t-9 -1q-88 -40 -88 -96q0 -28 18 -44q16 -16 44 -16q42 0 73 40l6 -4q-18 -25 -49 -43q-32 -17 -65 -17zM288 589l-152 -391h314z" />
    <glyph glyph-name="aogonek" unicode="&#x105;" horiz-adv-x="500" 
d="M403 -8q-30 0 -45 19q-16 19 -16 47q-78 -66 -158 -66q-64 0 -98 34q-36 35 -36 93q0 108 163 172l129 52v78q0 40 -10 54q-10 15 -41 15q-50 0 -88 -26q-37 -25 -78 -75q-14 -17 -29 -17q-10 0 -18 8t-8 18q0 31 70 65q72 35 152 35q62 0 90 -23q26 -24 26 -68v-362
q0 -35 24 -35q25 0 46 36l5 -3q-18 -34 -53 -48q-78 -36 -78 -89q0 -28 18 -44q16 -16 44 -16q42 0 73 40l6 -4q-18 -25 -49 -43q-32 -17 -65 -17q-39 0 -62 18q-23 20 -23 49q0 47 114 103h-5zM193 3q35 0 76 19q20 9 38.5 20.5t34.5 25.5v266l-126 -52q-54 -23 -72 -61
q-18 -39 -18 -100q0 -118 67 -118z" />
    <glyph glyph-name="Cacute" unicode="&#x106;" horiz-adv-x="612" 
d="M317 -8q-125 0 -204 100q-79 98 -79 251q0 84 29 156q29 71 73 110q43 40 93 61q48 21 94 21q35 0 78 -9q41 -10 52 -10q35 0 33 33l6 2l92 -227l-6 -3q-67 112 -128 159q-59 46 -127 46q-93 0 -161 -75q-69 -76 -69 -200q0 -164 78 -265q77 -102 192 -102q138 0 213 140
l7 -3q-37 -78 -109 -132q-73 -53 -157 -53zM261 737q19 33 42 89q11 26 20.5 44.5t16.5 29.5q11 15 26 15q11 0 21 -8q8 -10 8 -20q0 -11 -6 -20q-5 -8 -18.5 -21.5t-34.5 -33.5q-44 -41 -69 -79z" />
    <glyph glyph-name="cacute" unicode="&#x107;" horiz-adv-x="472" 
d="M252 -8q-84 0 -147 68t-63 177q0 119 64 190q65 71 151 71q70 0 120 -43q51 -43 51 -88q0 -13 -7 -20q-8 -8 -20 -8q-19 0 -27 20q-1 3 -3 12t-5 23q-19 96 -110 96q-67 0 -102 -59q-36 -58 -36 -155q0 -124 46 -192q46 -70 113 -70q107 0 149 126l6 -2
q-47 -146 -180 -146zM195 546q19 33 42 89q11 26 20.5 44.5t16.5 29.5q11 15 26 15q11 0 21 -8q8 -8 8 -20q0 -11 -6 -20q-5 -8 -18.5 -21.5t-34.5 -33.5q-44 -41 -69 -79z" />
    <glyph glyph-name="Ccircumflex" unicode="&#x108;" horiz-adv-x="612" 
d="M317 -8q-125 0 -204 100q-79 98 -79 251q0 84 29 156q29 71 73 110q43 40 93 61q48 21 94 21q35 0 78 -9q41 -10 52 -10q35 0 33 33l6 2l92 -227l-6 -3q-67 112 -128 159q-59 46 -127 46q-93 0 -161 -75q-69 -76 -69 -200q0 -164 78 -265q77 -102 192 -102q138 0 213 140
l7 -3q-37 -78 -109 -132q-73 -53 -157 -53zM430 733q-8 11 -16.5 20.5t-16.5 19.5q-8 9 -18.5 20t-23.5 24l-33 32l-32 -32l-24 -24t-19 -20q-8 -10 -16.5 -19.5t-16.5 -20.5l-6 4l14 22t14 24q13 25 28 56q8 15 13 25.5t9 16.5q11 20 18 27t18 7q12 0 19 -7q4 -4 8 -10.5
t9 -16.5q4 -6 9 -16.5t13 -25.5q8 -16 15 -29.5t14 -26.5t13.5 -24t13.5 -22z" />
    <glyph glyph-name="ccircumflex" unicode="&#x109;" horiz-adv-x="472" 
d="M252 -8q-84 0 -147 68t-63 177q0 119 64 190q65 71 151 71q70 0 120 -43q51 -43 51 -88q0 -13 -7 -20q-8 -8 -20 -8q-19 0 -27 20q-1 3 -3 12t-5 23q-19 96 -110 96q-67 0 -102 -59q-36 -58 -36 -155q0 -124 46 -192q46 -70 113 -70q107 0 149 126l6 -2
q-47 -146 -180 -146zM364 542q-8 11 -16.5 20.5t-16.5 19.5q-8 9 -18.5 20t-23.5 24l-33 32l-32 -32l-24 -24t-19 -20q-8 -10 -16.5 -19.5t-16.5 -20.5l-6 4l14 22t14 24q13 25 28 56q8 15 13 25.5t9 16.5q11 20 18 27t18 7q12 0 19 -7q4 -4 8 -10.5t9 -16.5q4 -6 9 -16.5
t13 -25.5q8 -16 15 -29.5t14 -26.5t13.5 -24t13.5 -22z" />
    <glyph glyph-name="Cdotaccent" unicode="&#x10a;" horiz-adv-x="612" 
d="M317 -8q-125 0 -204 100q-79 98 -79 251q0 84 29 156q29 71 73 110q43 40 93 61q48 21 94 21q35 0 78 -9q41 -10 52 -10q35 0 33 33l6 2l92 -227l-6 -3q-67 112 -128 159q-59 46 -127 46q-93 0 -161 -75q-69 -76 -69 -200q0 -164 78 -265q77 -102 192 -102q138 0 213 140
l7 -3q-37 -78 -109 -132q-73 -53 -157 -53zM322 757q-20 0 -34 14t-14 34q0 21 14 35t34 14q19 0 35 -14q14 -14 14 -35q0 -20 -14 -34t-35 -14z" />
    <glyph glyph-name="cdotaccent" unicode="&#x10b;" horiz-adv-x="472" 
d="M252 -8q-84 0 -147 68t-63 177q0 119 64 190q65 71 151 71q70 0 120 -43q51 -43 51 -88q0 -13 -7 -20q-8 -8 -20 -8q-19 0 -27 20q-1 3 -3 12t-5 23q-19 96 -110 96q-67 0 -102 -59q-36 -58 -36 -155q0 -124 46 -192q46 -70 113 -70q107 0 149 126l6 -2
q-47 -146 -180 -146zM256 576q-20 0 -34 14t-14 34q0 21 14 35t34 14q19 0 35 -14q14 -14 14 -35q0 -20 -14 -34t-35 -14z" />
    <glyph glyph-name="Ccaron" unicode="&#x10c;" horiz-adv-x="612" 
d="M317 -8q-125 0 -204 100q-79 98 -79 251q0 84 29 156q29 71 73 110q43 40 93 61q48 21 94 21q35 0 78 -9q41 -10 52 -10q35 0 33 33l6 2l92 -227l-6 -3q-67 112 -128 159q-59 46 -127 46q-93 0 -161 -75q-69 -76 -69 -200q0 -164 78 -265q77 -102 192 -102q138 0 213 140
l7 -3q-37 -78 -109 -132q-73 -53 -157 -53zM322 734q-10 0 -18 8q-4 4 -8.5 10t-9.5 16q-6 10 -22 43q-8 15 -14.5 28.5t-13.5 26.5t-14 24l-14 22l6 4q17 -21 33 -39q8 -10 19 -20.5t24 -23.5l32 -33l33 33l23.5 23.5t18.5 20.5q17 18 33 39l6 -4q-7 -11 -13.5 -22
t-13.5 -24t-14 -26.5t-15 -28.5q-16 -33 -22 -43q-10 -19 -17 -26q-8 -8 -19 -8z" />
    <glyph glyph-name="ccaron" unicode="&#x10d;" horiz-adv-x="472" 
d="M252 -8q-84 0 -147 68t-63 177q0 119 64 190q65 71 151 71q70 0 120 -43q51 -43 51 -88q0 -13 -7 -20q-8 -8 -20 -8q-19 0 -27 20q-1 3 -3 12t-5 23q-19 96 -110 96q-67 0 -102 -59q-36 -58 -36 -155q0 -124 46 -192q46 -70 113 -70q107 0 149 126l6 -2
q-47 -146 -180 -146zM256 543q-10 0 -18 8q-4 4 -8.5 10t-9.5 16q-6 10 -22 43q-8 15 -14.5 28.5t-13.5 26.5t-14 24l-14 22l6 4q17 -21 33 -39q8 -10 19 -20.5t24 -23.5l32 -33l33 33l23.5 23.5t18.5 20.5q17 18 33 39l6 -4q-7 -11 -13.5 -22t-13.5 -24t-14 -26.5
t-15 -28.5q-16 -33 -22 -43q-10 -19 -17 -26q-8 -8 -19 -8z" />
    <glyph glyph-name="Dcaron" unicode="&#x10e;" horiz-adv-x="634" 
d="M520 340q0 185 -51 258q-52 73 -191 73h-114v-661h114q139 0 191 73q51 72 51 257zM599 340q0 -161 -85 -250q-85 -90 -220 -90h-75h-18t-24 1h-47h-38q-11 -1 -19 -1h-13h-16v8h1q33 0 42 9q9 8 9 40v567q0 32 -9 41q-10 8 -42 8h-1v8h16h32q11 -1 20.5 -1h17.5h21.5
t25.5 1h42h75q135 0 220 -90q85 -89 85 -251zM308 734q-10 0 -18 8q-4 4 -8.5 10t-9.5 16q-6 10 -22 43q-8 15 -14.5 28.5t-13.5 26.5t-14 24l-14 22l6 4q17 -21 33 -39q8 -10 19 -20.5t24 -23.5l32 -33l33 33l23.5 23.5t18.5 20.5q17 18 33 39l6 -4q-7 -11 -13.5 -22
t-13.5 -24t-14 -26.5t-15 -28.5q-16 -33 -22 -43q-10 -19 -17 -26q-8 -8 -19 -8z" />
    <glyph glyph-name="dcaron" unicode="&#x10f;" horiz-adv-x="551" 
d="M231 -8q-74 0 -129 61t-55 192t55 192t129 61q82 0 152 -64v191q0 32 -9 41q-11 8 -45 8h-1v7h6q35 0 68 13q35 14 41 30h6v-667q0 -32 10 -41q9 -9 44 -9h1v-7h-14h-14.5t-19.5 1t-21.5 1h-18.5h-9.5t-9.5 -1t-8.5 -1h-5.5v56q-76 -64 -152 -64zM231 1q73 0 152 67v354
q-73 67 -152 67q-25 0 -42 -9q-18 -9 -34 -34t-24 -75q-4 -25 -6 -56.5t-2 -69.5t2 -69.5t6 -56.5q8 -49 24 -75q16 -25 34 -34q17 -9 42 -9zM542 492q4 23 7.5 51t5.5 63t4.5 58t5.5 34q8 26 31 26q13 0 21 -7q9 -7 9 -20q0 -10 -3 -18q-2 -8 -10 -27.5t-22 -50.5
q-28 -63 -42 -111z" />
    <glyph glyph-name="Dcroat" unicode="&#x110;" horiz-adv-x="634" 
d="M599 340q0 -161 -85 -250q-85 -90 -220 -90h-75h-18t-24 1h-47h-38q-11 -1 -19 -1h-13h-16v8h1q33 0 42 9q9 8 9 40v285h-73v10h73v272q0 32 -9 41q-10 8 -42 8h-1v8h16h32q11 -1 20.5 -1h17.5h21.5t25.5 1h42h75q135 0 220 -90q85 -89 85 -251zM164 342v-332h114
q139 0 191 73q51 72 51 257t-51 258q-52 73 -191 73h-114v-319h136v-10h-136z" />
    <glyph glyph-name="dcroat" unicode="&#x111;" horiz-adv-x="539" 
d="M231 -8q-74 0 -129 61t-55 192t55 192t129 61q82 0 152 -64v132h-107v8h107v51q0 32 -9 41q-11 8 -45 8h-1v7h6q35 0 68 13q35 14 41 30h6v-150h65v-8h-65v-509q0 -32 10 -41q9 -9 44 -9h1v-7h-14h-14.5t-19.5 1t-21.5 1h-18.5h-9.5t-9.5 -1t-8.5 -1h-5.5v56
q-76 -64 -152 -64zM231 1q73 0 152 67v354q-73 67 -152 67q-25 0 -42 -9q-18 -9 -34 -34t-24 -75q-4 -25 -6 -56.5t-2 -69.5t2 -69.5t6 -56.5q8 -49 24 -75q16 -25 34 -34q17 -9 42 -9z" />
    <glyph glyph-name="Emacron" unicode="&#x112;" horiz-adv-x="615" 
d="M487 -29q2 14 -5 21q-8 8 -26 8h-237h-18t-24 1h-47h-38q-11 -1 -19 -1h-13h-16v8h1q33 0 42 9q9 8 9 40v567q0 32 -9 41q-10 8 -42 8h-1v8h16h32q11 -1 20.5 -1h17.5h21.5t25.5 1h42h224q20 0 28 8q7 7 5 22l6 2l92 -226l-6 -3q-38 54 -66.5 91t-46.5 57q-36 39 -96 39
h-195v-320h128q55 0 73 31t25 101h7v-277h-7q-2 17 -4 31t-4 24t-5.5 20t-8.5 21q-11 21 -28 30q-19 9 -48 9h-128v-331h206q33 0 55 9q20 7 46 36q50 58 111 160l6 -3l-95 -243zM174 797v22h240v-22h-240z" />
    <glyph glyph-name="emacron" unicode="&#x113;" horiz-adv-x="478" 
d="M252 -8q-84 0 -147 68t-63 176q0 121 64 191q65 71 151 71q70 0 125 -49q56 -50 51 -133h-314q-1 -8 -1 -19v-26q0 -109 44 -183t115 -74q106 0 149 126l6 -2q-47 -146 -180 -146zM365 325q-4 165 -113 165q-56 0 -89 -46q-34 -46 -43 -119h245zM133 608v22h240v-22h-240
z" />
    <glyph glyph-name="Ebreve" unicode="&#x114;" horiz-adv-x="615" 
d="M487 -29q2 14 -5 21q-8 8 -26 8h-237h-18t-24 1h-47h-38q-11 -1 -19 -1h-13h-16v8h1q33 0 42 9q9 8 9 40v567q0 32 -9 41q-10 8 -42 8h-1v8h16h32q11 -1 20.5 -1h17.5h21.5t25.5 1h42h224q20 0 28 8q7 7 5 22l6 2l92 -226l-6 -3q-38 54 -66.5 91t-46.5 57q-36 39 -96 39
h-195v-320h128q55 0 73 31t25 101h7v-277h-7q-2 17 -4 31t-4 24t-5.5 20t-8.5 21q-11 21 -28 30q-19 9 -48 9h-128v-331h206q33 0 55 9q20 7 46 36q50 58 111 160l6 -3l-95 -243zM295 758q-46 0 -79 35q-34 35 -50 80l6 3q34 -67 123 -67t123 67l6 -3q-16 -45 -50 -80
q-33 -35 -79 -35z" />
    <glyph glyph-name="ebreve" unicode="&#x115;" horiz-adv-x="478" 
d="M252 -8q-84 0 -147 68t-63 176q0 121 64 191q65 71 151 71q70 0 125 -49q56 -50 51 -133h-314q-1 -8 -1 -19v-26q0 -109 44 -183t115 -74q106 0 149 126l6 -2q-47 -146 -180 -146zM365 325q-4 165 -113 165q-56 0 -89 -46q-34 -46 -43 -119h245zM254 569q-46 0 -79 35
q-34 35 -50 80l6 3q34 -67 123 -67t123 67l6 -3q-16 -45 -50 -80q-33 -35 -79 -35z" />
    <glyph glyph-name="Edotaccent" unicode="&#x116;" horiz-adv-x="615" 
d="M487 -29q2 14 -5 21q-8 8 -26 8h-237h-18t-24 1h-47h-38q-11 -1 -19 -1h-13h-16v8h1q33 0 42 9q9 8 9 40v567q0 32 -9 41q-10 8 -42 8h-1v8h16h32q11 -1 20.5 -1h17.5h21.5t25.5 1h42h224q20 0 28 8q7 7 5 22l6 2l92 -226l-6 -3q-38 54 -66.5 91t-46.5 57q-36 39 -96 39
h-195v-320h128q55 0 73 31t25 101h7v-277h-7q-2 17 -4 31t-4 24t-5.5 20t-8.5 21q-11 21 -28 30q-19 9 -48 9h-128v-331h206q33 0 55 9q20 7 46 36q50 58 111 160l6 -3l-95 -243zM295 755q-20 0 -34 14t-14 34q0 21 14 35t34 14q19 0 35 -14q14 -14 14 -35q0 -20 -14 -34
t-35 -14z" />
    <glyph glyph-name="edotaccent" unicode="&#x117;" horiz-adv-x="478" 
d="M252 -8q-84 0 -147 68t-63 176q0 121 64 191q65 71 151 71q70 0 125 -49q56 -50 51 -133h-314q-1 -8 -1 -19v-26q0 -109 44 -183t115 -74q106 0 149 126l6 -2q-47 -146 -180 -146zM365 325q-4 165 -113 165q-56 0 -89 -46q-34 -46 -43 -119h245zM254 576q-20 0 -34 14
t-14 34q0 21 14 35t34 14q19 0 35 -14q14 -14 14 -35q0 -20 -14 -34t-35 -14z" />
    <glyph glyph-name="Eogonek" unicode="&#x118;" horiz-adv-x="615" 
d="M487 -29q2 14 -5 21q-8 8 -26 8h-35q-85 -39 -85 -94q0 -28 18 -44q16 -16 44 -16q42 0 73 40l6 -4q-18 -25 -49 -43q-32 -17 -65 -17q-39 0 -62 18q-23 20 -23 49q0 55 129 111h-188h-18t-24 1h-47h-38q-11 -1 -19 -1h-13h-16v8h1q33 0 42 9q9 8 9 40v567q0 32 -9 41
q-10 8 -42 8h-1v8h16h32q11 -1 20.5 -1h17.5h21.5t25.5 1h42h224q20 0 28 8q7 7 5 22l6 2l92 -226l-6 -3q-38 54 -66.5 91t-46.5 57q-36 39 -96 39h-195v-320h128q55 0 73 31t25 101h7v-277h-7q-2 17 -4 31t-4 24t-5.5 20t-8.5 21q-11 21 -28 30q-19 9 -48 9h-128v-331h206
q33 0 55 9q20 7 46 36q50 58 111 160l6 -3l-95 -243z" />
    <glyph glyph-name="eogonek" unicode="&#x119;" horiz-adv-x="478" 
d="M252 -8q-84 0 -147 68t-63 176q0 121 64 191q65 71 151 71q70 0 125 -49q56 -50 51 -133h-314q-1 -8 -1 -19v-26q0 -109 44 -183t115 -74q106 0 149 126l6 -2q-33 -103 -116 -139q-84 -36 -84 -93q0 -28 18 -44q16 -16 44 -16q42 0 73 40l6 -4q-18 -25 -49 -43
q-32 -17 -65 -17q-39 0 -62 18q-23 20 -23 49q0 51 120 107q-13 -4 -42 -4zM365 325q-4 165 -113 165q-56 0 -89 -46q-34 -46 -43 -119h245z" />
    <glyph glyph-name="Ecaron" unicode="&#x11a;" horiz-adv-x="615" 
d="M487 -29q2 14 -5 21q-8 8 -26 8h-237h-18t-24 1h-47h-38q-11 -1 -19 -1h-13h-16v8h1q33 0 42 9q9 8 9 40v567q0 32 -9 41q-10 8 -42 8h-1v8h16h32q11 -1 20.5 -1h17.5h21.5t25.5 1h42h224q20 0 28 8q7 7 5 22l6 2l92 -226l-6 -3q-38 54 -66.5 91t-46.5 57q-36 39 -96 39
h-195v-320h128q55 0 73 31t25 101h7v-277h-7q-2 17 -4 31t-4 24t-5.5 20t-8.5 21q-11 21 -28 30q-19 9 -48 9h-128v-331h206q33 0 55 9q20 7 46 36q50 58 111 160l6 -3l-95 -243zM295 732q-10 0 -18 8q-4 4 -8.5 10t-9.5 16q-6 10 -22 43q-8 15 -14.5 28.5t-13.5 26.5
t-14 24l-14 22l6 4q17 -21 33 -39q8 -10 19 -20.5t24 -23.5l32 -33l33 33l23.5 23.5t18.5 20.5q17 18 33 39l6 -4q-7 -11 -13.5 -22t-13.5 -24t-14 -26.5t-15 -28.5q-16 -33 -22 -43q-10 -19 -17 -26q-8 -8 -19 -8z" />
    <glyph glyph-name="ecaron" unicode="&#x11b;" horiz-adv-x="478" 
d="M252 -8q-84 0 -147 68t-63 176q0 121 64 191q65 71 151 71q70 0 125 -49q56 -50 51 -133h-314q-1 -8 -1 -19v-26q0 -109 44 -183t115 -74q106 0 149 126l6 -2q-47 -146 -180 -146zM365 325q-4 165 -113 165q-56 0 -89 -46q-34 -46 -43 -119h245zM254 543q-10 0 -18 8
q-4 4 -8.5 10t-9.5 16q-6 10 -22 43q-8 15 -14.5 28.5t-13.5 26.5t-14 24l-14 22l6 4q17 -21 33 -39q8 -10 19 -20.5t24 -23.5l32 -33l33 33l23.5 23.5t18.5 20.5q17 18 33 39l6 -4q-7 -11 -13.5 -22t-13.5 -24t-14 -26.5t-15 -28.5q-16 -33 -22 -43q-10 -19 -17 -26
q-8 -8 -19 -8z" />
    <glyph glyph-name="Gcircumflex" unicode="&#x11c;" horiz-adv-x="648" 
d="M572 -10h-6l-3 15q-3 7 -7 14q-6 8 -9 11q-2 2 -4.5 5t-5.5 6q-4 3 -6 5l-4 4l-4 4t-6 5q-4 2 -5.5 3.5l-2.5 2.5q-73 -73 -182 -73q-127 0 -209 100q-84 101 -84 239q0 90 27 162q26 71 69 113q43 41 93 64q50 21 101 21q46 0 88 -9q40 -10 49 -10q15 0 26 8q9 8 8 25
l6 2l92 -227l-6 -3q-35 57 -68 97t-62 63q-60 45 -133 45q-95 0 -153 -82q-59 -83 -59 -255q0 -167 60 -254t172 -87q48 0 91 22q44 23 69 48v170q0 32 -9 41q-10 8 -42 8h-1v8h16h13t19 -1t20.5 -1.5t17.5 -0.5t17.5 0.5t20.5 1.5t19 1h13h16v-8h-1q-32 0 -42 -8
q-9 -9 -9 -41v-254zM444 733q-8 11 -16.5 20.5t-16.5 19.5q-8 9 -18.5 20t-23.5 24l-33 32l-32 -32l-24 -24t-19 -20q-8 -10 -16.5 -19.5t-16.5 -20.5l-6 4l14 22t14 24q13 25 28 56q8 15 13 25.5t9 16.5q11 20 18 27t18 7q12 0 19 -7q4 -4 8 -10.5t9 -16.5q4 -6 9 -16.5
t13 -25.5q8 -16 15 -29.5t14 -26.5t13.5 -24t13.5 -22z" />
    <glyph glyph-name="gcircumflex" unicode="&#x11d;" horiz-adv-x="518" 
d="M245 -234q-106 0 -168 33t-62 76q0 77 154 111q-61 9 -91 27q-30 17 -30 49q0 19 10 33q5 7 12 13.5t17 12.5t19 10.5l17 8.5q15 7 41 16q-46 21 -75 63q-29 41 -29 99q0 78 53 129t132 51q70 0 117 -37q51 69 106 69q38 0 38 -27q0 -12 -7 -19t-19 -7q-11 0 -29 8
q-15 7 -32 7q-22 0 -51 -36q62 -51 62 -138q0 -78 -53 -128q-52 -51 -132 -51q-38 0 -71 12q-43 -14 -62 -27q-20 -14 -20 -35q0 -36 102 -47l123 -13q171 -19 171 -125q0 -66 -72 -102q-73 -36 -171 -36zM245 147q115 0 115 171q0 172 -115 172t-115 -172q0 -171 115 -171z
M245 -226q88 0 143 29q54 28 54 80q0 70 -138 87l-117 13q-63 -17 -88 -42q-27 -26 -27 -62q0 -44 46 -75q47 -30 127 -30zM363 542q-8 11 -16.5 20.5t-16.5 19.5q-8 9 -18.5 20t-23.5 24l-33 32l-32 -32l-24 -24t-19 -20q-8 -10 -16.5 -19.5t-16.5 -20.5l-6 4l14 22t14 24
q13 25 28 56q8 15 13 25.5t9 16.5q11 20 18 27t18 7q12 0 19 -7q4 -4 8 -10.5t9 -16.5q4 -6 9 -16.5t13 -25.5q8 -16 15 -29.5t14 -26.5t13.5 -24t13.5 -22z" />
    <glyph glyph-name="Gbreve" unicode="&#x11e;" horiz-adv-x="648" 
d="M572 -10h-6l-3 15q-3 7 -7 14q-6 8 -9 11q-2 2 -4.5 5t-5.5 6q-4 3 -6 5l-4 4l-4 4t-6 5q-4 2 -5.5 3.5l-2.5 2.5q-73 -73 -182 -73q-127 0 -209 100q-84 101 -84 239q0 90 27 162q26 71 69 113q43 41 93 64q50 21 101 21q46 0 88 -9q40 -10 49 -10q15 0 26 8q9 8 8 25
l6 2l92 -227l-6 -3q-35 57 -68 97t-62 63q-60 45 -133 45q-95 0 -153 -82q-59 -83 -59 -255q0 -167 60 -254t172 -87q48 0 91 22q44 23 69 48v170q0 32 -9 41q-10 8 -42 8h-1v8h16h13t19 -1t20.5 -1.5t17.5 -0.5t17.5 0.5t20.5 1.5t19 1h13h16v-8h-1q-32 0 -42 -8
q-9 -9 -9 -41v-254zM336 760q-46 0 -79 35q-34 35 -50 80l6 3q34 -67 123 -67t123 67l6 -3q-16 -45 -50 -80q-33 -35 -79 -35z" />
    <glyph glyph-name="gbreve" unicode="&#x11f;" horiz-adv-x="518" 
d="M245 -234q-106 0 -168 33t-62 76q0 77 154 111q-61 9 -91 27q-30 17 -30 49q0 19 10 33q5 7 12 13.5t17 12.5t19 10.5l17 8.5q15 7 41 16q-46 21 -75 63q-29 41 -29 99q0 78 53 129t132 51q70 0 117 -37q51 69 106 69q38 0 38 -27q0 -12 -7 -19t-19 -7q-11 0 -29 8
q-15 7 -32 7q-22 0 -51 -36q62 -51 62 -138q0 -78 -53 -128q-52 -51 -132 -51q-38 0 -71 12q-43 -14 -62 -27q-20 -14 -20 -35q0 -36 102 -47l123 -13q171 -19 171 -125q0 -66 -72 -102q-73 -36 -171 -36zM245 147q115 0 115 171q0 172 -115 172t-115 -172q0 -171 115 -171z
M245 -226q88 0 143 29q54 28 54 80q0 70 -138 87l-117 13q-63 -17 -88 -42q-27 -26 -27 -62q0 -44 46 -75q47 -30 127 -30zM255 569q-46 0 -79 35q-34 35 -50 80l6 3q34 -67 123 -67t123 67l6 -3q-16 -45 -50 -80q-33 -35 -79 -35z" />
    <glyph glyph-name="Gdotaccent" unicode="&#x120;" horiz-adv-x="648" 
d="M572 -10h-6l-3 15q-3 7 -7 14q-6 8 -9 11q-2 2 -4.5 5t-5.5 6q-4 3 -6 5l-4 4l-4 4t-6 5q-4 2 -5.5 3.5l-2.5 2.5q-73 -73 -182 -73q-127 0 -209 100q-84 101 -84 239q0 90 27 162q26 71 69 113q43 41 93 64q50 21 101 21q46 0 88 -9q40 -10 49 -10q15 0 26 8q9 8 8 25
l6 2l92 -227l-6 -3q-35 57 -68 97t-62 63q-60 45 -133 45q-95 0 -153 -82q-59 -83 -59 -255q0 -167 60 -254t172 -87q48 0 91 22q44 23 69 48v170q0 32 -9 41q-10 8 -42 8h-1v8h16h13t19 -1t20.5 -1.5t17.5 -0.5t17.5 0.5t20.5 1.5t19 1h13h16v-8h-1q-32 0 -42 -8
q-9 -9 -9 -41v-254zM336 757q-20 0 -34 14t-14 34q0 21 14 35t34 14q19 0 35 -14q14 -14 14 -35q0 -20 -14 -34t-35 -14z" />
    <glyph glyph-name="gdotaccent" unicode="&#x121;" horiz-adv-x="518" 
d="M245 -234q-106 0 -168 33t-62 76q0 77 154 111q-61 9 -91 27q-30 17 -30 49q0 19 10 33q5 7 12 13.5t17 12.5t19 10.5l17 8.5q15 7 41 16q-46 21 -75 63q-29 41 -29 99q0 78 53 129t132 51q70 0 117 -37q51 69 106 69q38 0 38 -27q0 -12 -7 -19t-19 -7q-11 0 -29 8
q-15 7 -32 7q-22 0 -51 -36q62 -51 62 -138q0 -78 -53 -128q-52 -51 -132 -51q-38 0 -71 12q-43 -14 -62 -27q-20 -14 -20 -35q0 -36 102 -47l123 -13q171 -19 171 -125q0 -66 -72 -102q-73 -36 -171 -36zM245 147q115 0 115 171q0 172 -115 172t-115 -172q0 -171 115 -171z
M245 -226q88 0 143 29q54 28 54 80q0 70 -138 87l-117 13q-63 -17 -88 -42q-27 -26 -27 -62q0 -44 46 -75q47 -30 127 -30zM255 576q-20 0 -34 14t-14 34q0 21 14 35t34 14q19 0 35 -14q14 -14 14 -35q0 -20 -14 -34t-35 -14z" />
    <glyph glyph-name="uni0122" unicode="&#x122;" horiz-adv-x="648" 
d="M572 -10h-6l-3 15q-3 7 -7 14q-6 8 -9 11q-2 2 -4.5 5t-5.5 6q-4 3 -6 5l-4 4l-4 4t-6 5q-4 2 -5.5 3.5l-2.5 2.5q-73 -73 -182 -73q-127 0 -209 100q-84 101 -84 239q0 90 27 162q26 71 69 113q43 41 93 64q50 21 101 21q46 0 88 -9q40 -10 49 -10q15 0 26 8q9 8 8 25
l6 2l92 -227l-6 -3q-35 57 -68 97t-62 63q-60 45 -133 45q-95 0 -153 -82q-59 -83 -59 -255q0 -167 60 -254t172 -87q48 0 91 22q44 23 69 48v170q0 32 -9 41q-10 8 -42 8h-1v8h16h13t19 -1t20.5 -1.5t17.5 -0.5t17.5 0.5t20.5 1.5t19 1h13h16v-8h-1q-32 0 -42 -8
q-9 -9 -9 -41v-254zM332 -155q-19 0 -31 12q-12 13 -12 31t13 31q12 13 32 13q21 0 36 -17q14 -17 14 -40q0 -49 -25 -78t-57 -37l-1 6q28 7 50 32t22 63q0 6 -1 11q-13 -27 -40 -27z" />
    <glyph glyph-name="uni0123" unicode="&#x123;" horiz-adv-x="518" 
d="M245 -234q-106 0 -168 33t-62 76q0 77 154 111q-61 9 -91 27q-30 17 -30 49q0 19 10 33q5 7 12 13.5t17 12.5t19 10.5l17 8.5q15 7 41 16q-46 21 -75 63q-29 41 -29 99q0 78 53 129t132 51q70 0 117 -37q51 69 106 69q38 0 38 -27q0 -12 -7 -19t-19 -7q-11 0 -29 8
q-15 7 -32 7q-22 0 -51 -36q62 -51 62 -138q0 -78 -53 -128q-52 -51 -132 -51q-38 0 -71 12q-43 -14 -62 -27q-20 -14 -20 -35q0 -36 102 -47l123 -13q171 -19 171 -125q0 -66 -72 -102q-73 -36 -171 -36zM245 147q115 0 115 171q0 172 -115 172t-115 -172q0 -171 115 -171z
M245 -226q88 0 143 29q54 28 54 80q0 70 -138 87l-117 13q-63 -17 -88 -42q-27 -26 -27 -62q0 -44 46 -75q47 -30 127 -30zM260 653q19 0 31 -12q12 -13 12 -31q0 -17 -12 -31q-13 -13 -33 -13q-21 0 -35 17q-15 17 -15 40q0 47 26 78q25 30 56 37l1 -6q-28 -7 -50 -32
t-22 -63q0 -6 1 -11q14 27 40 27z" />
    <glyph glyph-name="Hcircumflex" unicode="&#x124;" horiz-adv-x="691" 
d="M595 57q0 -32 9 -40q9 -9 42 -9h1v-8h-16q-5 0 -13 0.5t-19 1.5t-20.5 1h-17.5h-17.5t-20.5 -1t-19 -1.5t-13 -0.5h-16v8h1q33 0 42 9q9 8 9 40v284h-363v-284q0 -32 9 -40q9 -9 42 -9h1v-8h-16q-5 0 -13 0.5t-19 1.5t-20.5 1h-17.5h-17.5t-20.5 -1t-19 -1.5t-13 -0.5
h-16v8h1q33 0 42 9q9 8 9 40v567q0 32 -9 41q-10 8 -42 8h-1v8h16h13t19 -1t20.5 -1.5t17.5 -0.5t17.5 0.5t20.5 1.5t19 1h13h16v-8h-1q-32 0 -42 -8q-9 -9 -9 -41v-273h363v273q0 32 -9 41q-10 8 -42 8h-1v8h16h13t19 -1t20.5 -1.5t17.5 -0.5t17.5 0.5t20.5 1.5t19 1h13h16
v-8h-1q-32 0 -42 -8q-9 -9 -9 -41v-567zM454 731q-8 11 -16.5 20.5t-16.5 19.5q-8 9 -18.5 20t-23.5 24l-33 32l-32 -32l-24 -24t-19 -20q-8 -10 -16.5 -19.5t-16.5 -20.5l-6 4l14 22t14 24q13 25 28 56q8 15 13 25.5t9 16.5q11 20 18 27t18 7q12 0 19 -7q4 -4 8 -10.5
t9 -16.5q4 -6 9 -16.5t13 -25.5q8 -16 15 -29.5t14 -26.5t13.5 -24t13.5 -22z" />
    <glyph glyph-name="hcircumflex" unicode="&#x125;" horiz-adv-x="539" 
d="M451 57q0 -32 10 -41q9 -9 44 -9h1v-7h-14q-6 0 -14.5 0.5t-19.5 1.5t-21 1h-19h-19t-21 -1t-19.5 -1.5t-14.5 -0.5h-14v7h1q35 0 45 9q9 9 9 41v374q0 48 -35 48q-17 0 -85 -24l-109 -42v-356q0 -32 10 -41q9 -9 44 -9h1v-7h-14q-5 0 -14 0.5t-20 1.5t-21.5 1h-18.5
h-18.5t-21.5 -1t-20 -1.5t-14 -0.5h-14v7h1q35 0 45 9q9 9 9 41v568q0 32 -9 41q-11 8 -45 8h-1v7h6q35 0 68 13q35 14 41 30h6v-302l106 41q90 35 127 35q62 0 62 -70v-371zM224 733q-8 11 -16.5 20.5t-16.5 19.5q-8 9 -18.5 20t-23.5 24l-33 32l-32 -32l-24 -24t-19 -20
q-8 -10 -16.5 -19.5t-16.5 -20.5l-6 4l14 22t14 24q13 25 28 56q8 15 13 25.5t9 16.5q11 20 18 27t18 7q12 0 19 -7q4 -4 8 -10.5t9 -16.5q4 -6 9 -16.5t13 -25.5q8 -16 15 -29.5t14 -26.5t13.5 -24t13.5 -22z" />
    <glyph glyph-name="Hbar" unicode="&#x126;" horiz-adv-x="697" 
d="M635 0q-5 0 -13 0.5t-19 1.5t-20.5 1h-17.5h-17.5t-20.5 -1t-19 -1.5t-13 -0.5h-16v8h1q33 0 42 9q9 8 9 40v252h-363v-252q0 -32 9 -40q9 -9 42 -9h1v-8h-16q-5 0 -13 0.5t-19 1.5t-20.5 1h-17.5h-17.5t-20.5 -1t-19 -1.5t-13 -0.5h-16v8h1q33 0 42 9q9 8 9 40v415h-75
v10h75v142q0 32 -9 41q-10 8 -42 8h-1v8h16h13t19 -1t20.5 -1.5t17.5 -0.5t17.5 0.5t20.5 1.5t19 1h13h16v-8h-1q-32 0 -42 -8q-9 -9 -9 -41v-142h363v142q0 32 -9 41q-10 8 -42 8h-1v8h16h13t19 -1t20.5 -1.5t17.5 -0.5t17.5 0.5t20.5 1.5t19 1h13h16v-8h-1q-32 0 -42 -8
q-9 -9 -9 -41v-142h73v-10h-73v-415q0 -32 9 -40q9 -9 42 -9h1v-8h-16zM531 472h-363v-153h363v153z" />
    <glyph glyph-name="hbar" unicode="&#x127;" horiz-adv-x="539" 
d="M451 57q0 -32 10 -41q9 -9 44 -9h1v-7h-14q-6 0 -14.5 0.5t-19.5 1.5t-21 1h-19h-19t-21 -1t-19.5 -1.5t-14.5 -0.5h-14l1 7q34 0 44 9t10 41v374q0 48 -35 48q-17 0 -85 -24l-109 -42v-356q0 -32 10 -41q9 -9 44 -9h1v-7h-14q-5 0 -14 0.5t-20 1.5t-21.5 1h-18.5h-18.5
t-21.5 -1t-20 -1.5t-14 -0.5h-14v7h1q35 0 45 9q9 9 9 41v509h-65v8h65v51q0 32 -9 41q-11 8 -45 8h-1v7h6q35 0 68 13q35 14 41 30h6v-150h107v-8h-107v-144l106 41q90 35 127 35q62 0 62 -70v-371z" />
    <glyph glyph-name="Itilde" unicode="&#x128;" horiz-adv-x="260" 
d="M164 57q0 -32 9 -40q9 -9 42 -9h1v-8h-16q-5 0 -13 0.5t-19 1.5t-20.5 1h-17.5h-17.5t-20.5 -1t-19 -1.5t-13 -0.5h-16v8h1q33 0 42 9q9 8 9 40v567q0 32 -9 41q-10 8 -42 8h-1v8h16h13t19 -1t20.5 -1.5t17.5 -0.5t17.5 0.5t20.5 1.5t19 1h13h16v-8h-1q-32 0 -42 -8
q-9 -9 -9 -41v-567zM170 777q-20 0 -54 22q-34 21 -62 21q-10 0 -23 -11q-13 -10 -18 -18q-6 -7 -18 -27l-6 4q34 58 58 77q20 16 43 16q21 0 55 -21q34 -22 61 -22q10 0 24 11q6 5 10.5 10t7.5 9q2 4 6.5 10t10.5 16l6 -4q-34 -58 -58 -77q-20 -16 -43 -16z" />
    <glyph glyph-name="itilde" unicode="&#x129;" horiz-adv-x="254" 
d="M205 0q-5 0 -14 0.5t-20 1.5t-21.5 1h-18.5h-18.5t-21.5 -1t-20 -1.5t-14 -0.5h-14v7h1q35 0 45 9q9 9 9 41v342q0 32 -9 41q-11 8 -45 8h-1v7h6q35 0 68 13q35 14 41 30h6v-441q0 -32 10 -41q9 -9 44 -9h1v-7h-14zM171 588q-21 0 -55 22q-34 21 -61 21q-10 0 -23 -11
q-13 -10 -18 -18q-6 -7 -18 -27l-6 4q34 58 58 77q20 16 43 16q21 0 55 -21q34 -22 61 -22q10 0 24 11q6 5 10.5 10t7.5 9q2 4 6.5 10t10.5 16l6 -4q-34 -58 -58 -77q-20 -16 -43 -16z" />
    <glyph glyph-name="Imacron" unicode="&#x12a;" horiz-adv-x="260" 
d="M164 57q0 -32 9 -40q9 -9 42 -9h1v-8h-16q-5 0 -13 0.5t-19 1.5t-20.5 1h-17.5h-17.5t-20.5 -1t-19 -1.5t-13 -0.5h-16v8h1q33 0 42 9q9 8 9 40v567q0 32 -9 41q-10 8 -42 8h-1v8h16h13t19 -1t20.5 -1.5t17.5 -0.5t17.5 0.5t20.5 1.5t19 1h13h16v-8h-1q-32 0 -42 -8
q-9 -9 -9 -41v-567zM9 797v22h240v-22h-240z" />
    <glyph glyph-name="imacron" unicode="&#x12b;" horiz-adv-x="254" 
d="M205 0q-5 0 -14 0.5t-20 1.5t-21.5 1h-18.5h-18.5t-21.5 -1t-20 -1.5t-14 -0.5h-14v7h1q35 0 45 9q9 9 9 41v342q0 32 -9 41q-11 8 -45 8h-1v7h6q35 0 68 13q35 14 41 30h6v-441q0 -32 10 -41q9 -9 44 -9h1v-7h-14zM10 608v22h240v-22h-240z" />
    <glyph glyph-name="Ibreve" unicode="&#x12c;" horiz-adv-x="260" 
d="M164 57q0 -32 9 -40q9 -9 42 -9h1v-8h-16q-5 0 -13 0.5t-19 1.5t-20.5 1h-17.5h-17.5t-20.5 -1t-19 -1.5t-13 -0.5h-16v8h1q33 0 42 9q9 8 9 40v567q0 32 -9 41q-10 8 -42 8h-1v8h16h13t19 -1t20.5 -1.5t17.5 -0.5t17.5 0.5t20.5 1.5t19 1h13h16v-8h-1q-32 0 -42 -8
q-9 -9 -9 -41v-567zM130 758q-46 0 -79 35q-34 35 -50 80l6 3q34 -67 123 -67t123 67l6 -3q-16 -45 -50 -80q-33 -35 -79 -35z" />
    <glyph glyph-name="ibreve" unicode="&#x12d;" horiz-adv-x="254" 
d="M205 0q-5 0 -14 0.5t-20 1.5t-21.5 1h-18.5h-18.5t-21.5 -1t-20 -1.5t-14 -0.5h-14v7h1q35 0 45 9q9 9 9 41v342q0 32 -9 41q-11 8 -45 8h-1v7h6q35 0 68 13q35 14 41 30h6v-441q0 -32 10 -41q9 -9 44 -9h1v-7h-14zM131 569q-46 0 -79 35q-34 35 -50 80l6 3
q34 -67 123 -67t123 67l6 -3q-16 -45 -50 -80q-33 -35 -79 -35z" />
    <glyph glyph-name="Iogonek" unicode="&#x12e;" horiz-adv-x="260" 
d="M164 57q0 -32 9 -40q9 -9 42 -9h1v-8h-16q-6 0 -15.5 0.5t-22.5 1.5q-35 -16 -59 -40q-26 -26 -26 -56q0 -28 18 -44q16 -16 44 -16q42 0 73 40l6 -4q-18 -25 -49 -43q-32 -17 -65 -17q-39 0 -62 18q-23 20 -23 49q0 32 44 64q22 16 43 28.5t43 21.5h-19h-17.5t-20.5 -1
t-19 -1.5t-13 -0.5h-16v8h1q33 0 42 9q9 8 9 40v567q0 32 -9 41q-10 8 -42 8h-1v8h16h13t19 -1t20.5 -1.5t17.5 -0.5t17.5 0.5t20.5 1.5t19 1h13h16v-8h-1q-32 0 -42 -8q-9 -9 -9 -41v-567z" />
    <glyph glyph-name="iogonek" unicode="&#x12f;" horiz-adv-x="254" 
d="M205 0q-6 0 -16.5 0.5t-25.5 1.5q-35 -16 -59 -40q-26 -26 -26 -56q0 -28 18 -44q16 -16 44 -16q42 0 73 40l6 -4q-18 -25 -49 -43q-32 -17 -65 -17q-39 0 -62 18q-23 20 -23 49q0 32 44 64q22 16 43 28.5t43 21.5h-19h-18.5t-21.5 -1t-20 -1.5t-14 -0.5h-14v7h1
q35 0 45 9q9 9 9 41v342q0 32 -9 41q-11 8 -45 8h-1v7h6q35 0 68 13q35 14 41 30h6v-441q0 -32 10 -41q9 -9 44 -9h1v-7h-14zM131 592q-20 0 -34 14t-14 34q0 21 14 35t34 14q19 0 35 -14q14 -14 14 -35q0 -20 -14 -34t-35 -14z" />
    <glyph glyph-name="Idotaccent" unicode="&#x130;" horiz-adv-x="260" 
d="M164 57q0 -32 9 -40q9 -9 42 -9h1v-8h-16q-5 0 -13 0.5t-19 1.5t-20.5 1h-17.5h-17.5t-20.5 -1t-19 -1.5t-13 -0.5h-16v8h1q33 0 42 9q9 8 9 40v567q0 32 -9 41q-10 8 -42 8h-1v8h16h13t19 -1t20.5 -1.5t17.5 -0.5t17.5 0.5t20.5 1.5t19 1h13h16v-8h-1q-32 0 -42 -8
q-9 -9 -9 -41v-567zM130 755q-20 0 -34 14t-14 34q0 21 14 35t34 14q19 0 35 -14q14 -14 14 -35q0 -20 -14 -34t-35 -14z" />
    <glyph glyph-name="dotlessi" unicode="&#x131;" horiz-adv-x="254" 
d="M205 0q-5 0 -14 0.5t-20 1.5t-21.5 1h-18.5h-18.5t-21.5 -1t-20 -1.5t-14 -0.5h-14v7h1q35 0 45 9q9 9 9 41v342q0 32 -9 41q-11 8 -45 8h-1v7h6q35 0 68 13q35 14 41 30h6v-441q0 -32 10 -41q9 -9 44 -9h1v-7h-14z" />
    <glyph glyph-name="IJ" unicode="&#x132;" horiz-adv-x="556" 
d="M164 57q0 -32 9 -40q9 -9 42 -9h1v-8h-16q-5 0 -13 0.5t-19 1.5t-20.5 1h-17.5h-17.5t-20.5 -1t-19 -1.5t-13 -0.5h-16v8h1q33 0 42 9q9 8 9 40v567q0 32 -9 41q-10 8 -42 8h-1v8h16h13t19 -1t20.5 -1.5t17.5 -0.5t17.5 0.5t20.5 1.5t19 1h13h16v-8h-1q-32 0 -42 -8
q-9 -9 -9 -41v-567zM467 196q0 -152 -60 -223t-154 -71q-35 0 -35 30q0 31 31 31q9 0 44 -11t49 -11q31 0 44 27q13 26 13 85v571q0 32 -9 41q-10 8 -42 8h-1v8h16h13t19 -1t20.5 -1.5t17.5 -0.5t17.5 0.5t20.5 1.5t19 1h13h16v-8h-1q-32 0 -42 -8q-9 -9 -9 -41v-428z" />
    <glyph glyph-name="ij" unicode="&#x133;" horiz-adv-x="495" 
d="M205 0q-5 0 -14 0.5t-20 1.5t-21.5 1h-18.5h-18.5t-21.5 -1t-20 -1.5t-14 -0.5h-14v7h1q35 0 45 9q9 9 9 41v342q0 32 -9 41q-11 8 -45 8h-1v7h6q35 0 68 13q35 14 41 30h6v-441q0 -32 10 -41q9 -9 44 -9h1v-7h-14zM131 592q-20 0 -34 14t-14 34q0 21 14 35t34 14
q19 0 35 -14q14 -14 14 -35q0 -20 -14 -34t-35 -14zM230 -236q-14 0 -22 7q-9 7 -9 19q0 26 29 26q6 0 15 -1.5t22 -3.5q12 -2 20 -3.5t13 -1.5q54 0 54 85v508q0 32 -9 41q-11 8 -45 8h-1v7h6q35 0 68 13q35 14 41 30h6v-459q0 -107 -46 -184q-55 -91 -142 -91zM385 592
q-20 0 -34 14t-14 34q0 21 14 35t34 14q19 0 35 -14q14 -14 14 -35q0 -20 -14 -34t-35 -14z" />
    <glyph glyph-name="Jcircumflex" unicode="&#x134;" horiz-adv-x="296" 
d="M207 196q0 -152 -60 -223t-154 -71q-35 0 -35 30q0 31 31 31q9 0 44 -11t49 -11q31 0 44 27q13 26 13 85v571q0 32 -9 41q-10 8 -42 8h-1v8h16h13t19 -1t20.5 -1.5t17.5 -0.5t17.5 0.5t20.5 1.5t19 1h13h16v-8h-1q-32 0 -42 -8q-9 -9 -9 -41v-428zM282 731
q-8 11 -16.5 20.5t-16.5 19.5q-8 9 -18.5 20t-23.5 24l-33 32l-32 -32l-24 -24t-19 -20q-8 -10 -16.5 -19.5t-16.5 -20.5l-6 4l14 22t14 24q13 25 28 56q8 15 13 25.5t9 16.5q11 20 18 27t18 7q12 0 19 -7q4 -4 8 -10.5t9 -16.5q4 -6 9 -16.5t13 -25.5q8 -16 15 -29.5
t14 -26.5t13.5 -24t13.5 -22z" />
    <glyph glyph-name="jcircumflex" unicode="&#x135;" horiz-adv-x="241" 
d="M164 39q0 -107 -46 -184q-55 -91 -142 -91q-14 0 -22 7q-9 7 -9 19q0 26 29 26q6 0 15 -1.5t22 -3.5q12 -2 20 -3.5t13 -1.5q54 0 54 85v508q0 32 -9 41q-11 8 -45 8h-1v7h6q35 0 68 13q35 14 41 30h6v-459zM239 542q-8 11 -16.5 20.5t-16.5 19.5q-8 9 -18.5 20t-23.5 24
l-33 32l-32 -32l-24 -24t-19 -20q-8 -10 -16.5 -19.5t-16.5 -20.5l-6 4l14 22t14 24q13 25 28 56q8 15 13 25.5t9 16.5q11 20 18 27t18 7q12 0 19 -7q4 -4 8 -10.5t9 -16.5q4 -6 9 -16.5t13 -25.5q8 -16 15 -29.5t14 -26.5t13.5 -24t13.5 -22z" />
    <glyph glyph-name="uni0136" unicode="&#x136;" horiz-adv-x="652" 
d="M613 0q-2 0 -9.5 0.5t-19.5 1.5t-22.5 1h-18.5h-18.5t-22.5 -1t-19.5 -1.5t-10.5 -0.5h-39v8h11q44 0 44 27q0 13 -12 29l-189 297l-123 -147v-157q0 -32 9 -40q9 -9 42 -9h1v-8h-16q-5 0 -13 0.5t-19 1.5t-20.5 1h-17.5h-17.5t-20.5 -1t-19 -1.5t-13 -0.5h-16v8h1
q33 0 42 9q9 8 9 40v567q0 32 -9 41q-10 8 -42 8h-1v8h16h13t19 -1t20.5 -1.5t17.5 -0.5t17.5 0.5t20.5 1.5t19 1h13h16v-8h-1q-32 0 -42 -8q-9 -9 -9 -41v-395l117 140l-34 53q36 -1 79 0l143 170q23 29 23 49q0 18 -13 25t-48 7v8h17h14t22 -1q12 -1 21 -1.5t15 -0.5
q8 0 18.5 0.5t23.5 1.5t20.5 1h11.5h21v-8q-63 0 -138 -86l-144 -172l227 -356q33 -51 92 -51v-8h-39zM325 -155q-19 0 -31 12q-12 13 -12 31t13 31q12 13 32 13q21 0 36 -17q14 -17 14 -40q0 -49 -25 -78t-57 -37l-1 6q28 7 50 32t22 63q0 6 -1 11q-13 -27 -40 -27z" />
    <glyph glyph-name="uni0137" unicode="&#x137;" horiz-adv-x="525" 
d="M293 317l163 -265q18 -28 30 -36q12 -9 38 -9h1v-7h-12q-2 0 -9.5 0.5t-18.5 1.5q-12 1 -23 1h-21h-20.5t-21.5 -1t-18.5 -1.5t-9.5 -0.5h-24v7h1q43 0 43 18q0 7 -6 17l-139 226l-90 -93v-118q0 -32 10 -41q9 -9 44 -9h1v-7h-14q-5 0 -14 0.5t-20 1.5t-21.5 1h-18.5
h-18.5t-21.5 -1t-20 -1.5t-14 -0.5h-14v7h1q35 0 45 9q9 9 9 41v568q0 32 -9 41q-11 8 -45 8h-1v7h6q35 0 68 13q35 14 41 30h6v-537l85 88l-26 43h68l80 83q30 32 30 51q0 31 -48 31h-1v7h13h13t19 -1t20.5 -1.5t18.5 -0.5q10 0 19.5 0.5t20.5 1.5t19 1h13h14v-7h-1
q-57 0 -143 -86zM268 -155q-19 0 -31 12q-12 13 -12 31t13 31q12 13 32 13q21 0 36 -17q14 -17 14 -40q0 -49 -25 -78t-57 -37l-1 6q28 7 50 32t22 63q0 6 -1 11q-13 -27 -40 -27z" />
    <glyph glyph-name="kgreenlandic" unicode="&#x138;" horiz-adv-x="533" 
d="M521 0q-2 0 -9.5 0.5t-18.5 1.5q-12 1 -23 1h-21h-20.5t-21.5 -1t-18.5 -1.5t-9.5 -0.5h-24v7h1q43 0 43 18q0 7 -6 17l-139 226l-90 -93v-118q0 -32 10 -41q9 -9 44 -9h1v-7h-14q-5 0 -14 0.5t-20 1.5t-21.5 1h-18.5h-18.5t-21.5 -1t-20 -1.5t-14 -0.5h-14v7h1
q35 0 45 9q9 9 9 41v342q0 32 -9 41q-11 8 -45 8h-1v7h6q35 0 68 13q35 14 41 30h6v-311l85 88l-26 43h68l80 83q30 32 30 51q0 31 -48 31h-1v7h13h13t19 -1t20.5 -1.5t18.5 -0.5q10 0 19.5 0.5t20.5 1.5t19 1h13h14v-7h-1q-57 0 -143 -86l-77 -80l163 -265q18 -28 30 -36
q12 -9 38 -9h1v-7h-12z" />
    <glyph glyph-name="Lacute" unicode="&#x139;" horiz-adv-x="561" 
d="M458 -31l-6 2q2 15 -4 22q-7 7 -27 7h-221h-13t-19 1h-38h-38q-11 -1 -19 -1h-13h-16v8h1q33 0 42 9q9 8 9 40v567q0 32 -9 41q-10 8 -42 8h-1v8h16h13t19 -1t20.5 -1.5t17.5 -0.5t17.5 0.5t20.5 1.5t19 1h13h16v-8h-1q-32 0 -42 -8q-9 -9 -9 -41v-614h171q33 0 55 9
q20 7 46 36q22 24 50.5 67t65.5 106l6 -3zM76 737q19 33 42 89q11 26 20.5 44.5t16.5 29.5q11 15 26 15q13 0 21 -8q8 -10 8 -20q0 -11 -6 -20q-5 -8 -18.5 -21.5t-34.5 -33.5q-44 -41 -69 -79z" />
    <glyph glyph-name="lacute" unicode="&#x13a;" horiz-adv-x="246" 
d="M156 57q0 -32 10 -41q9 -9 44 -9h1v-7h-14q-5 0 -14 0.5t-20 1.5t-21.5 1h-18.5h-18.5t-21.5 -1t-20 -1.5t-14 -0.5h-14v7h1q35 0 45 9q9 9 9 41v568q0 32 -9 41q-11 8 -45 8h-1v7h6q35 0 68 13q35 14 41 30h6v-667zM61 780q19 33 42 89q11 26 20.5 44.5t16.5 29.5
q11 15 26 15q11 0 21 -8q8 -8 8 -20q0 -11 -6 -20q-5 -8 -18.5 -21.5t-34.5 -33.5q-44 -41 -69 -79z" />
    <glyph glyph-name="uni013B" unicode="&#x13b;" horiz-adv-x="561" 
d="M458 -31l-6 2q2 15 -4 22q-7 7 -27 7h-221h-13t-19 1h-38h-38q-11 -1 -19 -1h-13h-16v8h1q33 0 42 9q9 8 9 40v567q0 32 -9 41q-10 8 -42 8h-1v8h16h13t19 -1t20.5 -1.5t17.5 -0.5t17.5 0.5t20.5 1.5t19 1h13h16v-8h-1q-32 0 -42 -8q-9 -9 -9 -41v-614h171q33 0 55 9
q20 7 46 36q22 24 50.5 67t65.5 106l6 -3zM270 -155q-19 0 -31 12q-12 13 -12 31t13 31q12 13 32 13q21 0 36 -17q14 -17 14 -40q0 -49 -25 -78t-57 -37l-1 6q28 7 50 32t22 63q0 6 -1 11q-13 -27 -40 -27z" />
    <glyph glyph-name="uni013C" unicode="&#x13c;" horiz-adv-x="246" 
d="M156 57q0 -32 10 -41q9 -9 44 -9h1v-7h-14q-5 0 -14 0.5t-20 1.5t-21.5 1h-18.5h-18.5t-21.5 -1t-20 -1.5t-14 -0.5h-14v7h1q35 0 45 9q9 9 9 41v568q0 32 -9 41q-11 8 -45 8h-1v7h6q35 0 68 13q35 14 41 30h6v-667zM120 -155q-19 0 -31 12q-12 13 -12 31t13 31
q12 13 32 13q21 0 36 -17q14 -17 14 -40q0 -49 -25 -78t-57 -37l-1 6q28 7 50 32t22 63q0 6 -1 11q-13 -27 -40 -27z" />
    <glyph glyph-name="Lcaron" unicode="&#x13d;" horiz-adv-x="561" 
d="M458 -31l-6 2q2 15 -4 22q-7 7 -27 7h-221h-13t-19 1h-38h-38q-11 -1 -19 -1h-13h-16v8h1q33 0 42 9q9 8 9 40v567q0 32 -9 41q-10 8 -42 8h-1v8h16h13t19 -1t20.5 -1.5t17.5 -0.5t17.5 0.5t20.5 1.5t19 1h13h16v-8h-1q-32 0 -42 -8q-9 -9 -9 -41v-614h171q33 0 55 9
q20 7 46 36q22 24 50.5 67t65.5 106l6 -3zM394 458q4 23 7.5 51t5.5 63t4.5 58t5.5 34q8 26 31 26q13 0 21 -7q9 -7 9 -20q0 -10 -3 -18q-2 -8 -10 -27.5t-22 -50.5q-28 -63 -42 -111z" />
    <glyph glyph-name="lcaron" unicode="&#x13e;" horiz-adv-x="258" 
d="M156 57q0 -32 10 -41q9 -9 44 -9h1v-7h-14q-5 0 -14 0.5t-20 1.5t-21.5 1h-18.5h-18.5t-21.5 -1t-20 -1.5t-14 -0.5h-14v7h1q35 0 45 9q9 9 9 41v568q0 32 -9 41q-11 8 -45 8h-1v7h6q35 0 68 13q35 14 41 30h6v-667zM249 492q4 23 7.5 51t5.5 63t4.5 58t5.5 34
q8 26 31 26q13 0 21 -7q9 -7 9 -20q0 -10 -3 -18q-2 -8 -10 -27.5t-22 -50.5q-28 -63 -42 -111z" />
    <glyph glyph-name="Ldot" unicode="&#x13f;" horiz-adv-x="561" 
d="M458 -31l-6 2q2 15 -4 22q-7 7 -27 7h-221h-13t-19 1h-38h-38q-11 -1 -19 -1h-13h-16v8h1q33 0 42 9q9 8 9 40v567q0 32 -9 41q-10 8 -42 8h-1v8h16h13t19 -1t20.5 -1.5t17.5 -0.5t17.5 0.5t20.5 1.5t19 1h13h16v-8h-1q-32 0 -42 -8q-9 -9 -9 -41v-614h171q33 0 55 9
q20 7 46 36q22 24 50.5 67t65.5 106l6 -3zM375 306q-20 0 -34 14t-14 34q0 21 14 35t34 14q19 0 35 -14q14 -14 14 -35q0 -20 -14 -34t-35 -14z" />
    <glyph glyph-name="ldot" unicode="&#x140;" horiz-adv-x="388" 
d="M156 57q0 -32 10 -41q9 -9 44 -9h1v-7h-14q-5 0 -14 0.5t-20 1.5t-21.5 1h-18.5h-18.5t-21.5 -1t-20 -1.5t-14 -0.5h-14v7h1q35 0 45 9q9 9 9 41v568q0 32 -9 41q-11 8 -45 8h-1v7h6q35 0 68 13q35 14 41 30h6v-667zM319 226q-20 0 -34 14t-14 34q0 21 14 35t34 14
q19 0 35 -14q14 -14 14 -35q0 -20 -14 -34t-35 -14z" />
    <glyph glyph-name="Lslash" unicode="&#x141;" horiz-adv-x="566" 
d="M463 -31l-6 2q2 15 -4 22q-7 7 -27 7h-221h-13t-19 1h-38h-38q-11 -1 -19 -1h-13h-16v8h1q33 0 42 9q9 8 9 40v236l-71 -37l-5 9l76 39v320q0 32 -9 41q-10 8 -42 8h-1v8h16h13t19 -1t20.5 -1.5t17.5 -0.5t17.5 0.5t20.5 1.5t19 1h13h16v-8h-1q-32 0 -42 -8q-9 -9 -9 -41
v-284l124 65l5 -9l-129 -68v-318h171q33 0 55 9q20 7 46 36q22 24 50.5 67t65.5 106l6 -3z" />
    <glyph glyph-name="lslash" unicode="&#x142;" horiz-adv-x="287" 
d="M176 334v-277q0 -32 10 -41q9 -9 44 -9h1v-7h-14q-5 0 -14 0.5t-20 1.5t-21.5 1h-18.5h-18.5t-21.5 -1t-20 -1.5t-14 -0.5h-14v7h1q35 0 45 9q9 9 9 41v243l-81 -41l-4 8l85 44v314q0 32 -9 41q-11 8 -45 8h-1v7h6q35 0 68 13q35 14 41 30h6v-379l82 42l4 -8z" />
    <glyph glyph-name="Nacute" unicode="&#x143;" horiz-adv-x="690" 
d="M638 0h-11t-11 1h-17h-21q-7 -1 -12.5 -1h-10.5l-437 617v-486q0 -57 19 -89q18 -34 70 -34h1v-8h-25q-2 0 -9.5 0.5t-18.5 1.5t-21.5 1h-19.5h-19.5t-21.5 -1q-12 -1 -19.5 -1.5t-9.5 -0.5h-24v8h1q51 0 69 33t18 90v496q-1 1 -2.5 3.5t-4.5 6.5t-4.5 6.5t-2.5 3.5
q-3 3 -6 7q-2 3 -4 4.5t-3 2.5l-4 2t-4 3q-3 2 -9 4q-2 1 -5 1t-6 1q-5 1 -14 1h-1v8h7h30q8 -1 13.5 -1h9.5h12.5t17.5 1h29l418 -589v458q0 57 -18 90t-70 33h-1v8h25h9.5t18.5 -1t21.5 -1.5t19.5 -0.5t19.5 0.5t21.5 1.5t18.5 1h10.5h24v-8h-1q-52 0 -70 -33t-18 -90
v-472zM306 737q19 33 42 89q11 26 20.5 44.5t16.5 29.5q11 15 26 15q13 0 21 -8q8 -10 8 -20q0 -11 -6 -20q-5 -8 -18.5 -21.5t-34.5 -33.5q-44 -41 -69 -79z" />
    <glyph glyph-name="nacute" unicode="&#x144;" horiz-adv-x="547" 
d="M500 0q-6 0 -14.5 0.5t-19.5 1.5t-21 1h-19h-19t-21 -1t-19.5 -1.5t-14.5 -0.5h-14v7h1q35 0 45 9q9 9 9 41v374q0 48 -35 48q-17 0 -85 -24l-109 -42v-356q0 -32 10 -41q9 -9 44 -9h1v-7h-14q-5 0 -14 0.5t-20 1.5t-21.5 1h-18.5h-18.5t-21.5 -1t-20 -1.5t-14 -0.5h-14
v7h1q35 0 45 9q9 9 9 41v342q0 32 -9 41q-11 8 -45 8h-1v7h6q35 0 68 13q35 14 41 30h6v-76l106 41q90 35 127 35q62 0 62 -70v-371q0 -32 10 -41q9 -9 44 -9h1v-7h-14zM218 546q19 33 42 89q11 26 20.5 44.5t16.5 29.5q11 15 26 15q13 0 21 -8t8 -20q0 -11 -6 -20
q-5 -8 -18.5 -21.5t-34.5 -33.5q-44 -41 -69 -79z" />
    <glyph glyph-name="uni0145" unicode="&#x145;" horiz-adv-x="690" 
d="M638 0h-11t-11 1h-17h-21q-7 -1 -12.5 -1h-10.5l-437 617v-486q0 -57 19 -89q18 -34 70 -34h1v-8h-25q-2 0 -9.5 0.5t-18.5 1.5t-21.5 1h-19.5h-19.5t-21.5 -1q-12 -1 -19.5 -1.5t-9.5 -0.5h-24v8h1q51 0 69 33t18 90v496q-1 1 -2.5 3.5t-4.5 6.5t-4.5 6.5t-2.5 3.5
q-3 3 -6 7q-2 3 -4 4.5t-3 2.5l-4 2t-4 3q-3 2 -9 4q-2 1 -5 1t-6 1q-5 1 -14 1h-1v8h7h30q8 -1 13.5 -1h9.5h12.5t17.5 1h29l418 -589v458q0 57 -18 90t-70 33h-1v8h25h9.5t18.5 -1t21.5 -1.5t19.5 -0.5t19.5 0.5t21.5 1.5t18.5 1h10.5h24v-8h-1q-52 0 -70 -33t-18 -90
v-472zM357 -155q-19 0 -31 12q-12 13 -12 31t13 31q12 13 32 13q21 0 36 -17q14 -17 14 -40q0 -49 -25 -78t-57 -37l-1 6q28 7 50 32t22 63q0 6 -1 11q-13 -27 -40 -27z" />
    <glyph glyph-name="uni0146" unicode="&#x146;" horiz-adv-x="547" 
d="M500 0q-6 0 -14.5 0.5t-19.5 1.5t-21 1h-19h-19t-21 -1t-19.5 -1.5t-14.5 -0.5h-14v7h1q35 0 45 9q9 9 9 41v374q0 48 -35 48q-17 0 -85 -24l-109 -42v-356q0 -32 10 -41q9 -9 44 -9h1v-7h-14q-5 0 -14 0.5t-20 1.5t-21.5 1h-18.5h-18.5t-21.5 -1t-20 -1.5t-14 -0.5h-14
v7h1q35 0 45 9q9 9 9 41v342q0 32 -9 41q-11 8 -45 8h-1v7h6q35 0 68 13q35 14 41 30h6v-76l106 41q90 35 127 35q62 0 62 -70v-371q0 -32 10 -41q9 -9 44 -9h1v-7h-14zM276 -155q-19 0 -31 12q-12 13 -12 31t13 31q12 13 32 13q21 0 36 -17q14 -17 14 -40q0 -49 -25 -78
t-57 -37l-1 6q28 7 50 32t22 63q0 6 -1 11q-13 -27 -40 -27z" />
    <glyph glyph-name="Ncaron" unicode="&#x147;" horiz-adv-x="690" 
d="M638 0h-11t-11 1h-17h-21q-7 -1 -12.5 -1h-10.5l-437 617v-486q0 -57 19 -89q18 -34 70 -34h1v-8h-25q-2 0 -9.5 0.5t-18.5 1.5t-21.5 1h-19.5h-19.5t-21.5 -1q-12 -1 -19.5 -1.5t-9.5 -0.5h-24v8h1q51 0 69 33t18 90v496q-1 1 -2.5 3.5t-4.5 6.5t-4.5 6.5t-2.5 3.5
q-3 3 -6 7q-2 3 -4 4.5t-3 2.5l-4 2t-4 3q-3 2 -9 4q-2 1 -5 1t-6 1q-5 1 -14 1h-1v8h7h30q8 -1 13.5 -1h9.5h12.5t17.5 1h29l418 -589v458q0 57 -18 90t-70 33h-1v8h25h9.5t18.5 -1t21.5 -1.5t19.5 -0.5t19.5 0.5t21.5 1.5t18.5 1h10.5h24v-8h-1q-52 0 -70 -33t-18 -90
v-472zM367 734q-10 0 -18 8q-4 4 -8.5 10t-9.5 16q-6 10 -22 43q-8 15 -14.5 28.5t-13.5 26.5t-14 24l-14 22l6 4q17 -21 33 -39q8 -10 19 -20.5t24 -23.5l32 -33l33 33l23.5 23.5t18.5 20.5q17 18 33 39l6 -4q-7 -11 -13.5 -22t-13.5 -24t-14 -26.5t-15 -28.5
q-16 -33 -22 -43q-10 -19 -17 -26q-8 -8 -19 -8z" />
    <glyph glyph-name="ncaron" unicode="&#x148;" horiz-adv-x="547" 
d="M500 0q-6 0 -14.5 0.5t-19.5 1.5t-21 1h-19h-19t-21 -1t-19.5 -1.5t-14.5 -0.5h-14v7h1q35 0 45 9q9 9 9 41v374q0 48 -35 48q-17 0 -85 -24l-109 -42v-356q0 -32 10 -41q9 -9 44 -9h1v-7h-14q-5 0 -14 0.5t-20 1.5t-21.5 1h-18.5h-18.5t-21.5 -1t-20 -1.5t-14 -0.5h-14
v7h1q35 0 45 9q9 9 9 41v342q0 32 -9 41q-11 8 -45 8h-1v7h6q35 0 68 13q35 14 41 30h6v-76l106 41q90 35 127 35q62 0 62 -70v-371q0 -32 10 -41q9 -9 44 -9h1v-7h-14zM279 543q-10 0 -18 8q-4 4 -8.5 10t-9.5 16q-6 10 -22 43q-8 15 -14.5 28.5t-13.5 26.5t-14 24l-14 22
l6 4q17 -21 33 -39q8 -10 19 -20.5t24 -23.5l32 -33l33 33l23.5 23.5t18.5 20.5q17 18 33 39l6 -4q-7 -11 -13.5 -22t-13.5 -24t-14 -26.5t-15 -28.5q-16 -33 -22 -43q-10 -19 -17 -26q-8 -8 -19 -8z" />
    <glyph glyph-name="napostrophe" unicode="&#x149;" horiz-adv-x="631" 
d="M584 0q-6 0 -14.5 0.5t-19.5 1.5t-21 1h-19h-19t-21 -1t-19.5 -1.5t-14.5 -0.5h-14v7h1q35 0 45 9q9 9 9 41v374q0 48 -35 48q-17 0 -85 -24l-109 -42v-356q0 -32 10 -41q9 -9 44 -9h1v-7h-14q-5 0 -14 0.5t-20 1.5t-21.5 1h-18.5h-18.5t-21.5 -1t-20 -1.5t-14 -0.5h-14
v7h1q35 0 45 9q9 9 9 41v342q0 32 -9 41q-11 8 -45 8h-1v7h6q35 0 68 13q35 14 41 30h6v-76l106 41q90 35 127 35q62 0 62 -70v-371q0 -32 10 -41q9 -9 44 -9h1v-7h-14zM47 596q-20 0 -33 13t-13 33q0 19 14 33t35 14t38 -17q15 -18 15 -44q0 -52 -27 -84q-28 -33 -61 -40
l-2 7q29 7 55 36q25 28 25 69q0 7 -1 9q-14 -29 -45 -29z" />
    <glyph glyph-name="Eng" unicode="&#x14a;" horiz-adv-x="675" 
d="M374 -236q-35 0 -35 30q0 31 31 31q9 0 44 -11q31 -10 48 -10q33 0 69 53q35 53 44 144l-20 -1l-437 617v-486q0 -57 19 -89q18 -34 70 -34h1v-8h-25q-2 0 -9.5 0.5t-18.5 1.5t-21.5 1h-19.5h-19.5t-21.5 -1q-12 -1 -19.5 -1.5t-9.5 -0.5h-24v8h1q51 0 69 33t18 90v496
q-1 1 -2.5 3.5t-4.5 6.5t-4.5 6.5t-2.5 3.5q-3 3 -6 7q-2 3 -4 4.5t-3 2.5l-4 2t-4 3q-3 2 -9 4q-2 1 -5 1t-6 1q-5 1 -14 1h-1v8h7h30q8 -1 13.5 -1h9.5h12.5t17.5 1h29l418 -589v458q0 57 -18 90t-70 33h-1v8h25h9.5t18.5 -1t21.5 -1.5t19.5 -0.5t19.5 0.5t21.5 1.5
t18.5 1h10.5h24v-8h-1q-52 0 -70 -33t-18 -90v-472l53 -78h-10.5t-13.5 1h-29q-10 -122 -69 -180q-58 -57 -142 -57z" />
    <glyph glyph-name="eng" unicode="&#x14b;" horiz-adv-x="536" 
d="M459 39q0 -107 -46 -184q-55 -91 -142 -91q-14 0 -22 7q-9 7 -9 19q0 26 29 26q6 0 15 -1.5t22 -3.5q12 -2 20 -3.5t13 -1.5q54 0 54 85v540q0 48 -35 48q-17 0 -85 -24l-109 -42v-356q0 -32 10 -41q9 -9 44 -9h1v-7h-14q-5 0 -14 0.5t-20 1.5t-21.5 1h-18.5h-18.5
t-21.5 -1t-20 -1.5t-14 -0.5h-14v7h1q35 0 45 9q9 9 9 41v342q0 32 -9 41q-11 8 -45 8h-1v7h6q35 0 68 13q35 14 41 30h6v-76l106 41q90 35 127 35q62 0 62 -70v-389z" />
    <glyph glyph-name="Omacron" unicode="&#x14c;" horiz-adv-x="658" 
d="M329 -1q215 0 215 342q0 341 -215 341t-215 -341q0 -342 215 -342zM329 -10q-129 0 -211 100q-84 101 -84 251q0 151 84 251q83 99 211 99t212 -99q83 -101 83 -251t-83 -251q-84 -100 -212 -100zM208 797v22h240v-22h-240z" />
    <glyph glyph-name="omacron" unicode="&#x14d;" horiz-adv-x="512" 
d="M256 -8q-88 0 -151 74t-63 179q0 107 63 180t151 73t151 -73t63 -180q0 -105 -63 -179t-151 -74zM256 0q70 0 104 52q34 50 34 193q0 142 -34 194q-34 51 -104 51q-68 0 -103 -51q-35 -53 -35 -194t35 -193q34 -52 103 -52zM135 608v22h240v-22h-240z" />
    <glyph glyph-name="Obreve" unicode="&#x14e;" horiz-adv-x="658" 
d="M329 -1q215 0 215 342q0 341 -215 341t-215 -341q0 -342 215 -342zM329 -10q-129 0 -211 100q-84 101 -84 251q0 151 84 251q83 99 211 99t212 -99q83 -101 83 -251t-83 -251q-84 -100 -212 -100zM329 758q-46 0 -79 35q-34 35 -50 80l6 3q34 -67 123 -67t123 67l6 -3
q-16 -45 -50 -80q-33 -35 -79 -35z" />
    <glyph glyph-name="obreve" unicode="&#x14f;" horiz-adv-x="512" 
d="M256 -8q-88 0 -151 74t-63 179q0 107 63 180t151 73t151 -73t63 -180q0 -105 -63 -179t-151 -74zM256 0q70 0 104 52q34 50 34 193q0 142 -34 194q-34 51 -104 51q-68 0 -103 -51q-35 -53 -35 -194t35 -193q34 -52 103 -52zM256 569q-46 0 -79 35q-34 35 -50 80l6 3
q34 -67 123 -67t123 67l6 -3q-16 -45 -50 -80q-33 -35 -79 -35z" />
    <glyph glyph-name="Ohungarumlaut" unicode="&#x150;" horiz-adv-x="658" 
d="M329 -1q215 0 215 342q0 341 -215 341t-215 -341q0 -342 215 -342zM329 -10q-129 0 -211 100q-84 101 -84 251q0 151 84 251q83 99 211 99t212 -99q83 -101 83 -251t-83 -251q-84 -100 -212 -100zM258 737q19 37 36 89q8 26 14.5 43t11.5 27q9 17 26 17q13 0 20 -7
q8 -8 8 -19q0 -6 -5 -19q-9 -18 -46 -58q-36 -39 -59 -77zM378 737q19 37 36 89q8 26 14.5 43t11.5 27q9 17 26 17q13 0 20 -7q8 -8 8 -19q0 -6 -5 -19q-9 -18 -46 -58q-36 -39 -59 -77z" />
    <glyph glyph-name="ohungarumlaut" unicode="&#x151;" horiz-adv-x="512" 
d="M256 -8q-88 0 -151 74t-63 179q0 107 63 180t151 73t151 -73t63 -180q0 -105 -63 -179t-151 -74zM256 0q70 0 104 52q34 50 34 193q0 142 -34 194q-34 51 -104 51q-68 0 -103 -51q-35 -53 -35 -194t35 -193q34 -52 103 -52zM185 548q19 37 36 89q8 26 14.5 43t11.5 27
q9 17 26 17q13 0 20 -7q8 -8 8 -19q0 -6 -5 -19q-9 -18 -46 -58q-36 -39 -59 -77zM305 548q19 37 36 89q8 26 14.5 43t11.5 27q9 17 26 17q13 0 20 -7q8 -8 8 -19q0 -6 -5 -19q-9 -18 -46 -58q-36 -39 -59 -77z" />
    <glyph glyph-name="OE" unicode="&#x152;" horiz-adv-x="988" 
d="M860 -29q2 14 -5 21q-8 8 -26 8h-237h-17t-24 1h-48h-38q-11 -1 -19 -1h-13h-93q-134 0 -220 90q-85 89 -85 250q0 162 85 251q86 90 220 90h93h32q11 -1 20.5 -1h17.5h22.5t25.5 1h41h224q20 0 28 8q7 7 5 22l6 2l92 -226l-6 -3q-39 55 -67.5 91.5t-45.5 56.5
q-34 39 -96 39h-195v-320h128q55 0 73 31t25 101h7v-277h-7q-2 17 -4 31t-4 24t-5.5 20t-8.5 21q-11 21 -28 30q-19 9 -48 9h-128v-331h206q33 0 55 9q20 7 46 36q50 58 111 160l6 -3l-95 -243zM469 671h-113q-139 0 -190 -73q-52 -73 -52 -258q0 -186 52 -257
q51 -73 190 -73h113v661z" />
    <glyph glyph-name="oe" unicode="&#x153;" horiz-adv-x="830" 
d="M604 -8q-53 0 -99 29t-75 81q-29 -53 -73 -81q-47 -29 -101 -29q-88 0 -151 74t-63 179q0 107 63 180t151 73q56 0 102 -30q45 -30 74 -84q28 54 76 85q47 29 101 29q70 0 125 -49q56 -50 51 -133h-314q-1 -8 -1 -19v-26q0 -109 44 -183t115 -74q106 0 149 126l6 -2
q-47 -146 -180 -146zM256 0q70 0 104 52q34 50 34 193q0 142 -34 194q-34 51 -104 51q-68 0 -103 -51q-35 -53 -35 -194t35 -193q34 -52 103 -52zM717 325q-4 165 -113 165q-56 0 -89 -46q-34 -46 -43 -119h245z" />
    <glyph glyph-name="Racute" unicode="&#x154;" horiz-adv-x="633" 
d="M625 0q-13 0 -24 0.5t-22 1.5t-21 1h-20h-11.5t-14.5 -1t-13 -1.5t-9 -0.5l-179 320h-147v-263q0 -32 9 -40q9 -9 42 -9h1v-8h-16q-5 0 -13 0.5t-19 1.5t-20.5 1h-17.5h-17.5t-20.5 -1t-19 -1.5t-13 -0.5h-16v8h1q33 0 42 9q9 8 9 40v567q0 32 -9 41q-10 8 -42 8h-1v8h16
h32q11 -1 20.5 -1h17.5h21.5t25.5 1h42h108q96 0 160 -49t64 -132q0 -74 -60 -127q-62 -53 -163 -53h-4q20 -31 40 -41q20 -12 55 -12l92 -165q33 -59 55 -75q22 -18 59 -19v-8zM474 500q0 86 -32 129q-33 42 -118 42h-160v-341h160q84 0 117 40q33 39 33 130zM247 735
q19 33 42 89q11 26 20.5 44.5t16.5 29.5q11 15 26 15q11 0 21 -8q8 -10 8 -20q0 -11 -6 -20q-5 -8 -18.5 -21.5t-34.5 -33.5q-44 -41 -69 -79z" />
    <glyph glyph-name="racute" unicode="&#x155;" horiz-adv-x="354" 
d="M219 0q-8 0 -18 0.5t-24 1.5t-25.5 1h-21.5h-19t-21 -1t-19.5 -1.5t-14.5 -0.5h-14v7h1q35 0 45 9q9 9 9 41v342q0 32 -9 41q-11 8 -45 8h-1v7h6q35 0 68 13q35 14 41 30h6v-115q38 56 74 86q38 29 76 29q40 0 40 -26q0 -27 -39 -27q-7 0 -30 5q-19 4 -33 4
q-31 0 -88 -84v-313q0 -31 14 -40q13 -10 51 -10h14v-7h-23zM141 546q19 33 42 89q11 26 20.5 44.5t16.5 29.5q11 15 26 15q11 0 21 -8q8 -8 8 -20q0 -11 -6 -20q-5 -8 -18.5 -21.5t-34.5 -33.5q-44 -41 -69 -79z" />
    <glyph glyph-name="uni0156" unicode="&#x156;" horiz-adv-x="633" 
d="M625 0q-13 0 -24 0.5t-22 1.5t-21 1h-20h-11.5t-14.5 -1t-13 -1.5t-9 -0.5l-179 320h-147v-263q0 -32 9 -40q9 -9 42 -9h1v-8h-16q-5 0 -13 0.5t-19 1.5t-20.5 1h-17.5h-17.5t-20.5 -1t-19 -1.5t-13 -0.5h-16v8h1q33 0 42 9q9 8 9 40v567q0 32 -9 41q-10 8 -42 8h-1v8h16
h32q11 -1 20.5 -1h17.5h21.5t25.5 1h42h108q96 0 160 -49t64 -132q0 -74 -60 -127q-62 -53 -163 -53h-4q20 -31 40 -41q20 -12 55 -12l92 -165q33 -59 55 -75q22 -18 59 -19v-8zM474 500q0 86 -32 129q-33 42 -118 42h-160v-341h160q84 0 117 40q33 39 33 130zM320 -155
q-19 0 -31 12q-12 13 -12 31t13 31q12 13 32 13q21 0 36 -17q14 -17 14 -40q0 -49 -25 -78t-57 -37l-1 6q28 7 50 32t22 63q0 6 -1 11q-13 -27 -40 -27z" />
    <glyph glyph-name="uni0157" unicode="&#x157;" horiz-adv-x="354" 
d="M219 0q-8 0 -18 0.5t-24 1.5t-25.5 1h-21.5h-19t-21 -1t-19.5 -1.5t-14.5 -0.5h-14v7h1q35 0 45 9q9 9 9 41v342q0 32 -9 41q-11 8 -45 8h-1v7h6q35 0 68 13q35 14 41 30h6v-115q38 56 74 86q38 29 76 29q40 0 40 -26q0 -27 -39 -27q-7 0 -30 5q-19 4 -33 4
q-31 0 -88 -84v-313q0 -31 14 -40q13 -10 51 -10h14v-7h-23zM128 -155q-19 0 -31 12q-12 13 -12 31t13 31q12 13 32 13q21 0 36 -17q14 -17 14 -40q0 -49 -25 -78t-57 -37l-1 6q28 7 50 32t22 63q0 6 -1 11q-13 -27 -40 -27z" />
    <glyph glyph-name="Rcaron" unicode="&#x158;" horiz-adv-x="633" 
d="M625 0q-13 0 -24 0.5t-22 1.5t-21 1h-20h-11.5t-14.5 -1t-13 -1.5t-9 -0.5l-179 320h-147v-263q0 -32 9 -40q9 -9 42 -9h1v-8h-16q-5 0 -13 0.5t-19 1.5t-20.5 1h-17.5h-17.5t-20.5 -1t-19 -1.5t-13 -0.5h-16v8h1q33 0 42 9q9 8 9 40v567q0 32 -9 41q-10 8 -42 8h-1v8h16
h32q11 -1 20.5 -1h17.5h21.5t25.5 1h42h108q96 0 160 -49t64 -132q0 -74 -60 -127q-62 -53 -163 -53h-4q20 -31 40 -41q20 -12 55 -12l92 -165q33 -59 55 -75q22 -18 59 -19v-8zM474 500q0 86 -32 129q-33 42 -118 42h-160v-341h160q84 0 117 40q33 39 33 130zM308 732
q-10 0 -18 8q-4 4 -8.5 10t-9.5 16q-6 10 -22 43q-8 15 -14.5 28.5t-13.5 26.5t-14 24l-14 22l6 4q17 -21 33 -39q8 -10 19 -20.5t24 -23.5l32 -33l33 33l23.5 23.5t18.5 20.5q17 18 33 39l6 -4q-7 -11 -13.5 -22t-13.5 -24t-14 -26.5t-15 -28.5q-16 -33 -22 -43
q-10 -19 -17 -26q-8 -8 -19 -8z" />
    <glyph glyph-name="rcaron" unicode="&#x159;" horiz-adv-x="354" 
d="M219 0q-8 0 -18 0.5t-24 1.5t-25.5 1h-21.5h-19t-21 -1t-19.5 -1.5t-14.5 -0.5h-14v7h1q35 0 45 9q9 9 9 41v342q0 32 -9 41q-11 8 -45 8h-1v7h6q35 0 68 13q35 14 41 30h6v-115q38 56 74 86q38 29 76 29q40 0 40 -26q0 -27 -39 -27q-7 0 -30 5q-19 4 -33 4
q-31 0 -88 -84v-313q0 -31 14 -40q13 -10 51 -10h14v-7h-23zM202 543q-10 0 -18 8q-4 4 -8.5 10t-9.5 16q-6 10 -22 43q-8 15 -14.5 28.5t-13.5 26.5t-14 24l-14 22l6 4q17 -21 33 -39q8 -10 19 -20.5t24 -23.5l32 -33l33 33l23.5 23.5t18.5 20.5q17 18 33 39l6 -4
q-7 -11 -13.5 -22t-13.5 -24t-14 -26.5t-15 -28.5q-16 -33 -22 -43q-10 -19 -17 -26q-8 -8 -19 -8z" />
    <glyph glyph-name="Sacute" unicode="&#x15a;" horiz-adv-x="554" 
d="M516 188q0 -62 -32 -109q-34 -47 -78 -68q-46 -21 -95 -21q-46 0 -100 16q-55 15 -63 15q-36 0 -33 -33l-6 -2l-81 230l6 3q31 -60 68 -104q35 -44 62 -65q25 -21 59 -34q32 -13 48 -15q8 -1 18 -1.5t21 -0.5q68 0 115 41q46 40 46 99q0 109 -165 170l-81 30
q-70 26 -118 73t-48 114q0 75 54 120t135 45q29 0 72 -9q22 -5 36 -7.5t19 -2.5q38 0 33 33l6 2l87 -206l-6 -3q-66 108 -125 146t-122 38q-70 0 -110 -35q-40 -34 -40 -87t37 -87q37 -36 118 -65l83 -31q180 -66 180 -189zM196 735q19 33 42 89q11 26 20.5 44.5t16.5 29.5
q11 15 26 15q13 0 21 -8q8 -10 8 -20q0 -11 -6 -20q-5 -8 -18.5 -21.5t-34.5 -33.5q-44 -41 -69 -79z" />
    <glyph glyph-name="sacute" unicode="&#x15b;" horiz-adv-x="451" 
d="M245 -8q-28 0 -67 10t-58 10q-10 0 -18 -5q-7 -6 -6 -15l-6 -2l-50 172l6 2q77 -164 200 -164q60 0 92 29q31 28 31 73q0 69 -112 112l-81 31q-107 41 -107 133q0 52 35 87q35 33 95 33q24 0 61 -8q35 -9 48 -9q12 0 20 5q7 4 5 15l6 2l50 -168l-6 -2q-72 157 -184 157
q-50 0 -76 -23q-25 -22 -25 -54q0 -33 25 -57q24 -25 83 -48l80 -31q60 -24 89 -56q28 -31 28 -79q0 -69 -45 -110q-44 -40 -113 -40zM148 546q19 33 42 89q11 26 20.5 44.5t16.5 29.5q11 15 26 15q13 0 21 -8t8 -20q0 -11 -6 -20q-5 -8 -18.5 -21.5t-34.5 -33.5
q-44 -41 -69 -79z" />
    <glyph glyph-name="Scircumflex" unicode="&#x15c;" horiz-adv-x="554" 
d="M516 188q0 -62 -32 -109q-34 -47 -78 -68q-46 -21 -95 -21q-46 0 -100 16q-55 15 -63 15q-36 0 -33 -33l-6 -2l-81 230l6 3q31 -60 68 -104q35 -44 62 -65q25 -21 59 -34q32 -13 48 -15q8 -1 18 -1.5t21 -0.5q68 0 115 41q46 40 46 99q0 109 -165 170l-81 30
q-70 26 -118 73t-48 114q0 75 54 120t135 45q29 0 72 -9q22 -5 36 -7.5t19 -2.5q38 0 33 33l6 2l87 -206l-6 -3q-66 108 -125 146t-122 38q-70 0 -110 -35q-40 -34 -40 -87t37 -87q37 -36 118 -65l83 -31q180 -66 180 -189zM365 731q-8 11 -16.5 20.5t-16.5 19.5
q-8 9 -18.5 20t-23.5 24l-33 32l-32 -32l-24 -24t-19 -20q-8 -10 -16.5 -19.5t-16.5 -20.5l-6 4l14 22t14 24q13 25 28 56q8 15 13 25.5t9 16.5q11 20 18 27t18 7q12 0 19 -7q4 -4 8 -10.5t9 -16.5q4 -6 9 -16.5t13 -25.5q8 -16 15 -29.5t14 -26.5t13.5 -24t13.5 -22z" />
    <glyph glyph-name="scircumflex" unicode="&#x15d;" horiz-adv-x="451" 
d="M245 -8q-28 0 -67 10t-58 10q-10 0 -18 -5q-7 -6 -6 -15l-6 -2l-50 172l6 2q77 -164 200 -164q60 0 92 29q31 28 31 73q0 69 -112 112l-81 31q-107 41 -107 133q0 52 35 87q35 33 95 33q24 0 61 -8q35 -9 48 -9q12 0 20 5q7 4 5 15l6 2l50 -168l-6 -2q-72 157 -184 157
q-50 0 -76 -23q-25 -22 -25 -54q0 -33 25 -57q24 -25 83 -48l80 -31q60 -24 89 -56q28 -31 28 -79q0 -69 -45 -110q-44 -40 -113 -40zM317 542q-8 11 -16.5 20.5t-16.5 19.5q-8 9 -18.5 20t-23.5 24l-33 32l-32 -32l-24 -24t-19 -20q-8 -10 -16.5 -19.5t-16.5 -20.5l-6 4
l14 22t14 24q13 25 28 56q8 15 13 25.5t9 16.5q11 20 18 27t18 7q12 0 19 -7q4 -4 8 -10.5t9 -16.5q4 -6 9 -16.5t13 -25.5q8 -16 15 -29.5t14 -26.5t13.5 -24t13.5 -22z" />
    <glyph glyph-name="Scedilla" unicode="&#x15e;" horiz-adv-x="554" 
d="M368 -117q0 -51 -60 -88t-128 -45l-1 7q65 8 106 41q40 34 40 70q0 41 -51 41q-35 0 -56 -12l-3 3l78 91q-19 1 -40.5 5t-46.5 11q-51 14 -58 14q-36 0 -33 -33l-6 -2l-81 230l6 3q31 -60 68 -104q35 -44 62 -65q25 -21 59 -34q32 -13 48 -15q8 -1 18 -1.5t21 -0.5
q68 0 115 41q46 40 46 99q0 109 -165 170l-81 30q-70 26 -118 73t-48 114q0 75 54 120t135 45q29 0 72 -9q22 -5 36 -7.5t19 -2.5q38 0 33 33l6 2l87 -206l-6 -3q-66 108 -125 146t-122 38q-70 0 -110 -35q-40 -34 -40 -87t37 -87q37 -36 118 -65l83 -31q180 -66 180 -189
q0 -62 -32 -109q-34 -47 -78 -68q-46 -21 -95 -21h-10l-30 -48q7 1 12 1.5t8 0.5q34 0 56 -16q21 -17 21 -45z" />
    <glyph glyph-name="scedilla" unicode="&#x15f;" horiz-adv-x="451" 
d="M311 -117q0 -51 -60 -88t-128 -45l-1 7q65 8 106 41q40 34 40 70q0 41 -51 41q-35 0 -56 -12l-3 3l79 92q-12 1 -27 3.5t-33 7.5q-37 9 -57 9q-10 0 -18 -5q-7 -6 -6 -15l-6 -2l-50 172l6 2q77 -164 200 -164q60 0 92 29q31 28 31 73q0 69 -112 112l-81 31
q-107 41 -107 133q0 52 35 87q35 33 95 33q24 0 61 -8q35 -9 48 -9q12 0 20 5q7 4 5 15l6 2l50 -168l-6 -2q-72 157 -184 157q-50 0 -76 -23q-25 -22 -25 -54q0 -33 25 -57q24 -25 83 -48l80 -31q60 -24 89 -56q28 -31 28 -79q0 -69 -44 -110q-44 -40 -115 -40l-30 -50
q7 1 12 1.5t8 0.5q34 0 56 -16q21 -17 21 -45z" />
    <glyph glyph-name="Scaron" unicode="&#x160;" horiz-adv-x="554" 
d="M516 188q0 -62 -32 -109q-34 -47 -78 -68q-46 -21 -95 -21q-46 0 -100 16q-55 15 -63 15q-36 0 -33 -33l-6 -2l-81 230l6 3q31 -60 68 -104q35 -44 62 -65q25 -21 59 -34q32 -13 48 -15q8 -1 18 -1.5t21 -0.5q68 0 115 41q46 40 46 99q0 109 -165 170l-81 30
q-70 26 -118 73t-48 114q0 75 54 120t135 45q29 0 72 -9q22 -5 36 -7.5t19 -2.5q38 0 33 33l6 2l87 -206l-6 -3q-66 108 -125 146t-122 38q-70 0 -110 -35q-40 -34 -40 -87t37 -87q37 -36 118 -65l83 -31q180 -66 180 -189zM257 732q-10 0 -18 8q-4 4 -8.5 10t-9.5 16
q-6 10 -22 43q-8 15 -14.5 28.5t-13.5 26.5t-14 24l-14 22l6 4q17 -21 33 -39q8 -10 19 -20.5t24 -23.5l32 -33l33 33l23.5 23.5t18.5 20.5q17 18 33 39l6 -4q-7 -11 -13.5 -22t-13.5 -24t-14 -26.5t-15 -28.5q-16 -33 -22 -43q-10 -19 -17 -26q-8 -8 -19 -8z" />
    <glyph glyph-name="scaron" unicode="&#x161;" horiz-adv-x="451" 
d="M245 -8q-28 0 -67 10t-58 10q-10 0 -18 -5q-7 -6 -6 -15l-6 -2l-50 172l6 2q77 -164 200 -164q60 0 92 29q31 28 31 73q0 69 -112 112l-81 31q-107 41 -107 133q0 52 35 87q35 33 95 33q24 0 61 -8q35 -9 48 -9q12 0 20 5q7 4 5 15l6 2l50 -168l-6 -2q-72 157 -184 157
q-50 0 -76 -23q-25 -22 -25 -54q0 -33 25 -57q24 -25 83 -48l80 -31q60 -24 89 -56q28 -31 28 -79q0 -69 -45 -110q-44 -40 -113 -40zM216 543q-10 0 -18 8q-4 4 -8.5 10t-9.5 16q-6 10 -22 43q-8 15 -14.5 28.5t-13.5 26.5t-14 24l-14 22l6 4q17 -21 33 -39q8 -10 19 -20.5
t24 -23.5l32 -33l33 33l23.5 23.5t18.5 20.5q17 18 33 39l6 -4q-7 -11 -13.5 -22t-13.5 -24t-14 -26.5t-15 -28.5q-16 -33 -22 -43q-10 -19 -17 -26q-8 -8 -19 -8z" />
    <glyph glyph-name="uni0162" unicode="&#x162;" horiz-adv-x="640" 
d="M394 -117q0 -51 -60 -88t-128 -45l-1 7q65 8 106 41q40 34 40 70q0 41 -51 41q-35 0 -56 -12l-3 3q42 56 85 103h-6h-17.5t-20.5 -1t-19 -1.5t-13 -0.5h-16v8h1q33 0 42 9q9 8 9 40v614h-88q-29 0 -43 -6q-15 -7 -34 -30q-17 -21 -43.5 -65.5t-62.5 -113.5l-6 3l76 253
l6 -1q0 -30 36 -30h110h35q14 -1 25.5 -1h22.5h23t26 1h34h110q36 0 36 30l6 1l76 -253l-6 -3q-36 69 -62.5 113.5t-43.5 65.5q-19 24 -33 30q-13 6 -44 6h-88v-614q0 -32 9 -40q9 -9 42 -9h1v-8h-16q-5 0 -12.5 0.5t-16.5 1.5q-10 1 -16.5 1h-10.5l-37 -61q7 1 12 1.5
t8 0.5q34 0 56 -16q21 -17 21 -45z" />
    <glyph glyph-name="uni0163" unicode="&#x163;" horiz-adv-x="279" 
d="M221 -117q0 -51 -60 -88t-128 -45l-1 7q65 8 106 41q40 34 40 70q0 41 -51 41q-35 0 -56 -12l-3 3l80 93q-60 11 -60 82v406h-68v9h68v79q28 0 44 18q16 16 16 42v1h6v-140h101v-9h-101v-417q0 -52 37 -52q15 0 32 14t29 35l6 -3q-14 -27 -38 -46q-24 -20 -56 -20h-10
l-30 -50q7 1 12 1.5t8 0.5q34 0 56 -16q21 -17 21 -45z" />
    <glyph glyph-name="Tcaron" unicode="&#x164;" horiz-adv-x="640" 
d="M406 0h-16q-5 0 -13 0.5t-19 1.5t-20.5 1h-17.5h-17.5t-20.5 -1t-19 -1.5t-13 -0.5h-16v8h1q33 0 42 9q9 8 9 40v614h-88q-29 0 -43 -6q-15 -7 -34 -30q-17 -21 -43.5 -65.5t-62.5 -113.5l-6 3l76 253l6 -1q0 -30 36 -30h110h35q14 -1 25.5 -1h22.5h23t26 1h34h110
q36 0 36 30l6 1l76 -253l-6 -3q-36 69 -62.5 113.5t-43.5 65.5q-19 24 -33 30q-13 6 -44 6h-88v-614q0 -32 9 -40q9 -9 42 -9h1v-8zM320 732q-10 0 -18 8q-4 4 -8.5 10t-9.5 16q-6 10 -22 43q-8 15 -14.5 28.5t-13.5 26.5t-14 24l-14 22l6 4q17 -21 33 -39q8 -10 19 -20.5
t24 -23.5l32 -33l33 33l23.5 23.5t18.5 20.5q17 18 33 39l6 -4q-7 -11 -13.5 -22t-13.5 -24t-14 -26.5t-15 -28.5q-16 -33 -22 -43q-10 -19 -17 -26q-8 -8 -19 -8z" />
    <glyph glyph-name="tcaron" unicode="&#x165;" horiz-adv-x="279" 
d="M164 -8q-76 0 -76 83v406h-68v9h68v79q28 0 44 18q16 16 16 42v1h6v-140h101v-9h-101v-417q0 -52 37 -52q15 0 32 14t29 35l6 -3q-14 -27 -38 -46q-24 -20 -56 -20zM204 542q4 23 7.5 51t5.5 63t4.5 58t5.5 34q8 26 31 26q13 0 21 -7q9 -7 9 -20q0 -10 -3 -18
q-2 -8 -10 -27.5t-22 -50.5q-28 -63 -42 -111z" />
    <glyph glyph-name="Tbar" unicode="&#x166;" horiz-adv-x="640" 
d="M390 0q-5 0 -13 0.5t-19 1.5t-20.5 1h-17.5h-17.5t-20.5 -1t-19 -1.5t-13 -0.5h-16v8h1q33 0 42 9q9 8 9 40v284h-125v10h125v320h-88q-29 0 -43 -6q-15 -7 -34 -30q-17 -21 -43.5 -65.5t-62.5 -113.5l-6 3l76 253l6 -1q0 -30 36 -30h110h35q14 -1 25.5 -1h22.5h23t26 1
h34h110q36 0 36 30l6 1l76 -253l-6 -3q-36 69 -62.5 113.5t-43.5 65.5q-19 24 -33 30q-13 6 -44 6h-88v-320h125v-10h-125v-284q0 -32 9 -40q9 -9 42 -9h1v-8h-16z" />
    <glyph glyph-name="tbar" unicode="&#x167;" horiz-adv-x="279" 
d="M258 58q-14 -27 -38 -46q-24 -20 -56 -20q-76 0 -76 83v259h-68v9h68v138h-68v9h68v79q28 0 44 18q16 16 16 42v1h6v-140h101v-9h-101v-138h86v-9h-86v-270q0 -52 37 -52q15 0 32 14t29 35z" />
    <glyph glyph-name="Utilde" unicode="&#x168;" horiz-adv-x="620" 
d="M533 211q0 -100 -57 -159q-57 -60 -156 -60q-240 0 -240 220v412q0 32 -9 41q-10 8 -42 8h-1v8h16h13t19 -1t20.5 -1.5t17.5 -0.5t17.5 0.5t20.5 1.5t19 1h13h16v-8h-1q-32 0 -42 -8q-9 -9 -9 -41v-371q0 -132 43 -190q42 -59 140 -59q87 0 139 57q53 56 53 150v339
q0 57 -18 90t-70 33h-1v8h25h9.5t18.5 -1t21.5 -1.5t19.5 -0.5t19.5 0.5t21.5 1.5t18.5 1h10.5h24v-8h-1q-52 0 -70 -33t-18 -90v-339zM367 777q-21 0 -55 22q-34 21 -61 21q-10 0 -23 -11q-13 -10 -18 -18q-6 -7 -18 -27l-6 4q1 2 4.5 7t8.5 14q11 18 18 27q6 8 18 21
q10 13 24 19q15 5 28 5q21 0 55 -21q34 -22 61 -22q10 0 24 11q6 5 10.5 10t7.5 9q2 4 6.5 10t10.5 16l6 -4q-34 -58 -58 -77q-20 -16 -43 -16z" />
    <glyph glyph-name="utilde" unicode="&#x169;" horiz-adv-x="534" 
d="M485 0h-14t-20 1t-21.5 1h-18.5h-9.5t-9.5 -1t-8.5 -1h-5.5v68l-101 -41q-87 -35 -127 -35q-62 0 -62 70v337q0 32 -9 41q-11 8 -45 8h-1v7h6q35 0 68 13q35 14 41 30h6v-439q0 -48 35 -48q24 0 85 24l104 42v322q0 32 -9 41q-11 8 -45 8h-1v7h6q35 0 68 13q35 14 41 30
h6v-441q0 -32 10 -41q9 -9 44 -9h1v-7h-14zM306 588q-21 0 -55 22q-34 21 -61 21q-10 0 -23 -11q-13 -10 -18 -18q-6 -7 -18 -27l-6 4q1 2 4.5 7t8.5 14q11 18 18 27q6 8 18 21q10 13 24 19q15 5 28 5q21 0 55 -21q34 -22 61 -22q10 0 24 11q6 5 10.5 10t7.5 9q2 4 6.5 10
t10.5 16l6 -4q-34 -58 -58 -77q-20 -16 -43 -16z" />
    <glyph glyph-name="Umacron" unicode="&#x16a;" horiz-adv-x="620" 
d="M533 211q0 -100 -57 -159q-57 -60 -156 -60q-240 0 -240 220v412q0 32 -9 41q-10 8 -42 8h-1v8h16h13t19 -1t20.5 -1.5t17.5 -0.5t17.5 0.5t20.5 1.5t19 1h13h16v-8h-1q-32 0 -42 -8q-9 -9 -9 -41v-371q0 -132 43 -190q42 -59 140 -59q87 0 139 57q53 56 53 150v339
q0 57 -18 90t-70 33h-1v8h25h9.5t18.5 -1t21.5 -1.5t19.5 -0.5t19.5 0.5t21.5 1.5t18.5 1h10.5h24v-8h-1q-52 0 -70 -33t-18 -90v-339zM206 797v22h240v-22h-240z" />
    <glyph glyph-name="umacron" unicode="&#x16b;" horiz-adv-x="534" 
d="M485 0h-14t-20 1t-21.5 1h-18.5h-9.5t-9.5 -1t-8.5 -1h-5.5v68l-101 -41q-87 -35 -127 -35q-62 0 -62 70v337q0 32 -9 41q-11 8 -45 8h-1v7h6q35 0 68 13q35 14 41 30h6v-439q0 -48 35 -48q24 0 85 24l104 42v322q0 32 -9 41q-11 8 -45 8h-1v7h6q35 0 68 13q35 14 41 30
h6v-441q0 -32 10 -41q9 -9 44 -9h1v-7h-14zM145 608v22h240v-22h-240z" />
    <glyph glyph-name="Ubreve" unicode="&#x16c;" horiz-adv-x="620" 
d="M533 211q0 -100 -57 -159q-57 -60 -156 -60q-240 0 -240 220v412q0 32 -9 41q-10 8 -42 8h-1v8h16h13t19 -1t20.5 -1.5t17.5 -0.5t17.5 0.5t20.5 1.5t19 1h13h16v-8h-1q-32 0 -42 -8q-9 -9 -9 -41v-371q0 -132 43 -190q42 -59 140 -59q87 0 139 57q53 56 53 150v339
q0 57 -18 90t-70 33h-1v8h25h9.5t18.5 -1t21.5 -1.5t19.5 -0.5t19.5 0.5t21.5 1.5t18.5 1h10.5h24v-8h-1q-52 0 -70 -33t-18 -90v-339zM327 758q-46 0 -79 35q-34 35 -50 80l6 3q34 -67 123 -67t123 67l6 -3q-16 -45 -50 -80q-33 -35 -79 -35z" />
    <glyph glyph-name="ubreve" unicode="&#x16d;" horiz-adv-x="534" 
d="M485 0h-14t-20 1t-21.5 1h-18.5h-9.5t-9.5 -1t-8.5 -1h-5.5v68l-101 -41q-87 -35 -127 -35q-62 0 -62 70v337q0 32 -9 41q-11 8 -45 8h-1v7h6q35 0 68 13q35 14 41 30h6v-439q0 -48 35 -48q24 0 85 24l104 42v322q0 32 -9 41q-11 8 -45 8h-1v7h6q35 0 68 13q35 14 41 30
h6v-441q0 -32 10 -41q9 -9 44 -9h1v-7h-14zM266 569q-46 0 -79 35q-34 35 -50 80l6 3q34 -67 123 -67t123 67l6 -3q-16 -45 -50 -80q-33 -35 -79 -35z" />
    <glyph glyph-name="Uring" unicode="&#x16e;" horiz-adv-x="620" 
d="M533 211q0 -100 -57 -159q-57 -60 -156 -60q-240 0 -240 220v412q0 32 -9 41q-10 8 -42 8h-1v8h16h13t19 -1t20.5 -1.5t17.5 -0.5t17.5 0.5t20.5 1.5t19 1h13h16v-8h-1q-32 0 -42 -8q-9 -9 -9 -41v-371q0 -132 43 -190q42 -59 140 -59q87 0 139 57q53 56 53 150v339
q0 57 -18 90t-70 33h-1v8h25h9.5t18.5 -1t21.5 -1.5t19.5 -0.5t19.5 0.5t21.5 1.5t18.5 1h10.5h24v-8h-1q-52 0 -70 -33t-18 -90v-339zM411 828q0 -35 -24 -61q-24 -25 -60 -25t-60 25q-24 26 -24 61q0 36 24 61t60 25t60 -25t24 -61zM401 828q0 32 -21 54t-53 22t-53 -22
t-21 -54q0 -30 21 -53t53 -23t53 23t21 53z" />
    <glyph glyph-name="uring" unicode="&#x16f;" horiz-adv-x="534" 
d="M485 0h-14t-20 1t-21.5 1h-18.5h-9.5t-9.5 -1t-8.5 -1h-5.5v68l-101 -41q-87 -35 -127 -35q-62 0 -62 70v337q0 32 -9 41q-11 8 -45 8h-1v7h6q35 0 68 13q35 14 41 30h6v-439q0 -48 35 -48q24 0 85 24l104 42v322q0 32 -9 41q-11 8 -45 8h-1v7h6q35 0 68 13q35 14 41 30
h6v-441q0 -32 10 -41q9 -9 44 -9h1v-7h-14zM350 639q0 -35 -24 -61q-24 -25 -60 -25t-60 25q-24 26 -24 61q0 36 24 61t60 25t60 -25t24 -61zM340 639q0 32 -21 54t-53 22t-53 -22t-21 -54q0 -30 21 -53t53 -23t53 23t21 53z" />
    <glyph glyph-name="Uhungarumlaut" unicode="&#x170;" horiz-adv-x="620" 
d="M533 211q0 -100 -57 -159q-57 -60 -156 -60q-240 0 -240 220v412q0 32 -9 41q-10 8 -42 8h-1v8h16h13t19 -1t20.5 -1.5t17.5 -0.5t17.5 0.5t20.5 1.5t19 1h13h16v-8h-1q-32 0 -42 -8q-9 -9 -9 -41v-371q0 -132 43 -190q42 -59 140 -59q87 0 139 57q53 56 53 150v339
q0 57 -18 90t-70 33h-1v8h25h9.5t18.5 -1t21.5 -1.5t19.5 -0.5t19.5 0.5t21.5 1.5t18.5 1h10.5h24v-8h-1q-52 0 -70 -33t-18 -90v-339zM256 737q19 37 36 89q8 26 14.5 43t11.5 27q9 17 26 17q13 0 20 -7q8 -8 8 -19q0 -6 -5 -19q-9 -18 -46 -58q-36 -39 -59 -77zM376 737
q19 37 36 89q8 26 14.5 43t11.5 27q9 17 26 17q13 0 20 -7q8 -8 8 -19q0 -6 -5 -19q-9 -18 -46 -58q-36 -39 -59 -77z" />
    <glyph glyph-name="uhungarumlaut" unicode="&#x171;" horiz-adv-x="534" 
d="M485 0h-14t-20 1t-21.5 1h-18.5h-9.5t-9.5 -1t-8.5 -1h-5.5v68l-101 -41q-87 -35 -127 -35q-62 0 -62 70v337q0 32 -9 41q-11 8 -45 8h-1v7h6q35 0 68 13q35 14 41 30h6v-439q0 -48 35 -48q24 0 85 24l104 42v322q0 32 -9 41q-11 8 -45 8h-1v7h6q35 0 68 13q35 14 41 30
h6v-441q0 -32 10 -41q9 -9 44 -9h1v-7h-14zM195 548q19 37 36 89q8 26 14.5 43t11.5 27q9 17 26 17q13 0 20 -7q8 -8 8 -19q0 -6 -5 -19q-9 -18 -46 -58q-36 -39 -59 -77zM315 548q19 37 36 89q8 26 14.5 43t11.5 27q9 17 26 17q13 0 20 -7q8 -8 8 -19q0 -6 -5 -19
q-9 -18 -46 -58q-36 -39 -59 -77z" />
    <glyph glyph-name="Uogonek" unicode="&#x172;" horiz-adv-x="620" 
d="M533 211q0 -177 -167 -218q-30 -8 -54 -32q-26 -26 -26 -55q0 -28 18 -44q16 -16 44 -16q42 0 73 40l6 -4q-18 -25 -49 -43q-32 -17 -65 -17q-39 0 -62 18q-23 20 -23 49q0 30 38 60q38 31 80 44h-4.5t-7.5 -1h-14q-240 0 -240 220v412q0 32 -9 41q-10 8 -42 8h-1v8h16
h13t19 -1t20.5 -1.5t17.5 -0.5t17.5 0.5t20.5 1.5t19 1h13h16v-8h-1q-32 0 -42 -8q-9 -9 -9 -41v-371q0 -132 43 -190q42 -59 140 -59q87 0 139 57q53 56 53 150v339q0 57 -18 90t-70 33h-1v8h25h9.5t18.5 -1t21.5 -1.5t19.5 -0.5t19.5 0.5t21.5 1.5t18.5 1h10.5h24v-8h-1
q-52 0 -70 -33t-18 -90v-339z" />
    <glyph glyph-name="uogonek" unicode="&#x173;" horiz-adv-x="534" 
d="M485 0h-9t-12 1h-21q-83 -39 -83 -95q0 -28 18 -44q16 -16 44 -16q42 0 73 40l6 -4q-18 -25 -49 -43q-32 -17 -65 -17q-39 0 -62 18q-23 20 -23 49q0 54 128 113h-19h-9.5t-9.5 -1t-8.5 -1h-5.5v68l-101 -41q-87 -35 -127 -35q-62 0 -62 70v337q0 32 -9 41q-11 8 -45 8
h-1v7h6q35 0 68 13q35 14 41 30h6v-439q0 -48 35 -48q24 0 85 24l104 42v322q0 32 -9 41q-11 8 -45 8h-1v7h6q35 0 68 13q35 14 41 30h6v-441q0 -32 10 -41q9 -9 44 -9h1v-7h-14z" />
    <glyph glyph-name="Wcircumflex" unicode="&#x174;" horiz-adv-x="976" 
d="M751 0h-10t-10 1h-17h-15q-5 -1 -10 -1h-10l-191 554l-151 -474l29 -80h-9.5t-9.5 1h-18h-15q-5 -1 -10.5 -1h-10.5l-231 622q-19 51 -69 51v8h21h10.5t20.5 -1t23 -1.5t18 -0.5q9 0 20 0.5t25 1.5t22 1h10h21v-8q-53 0 -53 -30q0 -7 5 -24l195 -524l151 476l-18 52
q-11 30 -27 40t-42 10v8h21h11t22 -1t24.5 -1.5t18.5 -0.5q9 0 19.5 0.5t22.5 1.5t19.5 1h10.5h21v-8q-53 0 -53 -30q0 -7 5 -24l180 -519l146 461q14 39 14 59q0 53 -71 53v8h12h15.5t25.5 -1t25.5 -1.5t17.5 -0.5q4 0 12.5 0.5t22.5 1.5t22.5 1h12.5h21v-8
q-85 -4 -120 -114l-150 -476zM593 731q-8 11 -16.5 20.5t-16.5 19.5q-8 9 -18.5 20t-23.5 24l-33 32l-32 -32l-24 -24t-19 -20q-8 -10 -16.5 -19.5t-16.5 -20.5l-6 4l14 22t14 24q13 25 28 56q8 15 13 25.5t9 16.5q11 20 18 27t18 7q12 0 19 -7q4 -4 8 -10.5t9 -16.5
q4 -6 9 -16.5t13 -25.5q8 -16 15 -29.5t14 -26.5t13.5 -24t13.5 -22z" />
    <glyph glyph-name="wcircumflex" unicode="&#x175;" horiz-adv-x="752" 
d="M585 0h-10t-10 1h-16h-17q-5 -1 -10 -1h-9l-139 370l-105 -295l28 -75h-10t-10 1h-15h-17q-6 -1 -11 -1h-9l-163 433q-10 28 -25 40q-14 10 -43 10v7h23h10t18 -1t20.5 -1.5t19.5 -0.5t20 0.5t21 1.5t17.5 1h8.5h24v-7q-50 0 -50 -24q0 -6 3 -15l135 -357l105 295l-19 51
q-10 28 -25 40q-14 10 -43 10v7h23h9.5t17.5 -1t20.5 -1.5t19.5 -0.5t20 0.5t21 1.5t18 1h9h24v-7q-50 0 -50 -24q0 -7 3 -15l135 -357l110 309q8 24 8 40q0 47 -66 47v7h10h15t20 -1t20.5 -1.5t17.5 -0.5t17.5 0.5t20.5 1.5t18.5 1h11.5h17v-7q-40 -1 -63 -24
q-22 -22 -39 -67l-113 -317zM480 542q-8 11 -16.5 20.5t-16.5 19.5q-8 9 -18.5 20t-23.5 24l-33 32l-32 -32l-24 -24t-19 -20q-8 -10 -16.5 -19.5t-16.5 -20.5l-6 4l14 22t14 24q13 25 28 56q8 15 13 25.5t9 16.5q11 20 18 27t18 7q12 0 19 -7q4 -4 8 -10.5t9 -16.5
q4 -6 9 -16.5t13 -25.5q8 -16 15 -29.5t14 -26.5t13.5 -24t13.5 -22z" />
    <glyph glyph-name="Ycircumflex" unicode="&#x176;" horiz-adv-x="593" 
d="M339 57q0 -32 9 -40q9 -9 42 -9h1v-8h-16q-5 0 -13 0.5t-19 1.5t-20.5 1h-17.5h-17.5t-20.5 -1t-19 -1.5t-13 -0.5h-16v8h1q33 0 42 9q9 8 9 40v253l-202 313q-18 27 -36 39q-19 11 -45 11v8h29h10.5t18.5 -1t21 -1.5t19 -0.5t19.5 0.5t22.5 1.5t19.5 1h10.5h34v-8
q-28 0 -40 -5q-11 -6 -11 -20q0 -13 10 -29l183 -282l139 227q26 44 26 63q0 46 -64 46h-1v8h13h15.5t24.5 -1t24 -1.5t17 -0.5q3 0 12 0.5t23 1.5t23 1h13h19v-8h-1q-40 0 -71 -29q-29 -27 -66 -88l-141 -229v-270zM421 731q-8 11 -16.5 20.5t-16.5 19.5q-8 9 -18.5 20
t-23.5 24l-33 32l-32 -32l-24 -24t-19 -20q-8 -10 -16.5 -19.5t-16.5 -20.5l-6 4l14 22t14 24q13 25 28 56q8 15 13 25.5t9 16.5q11 20 18 27t18 7q12 0 19 -7q4 -4 8 -10.5t9 -16.5q4 -6 9 -16.5t13 -25.5q8 -16 15 -29.5t14 -26.5t13.5 -24t13.5 -22z" />
    <glyph glyph-name="ycircumflex" unicode="&#x177;" horiz-adv-x="465" 
d="M297 0h-10t-10 1h-16h-11q-5 -1 -8.5 -1h-6.5l-20 -45q-50 -111 -82 -150q-33 -41 -95 -41q-41 0 -41 27q0 12 8 18q7 7 20 7t37 -7q26 -6 35 -6q27 0 49 33q11 17 26.5 47t34.5 75l19 42l-164 434q-10 27 -25 39q-14 10 -43 10v7h23h10t18 -1t20.5 -1.5t19.5 -0.5
t20 0.5t21 1.5t17.5 1h8.5h24v-7q-50 0 -50 -24q0 -6 3 -15l135 -357l110 309q8 22 8 40q0 47 -66 47v7h10h15t20 -1t20.5 -1.5t16.5 -0.5q8 0 17.5 0.5t20.5 1.5t19 1h12h17v-7q-39 -1 -63 -25q-22 -22 -39 -66l-113 -317zM350 542q-8 11 -16.5 20.5t-16.5 19.5
q-8 9 -18.5 20t-23.5 24l-33 32l-32 -32l-24 -24t-19 -20q-8 -10 -16.5 -19.5t-16.5 -20.5l-6 4l14 22t14 24q13 25 28 56q8 15 13 25.5t9 16.5q11 20 18 27t18 7q12 0 19 -7q4 -4 8 -10.5t9 -16.5q4 -6 9 -16.5t13 -25.5q8 -16 15 -29.5t14 -26.5t13.5 -24t13.5 -22z" />
    <glyph glyph-name="Ydieresis" unicode="&#x178;" horiz-adv-x="593" 
d="M339 57q0 -32 9 -40q9 -9 42 -9h1v-8h-16q-5 0 -13 0.5t-19 1.5t-20.5 1h-17.5h-17.5t-20.5 -1t-19 -1.5t-13 -0.5h-16v8h1q33 0 42 9q9 8 9 40v253l-202 313q-18 27 -36 39q-19 11 -45 11v8h29h10.5t18.5 -1t21 -1.5t19 -0.5t19.5 0.5t22.5 1.5t19.5 1h10.5h34v-8
q-28 0 -40 -5q-11 -6 -11 -20q0 -13 10 -29l183 -282l139 227q26 44 26 63q0 46 -64 46h-1v8h13h15.5t24.5 -1t24 -1.5t17 -0.5q3 0 12 0.5t23 1.5t23 1h13h19v-8h-1q-40 0 -71 -29q-29 -27 -66 -88l-141 -229v-270zM264 807q0 -19 -13 -31q-13 -13 -32 -13q-18 0 -31 13
q-13 12 -13 31t13 32t31 13q19 0 32 -13t13 -32zM453 807q0 -18 -13 -31t-32 -13t-31 13q-13 12 -13 31t13 32q12 13 31 13t32 -13t13 -32z" />
    <glyph glyph-name="Zacute" unicode="&#x179;" horiz-adv-x="586" 
d="M472 -31l-6 2q2 14 -5 21q-8 8 -26 8h-411v4l445 667h-209q-61 0 -96 -39q-21 -23 -50 -62t-66 -94l-6 3l95 234l6 -2q-1 -15 6 -22q8 -8 27 -8h376v-4l-445 -667h244q33 0 54 9q20 8 45 36q50 58 111 160l6 -3zM266 735q19 33 42 89q11 26 20.5 44.5t16.5 29.5
q11 15 26 15q13 0 21 -8q8 -10 8 -20q0 -11 -6 -20q-5 -8 -18.5 -21.5t-34.5 -33.5q-44 -41 -69 -79z" />
    <glyph glyph-name="zacute" unicode="&#x17a;" horiz-adv-x="446" 
d="M353 -20q0 11 -9 16q-9 4 -32 4h-280v4l299 478h-120q-33 0 -50 -6t-37 -26q-47 -47 -88 -113l-5 3l68 171l6 -1q0 -12 10 -16q8 -4 31 -4h261v-4l-300 -478h135q41 0 60 9q17 7 46 37q11 11 30.5 37t48.5 68l5 -3l-73 -177zM187 546q19 33 42 89q11 26 20.5 44.5
t16.5 29.5q11 15 26 15q11 0 21 -8q8 -8 8 -20q0 -11 -6 -20q-5 -8 -18.5 -21.5t-34.5 -33.5q-44 -41 -69 -79z" />
    <glyph glyph-name="Zdotaccent" unicode="&#x17b;" horiz-adv-x="586" 
d="M472 -31l-6 2q2 14 -5 21q-8 8 -26 8h-411v4l445 667h-209q-61 0 -96 -39q-21 -23 -50 -62t-66 -94l-6 3l95 234l6 -2q-1 -15 6 -22q8 -8 27 -8h376v-4l-445 -667h244q33 0 54 9q20 8 45 36q50 58 111 160l6 -3zM327 755q-20 0 -34 14t-14 34q0 21 14 35t34 14
q19 0 35 -14q14 -14 14 -35q0 -20 -14 -34t-35 -14z" />
    <glyph glyph-name="zdotaccent" unicode="&#x17c;" horiz-adv-x="446" 
d="M353 -20q0 11 -9 16q-9 4 -32 4h-280v4l299 478h-120q-33 0 -50 -6t-37 -26q-47 -47 -88 -113l-5 3l68 171l6 -1q0 -12 10 -16q8 -4 31 -4h261v-4l-300 -478h135q41 0 60 9q17 7 46 37q11 11 30.5 37t48.5 68l5 -3l-73 -177zM248 576q-20 0 -34 14t-14 34q0 21 14 35
t34 14q19 0 35 -14q14 -14 14 -35q0 -20 -14 -34t-35 -14z" />
    <glyph glyph-name="Zcaron" unicode="&#x17d;" horiz-adv-x="586" 
d="M472 -31l-6 2q2 14 -5 21q-8 8 -26 8h-411v4l445 667h-209q-61 0 -96 -39q-21 -23 -50 -62t-66 -94l-6 3l95 234l6 -2q-1 -15 6 -22q8 -8 27 -8h376v-4l-445 -667h244q33 0 54 9q20 8 45 36q50 58 111 160l6 -3zM327 732q-10 0 -18 8q-4 4 -8.5 10t-9.5 16q-6 10 -22 43
q-8 15 -14.5 28.5t-13.5 26.5t-14 24l-14 22l6 4q17 -21 33 -39q8 -10 19 -20.5t24 -23.5l32 -33l33 33l23.5 23.5t18.5 20.5q17 18 33 39l6 -4q-7 -11 -13.5 -22t-13.5 -24t-14 -26.5t-15 -28.5q-16 -33 -22 -43q-10 -19 -17 -26q-8 -8 -19 -8z" />
    <glyph glyph-name="zcaron" unicode="&#x17e;" horiz-adv-x="446" 
d="M353 -20q0 11 -9 16q-9 4 -32 4h-280v4l299 478h-120q-33 0 -50 -6t-37 -26q-47 -47 -88 -113l-5 3l68 171l6 -1q0 -12 10 -16q8 -4 31 -4h261v-4l-300 -478h135q41 0 60 9q17 7 46 37q11 11 30.5 37t48.5 68l5 -3l-73 -177zM248 543q-10 0 -18 8q-4 4 -8.5 10t-9.5 16
q-6 10 -22 43q-8 15 -14.5 28.5t-13.5 26.5t-14 24l-14 22l6 4q17 -21 33 -39q8 -10 19 -20.5t24 -23.5l32 -33l33 33l23.5 23.5t18.5 20.5q17 18 33 39l6 -4q-7 -11 -13.5 -22t-13.5 -24t-14 -26.5t-15 -28.5q-16 -33 -22 -43q-10 -19 -17 -26q-8 -8 -19 -8z" />
    <glyph glyph-name="florin" unicode="&#x192;" horiz-adv-x="356" 
d="M210 326v-269q0 -110 -51 -183q-34 -49 -88 -80q-53 -29 -100 -29q-30 0 -30 26q0 27 30 27q3 0 11 -0.5t22 -1.5t23 -1.5t14 -0.5q59 0 81 33q22 32 22 115v364h-97v9h97v72q0 110 51 183q34 49 88 80q53 29 100 29q30 0 30 -26q0 -27 -30 -27q-3 0 -11 0.5t-22 1.5
t-23 1.5t-14 0.5q-58 0 -81 -33q-22 -32 -22 -115v-167h128v-9h-128z" />
    <glyph glyph-name="uni01B5" unicode="&#x1b5;" horiz-adv-x="586" 
d="M472 -31l-6 2q5 29 -32 29h-410v4l225 337h-139v10h146l213 320h-209q-61 0 -96 -39q-21 -23 -50 -62t-66 -94l-6 3l95 234l6 -2q-1 -15 6 -22q8 -8 27 -8h376v-4l-217 -326h132v-10h-139l-221 -331h242q33 0 55 9q20 7 46 36q50 58 111 160l6 -3z" />
    <glyph glyph-name="uni01B6" unicode="&#x1b6;" horiz-adv-x="446" 
d="M254 243l-147 -235h135q39 0 57 9q9 4 21 13.5t28 23.5q24 21 79 105l5 -3l-73 -177l-6 1q0 11 -9 16q-9 4 -32 4h-280v4l150 239h-87v9h92l144 230h-120q-32 0 -49 -6q-8 -4 -17.5 -10t-20.5 -16q-42 -39 -88 -113l-5 3l68 171l6 -1q0 -12 10 -16q8 -4 31 -4h261v-4
l-147 -234h85v-9h-91z" />
    <glyph glyph-name="Aringacute" unicode="&#x1fa;" horiz-adv-x="638" 
d="M632 0q-3 0 -11 0.5t-21 1.5t-23 1h-18h-20t-25 -1t-22 -1.5t-10 -0.5h-21v8q52 0 52 31q0 12 -7 25l-52 124h-322l-27 -68q-14 -39 -14 -59q0 -53 71 -53v-8h-12q-5 0 -15.5 0.5t-25.5 1.5t-25.5 1h-17.5h-12t-22 -1t-23 -1.5t-13 -0.5h-21v8q41 1 69 28q28 26 51 86
l187 478l-34 81h21q6 -1 10.5 -1h7.5h7.5t9.5 1h18l260 -621q22 -52 71 -52v-8h-21zM136 198h314l-162 391zM381 828q0 -35 -24 -61q-24 -25 -60 -25t-60 25q-24 26 -24 61q0 28 13 50q10 18 21 40t22 48t19.5 44t15.5 28q11 15 26 15q11 0 21 -8q8 -10 8 -20q0 -11 -6 -20
q-13 -19 -51 -53q-37 -33 -58 -57q22 19 53 19q36 0 60 -25t24 -61zM371 828q0 32 -21 54t-53 22t-53 -22t-21 -54q0 -30 21 -53t53 -23t53 23t21 53z" />
    <glyph glyph-name="aringacute" unicode="&#x1fb;" horiz-adv-x="500" 
d="M403 -8q-30 0 -45 19q-16 19 -16 47q-78 -66 -158 -66q-64 0 -98 34q-36 35 -36 93q0 108 163 172l129 52v78q0 40 -10 54q-10 15 -41 15q-50 0 -88 -26q-37 -25 -78 -75q-14 -17 -29 -17q-10 0 -18 8t-8 18q0 31 70 65q72 35 152 35q62 0 90 -23q26 -24 26 -68v-362
q0 -35 24 -35q25 0 46 36l5 -3q-27 -51 -80 -51zM193 3q35 0 76 19q20 9 38.5 20.5t34.5 25.5v18v248l-126 -52q-54 -23 -72 -61q-18 -39 -18 -100q0 -118 67 -118zM338 639q0 -35 -24 -61q-24 -25 -60 -25t-60 25q-24 26 -24 61q0 28 13 50q10 18 21 40t22 48t19.5 44
t15.5 28q11 15 26 15q13 0 21 -8t8 -20q0 -11 -6 -20q-13 -19 -51 -53q-37 -33 -58 -57q22 19 53 19q36 0 60 -25t24 -61zM328 639q0 32 -21 54t-53 22t-53 -22t-21 -54q0 -30 21 -53t53 -23t53 23t21 53z" />
    <glyph glyph-name="AEacute" unicode="&#x1fc;" horiz-adv-x="1001" 
d="M482 627l-315 -429h315v429zM873 -29q2 14 -5 21q-8 8 -26 8h-237h-18t-24 1h-47h-38q-11 -1 -19 -1h-13h-16v8h1q33 0 42 9q9 8 9 40v131h-323l-52 -71q-30 -40 -30 -67q0 -21 13 -31q13 -11 48 -11h2v-8h-12q-6 0 -16.5 0.5t-25.5 1.5t-26 1h-18h-13t-23 -1
q-15 -1 -24 -1.5t-14 -0.5h-23v8h2q68 4 151 114l365 496q13 16 13 33q0 22 -41 22h-5v8h16h32q11 -1 20.5 -1h17.5h21.5t25.5 1h42h224q20 0 28 8q7 7 5 22l6 2l92 -226l-6 -3q-39 55 -67.5 91.5t-45.5 56.5q-34 39 -96 39h-195v-320h128q55 0 73 31t25 101h7v-277h-7
q-2 17 -4 31t-4 24t-5.5 20t-8.5 21q-11 21 -28 30q-19 9 -48 9h-128v-331h206q33 0 55 9q20 7 46 36q50 58 111 160l6 -3l-95 -243zM551 737q19 33 42 89q11 26 20.5 44.5t16.5 29.5q11 15 26 15q11 0 21 -8q8 -10 8 -20q0 -11 -6 -20q-5 -8 -18.5 -21.5t-34.5 -33.5
q-44 -41 -69 -79z" />
    <glyph glyph-name="aeacute" unicode="&#x1fd;" horiz-adv-x="770" 
d="M544 -8q-102 0 -164 99q-78 -99 -181 -99q-61 0 -105 39t-44 118q0 82 65 129t157 47h70v94q0 40 -9 56q-10 15 -42 15q-52 0 -87 -25q-18 -13 -37.5 -32t-41.5 -44q-14 -17 -29 -17q-10 0 -18 8t-8 18q0 31 70 65q72 35 152 35q55 0 78 -17q23 -18 29 -59q58 76 150 76
q70 0 125 -49q56 -50 51 -133h-314q-1 -8 -1 -19v-26q0 -109 44 -183t115 -74q106 0 149 126l6 -2q-47 -146 -180 -146zM204 2q95 0 171 96q-33 65 -33 168v50h-68q-83 0 -115 -39q-33 -40 -33 -126q0 -149 78 -149zM545 490q-55 0 -89 -43q-35 -44 -44 -122h245
q-4 165 -112 165zM339 546q19 33 42 89q11 26 20.5 44.5t16.5 29.5q11 15 26 15q11 0 21 -8q8 -8 8 -20q0 -11 -6 -20q-5 -8 -18.5 -21.5t-34.5 -33.5q-44 -41 -69 -79z" />
    <glyph glyph-name="Oslashacute" unicode="&#x1fe;" horiz-adv-x="658" 
d="M329 -10q-99 0 -171 60l-64 -105l-8 5l64 106q-116 102 -116 285q0 151 84 251q83 99 211 99q99 0 171 -60l63 104l9 -5l-64 -105q116 -104 116 -284q0 -150 -83 -251q-84 -100 -212 -100zM329 682q-215 0 -215 -341q0 -171 54 -257l316 521q-53 77 -155 77zM329 -1
q215 0 215 342q0 170 -54 255l-317 -521q57 -76 156 -76zM286 737q19 33 42 89q11 26 20.5 44.5t16.5 29.5q11 15 26 15q13 0 21 -8q8 -10 8 -20q0 -11 -6 -20q-5 -8 -18.5 -21.5t-34.5 -33.5q-44 -41 -69 -79z" />
    <glyph glyph-name="oslashacute" unicode="&#x1ff;" horiz-adv-x="512" 
d="M256 -8q-66 0 -122 44l-53 -86l-7 5l53 87q-85 73 -85 203q0 107 63 180t151 73q67 0 122 -45l53 88l8 -5l-54 -88q85 -78 85 -203q0 -105 -63 -179t-151 -74zM256 0q70 0 104 52q34 50 34 193q0 114 -26 175l-220 -360q32 -60 108 -60zM256 490q-68 0 -103 -51
q-35 -53 -35 -194q0 -115 26 -176l219 361q-31 60 -107 60zM196 546q19 33 42 89q11 26 20.5 44.5t16.5 29.5q11 15 26 15q13 0 21 -8t8 -20q0 -11 -6 -20q-5 -8 -18.5 -21.5t-34.5 -33.5q-44 -41 -69 -79z" />
    <glyph glyph-name="uni0218" unicode="&#x218;" horiz-adv-x="554" 
d="M516 188q0 -62 -32 -109q-34 -47 -78 -68q-46 -21 -95 -21q-46 0 -100 16q-55 15 -63 15q-36 0 -33 -33l-6 -2l-81 230l6 3q31 -60 68 -104q35 -44 62 -65q25 -21 59 -34q32 -13 48 -15q8 -1 18 -1.5t21 -0.5q68 0 115 41q46 40 46 99q0 109 -165 170l-81 30
q-70 26 -118 73t-48 114q0 75 54 120t135 45q29 0 72 -9q22 -5 36 -7.5t19 -2.5q38 0 33 33l6 2l87 -206l-6 -3q-66 108 -125 146t-122 38q-70 0 -110 -35q-40 -34 -40 -87t37 -87q37 -36 118 -65l83 -31q180 -66 180 -189zM308 -155q-19 0 -31 12q-12 13 -12 31t13 31
q12 13 32 13q21 0 36 -17q14 -17 14 -40q0 -49 -25 -78t-57 -37l-1 6q28 7 50 32t22 63q0 6 -1 11q-13 -27 -40 -27z" />
    <glyph glyph-name="uni0219" unicode="&#x219;" horiz-adv-x="451" 
d="M245 -8q-28 0 -67 10t-58 10q-10 0 -18 -5q-7 -6 -6 -15l-6 -2l-50 172l6 2q77 -164 200 -164q60 0 92 29q31 28 31 73q0 69 -112 112l-81 31q-107 41 -107 133q0 52 35 87q35 33 95 33q24 0 61 -8q35 -9 48 -9q12 0 20 5q7 4 5 15l6 2l50 -168l-6 -2q-72 157 -184 157
q-50 0 -76 -23q-25 -22 -25 -54q0 -33 25 -57q24 -25 83 -48l80 -31q60 -24 89 -56q28 -31 28 -79q0 -69 -45 -110q-44 -40 -113 -40zM242 -155q-19 0 -31 12q-12 13 -12 31t13 31q12 13 32 13q21 0 36 -17q14 -17 14 -40q0 -49 -25 -78t-57 -37l-1 6q28 7 50 32t22 63
q0 6 -1 11q-13 -27 -40 -27z" />
    <glyph glyph-name="uni021A" unicode="&#x21a;" horiz-adv-x="640" 
d="M406 0h-16q-5 0 -13 0.5t-19 1.5t-20.5 1h-17.5h-17.5t-20.5 -1t-19 -1.5t-13 -0.5h-16v8h1q33 0 42 9q9 8 9 40v614h-88q-29 0 -43 -6q-15 -7 -34 -30q-17 -21 -43.5 -65.5t-62.5 -113.5l-6 3l76 253l6 -1q0 -30 36 -30h110h35q14 -1 25.5 -1h22.5h23t26 1h34h110
q36 0 36 30l6 1l76 -253l-6 -3q-36 69 -62.5 113.5t-43.5 65.5q-19 24 -33 30q-13 6 -44 6h-88v-614q0 -32 9 -40q9 -9 42 -9h1v-8zM317 -155q-19 0 -31 12q-12 13 -12 31t13 31q12 13 32 13q21 0 36 -17q14 -17 14 -40q0 -49 -25 -78t-57 -37l-1 6q28 7 50 32t22 63
q0 6 -1 11q-13 -27 -40 -27z" />
    <glyph glyph-name="uni021B" unicode="&#x21b;" horiz-adv-x="279" 
d="M164 -8q-76 0 -76 83v406h-68v9h68v79q28 0 44 18q16 16 16 42v1h6v-140h101v-9h-101v-417q0 -52 37 -52q15 0 32 14t29 35l6 -3q-14 -27 -38 -46q-24 -20 -56 -20zM144 -155q-19 0 -31 12q-12 13 -12 31t13 31q12 13 32 13q21 0 36 -17q14 -17 14 -40q0 -49 -25 -78
t-57 -37l-1 6q28 7 50 32t22 63q0 6 -1 11q-13 -27 -40 -27z" />
    <glyph glyph-name="uni0237" unicode="&#x237;" horiz-adv-x="241" 
d="M164 39q0 -107 -46 -184q-55 -91 -142 -91q-14 0 -22 7q-9 7 -9 19q0 26 29 26q6 0 15 -1.5t22 -3.5q12 -2 20 -3.5t13 -1.5q54 0 54 85v508q0 32 -9 41q-11 8 -45 8h-1v7h6q35 0 68 13q35 14 41 30h6v-459z" />
    <glyph glyph-name="circumflex" unicode="&#x2c6;" horiz-adv-x="326" 
d="M271 542q-8 11 -16.5 20.5t-16.5 19.5q-8 9 -18.5 20t-23.5 24l-33 32l-32 -32l-24 -24t-19 -20q-8 -10 -16.5 -19.5t-16.5 -20.5l-6 4l14 22t14 24q13 25 28 56q8 15 13 25.5t9 16.5q11 20 18 27t18 7q12 0 19 -7q4 -4 8 -10.5t9 -16.5q4 -6 9 -16.5t13 -25.5
q8 -16 15 -29.5t14 -26.5t13.5 -24t13.5 -22z" />
    <glyph glyph-name="caron" unicode="&#x2c7;" horiz-adv-x="326" 
d="M163 543q-10 0 -18 8q-4 4 -8.5 10t-9.5 16q-6 10 -22 43q-8 15 -14.5 28.5t-13.5 26.5t-14 24l-14 22l6 4q17 -21 33 -39q8 -10 19 -20.5t24 -23.5l32 -33l33 33l23.5 23.5t18.5 20.5q17 18 33 39l6 -4q-7 -11 -13.5 -22t-13.5 -24t-14 -26.5t-15 -28.5q-16 -33 -22 -43
q-10 -19 -17 -26q-8 -8 -19 -8z" />
    <glyph glyph-name="breve" unicode="&#x2d8;" horiz-adv-x="388" 
d="M194 569q-46 0 -79 35q-34 35 -50 80l6 3q34 -67 123 -67t123 67l6 -3q-16 -45 -50 -80q-33 -35 -79 -35z" />
    <glyph glyph-name="dotaccent" unicode="&#x2d9;" horiz-adv-x="197" 
d="M98 576q-20 0 -34 14t-14 34q0 21 14 35t34 14q19 0 35 -14q14 -14 14 -35q0 -20 -14 -34t-35 -14z" />
    <glyph glyph-name="ring" unicode="&#x2da;" horiz-adv-x="267" 
d="M217 639q0 -35 -24 -61q-24 -25 -60 -25t-60 25q-24 26 -24 61q0 36 24 61t60 25t60 -25t24 -61zM207 639q0 32 -21 54t-53 22t-53 -22t-21 -54q0 -30 21 -53t53 -23t53 23t21 53z" />
    <glyph glyph-name="ogonek" unicode="&#x2db;" horiz-adv-x="298" 
d="M194 0q-86 -41 -86 -94q0 -28 18 -44q16 -16 44 -16q42 0 73 40l6 -4q-18 -25 -49 -43q-32 -17 -65 -17q-39 0 -62 18q-23 20 -23 49q0 32 43 62q41 29 88 49h13z" />
    <glyph glyph-name="tilde" unicode="&#x2dc;" horiz-adv-x="402" 
d="M241 588q-21 0 -55 22q-34 21 -61 21q-10 0 -23 -11q-13 -10 -18 -18q-6 -7 -18 -27l-6 4q1 2 4.5 7t8.5 14q11 18 18 27q6 8 18 21q10 13 24 19q15 5 28 5q21 0 55 -21q34 -22 61 -22q10 0 24 11q6 5 10.5 10t7.5 9q2 4 6.5 10t10.5 16l6 -4q-34 -58 -58 -77
q-20 -16 -43 -16z" />
    <glyph glyph-name="hungarumlaut" unicode="&#x2dd;" horiz-adv-x="335" 
d="M49 548q19 37 36 89q8 26 14.5 43t11.5 27q9 17 26 17q13 0 20 -7q8 -8 8 -19q0 -6 -5 -19q-9 -18 -46 -58q-36 -39 -59 -77zM169 548q19 37 36 89q8 26 14.5 43t11.5 27q9 17 26 17q13 0 20 -7q8 -8 8 -19q0 -6 -5 -19q-9 -18 -46 -58q-36 -39 -59 -77z" />
    <glyph glyph-name="pi" unicode="&#x3c0;" horiz-adv-x="557" 
d="M500 0q-6 0 -14.5 0.5t-19.5 1.5t-21 1h-19h-19t-21 -1t-19.5 -1.5t-14.5 -0.5h-14v7h1q35 0 45 9q9 9 9 41v424h-229v-424q0 -32 10 -41q9 -9 44 -9h1v-7h-14q-5 0 -14 0.5t-20 1.5t-21.5 1h-18.5h-18.5t-21.5 -1t-20 -1.5t-14 -0.5h-14v7h1q35 0 45 9q9 9 9 41v376
q0 32 -9 41q-10 9 -45 9h-1v7h14h34q11 -1 21 -1h19h19.5t25.5 1h39h127h39q14 -1 25 -1h20h19t21 1h34h14v-7h-1q-35 0 -44 -9q-10 -9 -10 -41v-376q0 -32 10 -41q9 -9 44 -9h1v-7h-14z" />
    <glyph glyph-name="Wgrave" unicode="&#x1e80;" horiz-adv-x="976" 
d="M751 0h-10t-10 1h-17h-15q-5 -1 -10 -1h-10l-191 554l-151 -474l29 -80h-9.5t-9.5 1h-18h-15q-5 -1 -10.5 -1h-10.5l-231 622q-19 51 -69 51v8h21h10.5t20.5 -1t23 -1.5t18 -0.5q9 0 20 0.5t25 1.5t22 1h10h21v-8q-53 0 -53 -30q0 -7 5 -24l195 -524l151 476l-18 52
q-11 30 -27 40t-42 10v8h21h11t22 -1t24.5 -1.5t18.5 -0.5q9 0 19.5 0.5t22.5 1.5t19.5 1h10.5h21v-8q-53 0 -53 -30q0 -7 5 -24l180 -519l146 461q14 39 14 59q0 53 -71 53v8h12h15.5t25.5 -1t25.5 -1.5t17.5 -0.5q4 0 12.5 0.5t22.5 1.5t22.5 1h12.5h21v-8
q-85 -4 -120 -114l-150 -476zM540 731q-25 36 -68 78q-43 38 -54 56q-6 9 -6 20q0 10 8 20q8 8 21 8q16 0 26 -15q7 -11 16.5 -29.5t20.5 -44.5q23 -56 42 -89z" />
    <glyph glyph-name="wgrave" unicode="&#x1e81;" horiz-adv-x="752" 
d="M585 0h-10t-10 1h-16h-17q-5 -1 -10 -1h-9l-139 370l-105 -295l28 -75h-10t-10 1h-15h-17q-6 -1 -11 -1h-9l-163 433q-10 28 -25 40q-14 10 -43 10v7h23h10t18 -1t20.5 -1.5t19.5 -0.5t20 0.5t21 1.5t17.5 1h8.5h24v-7q-50 0 -50 -24q0 -6 3 -15l135 -357l105 295l-19 51
q-10 28 -25 40q-14 10 -43 10v7h23h9.5t17.5 -1t20.5 -1.5t19.5 -0.5t20 0.5t21 1.5t18 1h9h24v-7q-50 0 -50 -24q0 -7 3 -15l135 -357l110 309q8 24 8 40q0 47 -66 47v7h10h15t20 -1t20.5 -1.5t17.5 -0.5t17.5 0.5t20.5 1.5t18.5 1h11.5h17v-7q-40 -1 -63 -24
q-22 -22 -39 -67l-113 -317zM427 542q-25 36 -68 78q-43 38 -54 56q-6 9 -6 20q0 13 9 20q8 8 20 8q16 0 26 -15q7 -11 16.5 -29.5t20.5 -44.5q23 -56 42 -89z" />
    <glyph glyph-name="Wacute" unicode="&#x1e82;" horiz-adv-x="976" 
d="M751 0h-10t-10 1h-17h-15q-5 -1 -10 -1h-10l-191 554l-151 -474l29 -80h-9.5t-9.5 1h-18h-15q-5 -1 -10.5 -1h-10.5l-231 622q-19 51 -69 51v8h21h10.5t20.5 -1t23 -1.5t18 -0.5q9 0 20 0.5t25 1.5t22 1h10h21v-8q-53 0 -53 -30q0 -7 5 -24l195 -524l151 476l-18 52
q-11 30 -27 40t-42 10v8h21h11t22 -1t24.5 -1.5t18.5 -0.5q9 0 19.5 0.5t22.5 1.5t19.5 1h10.5h21v-8q-53 0 -53 -30q0 -7 5 -24l180 -519l146 461q14 39 14 59q0 53 -71 53v8h12h15.5t25.5 -1t25.5 -1.5t17.5 -0.5q4 0 12.5 0.5t22.5 1.5t22.5 1h12.5h21v-8
q-85 -4 -120 -114l-150 -476zM424 735q19 33 42 89q11 26 20.5 44.5t16.5 29.5q11 15 26 15q13 0 21 -8q8 -10 8 -20q0 -11 -6 -20q-5 -8 -18.5 -21.5t-34.5 -33.5q-44 -41 -69 -79z" />
    <glyph glyph-name="wacute" unicode="&#x1e83;" horiz-adv-x="752" 
d="M585 0h-10t-10 1h-16h-17q-5 -1 -10 -1h-9l-139 370l-105 -295l28 -75h-10t-10 1h-15h-17q-6 -1 -11 -1h-9l-163 433q-10 28 -25 40q-14 10 -43 10v7h23h10t18 -1t20.5 -1.5t19.5 -0.5t20 0.5t21 1.5t17.5 1h8.5h24v-7q-50 0 -50 -24q0 -6 3 -15l135 -357l105 295l-19 51
q-10 28 -25 40q-14 10 -43 10v7h23h9.5t17.5 -1t20.5 -1.5t19.5 -0.5t20 0.5t21 1.5t18 1h9h24v-7q-50 0 -50 -24q0 -7 3 -15l135 -357l110 309q8 24 8 40q0 47 -66 47v7h10h15t20 -1t20.5 -1.5t17.5 -0.5t17.5 0.5t20.5 1.5t18.5 1h11.5h17v-7q-40 -1 -63 -24
q-22 -22 -39 -67l-113 -317zM311 546q19 33 42 89q11 26 20.5 44.5t16.5 29.5q11 15 26 15q11 0 21 -8q8 -8 8 -20q0 -11 -6 -20q-5 -8 -18.5 -21.5t-34.5 -33.5q-44 -41 -69 -79z" />
    <glyph glyph-name="Wdieresis" unicode="&#x1e84;" horiz-adv-x="976" 
d="M751 0h-10t-10 1h-17h-15q-5 -1 -10 -1h-10l-191 554l-151 -474l29 -80h-9.5t-9.5 1h-18h-15q-5 -1 -10.5 -1h-10.5l-231 622q-19 51 -69 51v8h21h10.5t20.5 -1t23 -1.5t18 -0.5q9 0 20 0.5t25 1.5t22 1h10h21v-8q-53 0 -53 -30q0 -7 5 -24l195 -524l151 476l-18 52
q-11 30 -27 40t-42 10v8h21h11t22 -1t24.5 -1.5t18.5 -0.5q9 0 19.5 0.5t22.5 1.5t19.5 1h10.5h21v-8q-53 0 -53 -30q0 -7 5 -24l180 -519l146 461q14 39 14 59q0 53 -71 53v8h12h15.5t25.5 -1t25.5 -1.5t17.5 -0.5q4 0 12.5 0.5t22.5 1.5t22.5 1h12.5h21v-8
q-85 -4 -120 -114l-150 -476zM436 807q0 -19 -13 -31q-13 -13 -32 -13q-18 0 -31 13q-13 12 -13 31t13 32t31 13q19 0 32 -13t13 -32zM625 807q0 -18 -13 -31t-32 -13t-31 13q-13 12 -13 31t13 32q12 13 31 13t32 -13t13 -32z" />
    <glyph glyph-name="wdieresis" unicode="&#x1e85;" horiz-adv-x="752" 
d="M585 0h-10t-10 1h-16h-17q-5 -1 -10 -1h-9l-139 370l-105 -295l28 -75h-10t-10 1h-15h-17q-6 -1 -11 -1h-9l-163 433q-10 28 -25 40q-14 10 -43 10v7h23h10t18 -1t20.5 -1.5t19.5 -0.5t20 0.5t21 1.5t17.5 1h8.5h24v-7q-50 0 -50 -24q0 -6 3 -15l135 -357l105 295l-19 51
q-10 28 -25 40q-14 10 -43 10v7h23h9.5t17.5 -1t20.5 -1.5t19.5 -0.5t20 0.5t21 1.5t18 1h9h24v-7q-50 0 -50 -24q0 -7 3 -15l135 -357l110 309q8 24 8 40q0 47 -66 47v7h10h15t20 -1t20.5 -1.5t17.5 -0.5t17.5 0.5t20.5 1.5t18.5 1h11.5h17v-7q-40 -1 -63 -24
q-22 -22 -39 -67l-113 -317zM323 628q0 -19 -13 -31q-13 -13 -32 -13q-18 0 -31 13q-13 12 -13 31t13 32t31 13q19 0 32 -13t13 -32zM512 628q0 -18 -13 -31t-32 -13t-31 13q-13 12 -13 31t13 32q12 13 31 13t32 -13t13 -32z" />
    <glyph glyph-name="uni1E8A" unicode="&#x1e8a;" horiz-adv-x="632" 
d="M588 0q-2 0 -8.5 0.5t-17.5 1.5t-21.5 1h-19.5h-18.5t-23.5 -1t-20.5 -1.5t-10.5 -0.5h-39v8q56 0 56 27q0 13 -11 30l-155 249l-142 -197q-29 -41 -29 -66q0 -21 13 -31q12 -12 47 -12h1v-8h-13q-5 0 -15.5 0.5t-24.5 1.5t-24.5 1h-16.5h-11.5t-22.5 -1t-23.5 -1.5
t-13.5 -0.5h-19v8h1q41 0 72 28q31 30 71 87l144 200l-186 298q-33 52 -90 52v8h39h9t18 -1t21.5 -1.5t19.5 -0.5t19.5 0.5t23.5 1.5t20.5 1h9.5h39v-8q-56 0 -56 -27q0 -13 11 -30l149 -240l126 188q29 41 29 66q0 20 -12 32q-14 11 -48 11h-1v8h13h15.5t24.5 -1t24.5 -1.5
t16.5 -0.5q3 0 12 0.5t23 1.5t23 1h13h19v-8h-1q-43 -2 -73 -29q-33 -30 -70 -86l-128 -191l191 -307q33 -52 90 -52v-8h-39zM340 757q-20 0 -34 14t-14 34q0 21 14 35t34 14q19 0 35 -14q14 -14 14 -35q0 -20 -14 -34t-35 -14z" />
    <glyph glyph-name="uni1E8B" unicode="&#x1e8b;" horiz-adv-x="485" 
d="M454 0q-3 0 -10 0.5t-18 1.5t-21 1h-20h-19.5t-20.5 -1t-17.5 -1.5t-8.5 -0.5h-24v7q47 0 47 22q0 8 -6 17l-114 175l-92 -135q-16 -23 -16 -42t11 -28t44 -9h1v-7h-10q-6 0 -15 0.5t-20 1.5t-20.5 1h-16.5h-16.5t-19.5 -1t-18.5 -1.5t-11.5 -0.5h-17v7h1q31 0 59 20
q27 20 57 63l94 138l-126 196q-20 31 -37 45q-19 14 -42 14v7h26h10t18 -1t21 -1.5t20 -0.5t19.5 0.5t20.5 1.5t17.5 1h8.5h24v-7q-47 0 -47 -22q0 -8 6 -17l107 -165l82 125q16 23 16 42t-11 28q-10 9 -44 9h-1v7h10h15t20 -1t20.5 -1.5t16.5 -0.5q8 0 17 0.5t20 1.5t18 1
h11h17v-7h-1q-62 0 -116 -83l-84 -128l133 -206q21 -32 37 -44q18 -15 42 -15v-7h-26zM243 576q-20 0 -34 14t-14 34q0 21 14 35t34 14q19 0 35 -14q14 -14 14 -35q0 -20 -14 -34t-35 -14z" />
    <glyph glyph-name="Ygrave" unicode="&#x1ef2;" horiz-adv-x="593" 
d="M339 57q0 -32 9 -40q9 -9 42 -9h1v-8h-16q-5 0 -13 0.5t-19 1.5t-20.5 1h-17.5h-17.5t-20.5 -1t-19 -1.5t-13 -0.5h-16v8h1q33 0 42 9q9 8 9 40v253l-202 313q-18 27 -36 39q-19 11 -45 11v8h29h10.5t18.5 -1t21 -1.5t19 -0.5t19.5 0.5t22.5 1.5t19.5 1h10.5h34v-8
q-28 0 -40 -5q-11 -6 -11 -20q0 -13 10 -29l183 -282l139 227q26 44 26 63q0 46 -64 46h-1v8h13h15.5t24.5 -1t24 -1.5t17 -0.5q3 0 12 0.5t23 1.5t23 1h13h19v-8h-1q-40 0 -71 -29q-29 -27 -66 -88l-141 -229v-270zM368 731q-25 36 -68 78q-43 38 -54 56q-6 9 -6 20
q0 10 8 20q8 8 21 8q16 0 26 -15q7 -11 16.5 -29.5t20.5 -44.5q23 -56 42 -89z" />
    <glyph glyph-name="ygrave" unicode="&#x1ef3;" horiz-adv-x="465" 
d="M297 0h-10t-10 1h-16h-11q-5 -1 -8.5 -1h-6.5l-20 -45q-50 -111 -82 -150q-33 -41 -95 -41q-41 0 -41 27q0 12 8 18q7 7 20 7t37 -7q26 -6 35 -6q27 0 49 33q11 17 26.5 47t34.5 75l19 42l-164 434q-10 27 -25 39q-14 10 -43 10v7h23h10t18 -1t20.5 -1.5t19.5 -0.5
t20 0.5t21 1.5t17.5 1h8.5h24v-7q-50 0 -50 -24q0 -6 3 -15l135 -357l110 309q8 22 8 40q0 47 -66 47v7h10h15t20 -1t20.5 -1.5t16.5 -0.5q8 0 17.5 0.5t20.5 1.5t19 1h12h17v-7q-39 -1 -63 -25q-22 -22 -39 -66l-113 -317zM297 542q-25 36 -68 78q-43 38 -54 56q-6 9 -6 20
q0 13 9 20q8 8 20 8q16 0 26 -15q7 -11 16.5 -29.5t20.5 -44.5q23 -56 42 -89z" />
    <glyph glyph-name="endash" unicode="&#x2013;" horiz-adv-x="512" 
d="M45 276v10h422v-10h-422z" />
    <glyph glyph-name="emdash" unicode="&#x2014;" horiz-adv-x="988" 
d="M45 276v10h898v-10h-898z" />
    <glyph glyph-name="quoteleft" unicode="&#x2018;" horiz-adv-x="192" 
d="M101 597q20 0 33 -13t13 -33q0 -19 -14 -33t-35 -14q-22 0 -37 18q-16 16 -16 43q0 53 28 85q27 32 60 39l2 -7q-29 -7 -55 -36q-25 -28 -25 -69q0 -7 1 -9q14 29 45 29z" />
    <glyph glyph-name="quoteright" unicode="&#x2019;" horiz-adv-x="192" 
d="M91 596q-20 0 -33 13t-13 33q0 19 14 33t35 14t38 -17q15 -18 15 -44q0 -52 -27 -84q-28 -33 -61 -40l-2 7q29 7 55 36q25 28 25 69q0 7 -1 9q-14 -29 -45 -29z" />
    <glyph glyph-name="quotesinglbase" unicode="&#x201a;" horiz-adv-x="192" 
d="M91 -9q-20 0 -33 13t-13 33q0 19 14 33t35 14t38 -17q15 -18 15 -44q0 -52 -27 -85q-29 -32 -61 -39l-2 7q29 7 55 36q25 28 25 69q0 7 -1 9q-14 -29 -45 -29z" />
    <glyph glyph-name="quotedblleft" unicode="&#x201c;" horiz-adv-x="329" 
d="M238 597q20 0 33 -13t13 -33q0 -19 -14 -33t-35 -14q-22 0 -37 18q-16 16 -16 43q0 53 28 85q27 32 60 39l2 -7q-29 -7 -55 -36q-25 -28 -25 -69q0 -7 1 -9q14 29 45 29zM101 597q20 0 33 -13t13 -33q0 -19 -14 -33t-35 -14q-22 0 -37 18q-16 16 -16 43q0 53 28 85
q27 32 60 39l2 -7q-29 -7 -55 -36q-25 -28 -25 -69q0 -7 1 -9q14 29 45 29z" />
    <glyph glyph-name="quotedblright" unicode="&#x201d;" horiz-adv-x="329" 
d="M91 596q-20 0 -33 13t-13 33q0 19 14 33t35 14t38 -17q15 -18 15 -44q0 -52 -27 -84q-28 -33 -61 -40l-2 7q29 7 55 36q25 28 25 69q0 7 -1 9q-14 -29 -45 -29zM228 596q-20 0 -33 13t-13 33q0 19 14 33t35 14t38 -17q15 -18 15 -44q0 -52 -27 -84q-28 -33 -61 -40l-2 7
q29 7 55 36q25 28 25 69q0 7 -1 9q-14 -29 -45 -29z" />
    <glyph glyph-name="quotedblbase" unicode="&#x201e;" horiz-adv-x="329" 
d="M91 -9q-20 0 -33 13t-13 33q0 19 14 33t35 14t38 -17q15 -18 15 -44q0 -52 -27 -85q-29 -32 -61 -39l-2 7q29 7 55 36q25 28 25 69q0 7 -1 9q-14 -29 -45 -29zM228 -9q-20 0 -33 13t-13 33q0 19 14 33t35 14t38 -17q15 -18 15 -44q0 -52 -27 -85q-29 -32 -61 -39l-2 7
q29 7 55 36q25 28 25 69q0 7 -1 9q-14 -29 -45 -29z" />
    <glyph glyph-name="dagger" unicode="&#x2020;" horiz-adv-x="432" 
d="M212 -10q0 120 -6 221t-19 186q5 13 14 47q10 37 11 52q-18 0 -65 -12q-45 -13 -61 -13q-36 0 -36 30q0 33 36 33q15 0 61 -15q47 -15 65 -15q-3 55 -17 103q-15 47 -15 58q0 18 11 29t25 11q15 0 26 -11q10 -10 10 -29q0 -10 -14 -58q-15 -46 -18 -103q19 0 65 15
q47 15 61 15q36 0 36 -33q0 -30 -36 -30q-16 0 -61 13q-46 12 -65 12q1 -15 11 -52q9 -34 14 -47q-13 -85 -19 -186t-6 -221h-8z" />
    <glyph glyph-name="daggerdbl" unicode="&#x2021;" horiz-adv-x="432" 
d="M212 360q0 50 -19 87q1 2 2.5 7t3.5 13t4.5 16t4.5 16t3 15t2 12q-19 0 -66 -12q-45 -13 -61 -13q-36 0 -36 30q0 33 36 33q15 0 61 -15q47 -15 66 -15q-3 55 -18 88q-15 32 -15 43q0 18 11 29t25 11q15 0 26 -11q10 -10 10 -29q0 -11 -15 -43q-15 -33 -18 -88
q20 0 66 15q47 15 61 15q36 0 36 -33q0 -30 -36 -30q-16 0 -61 13q-46 12 -66 12q2 -10 6 -27q2 -8 4.5 -16t4.5 -16t3 -13t2 -7l-5 -12q-5 -10 -10 -30q-4 -16 -4 -45h-8zM220 337q0 -20 3 -37q1 -16 5 -25q2 -4 3.5 -7.5t3.5 -7.5l4 -10q-1 -2 -2 -7t-3 -13t-4.5 -16
t-4.5 -16t-3 -15t-2 -12q20 0 65 13q47 12 61 12q36 0 36 -30q0 -33 -36 -33q-14 0 -61 15q-46 15 -65 15q3 -55 18 -87q14 -34 14 -44q0 -19 -10 -29q-11 -11 -26 -11q-14 0 -25 11t-11 29q0 11 15 44q14 33 17 87q-18 0 -65 -15q-46 -15 -61 -15q-36 0 -36 33q0 30 36 30
q15 0 61 -12q45 -13 65 -13q-1 5 -2 12t-3 15l-4 16l-4 16t-3.5 13t-2.5 7q19 34 19 87h8z" />
    <glyph glyph-name="bullet" unicode="&#x2022;" horiz-adv-x="338" 
d="M169 265q-36 0 -60 24q-25 24 -25 61q0 38 25 62q24 24 60 24t61 -24q24 -24 24 -62q0 -37 -24 -61q-25 -24 -61 -24z" />
    <glyph glyph-name="ellipsis" unicode="&#x2026;" horiz-adv-x="642" 
d="M107 -8q-21 0 -36 15q-16 15 -16 37t16 37q15 15 36 15t37 -15q15 -15 15 -37t-15 -37q-16 -15 -37 -15zM321 -8q-21 0 -36 15q-16 15 -16 37t16 37q15 15 36 15t37 -15q15 -15 15 -37t-15 -37q-16 -15 -37 -15zM535 -8q-21 0 -36 15q-16 15 -16 37t16 37q15 15 36 15
t37 -15q15 -15 15 -37t-15 -37q-16 -15 -37 -15z" />
    <glyph glyph-name="perthousand" unicode="&#x2030;" horiz-adv-x="1047" 
d="M198 346q-65 0 -102 49q-39 48 -39 122q0 73 39 122q37 49 102 49q49 0 83 -33q46 -46 103 -46q40 0 86 21q46 19 80 58l8 -5l-388 -692l-9 5l374 665q-26 -26 -67 -43q-42 -18 -84 -18q-43 0 -80 25q26 -47 26 -108q0 -73 -34 -122t-98 -49zM198 355q59 0 90 46
q32 47 32 116t-32 116q-31 46 -90 46q-24 0 -41 -12q-18 -15 -25 -37q-8 -26 -11 -50q-3 -27 -3 -63q0 -37 3 -63q3 -25 11 -50q7 -23 25 -36q16 -13 41 -13zM518 -8q-65 0 -102 49q-39 48 -39 122q0 73 39 122q37 49 102 49q64 0 98 -49t34 -122t-34 -122t-98 -49zM518 1
q59 0 90 46q32 47 32 116t-32 116q-31 46 -90 46q-24 0 -41 -12q-18 -15 -25 -37q-8 -26 -11 -50q-3 -27 -3 -63q0 -37 3 -63q3 -25 11 -50q7 -23 25 -36q16 -13 41 -13zM870 -8q-65 0 -102 49q-39 48 -39 122q0 73 39 122q37 49 102 49q64 0 98 -49t34 -122t-34 -122
t-98 -49zM870 1q59 0 90 46q32 47 32 116t-32 116q-31 46 -90 46q-24 0 -41 -12q-18 -15 -25 -37q-8 -26 -11 -50q-3 -27 -3 -63q0 -37 3 -63q3 -25 11 -50q7 -23 25 -36q16 -13 41 -13z" />
    <glyph glyph-name="guilsinglleft" unicode="&#x2039;" horiz-adv-x="345" 
d="M271 69q-13 13 -32.5 30.5t-46.5 40.5t-50.5 42t-43.5 35q-40 32 -48 36q4 2 16 11.5t32 25.5q42 33 94 76q27 23 46.5 40.5t32.5 30.5l5 -5q-63 -72 -134 -179q104 -143 134 -179z" />
    <glyph glyph-name="guilsinglright" unicode="&#x203a;" horiz-adv-x="345" 
d="M69 74q32 37 65.5 81t68.5 98q-2 2 -8.5 12t-19.5 28q-13 17 -26 35.5t-27 38.5q-28 39 -53 65l5 5q13 -13 32.5 -30.5t46.5 -40.5t51 -41.5t44 -34.5t31.5 -25.5t15.5 -11.5q-4 -2 -15.5 -11t-31.5 -25q-39 -30 -95 -77q-27 -23 -46.5 -40.5t-32.5 -30.5z" />
    <glyph glyph-name="fraction" unicode="&#x2044;" horiz-adv-x="58" 
d="M-219 -19l-8 6l503 710l8 -6z" />
    <glyph glyph-name="uni2070" unicode="&#x2070;" 
d="M80 539q0 -143 65 -143t65 143t-65 143t-65 -143zM266 539q0 -64 -34 -107t-87 -43t-87 43t-34 107t34 107t87 43t87 -43t34 -107z" />
    <glyph glyph-name="uni2074" unicode="&#x2074;" 
d="M221 397q-2 0 -7 0.5t-13 1.5t-16 1h-18h-18t-16 -1t-13 -1.5t-7 -0.5h-22v7h11q25 0 32 9q7 8 7 41v19h-129v4l137 204h9q5 -1 12 -1t12 1h11v-200h3q34 0 65 66l5 -1l-16 -73h-57v-19q0 -33 7 -41q8 -9 30 -9h2v-7h-11zM141 655l-116 -174h116v174z" />
    <glyph glyph-name="uni2075" unicode="&#x2075;" 
d="M244 492q0 -44 -33 -73q-33 -30 -74 -30q-46 0 -77 20q-30 20 -30 46q0 9 6 16t15 7q22 0 26 -25q7 -31 22 -44q14 -12 38 -12q30 0 40 22q11 22 11 72q0 49 -10 68q-10 18 -40 18q-52 0 -75 -41l-6 2l11 72l11 71h109q31 0 41 24l5 -1l-15 -67h-139l-12 -81q26 29 73 29
q46 0 74 -25q29 -26 29 -68z" />
    <glyph glyph-name="uni2076" unicode="&#x2076;" 
d="M34 522q0 62 55 111q56 48 139 60l1 -7q-120 -18 -137 -126q26 33 65 33q41 0 70 -26t29 -69q0 -45 -35 -77q-37 -32 -73 -32q-41 0 -77 33q-37 33 -37 100zM90 522q0 -69 15 -98q13 -28 43 -28q52 0 52 101q0 50 -10 69t-35 19q-37 0 -64 -37q-1 -4 -1 -10.5v-15.5z" />
    <glyph glyph-name="uni2077" unicode="&#x2077;" 
d="M123 389q-12 0 -20 8q-9 8 -9 22q0 35 21 78q21 42 43 70q11 14 25.5 31t33.5 39h-132q-31 0 -43 -31l-6 1l21 98l6 -1q-1 -13 6 -18q8 -5 24 -5h163v-4q-3 -4 -9 -11.5t-14 -18.5t-14 -18t-8 -10q-2 -4 -6.5 -10t-10.5 -15q-11 -17 -16 -28q-2 -5 -4.5 -12t-6.5 -16
q-4 -10 -6.5 -18t-3.5 -16t-2 -17.5t-2 -20.5q-3 -22 -3 -47q0 -15 -7 -22q-8 -8 -20 -8z" />
    <glyph glyph-name="uni2078" unicode="&#x2078;" 
d="M149 389q-44 0 -75 22q-33 21 -33 54q0 52 71 75q-20 8 -38 27q-18 20 -18 47q0 32 27 54q27 21 68 21q37 0 64 -18q26 -20 26 -48q0 -19 -14 -36q-13 -18 -41 -27q69 -28 69 -83q0 -38 -31 -63t-75 -25zM150 397q30 0 47 17q16 16 16 45q0 40 -53 61l-40 17
q-33 -22 -33 -72q0 -68 63 -68zM202 622q0 26 -14 43q-13 16 -38 16q-30 0 -43 -13q-15 -13 -15 -33q0 -37 46 -55l40 -17q24 24 24 59z" />
    <glyph glyph-name="uni2079" unicode="&#x2079;" 
d="M256 556q0 -62 -55 -110q-55 -49 -139 -61l-1 7q120 18 137 126q-25 -33 -65 -33q-41 0 -70 26t-29 69q0 47 36 78q34 31 72 31q41 0 78 -33q36 -33 36 -100zM200 556q0 73 -13 99q-13 27 -45 27q-52 0 -52 -101q0 -49 10 -68q11 -20 35 -20q37 0 64 37q1 4 1 10.5v15.5z
" />
    <glyph glyph-name="uni207D" unicode="&#x207d;" horiz-adv-x="177" 
d="M80 539q0 -52 16 -103q17 -53 46 -78l-5 -6q-42 32 -72 81q-30 50 -30 106q0 57 30 106q30 50 72 81l5 -6q-30 -25 -46 -77q-16 -51 -16 -104z" />
    <glyph glyph-name="uni207E" unicode="&#x207e;" horiz-adv-x="177" 
d="M97 539q0 53 -16 104q-16 52 -46 77l5 6q42 -31 72 -81q30 -49 30 -106q0 -56 -30 -106q-30 -49 -72 -81l-5 6q29 25 46 78q16 51 16 103z" />
    <glyph glyph-name="uni2080" unicode="&#x2080;" 
d="M80 142q0 -143 65 -143t65 143t-65 143t-65 -143zM266 142q0 -64 -34 -107t-87 -43t-87 43t-34 107t34 107t87 43t87 -43t34 -107z" />
    <glyph glyph-name="uni2081" unicode="&#x2081;" 
d="M216 0q-5 0 -12.5 0.5t-16.5 1.5t-18 1h-17h-17t-18 -1t-16.5 -1.5t-12.5 -0.5h-22v7h18q27 0 34 9q8 10 8 41v141q0 22 -16 22q-3 0 -40 -17l-3 6l15 8q34 19 59 43q26 26 32 42h5v-245q0 -30 7 -40t30 -10h8v-7h-7z" />
    <glyph glyph-name="uni2082" unicode="&#x2082;" 
d="M238 223q0 -16 -6 -33q-5 -14 -23 -35q-9 -10 -15.5 -17t-11.5 -12t-15 -13.5t-24 -20.5t-23.5 -19.5t-13.5 -11.5l-19 -17h156l-16 -76l-6 1q1 31 -27 31h-160v4l61 60q87 87 87 159q0 62 -36 62q-31 0 -48 -48q-9 -27 -27 -27q-21 0 -21 21q0 22 28 41q29 20 72 20
q38 0 64 -17q24 -18 24 -52z" />
    <glyph glyph-name="uni2083" unicode="&#x2083;" 
d="M254 84q0 -40 -33 -66q-34 -26 -74 -26q-51 0 -81 23q-31 22 -31 53q0 9 6 16t15 7q22 0 26 -25q8 -38 23 -52q14 -14 42 -14t40 20q11 20 11 62q0 73 -33 73q-7 0 -21 -6l-33 -16l-3 7l41 20q30 15 30 68q0 57 -36 57q-30 0 -47 -48q-9 -27 -27 -27q-21 0 -21 21
q0 20 28 41q29 20 70 20q39 0 63 -15q24 -16 24 -45q0 -22 -19 -41q-10 -10 -22.5 -17t-26.5 -12q35 0 62 -21t27 -57z" />
    <glyph glyph-name="uni2084" unicode="&#x2084;" 
d="M221 0q-2 0 -7 0.5t-13 1.5t-16 1h-18h-18t-16 -1t-13 -1.5t-7 -0.5h-22v7h11q25 0 32 9q7 8 7 41v19h-129v4l137 204h9q5 -1 12 -1t12 1h11v-200h3q34 0 65 66l5 -1l-16 -73h-57v-19q0 -33 7 -41q8 -9 30 -9h2v-7h-11zM141 258l-116 -174h116v174z" />
    <glyph glyph-name="uni2085" unicode="&#x2085;" 
d="M244 95q0 -44 -33 -73q-33 -30 -74 -30q-48 0 -77 20q-30 20 -30 46q0 9 6 16t15 7q22 0 26 -25q7 -31 22 -44q14 -12 38 -12q30 0 40 22q11 22 11 72q0 49 -10 68q-10 18 -40 18q-52 0 -75 -41l-6 2l11 72l11 71h109q31 0 41 24l5 -1l-15 -67h-139l-12 -81q26 29 73 29
q46 0 74 -25q29 -26 29 -68z" />
    <glyph glyph-name="uni2086" unicode="&#x2086;" 
d="M34 125q0 62 55 111q56 48 139 60l1 -7q-120 -18 -137 -126q26 33 65 33q41 0 70 -26t29 -69q0 -45 -35 -77q-37 -32 -73 -32q-41 0 -77 33q-37 33 -37 100zM90 125q0 -69 15 -98q13 -28 43 -28q52 0 52 101q0 50 -10 69t-35 19q-37 0 -64 -37q-1 -4 -1 -10.5v-15.5z" />
    <glyph glyph-name="uni2087" unicode="&#x2087;" 
d="M123 -8q-12 0 -20 8q-9 8 -9 22q0 35 21 78q21 42 43 70q11 14 25.5 31t33.5 39h-132q-31 0 -43 -31l-6 1l21 98l6 -1q-1 -13 6 -18q8 -5 24 -5h163v-4q-3 -4 -9 -11.5t-14 -18.5t-14 -18t-8 -10q-2 -4 -6.5 -10t-10.5 -15q-11 -17 -16 -28q-2 -5 -4.5 -12t-6.5 -16
q-4 -10 -6.5 -18t-3.5 -16t-2 -17.5t-2 -20.5q-3 -22 -3 -47q0 -15 -7 -22q-8 -8 -20 -8z" />
    <glyph glyph-name="uni2088" unicode="&#x2088;" 
d="M149 -8q-44 0 -75 22q-33 21 -33 54q0 52 71 75q-20 8 -38 27q-18 20 -18 47q0 32 27 54q27 21 68 21q37 0 64 -18q26 -20 26 -48q0 -19 -14 -36q-13 -18 -41 -27q69 -28 69 -83q0 -38 -31 -63t-75 -25zM150 0q30 0 47 17q16 16 16 45q0 40 -53 61l-40 17
q-33 -22 -33 -72q0 -68 63 -68zM202 225q0 26 -14 43q-13 16 -38 16q-30 0 -43 -13q-15 -13 -15 -33q0 -37 46 -55l40 -17q24 24 24 59z" />
    <glyph glyph-name="uni2089" unicode="&#x2089;" 
d="M256 159q0 -62 -55 -110q-55 -49 -139 -61l-1 7q120 18 137 126q-25 -33 -65 -33q-41 0 -70 26t-29 69q0 47 36 78q34 31 72 31q41 0 78 -33q36 -33 36 -100zM200 159q0 73 -13 99q-13 27 -45 27q-52 0 -52 -101q0 -49 10 -68q11 -20 35 -20q37 0 64 37q1 4 1 10.5v15.5z
" />
    <glyph glyph-name="Euro" unicode="&#x20ac;" horiz-adv-x="630" 
d="M124 340q0 38 3 57h-102v10h103q16 123 85 204q68 80 175 80q64 0 128 -40t64 -93q0 -14 -9 -22q-9 -9 -22 -9q-17 0 -26 15q-7 9 -16 45q-13 50 -41 73q-28 22 -78 22q-53 0 -88 -20q-36 -21 -55 -61q-20 -41 -27 -85q-4 -23 -6.5 -50t-3.5 -59h257v-10h-257v-114h257
v-10h-257q1 -32 3.5 -59t6.5 -50q7 -44 27 -85t55 -60q35 -20 88 -20q50 0 78 22q28 21 41 72q9 36 16 45q9 15 26 15q12 0 22 -8q9 -9 9 -23q0 -51 -64 -91q-65 -41 -128 -41q-107 0 -175 80q-69 81 -85 203h-103v10h102q-3 20 -3 57z" />
    <glyph glyph-name="trademark" unicode="&#x2122;" horiz-adv-x="787" 
d="M700 394h-7.5t-10.5 1t-11 1h-9h-9t-11 -1q-7 -1 -11.5 -1h-7.5h-16v7h1q22 0 27 4q5 5 5 18v241l-93 -226l20 -44q-8 0 -13 1h-11h-10q-4 -1 -7.5 -1h-5.5l-111 252v-204q0 -22 10 -31q9 -10 37 -10h2v-7h-11h-6t-12 1t-13.5 1h-10.5h-10.5t-13.5 -1t-12 -1h-6h-7v7h2
q27 0 34 10q8 10 8 31v197q0 16 -8 26q-7 7 -32 9h-2v7h24q8 -1 13 -1h7h7.5t11.5 1h18l102 -234l97 234h12q5 -1 8 -1h4h9t11 1h18h17v-7h-2q-22 0 -26 -4q-6 -4 -6 -17v-230q0 -13 6 -18q4 -4 26 -4h2v-7h-17zM250 394h-8t-14 1t-14.5 1h-11.5h-10.5t-14.5 -1t-14 -1h-8
h-7v7h2q22 0 26 4q5 5 5 18v250h-28q-22 0 -40 -19q-5 -5 -48 -65l-5 3l38 103l5 -1q0 -13 17 -13h48h13q6 -1 11 -1h10h10t12 1h13h48q17 0 17 13l5 1l38 -103l-5 -3q-5 6 -9.5 12.5t-9.5 14.5t-9.5 13.5t-7.5 10.5q-6 6 -12 14q-19 19 -40 19h-28v-250q0 -13 6 -18
q4 -4 26 -4h2v-7h-8z" />
    <glyph glyph-name="uni2126" unicode="&#x2126;" horiz-adv-x="738" 
d="M670 390q0 -89 -63 -178q-63 -90 -174 -126v-76h56q36 0 58 11t48 43q14 19 39.5 54t61.5 89l6 -4l-80 -233l-6 1q0 29 -33 29h-160v93q43 19 76 55t51 79q18 42 27 84q9 41 9 79q0 57 -11 109q-10 48 -35 93q-24 42 -67 66t-104 24q-59 0 -103 -24t-68 -66
q-25 -45 -35 -93q-11 -52 -11 -109q0 -38 9 -79q9 -42 27 -84q18 -43 51 -79t76 -55v-93h-160q-33 0 -33 -29l-6 -1l-80 233l6 4q36 -54 61.5 -89t39.5 -54q26 -32 48 -43t58 -11h56v76q-111 36 -174 126q-63 89 -63 178q0 124 87 212q87 89 214 89t214 -89q87 -88 87 -212z
" />
    <glyph glyph-name="onethird" unicode="&#x2153;" horiz-adv-x="390" 
d="M346 346v-9h-302v9h302zM264 397q-5 0 -12.5 0.5t-16.5 1.5t-18 1h-17h-17t-18 -1t-16.5 -1.5t-12.5 -0.5h-22v7h18q27 0 34 9q8 10 8 41v141q0 22 -16 22q-3 0 -40 -17l-3 6l15 8q34 19 59 43q26 26 32 42h5v-245q0 -30 7 -40t30 -10h8v-7h-7zM308 84q0 -40 -33 -66
q-34 -26 -74 -26q-51 0 -81 23q-31 22 -31 53q0 9 6 16t15 7q22 0 26 -25q8 -38 23 -52q14 -14 42 -14t40 20q11 20 11 62q0 73 -33 73q-7 0 -21 -6l-33 -16l-3 7l41 20q30 15 30 68q0 57 -36 57q-30 0 -47 -48q-9 -27 -27 -27q-21 0 -21 21q0 20 28 41q29 20 70 20
q39 0 63 -15q24 -16 24 -45q0 -22 -19 -41q-10 -10 -22.5 -17t-26.5 -12q35 0 62 -21t27 -57z" />
    <glyph glyph-name="twothirds" unicode="&#x2154;" horiz-adv-x="390" 
d="M346 346v-9h-302v9h302zM308 84q0 -40 -33 -66q-34 -26 -74 -26q-51 0 -81 23q-31 22 -31 53q0 9 6 16t15 7q22 0 26 -25q8 -38 23 -52q14 -14 42 -14t40 20q11 20 11 62q0 73 -33 73q-7 0 -21 -6l-33 -16l-3 7l41 20q30 15 30 68q0 57 -36 57q-30 0 -47 -48
q-9 -27 -27 -27q-21 0 -21 21q0 20 28 41q29 20 70 20q39 0 63 -15q24 -16 24 -45q0 -22 -19 -41q-10 -10 -22.5 -17t-26.5 -12q35 0 62 -21t27 -57zM297 620q0 -16 -6 -33q-5 -14 -23 -35q-9 -10 -15.5 -17t-11.5 -12t-15 -13.5t-24 -20.5t-23.5 -19.5t-13.5 -11.5l-19 -17
h156l-16 -76l-6 1q1 31 -27 31h-160v4l61 60q87 87 87 159q0 62 -36 62q-31 0 -48 -48q-9 -27 -27 -27q-21 0 -21 21q0 22 28 41q29 20 72 20q38 0 64 -17q24 -18 24 -52z" />
    <glyph glyph-name="uni2155" unicode="&#x2155;" horiz-adv-x="390" 
d="M346 346v-9h-302v9h302zM264 397q-5 0 -12.5 0.5t-16.5 1.5t-18 1h-17h-17t-18 -1t-16.5 -1.5t-12.5 -0.5h-22v7h18q27 0 34 9q8 10 8 41v141q0 22 -16 22q-3 0 -40 -17l-3 6l15 8q34 19 59 43q26 26 32 42h5v-245q0 -30 7 -40t30 -10h8v-7h-7zM288 95q0 -44 -33 -73
q-33 -30 -74 -30q-48 0 -77 20q-30 20 -30 46q0 9 6 16t15 7q22 0 26 -25q7 -31 22 -44q14 -12 38 -12q30 0 40 22q11 22 11 72q0 49 -10 68q-10 18 -40 18q-52 0 -75 -41l-6 2l11 72l11 71h109q31 0 41 24l5 -1l-15 -67h-139l-12 -81q26 29 73 29q46 0 74 -25
q29 -26 29 -68z" />
    <glyph glyph-name="uni2156" unicode="&#x2156;" horiz-adv-x="390" 
d="M346 346v-9h-302v9h302zM297 620q0 -16 -6 -33q-5 -14 -23 -35q-9 -10 -15.5 -17t-11.5 -12t-15 -13.5t-24 -20.5t-23.5 -19.5t-13.5 -11.5l-19 -17h156l-16 -76l-6 1q1 31 -27 31h-160v4l61 60q87 87 87 159q0 62 -36 62q-31 0 -48 -48q-9 -27 -27 -27q-21 0 -21 21
q0 22 28 41q29 20 72 20q38 0 64 -17q24 -18 24 -52zM288 95q0 -44 -33 -73q-33 -30 -74 -30q-48 0 -77 20q-30 20 -30 46q0 9 6 16t15 7q22 0 26 -25q7 -31 22 -44q14 -12 38 -12q30 0 40 22q11 22 11 72q0 49 -10 68q-10 18 -40 18q-52 0 -75 -41l-6 2l11 72l11 71h109
q31 0 41 24l5 -1l-15 -67h-139l-12 -81q26 29 73 29q46 0 74 -25q29 -26 29 -68z" />
    <glyph glyph-name="uni2157" unicode="&#x2157;" horiz-adv-x="390" 
d="M346 346v-9h-302v9h302zM288 95q0 -44 -33 -73q-33 -30 -74 -30q-48 0 -77 20q-30 20 -30 46q0 9 6 16t15 7q22 0 26 -25q7 -31 22 -44q14 -12 38 -12q30 0 40 22q11 22 11 72q0 49 -10 68q-10 18 -40 18q-52 0 -75 -41l-6 2l11 72l11 71h109q31 0 41 24l5 -1l-15 -67
h-139l-12 -81q26 29 73 29q46 0 74 -25q29 -26 29 -68zM308 481q0 -40 -33 -66q-34 -26 -74 -26q-49 0 -81 23q-31 22 -31 53q0 9 6 16t15 7q22 0 26 -25q8 -38 23 -52q14 -14 42 -14t40 20q11 20 11 62q0 73 -33 73q-7 0 -21 -6l-33 -16l-3 7l41 20q30 15 30 68
q0 57 -36 57q-30 0 -47 -48q-9 -27 -27 -27q-21 0 -21 21q0 20 28 41q29 20 70 20q39 0 63 -15q24 -16 24 -45q0 -22 -19 -41q-10 -10 -22.5 -17t-26.5 -12q35 0 62 -21t27 -57z" />
    <glyph glyph-name="uni2158" unicode="&#x2158;" horiz-adv-x="390" 
d="M346 346v-9h-302v9h302zM288 95q0 -44 -33 -73q-33 -30 -74 -30q-48 0 -77 20q-30 20 -30 46q0 9 6 16t15 7q22 0 26 -25q7 -31 22 -44q14 -12 38 -12q30 0 40 22q11 22 11 72q0 49 -10 68q-10 18 -40 18q-52 0 -75 -41l-6 2l11 72l11 71h109q31 0 41 24l5 -1l-15 -67
h-139l-12 -81q26 29 73 29q46 0 74 -25q29 -26 29 -68zM275 397q-2 0 -7 0.5t-13 1.5t-16 1h-18h-18t-16 -1t-13 -1.5t-7 -0.5h-22v7h11q25 0 32 9q7 8 7 41v19h-129v4l137 204h9q5 -1 12 -1t12 1h11v-200h3q34 0 65 66l5 -1l-16 -73h-57v-19q0 -33 7 -41q8 -9 30 -9h2v-7
h-11zM195 655l-116 -174h116v174z" />
    <glyph glyph-name="uni2159" unicode="&#x2159;" horiz-adv-x="390" 
d="M346 346v-9h-302v9h302zM264 397q-5 0 -12.5 0.5t-16.5 1.5t-18 1h-17h-17t-18 -1t-16.5 -1.5t-12.5 -0.5h-22v7h18q27 0 34 9q8 10 8 41v141q0 22 -16 22q-3 0 -40 -17l-3 6l15 8q34 19 59 43q26 26 32 42h5v-245q0 -30 7 -40t30 -10h8v-7h-7zM88 125q0 62 55 111
q56 48 139 60l1 -7q-120 -18 -137 -126q26 33 65 33q41 0 70 -26t29 -69q0 -45 -35 -77q-37 -32 -73 -32q-41 0 -77 33q-37 33 -37 100zM144 125q0 -69 15 -98q13 -28 43 -28q52 0 52 101q0 50 -10 69t-35 19q-37 0 -64 -37q-1 -4 -1 -10.5v-15.5z" />
    <glyph glyph-name="uni215A" unicode="&#x215a;" horiz-adv-x="390" 
d="M346 346v-9h-302v9h302zM88 125q0 62 55 111q56 48 139 60l1 -7q-120 -18 -137 -126q26 33 65 33q41 0 70 -26t29 -69q0 -45 -35 -77q-37 -32 -73 -32q-41 0 -77 33q-37 33 -37 100zM144 125q0 -69 15 -98q13 -28 43 -28q52 0 52 101q0 50 -10 69t-35 19q-37 0 -64 -37
q-1 -4 -1 -10.5v-15.5zM308 492q0 -44 -33 -73q-33 -30 -74 -30q-46 0 -77 20q-30 20 -30 46q0 9 6 16t15 7q22 0 26 -25q7 -31 22 -44q14 -12 38 -12q30 0 40 22q11 22 11 72q0 49 -10 68q-10 18 -40 18q-52 0 -75 -41l-6 2l11 72l11 71h109q31 0 41 24l5 -1l-15 -67h-139
l-12 -81q26 29 73 29q46 0 74 -25q29 -26 29 -68z" />
    <glyph glyph-name="oneeighth" unicode="&#x215b;" horiz-adv-x="390" 
d="M346 346v-9h-302v9h302zM264 397q-5 0 -12.5 0.5t-16.5 1.5t-18 1h-17h-17t-18 -1t-16.5 -1.5t-12.5 -0.5h-22v7h18q27 0 34 9q8 10 8 41v141q0 22 -16 22q-3 0 -40 -17l-3 6l15 8q34 19 59 43q26 26 32 42h5v-245q0 -30 7 -40t30 -10h8v-7h-7zM193 -8q-44 0 -75 22
q-33 21 -33 54q0 52 71 75q-20 8 -38 27q-18 20 -18 47q0 32 27 54q27 21 68 21q37 0 64 -18q26 -20 26 -48q0 -19 -14 -36q-13 -18 -41 -27q69 -28 69 -83q0 -38 -31 -63t-75 -25zM194 0q30 0 47 17q16 16 16 45q0 40 -53 61l-40 17q-33 -22 -33 -72q0 -68 63 -68zM246 225
q0 26 -14 43q-13 16 -38 16q-30 0 -43 -13q-15 -13 -15 -33q0 -37 46 -55l40 -17q24 24 24 59z" />
    </font>
</defs>
</svg>
