<?xml version="1.0" standalone="no"?>
<!DOCTYPE svg PUBLIC "-//W3C//DTD SVG 1.1//EN" "http://www.w3.org/Graphics/SVG/1.1/DTD/svg11.dtd" >
<svg xmlns="http://www.w3.org/2000/svg" xmlns:xlink="http://www.w3.org/1999/xlink" version="1.1">
<metadata>
Created by FontForge 20170731 at Wed Oct 21 10:11:10 2020
 By Aleksey,,,
</metadata>
<defs>
<font id="BWIBold" horiz-adv-x="0" >
  <font-face 
    font-family="BWI"
    font-weight="700"
    font-stretch="normal"
    units-per-em="2048"
    panose-1="0 0 0 0 0 0 0 0 0 0"
    ascent="1638"
    descent="-410"
    x-height="1005"
    cap-height="1381"
    bbox="-257.969 -471.265 2136 1582"
    underline-thickness="102"
    underline-position="-307"
    unicode-range="U+000A-2122"
  />
<missing-glyph horiz-adv-x="1079" 
d="M102 1434h875v-1434h-875v1434zM160 1393l379 -633l381 633h-760zM514 717l-369 614v-1231zM541 674l-379 -631h758zM565 717l371 -621v1239z" />
    <glyph glyph-name=".notdef" horiz-adv-x="1079" 
d="M102 1434h875v-1434h-875v1434zM160 1393l379 -633l381 633h-760zM514 717l-369 614v-1231zM541 674l-379 -631h758zM565 717l371 -621v1239z" />
    <glyph glyph-name=".null" 
 />
    <glyph glyph-name=".null" 
 />
    <glyph glyph-name="nonmarkingreturn" horiz-adv-x="682" 
 />
    <glyph glyph-name="LF" unicode="&#xa;" 
 />
    <glyph glyph-name="controlCR" unicode="&#xd;" 
 />
    <glyph glyph-name="space" unicode=" " horiz-adv-x="798" 
 />
    <glyph glyph-name="exclam" unicode="!" horiz-adv-x="583" 
d="M296 603q-10 73 -37.5 148t-67.5 163t-58 137q-35 95 -35 181t56.5 142t139.5 55q84 -1 138.5 -57t52.5 -144q-2 -74 -40 -189q-11 -33 -40.5 -94.5t-40.5 -92.5t-20.5 -65.5t-20.5 -80t-17 -66.5q-1 -6 -4.5 -18.5t-5.5 -18.5zM292 366q75 -1 126 -49.5t52 -120.5
q1 -75 -50 -127t-128 -54q-76 -1 -128.5 49.5t-52.5 126.5q0 77 51 126.5t130 48.5z" />
    <glyph glyph-name="quotedbl" unicode="&#x22;" horiz-adv-x="808" 
d="M215 1433q59 -2 94 -38.5t36 -99.5q2 -55 -12 -96q-9 -28 -44.5 -115.5t-52 -150.5t-17.5 -132q-6 7 -14 14.5t-10.5 10.5t-2.5 6q-1 32 -6 63.5t-16.5 67.5t-19 58t-25 65t-23.5 59q-31 85 -30 155q1 65 40.5 100.5t102.5 32.5zM603 1434q58 -2 95 -35.5t38 -90.5
q1 -61 -30 -164q-20 -64 -62.5 -186t-48.5 -139q-9 5 -9 8q-7 118 -91 314q-45 106 -29 180q26 115 137 113z" />
    <glyph glyph-name="quotedbl" unicode="&#x201d;" horiz-adv-x="808" 
d="M215 1433q59 -2 94 -38.5t36 -99.5q2 -55 -12 -96q-9 -28 -44.5 -115.5t-52 -150.5t-17.5 -132q-6 7 -14 14.5t-10.5 10.5t-2.5 6q-1 32 -6 63.5t-16.5 67.5t-19 58t-25 65t-23.5 59q-31 85 -30 155q1 65 40.5 100.5t102.5 32.5zM603 1434q58 -2 95 -35.5t38 -90.5
q1 -61 -30 -164q-20 -64 -62.5 -186t-48.5 -139q-9 5 -9 8q-7 118 -91 314q-45 106 -29 180q26 115 137 113z" />
    <glyph glyph-name="quotedbl" unicode="&#x201c;" horiz-adv-x="808" 
d="M215 1433q59 -2 94 -38.5t36 -99.5q2 -55 -12 -96q-9 -28 -44.5 -115.5t-52 -150.5t-17.5 -132q-6 7 -14 14.5t-10.5 10.5t-2.5 6q-1 32 -6 63.5t-16.5 67.5t-19 58t-25 65t-23.5 59q-31 85 -30 155q1 65 40.5 100.5t102.5 32.5zM603 1434q58 -2 95 -35.5t38 -90.5
q1 -61 -30 -164q-20 -64 -62.5 -186t-48.5 -139q-9 5 -9 8q-7 118 -91 314q-45 106 -29 180q26 115 137 113z" />
    <glyph glyph-name="numbersign" unicode="#" horiz-adv-x="1159" 
d="M1096 957q-44 -11 -128.5 -8.5t-134.5 -4.5q-54 -186 -135 -458h256v-18q-45 -14 -128 -11.5t-132 -4.5q-21 -66 -63 -196t-63 -196l-18 -3q6 70 46 199t48 195h-293q-21 -71 -61 -205.5t-57 -191.5l-10 2.5l-10 2.5q-4 29 2.5 60.5t20 69t18.5 57.5q1 6 56 200
q-42 13 -126.5 11t-122.5 10q0 3 0.5 9t0.5 9h258q23 78 68.5 232t69.5 235h-253v22q43 10 125 8.5t135 4.5q19 66 59 198.5t59 197.5q3 -1 11 -2t11 -2q3 -28 1 -40t-11.5 -39t-12.5 -39q-5 -22 -38 -137q-4 -13 -38 -141q123 -4 294 0q21 52 61 190.5t78 207.5
q-6 -76 -44 -212.5t-48 -189.5h249v-22zM662 493q19 65 133 452h-301q-88 -298 -133 -452h301z" />
    <glyph glyph-name="dollar" unicode="$" horiz-adv-x="1198" 
d="M872 877q124 -62 176 -158t43 -241q-12 -188 -122 -304.5t-299 -145.5q-4 -1 -13.5 -2t-18 -2.5t-17.5 -2.5q-3 -33 -10 -128q-3 0 -10 -0.5t-11 -0.5q-2 23 -6 68.5t-5 57.5q-154 25 -165 27q-147 29 -232 104q-88 77 -81 179q6 85 78 107q40 13 79.5 0.5t61.5 -47.5
q8 -12 14 -27t13 -33.5t11 -28.5t19.5 -47t26 -60t23.5 -45q52 -90 151 -83v501l-174 57q-169 61 -237.5 208t-4.5 314q81 208 342 265q6 1 17.5 2t17.5 2q3 1 16.5 3t22.5 4q2 18 5.5 64t6.5 75q26 -25 26 -72.5t10 -62.5q19 -4 62 -12.5t74.5 -16t59.5 -18.5
q99 -38 166 -96q43 -36 66 -121q11 -39 -10.5 -76.5t-59.5 -53.5q-40 -18 -82 -6t-66 50q-9 15 -39 89q-6 15 -17 44t-21 52t-20 43q-39 75 -122 75v-204v-206q81 -25 106 -34q13 -5 46.5 -16t57.5 -20t45 -20zM579 988v384q-97 7 -159.5 -35.5t-70.5 -120.5
q-10 -95 51 -155.5t179 -72.5zM856 283q6 112 -58 183t-177 76v-474q106 -6 167.5 50.5t67.5 164.5z" />
    <glyph glyph-name="percent" unicode="%" horiz-adv-x="1409" 
d="M1116 1424q4 -3 10 -9t10 -9q-131 -232 -391.5 -695t-390.5 -695q-5 3 -9 5t-5.5 2.5t-2.5 1.5q-2 2 -4 8q-2 5 0 8l12 24q114 205 343 615.5t343 615.5l-1 2q0 1 -1.5 4l-3.5 7q-48 -26 -83 -41t-81 -26.5t-93 -5.5t-96 29q15 -79 15 -86q0 -17 1.5 -51t2 -55.5
t-1 -50.5t-5.5 -53q-14 -91 -65 -151.5t-139 -77.5q-220 -43 -340 120q-64 87 -64 216t63 219q74 106 209 128t240 -54q8 -4 14 -11q63 -63 133 -81t133.5 0t136.5 64q17 11 35.5 24.5t41.5 32t34 26.5zM625 895q82 177 4 361q-39 90 -121 124q-147 61 -159 -92
q-2 -30 -2.5 -63.5t0.5 -76.5t1 -64h-9q1 -26 2.5 -73t3.5 -85t6 -72q7 -58 35.5 -77t87.5 -8q104 21 151 126zM1314 481q4 -17 6.5 -35.5t4.5 -43.5t4 -38q-14 -110 -17 -120q-24 -99 -82.5 -156.5t-147.5 -70.5q-98 -14 -190 27.5t-137 122.5q-111 198 2 396
q48 83 140 121.5t197 21.5q174 -30 220 -225zM1250 173q90 190 -1 383q-45 95 -145 120q-106 27 -121 -75q-5 -35 -8 -74.5t-5.5 -88.5t-4.5 -75q2 -26 4.5 -74.5t5.5 -88t8 -74.5q13 -98 113 -76q109 24 154 123z" />
    <glyph glyph-name="ampersand" unicode="&#x26;" horiz-adv-x="1693" 
d="M1566 279l24 63q5 -107 -57.5 -194t-165.5 -117q-291 -86 -453 169q-27 -23 -29 -25q-213 -261 -579 -112q-169 69 -214 244q-29 115 13 219.5t147 171.5q26 17 57 32.5t74 35t64 29.5q-17 18 -56 61q-70 77 -87 171.5t22 183t125 146.5q114 77 287 76.5t286 -78.5
q49 -34 82 -90q23 -42 14 -83.5t-45 -66.5q-36 -26 -84.5 -21t-75.5 42q-27 36 -65 134q-35 89 -107 118t-158 -11q-70 -33 -82.5 -97.5t41.5 -120.5q32 -33 102 -70q87 -45 177 -81q133 -53 215 -138.5t109 -225.5q11 14 28.5 37t25.5 34q14 17 40.5 52.5t48.5 62.5t44 50
q71 74 171 52q48 -11 73.5 -44t24.5 -84t-28.5 -83t-78.5 -35q-45 -2 -129 22q-3 1 -26 8.5t-30.5 8t-24.5 1.5t-28 -6t-22 -20q-5 -6 -19 -23t-20 -25t-15.5 -24t-12 -28t-2 -29t6.5 -35q11 -31 34.5 -102t37.5 -108q14 -38 50 -83q68 -85 148 -74t122 110zM644 55
q76 19 133.5 66.5t111.5 122.5q-8 25 -23.5 71t-26.5 82.5t-19 69.5q-14 61 -43.5 108.5t-75.5 82.5t-91.5 58.5t-111.5 49.5q-6 -16 -17.5 -44t-19.5 -49.5t-12 -41.5q-43 -198 -1 -414q10 -46 28 -83q52 -108 168 -79z" />
    <glyph glyph-name="quotesingle" unicode="'" horiz-adv-x="413" 
d="M342 1303q4 -61 -11 -105q-14 -42 -46.5 -118t-54 -140.5t-29.5 -126.5q-13 23 -13 29q-1 36 -10 77t-18.5 68t-27 74t-25.5 69q-35 100 -35 180q0 58 37 90.5t96 32.5q60 0 97 -34.5t40 -95.5z" />
    <glyph glyph-name="quotesingle" unicode="&#x2019;" horiz-adv-x="413" 
d="M342 1303q4 -61 -11 -105q-14 -42 -46.5 -118t-54 -140.5t-29.5 -126.5q-13 23 -13 29q-1 36 -10 77t-18.5 68t-27 74t-25.5 69q-35 100 -35 180q0 58 37 90.5t96 32.5q60 0 97 -34.5t40 -95.5z" />
    <glyph glyph-name="quotesingle" unicode="&#x2018;" horiz-adv-x="413" 
d="M342 1303q4 -61 -11 -105q-14 -42 -46.5 -118t-54 -140.5t-29.5 -126.5q-13 23 -13 29q-1 36 -10 77t-18.5 68t-27 74t-25.5 69q-35 100 -35 180q0 58 37 90.5t96 32.5q60 0 97 -34.5t40 -95.5z" />
    <glyph glyph-name="parenleft" unicode="(" horiz-adv-x="659" 
d="M441 137q49 -297 280 -443q-132 4 -271.5 127t-235 310t-109.5 370q-17 226 60.5 445t223 368.5t319.5 181.5q-1 -2 -3 -7.5t-4 -9t-5 -5.5q-203 -137 -253 -421q-80 -451 -2 -916z" />
    <glyph glyph-name="parenright" unicode=")" horiz-adv-x="657" 
d="M-53 1499q172 -46 311 -180.5t217 -325.5t78 -401q0 -209 -77.5 -400.5t-214 -325t-304.5 -178.5q0 2 -1.5 6t-2.5 6t0 3q222 151 268 461q66 448 -4 874q-50 295 -258 438q-2 1 -3 4t-3.5 8.5t-5.5 10.5z" />
    <glyph glyph-name="asterisk" unicode="*" horiz-adv-x="784" 
d="M658 1129q35 -19 45.5 -53t-7.5 -68q-20 -38 -55 -49.5t-72 10.5q-30 19 -80 80q-2 2 -59 85l-21 -12q5 -10 15.5 -31.5t18.5 -38t13 -32.5q23 -69 23 -111q0 -35 -26.5 -58.5t-61.5 -23.5q-36 0 -62 22.5t-27 57.5q-1 42 19 103q6 17 49 111q-3 2 -8 5.5t-8 5.5
q-7 -9 -25 -34t-28 -38q-51 -65 -68 -80q-51 -45 -107 -13q-55 31 -49 87q3 34 22.5 57.5t52.5 30.5q21 4 43.5 7.5t53 6.5t44.5 5q27 4 44 23q-93 14 -98 15q-10 2 -33 4.5t-40 6t-31 9.5q-42 18 -54.5 57t9.5 75q22 37 61.5 45.5t75.5 -18.5q10 -8 21 -19.5t18 -20.5
t18.5 -24.5t17.5 -22.5q2 -2 12.5 -15.5t15 -18.5t14.5 -14t21 -15q-3 7 -9 28.5t-11 32.5q-1 3 -17.5 40.5t-21.5 57.5q-24 87 37 126q50 32 100 -2q58 -38 32 -128q-4 -12 -9.5 -26t-13 -30.5t-11.5 -25.5q-5 -12 -14.5 -35.5t-14.5 -35.5q2 -2 7 -5t8 -5q4 5 23 31t30 40
q53 68 67 81q45 45 108 16q54 -25 51 -86q-3 -69 -65 -86q-16 -4 -34.5 -7t-42 -6t-36.5 -5q-51 -7 -83 -13q0 -3 0.5 -9.5t0.5 -9.5q116 -13 136 -16q51 -8 76 -21z" />
    <glyph glyph-name="plus" unicode="+" horiz-adv-x="964" 
d="M496 710q62 -8 208 -9t224 -17q-5 -1 -15 -5.5t-18 -6.5t-16 -2h-114.5h-138h-122.5q-2 -168 -6 -421h-22q-9 71 -7.5 205t-4.5 218h-417v20q29 10 62 11.5t74.5 -0.5t63.5 -1q23 1 223 1v416q19 3 21 2q5 -3 5 -5v-406z" />
    <glyph glyph-name="comma" unicode="," horiz-adv-x="501" 
d="M416 235q20 -54 20.5 -114.5t-24 -121.5t-60.5 -111t-89.5 -82.5t-111.5 -35.5q106 53 167 126t72 189q-7 -5 -25.5 -18t-27.5 -19q-58 -39 -124.5 -32.5t-108.5 54.5q-43 49 -42.5 117.5t44.5 117.5q45 50 116 56t125 -37q46 -36 69 -89z" />
    <glyph glyph-name="hyphen" unicode="-" horiz-adv-x="516" 
d="M45 683h424v-153q-45 -15 -194 -17t-230 12v158z" />
    <glyph glyph-name="period" unicode="." horiz-adv-x="487" 
d="M241 366q76 1 129.5 -49.5t54.5 -124.5q1 -73 -53 -125.5t-130 -51.5q-75 1 -128.5 54t-52.5 126q1 70 54 120t126 51z" />
    <glyph glyph-name="slash" unicode="/" horiz-adv-x="608" 
d="M578 1491q4 -4 4 -8q-7 -41 -11 -51q-454 -1347 -583 -1729q0 -2 -3 -3t-6.5 -2.5t-5.5 -2.5q-3 1 -9 3.5t-9 3.5q333 998 604 1797q18 -7 19 -8z" />
    <glyph glyph-name="zero" unicode="0" horiz-adv-x="1345" 
d="M1140 1139q105 -173 102 -434q0 -233 -94 -401q-24 -42 -37 -61q-81 -117 -197 -179t-235.5 -63t-236.5 59t-200 175q-163 226 -136 566q15 191 96 329q171 289 466 292q299 3 472 -283zM828 244q10 92 36 459h-18q0 29 1 109t0.5 136.5t-4.5 109.5q-7 99 -49 242
q-25 88 -118 90q-90 1 -122 -86q-35 -95 -42 -162q-49 -436 0 -858q11 -99 51 -178q36 -73 107 -74t111 70t47 142z" />
    <glyph glyph-name="one" unicode="1" horiz-adv-x="815" 
d="M611 264q-2 -42 1.5 -73t15.5 -63.5t38.5 -56.5t67.5 -40q-272 -10 -646 -10v10t-1 11q3 1 13 5t16 5q71 9 101.5 38.5t37.5 98.5q0 1 0.5 4t0.5 5q0 680 -1 816q-1 61 -29 79t-87 -3q-40 -13 -67 -10q46 38 141.5 90t123.5 70q51 34 149.5 102t121.5 83q0 -7 1.5 -43
t1.5 -54v-993v-71z" />
    <glyph glyph-name="two" unicode="2" horiz-adv-x="1193" 
d="M377 341q2 -3 5 -9.5t5 -10.5h337h346q-22 -114 -33.5 -171.5t-35 -148.5t-49.5 -163q-8 56 -13 84q-15 85 -102 94q-53 5 -97 5h-577q-10 0 -104 6q47 61 63 80q256 312 313 386q76 99 161 245q126 216 103 486q-5 49 -20 95q-22 64 -83 70q-77 7 -104 -52
q-22 -49 -57 -158q-5 -17 -13 -55t-14 -57q-36 -104 -144 -89q-45 7 -75.5 39.5t-35.5 81.5q-10 91 48 147q96 94 160 123q275 126 556 -17q117 -59 157.5 -168t-9.5 -230q-40 -95 -125 -192q-30 -35 -68.5 -70t-66 -58.5t-80 -61t-72 -51t-84.5 -55.5t-77 -50
q-19 -13 -57.5 -38t-57.5 -37z" />
    <glyph glyph-name="three" unicode="3" horiz-adv-x="1226" 
d="M810 869q-12 -8 -27 -15t-36.5 -16.5t-37.5 -17.5q20 -4 56.5 -11.5t53.5 -11.5q134 -32 212 -111.5t93 -202.5q20 -159 -97 -294q-101 -115 -260 -162q-234 -69 -459 30q-67 29 -147 109q-72 74 -64 188q3 47 29 80t67 43q46 11 88.5 -7t63.5 -59q8 -15 36 -108
q4 -14 13 -45t16.5 -54.5t16.5 -43.5q25 -56 67 -92q52 -46 112 -33t85 77q37 95 43 198q3 50 3.5 104.5t-0.5 127t-1 104.5q0 21 -5 44q-13 68 -41.5 83.5t-94.5 -10.5q-16 -7 -45.5 -21t-42.5 -20q-12 -5 -25 -11t-32.5 -14t-34.5 -14q3 8 6.5 15t7 12t8.5 10l8 8t9.5 7
t9 5.5t10 4.5t9 3.5t9.5 3.5t9 3q102 34 144 106.5t36 181.5q-1 19 -4 102.5t-7 127.5q-8 99 -80 114q-86 19 -134 -78q-17 -35 -56 -157q-3 -10 -12 -46.5t-18 -55.5q-19 -41 -56.5 -60t-82.5 -11q-41 7 -68.5 35.5t-35.5 71.5q-15 81 45 157q87 113 250 158
q231 63 450 -35q65 -29 110 -73q72 -69 71.5 -157t-74.5 -155q-18 -16 -41.5 -32.5t-38 -26t-47.5 -29t-42 -24.5z" />
    <glyph glyph-name="four" unicode="4" horiz-adv-x="1282" 
d="M557 300v109h-500q3 9 6 23.5t6 23.5t7 16q55 101 223.5 405.5t259.5 471.5q29 55 90 52q21 -1 256 -1q6 -166 5 -477t3 -488q64 44 112.5 109.5t93.5 142t82 118.5q11 -44 -14 -181.5t-57 -214.5h-103h-109q-21 -130 0 -250q13 -77 111 -131h-663l-3 12q5 1 22 6.5
t27 6.5q69 9 102 41t40 99q3 26 3 107zM538 1238q-33 -59 -191 -346t-246 -447h233q73 0 215 2q14 122 9.5 431t-20.5 360z" />
    <glyph glyph-name="five" unicode="5" horiz-adv-x="1171" 
d="M201 672q-3 1 -9.5 4t-10.5 5q16 122 48 361t47 355q6 0 35.5 3t44.5 3q200 1 399 0q46 0 75.5 2t66.5 12t65 34t49 62q-5 -82 -38.5 -235.5t-36.5 -173.5h-664q-26 -203 -42 -328q16 10 38 23.5t31 19.5q140 95 324 84t312 -122q122 -106 138 -274.5t-84 -295.5
q-80 -100 -186.5 -153.5t-212 -57.5t-202.5 23t-173 80q-128 91 -123 212q5 104 91 128q46 12 88 -3.5t66 -56.5q8 -15 14.5 -32.5t13 -40t10.5 -34.5q47 -138 60 -166q41 -87 128 -74q75 11 98 102q16 62 16 95q5 347 -1 452q-7 133 -66 170t-186 -9q-117 -43 -185 -132
q-4 -5 -38 -42z" />
    <glyph glyph-name="six" unicode="6" horiz-adv-x="1261" 
d="M550 1048q-11 -28 -20 -59.5t-21 -79t-19 -74.5q168 77 280 67q155 -14 261.5 -106t136.5 -239q30 -149 -36 -283t-205 -206q-128 -67 -264.5 -67t-248.5 56.5t-194.5 168t-108.5 256.5q-82 453 287 744q254 200 587 185q-16 -5 -57.5 -16t-70 -21.5t-53.5 -23.5
q-102 -57 -158 -124q-49 -59 -96 -178zM487 733q-3 0 -1 -102l1 -102h-7q18 -247 23 -283q12 -88 43 -152q31 -61 90 -62t94 59q26 44 35 90q20 108 22 184q6 88 2 199.5t-29 197.5q-15 53 -45 74.5t-77 16.5q-63 -6 -105.5 -39t-45.5 -81z" />
    <glyph glyph-name="seven" unicode="7" horiz-adv-x="1050" 
d="M79 925q-7 43 39.5 279t78.5 315q34 -84 57.5 -100t110.5 -16h568h99q-24 -54 -27 -59q-79 -115 -109 -152q-245 -297 -248 -759q-2 -212 -12 -301q-8 -71 -53 -109t-116 -40q-87 -2 -138.5 46t-56.5 135q-6 120 48 250q61 150 226 370q44 58 129 166.5t112 143.5
q-58 8 -66 8q-39 0 -177.5 -0.5t-177.5 1.5q-200 5 -269 -161q-1 -3 -11 -13q-2 -3 -7 -4z" />
    <glyph glyph-name="eight" unicode="8" horiz-adv-x="1243" 
d="M911 943q-9 -6 -95 -45q131 -82 159 -101q92 -62 136 -159.5t38 -195.5t-53 -189.5t-127 -145.5q-203 -137 -484 -98q-95 13 -195 55q-176 74 -189 256t151 291q15 10 33 19.5t44 22.5t39 19l-34 34q-221 168 -157 421q59 232 328 286q170 34 315 -24q84 -33 134 -82
q85 -81 71.5 -192t-114.5 -172zM694 536q-37 20 -79 39t-97 42t-83 35q-80 -98 -90 -264.5t55 -256.5q42 -59 116 -84.5t153 -6.5q140 33 168 183q19 103 -17 183.5t-126 129.5zM516 1037q32 -21 70.5 -41t90 -44.5t78.5 -38.5q107 207 33 383q-42 100 -193 93
q-113 -6 -155 -111q-27 -64 -7 -131t83 -110z" />
    <glyph glyph-name="nine" unicode="9" horiz-adv-x="1259" 
d="M966 295q-261 -287 -691 -284q254 51 365 222q90 139 119 347q-18 -6 -49.5 -17.5t-47.5 -16.5q-93 -33 -186.5 -22t-171 51t-133.5 113t-75 164q-33 160 23 287.5t198 209.5q112 65 237 74.5t234 -30.5t198 -128.5t131 -210.5q148 -431 -151 -759zM771 687q1 25 1 222h3
q-1 24 -2.5 67t-3.5 78.5t-6 66.5q-12 98 -39 190q-22 75 -96 78q-77 3 -105 -66q-38 -97 -40 -144q-7 -173 -2 -425q1 -47 27 -111q33 -84 117 -72q61 8 103 41t43 75z" />
    <glyph glyph-name="colon" unicode=":" horiz-adv-x="536" 
d="M265 366q76 1 129.5 -49.5t54.5 -124.5t-52.5 -126t-129.5 -51q-73 1 -125.5 50.5t-55.5 120.5q-3 73 49.5 125.5t129.5 54.5zM267 633q-74 1 -128 53.5t-53 125.5q1 70 53 121.5t125 52.5q76 1 130 -50t55 -125q1 -73 -53 -126t-129 -52z" />
    <glyph glyph-name="semicolon" unicode=";" horiz-adv-x="548" 
d="M461 157q6 -129 -60.5 -238.5t-186.5 -152.5q-3 -1 -34 -4q103 57 163.5 133.5t74.5 192.5q-44 -32 -55 -39q-61 -41 -129.5 -32.5t-109.5 60.5q-40 50 -35.5 120t50.5 115q48 46 119 48.5t124 -41.5q74 -61 79 -162zM267 633q-76 1 -128.5 54t-50.5 127q1 73 56 123.5
t131 48.5q73 -2 123.5 -53.5t50.5 -122.5q0 -74 -53.5 -126t-128.5 -51z" />
    <glyph glyph-name="less" unicode="&#x3c;" horiz-adv-x="886" 
d="M758 383q18 -8 74 -39q-1 -3 -3.5 -8.5t-3.5 -7.5q-5 1 -15.5 2t-18.5 2.5t-14 4.5q-28 13 -304.5 141t-421.5 201q26 28 57.5 46.5t74 36t59.5 26.5q19 10 201 94q184 86 193 90q14 6 56 27.5t73 31t64 8.5q-39 -25 -87 -51t-82.5 -42.5t-93.5 -43.5t-87 -40
q-85 -41 -367 -171q13 -7 38.5 -22t37.5 -21q95 -45 285 -132.5t285 -132.5z" />
    <glyph glyph-name="equal" unicode="=" horiz-adv-x="837" 
d="M833 873q-64 -19 -412 -20.5t-398 14.5q41 16 372 19t438 -13zM28 516q109 1 231.5 2t272.5 2t232 2q1 0 49 -6v-20h-789q0 10 1 13q0 1 1 3q1 4 2 4z" />
    <glyph glyph-name="greater" unicode="&#x3e;" horiz-adv-x="884" 
d="M801 715q26 -12 32 -22q-57 -39 -115.5 -70.5t-152 -74t-115.5 -53.5q-75 -36 -220 -102.5t-162 -74.5q-2 5 -6.5 15t-6.5 15q87 40 335 156t391 183q-279 131 -724 338q2 6 3 10.5t1.5 6t0.5 2.5l2 2q3 4 4 4q122 -56 366.5 -167.5t366.5 -167.5z" />
    <glyph glyph-name="question" unicode="?" horiz-adv-x="890" 
d="M637 1352q96 -55 142 -146t31.5 -192.5t-88.5 -184.5q-81 -90 -237 -152q-48 -19 -60 -29t-36 -52v392q9 4 48.5 21.5t58.5 29.5q121 73 136 208q7 59 -30.5 88.5t-92.5 7.5q-36 -15 -92 -67q-18 -17 -54 -56t-57 -58q-53 -46 -119 -41t-100 57q-34 51 -15.5 115.5
t79.5 95.5q64 33 127 37q203 16 359 -74zM401 366q77 -2 127.5 -54t47.5 -128q-3 -72 -55 -120.5t-126 -48.5q-75 0 -128.5 53t-52.5 126t55.5 123.5t131.5 48.5z" />
    <glyph glyph-name="at" unicode="@" horiz-adv-x="1687" 
d="M1517 144q3 7 8 13.5t11.5 14.5t9.5 13q3 -1 8.5 -3.5t8.5 -4.5q-34 -80 -36 -83q-146 -254 -445 -328q-215 -53 -395.5 -6.5t-311.5 158t-204.5 271t-74.5 332.5q-1 128 37.5 250.5t112.5 225t173 178.5t227.5 116t268.5 33q249 -12 431 -160t225 -375
q71 -381 -244 -616q-154 -114 -317 -77q-86 20 -125.5 78t-26.5 145q5 31 35 128q17 59 14 87q-60 -105 -70 -120q-12 -18 -35 -54.5t-37 -58.5t-35 -52.5t-40 -54.5q-67 -87 -164 -98q-81 -10 -126.5 29t-45.5 120q0 66 21 139q73 247 217 413q69 79 155 131
q71 42 144.5 30t130.5 -72q44 -48 109 -36q158 28 233 117q2 -1 8 -5t8 -5q-31 -84 -58 -155q-9 -22 -67 -170t-87 -227q-32 -90 -41 -154q-9 -67 23.5 -89.5t95.5 6.5q58 26 110 73q122 110 168.5 261t9 305t-152.5 274q-139 145 -335.5 191t-391.5 -15t-332 -217
q-86 -97 -134 -215t-56.5 -236t19 -237t86.5 -219.5t154 -182.5t214 -128q136 -54 275 -50.5t261.5 48t221.5 129.5t154 195zM686 273q49 30 173 237.5t163 319.5q-49 66 -84 66t-79 -67q-4 -4 -5 -7q-125 -234 -176 -490q-1 -8 0 -17t4 -21.5t4 -20.5z" />
    <glyph glyph-name="A" unicode="A" horiz-adv-x="1497" 
d="M515 1383h395q50 -131 153 -403t156 -412q22 -60 67 -178.5t68 -177.5q14 -39 23 -59t26 -50.5t39.5 -52t51.5 -37.5h-592q7 10 25 31.5t28.5 38t13.5 32.5q0 18 1.5 24.5t-3 25.5t-6.5 26t-7.5 26t-7.5 26q-5 19 -55 145q-422 0 -506 -1q-13 0 -28.5 -9.5t-19.5 -19.5
q-46 -111 -15 -207q23 -71 95 -100q37 -15 56 -38h-479q11 7 21.5 14.5t17 11.5t12.5 7q92 41 148 136q82 138 129 252t132.5 329.5t124.5 311.5q28 71 0 135q-6 14 -64 173zM360 430h517q-45 117 -127 332t-119 311q-3 0 -8.5 -0.5t-8.5 -0.5q-212 -535 -254 -642z" />
    <glyph glyph-name="A" unicode="&#xc5;" horiz-adv-x="1497" 
d="M515 1383h395q50 -131 153 -403t156 -412q22 -60 67 -178.5t68 -177.5q14 -39 23 -59t26 -50.5t39.5 -52t51.5 -37.5h-592q7 10 25 31.5t28.5 38t13.5 32.5q0 18 1.5 24.5t-3 25.5t-6.5 26t-7.5 26t-7.5 26q-5 19 -55 145q-422 0 -506 -1q-13 0 -28.5 -9.5t-19.5 -19.5
q-46 -111 -15 -207q23 -71 95 -100q37 -15 56 -38h-479q11 7 21.5 14.5t17 11.5t12.5 7q92 41 148 136q82 138 129 252t132.5 329.5t124.5 311.5q28 71 0 135q-6 14 -64 173zM360 430h517q-45 117 -127 332t-119 311q-3 0 -8.5 -0.5t-8.5 -0.5q-212 -535 -254 -642z" />
    <glyph glyph-name="A" unicode="&#xc4;" horiz-adv-x="1497" 
d="M515 1383h395q50 -131 153 -403t156 -412q22 -60 67 -178.5t68 -177.5q14 -39 23 -59t26 -50.5t39.5 -52t51.5 -37.5h-592q7 10 25 31.5t28.5 38t13.5 32.5q0 18 1.5 24.5t-3 25.5t-6.5 26t-7.5 26t-7.5 26q-5 19 -55 145q-422 0 -506 -1q-13 0 -28.5 -9.5t-19.5 -19.5
q-46 -111 -15 -207q23 -71 95 -100q37 -15 56 -38h-479q11 7 21.5 14.5t17 11.5t12.5 7q92 41 148 136q82 138 129 252t132.5 329.5t124.5 311.5q28 71 0 135q-6 14 -64 173zM360 430h517q-45 117 -127 332t-119 311q-3 0 -8.5 -0.5t-8.5 -0.5q-212 -535 -254 -642z" />
    <glyph glyph-name="A" unicode="&#xc3;" horiz-adv-x="1497" 
d="M515 1383h395q50 -131 153 -403t156 -412q22 -60 67 -178.5t68 -177.5q14 -39 23 -59t26 -50.5t39.5 -52t51.5 -37.5h-592q7 10 25 31.5t28.5 38t13.5 32.5q0 18 1.5 24.5t-3 25.5t-6.5 26t-7.5 26t-7.5 26q-5 19 -55 145q-422 0 -506 -1q-13 0 -28.5 -9.5t-19.5 -19.5
q-46 -111 -15 -207q23 -71 95 -100q37 -15 56 -38h-479q11 7 21.5 14.5t17 11.5t12.5 7q92 41 148 136q82 138 129 252t132.5 329.5t124.5 311.5q28 71 0 135q-6 14 -64 173zM360 430h517q-45 117 -127 332t-119 311q-3 0 -8.5 -0.5t-8.5 -0.5q-212 -535 -254 -642z" />
    <glyph glyph-name="A" unicode="&#xc2;" horiz-adv-x="1497" 
d="M515 1383h395q50 -131 153 -403t156 -412q22 -60 67 -178.5t68 -177.5q14 -39 23 -59t26 -50.5t39.5 -52t51.5 -37.5h-592q7 10 25 31.5t28.5 38t13.5 32.5q0 18 1.5 24.5t-3 25.5t-6.5 26t-7.5 26t-7.5 26q-5 19 -55 145q-422 0 -506 -1q-13 0 -28.5 -9.5t-19.5 -19.5
q-46 -111 -15 -207q23 -71 95 -100q37 -15 56 -38h-479q11 7 21.5 14.5t17 11.5t12.5 7q92 41 148 136q82 138 129 252t132.5 329.5t124.5 311.5q28 71 0 135q-6 14 -64 173zM360 430h517q-45 117 -127 332t-119 311q-3 0 -8.5 -0.5t-8.5 -0.5q-212 -535 -254 -642z" />
    <glyph glyph-name="A" unicode="&#xc1;" horiz-adv-x="1497" 
d="M515 1383h395q50 -131 153 -403t156 -412q22 -60 67 -178.5t68 -177.5q14 -39 23 -59t26 -50.5t39.5 -52t51.5 -37.5h-592q7 10 25 31.5t28.5 38t13.5 32.5q0 18 1.5 24.5t-3 25.5t-6.5 26t-7.5 26t-7.5 26q-5 19 -55 145q-422 0 -506 -1q-13 0 -28.5 -9.5t-19.5 -19.5
q-46 -111 -15 -207q23 -71 95 -100q37 -15 56 -38h-479q11 7 21.5 14.5t17 11.5t12.5 7q92 41 148 136q82 138 129 252t132.5 329.5t124.5 311.5q28 71 0 135q-6 14 -64 173zM360 430h517q-45 117 -127 332t-119 311q-3 0 -8.5 -0.5t-8.5 -0.5q-212 -535 -254 -642z" />
    <glyph glyph-name="A" unicode="&#xc0;" horiz-adv-x="1497" 
d="M515 1383h395q50 -131 153 -403t156 -412q22 -60 67 -178.5t68 -177.5q14 -39 23 -59t26 -50.5t39.5 -52t51.5 -37.5h-592q7 10 25 31.5t28.5 38t13.5 32.5q0 18 1.5 24.5t-3 25.5t-6.5 26t-7.5 26t-7.5 26q-5 19 -55 145q-422 0 -506 -1q-13 0 -28.5 -9.5t-19.5 -19.5
q-46 -111 -15 -207q23 -71 95 -100q37 -15 56 -38h-479q11 7 21.5 14.5t17 11.5t12.5 7q92 41 148 136q82 138 129 252t132.5 329.5t124.5 311.5q28 71 0 135q-6 14 -64 173zM360 430h517q-45 117 -127 332t-119 311q-3 0 -8.5 -0.5t-8.5 -0.5q-212 -535 -254 -642z" />
    <glyph glyph-name="B" unicode="B" horiz-adv-x="1404" 
d="M92 7q-9 0 -39 7q39 16 64 40t37 55.5t16 61t4 71.5q-1 457 0 914q0 41 -4 70.5t-15.5 61t-36 56t-62.5 41.5q6 0 17.5 1t21 1.5t17.5 0.5h338q337 1 337 0q163 -2 292 -62q117 -55 160 -158.5t2 -226.5q-38 -115 -166 -174q-12 -6 -134 -50q11 -3 29 -10t27 -9
q13 -3 35.5 -8t41.5 -9.5t35 -9.5q209 -70 221 -279q12 -224 -191 -320q-129 -61 -311 -64q-61 -1 -736 -1zM549 681v-637q24 0 71 -1t81.5 -0.5t65.5 2.5q56 4 94 35.5t53 85.5q55 200 2 393q-15 51 -46.5 84t-80.5 37q-35 3 -73.5 3.5t-89.5 -1t-77 -1.5zM550 1346v-621
h52.5h60h49.5q107 -3 142 98q75 213 6 425q-12 39 -39 65t-66 34q-114 23 -205 -1z" />
    <glyph glyph-name="C" unicode="C" horiz-adv-x="1347" 
d="M1262 486q2 -1 5.5 -2.5t5.5 -1.5v-30q-138 -405 -492 -456q-365 -53 -589 282q-127 191 -120 440t145 428q235 305 615 256q40 -5 131 -22q23 -4 31.5 -5.5t28.5 -3t31 2.5t27 11t28.5 21.5t24.5 35.5q56 -257 123 -572q-3 -1 -9 -3.5t-9 -3.5l-39 63q-16 26 -50 83
t-61 99.5t-55 79.5q-63 84 -147 139q-110 72 -229 44t-185 -142q-48 -83 -61 -165q-48 -318 83 -560q88 -161 236 -233q156 -75 296 -25.5t215 205.5q3 5 20 35z" />
    <glyph glyph-name="C" unicode="&#xc7;" horiz-adv-x="1347" 
d="M1262 486q2 -1 5.5 -2.5t5.5 -1.5v-30q-138 -405 -492 -456q-365 -53 -589 282q-127 191 -120 440t145 428q235 305 615 256q40 -5 131 -22q23 -4 31.5 -5.5t28.5 -3t31 2.5t27 11t28.5 21.5t24.5 35.5q56 -257 123 -572q-3 -1 -9 -3.5t-9 -3.5l-39 63q-16 26 -50 83
t-61 99.5t-55 79.5q-63 84 -147 139q-110 72 -229 44t-185 -142q-48 -83 -61 -165q-48 -318 83 -560q88 -161 236 -233q156 -75 296 -25.5t215 205.5q3 5 20 35z" />
    <glyph glyph-name="D" unicode="D" horiz-adv-x="1449" 
d="M54 1366q1 3 2.5 9t2.5 9q50 4 76 4h576q263 -1 444.5 -160.5t214.5 -420.5q30 -240 -57 -425q-82 -176 -223.5 -270t-335.5 -103q-97 -4 -204.5 -4.5t-246.5 1t-205 1.5q-18 0 -45 12q42 15 69 39t39 58.5t15.5 64t3.5 74.5q-1 1 -0.5 443t0.5 443v45q-2 47 -12 80
t-38.5 61t-75.5 39zM570 1353l-14 -9q-15 -128 -10 -691.5t22 -613.5h68q125 -1 190.5 46.5t102.5 166.5q14 46 18 69q67 388 0 750q-32 174 -115.5 236.5t-261.5 45.5z" />
    <glyph glyph-name="E" unicode="E" horiz-adv-x="1323" 
d="M717 1357q-13 -1 -167 -1v-627q19 0 66.5 -3t72 -2.5t61 10.5t64.5 32q35 27 54 64.5t36 99t26 84.5q16 -58 17.5 -304t-14.5 -321q-3 9 -12 31t-12 32q-4 12 -12 39.5t-15 47.5t-16 38q-51 108 -169 111h-44.5h-53h-46.5v-647q19 0 65 -2t71 -2.5t61.5 2.5t66.5 10
q63 17 114 76q40 48 79 97.5t101.5 131t76.5 99.5q20 26 59 73q1 -54 -64.5 -272.5t-107.5 -306.5q-14 22 -31.5 35.5t-43.5 18.5t-39 5.5t-48 0.5h-773q-44 0 -89 11q36 13 60.5 34t37.5 42t19.5 53.5t8 55.5t1.5 61q-1 290 -1 869v45q-2 75 -28 125.5t-95 78.5q69 6 71 6
h799q29 0 41.5 1t35 5.5t36.5 17.5t25 34q29 -43 85.5 -242.5t64.5 -285.5q-42 38 -46 43q-156 203 -213 283q-91 125 -236 113z" />
    <glyph glyph-name="E" unicode="&#xcb;" horiz-adv-x="1323" 
d="M717 1357q-13 -1 -167 -1v-627q19 0 66.5 -3t72 -2.5t61 10.5t64.5 32q35 27 54 64.5t36 99t26 84.5q16 -58 17.5 -304t-14.5 -321q-3 9 -12 31t-12 32q-4 12 -12 39.5t-15 47.5t-16 38q-51 108 -169 111h-44.5h-53h-46.5v-647q19 0 65 -2t71 -2.5t61.5 2.5t66.5 10
q63 17 114 76q40 48 79 97.5t101.5 131t76.5 99.5q20 26 59 73q1 -54 -64.5 -272.5t-107.5 -306.5q-14 22 -31.5 35.5t-43.5 18.5t-39 5.5t-48 0.5h-773q-44 0 -89 11q36 13 60.5 34t37.5 42t19.5 53.5t8 55.5t1.5 61q-1 290 -1 869v45q-2 75 -28 125.5t-95 78.5q69 6 71 6
h799q29 0 41.5 1t35 5.5t36.5 17.5t25 34q29 -43 85.5 -242.5t64.5 -285.5q-42 38 -46 43q-156 203 -213 283q-91 125 -236 113z" />
    <glyph glyph-name="E" unicode="&#xca;" horiz-adv-x="1323" 
d="M717 1357q-13 -1 -167 -1v-627q19 0 66.5 -3t72 -2.5t61 10.5t64.5 32q35 27 54 64.5t36 99t26 84.5q16 -58 17.5 -304t-14.5 -321q-3 9 -12 31t-12 32q-4 12 -12 39.5t-15 47.5t-16 38q-51 108 -169 111h-44.5h-53h-46.5v-647q19 0 65 -2t71 -2.5t61.5 2.5t66.5 10
q63 17 114 76q40 48 79 97.5t101.5 131t76.5 99.5q20 26 59 73q1 -54 -64.5 -272.5t-107.5 -306.5q-14 22 -31.5 35.5t-43.5 18.5t-39 5.5t-48 0.5h-773q-44 0 -89 11q36 13 60.5 34t37.5 42t19.5 53.5t8 55.5t1.5 61q-1 290 -1 869v45q-2 75 -28 125.5t-95 78.5q69 6 71 6
h799q29 0 41.5 1t35 5.5t36.5 17.5t25 34q29 -43 85.5 -242.5t64.5 -285.5q-42 38 -46 43q-156 203 -213 283q-91 125 -236 113z" />
    <glyph glyph-name="E" unicode="&#xc9;" horiz-adv-x="1323" 
d="M717 1357q-13 -1 -167 -1v-627q19 0 66.5 -3t72 -2.5t61 10.5t64.5 32q35 27 54 64.5t36 99t26 84.5q16 -58 17.5 -304t-14.5 -321q-3 9 -12 31t-12 32q-4 12 -12 39.5t-15 47.5t-16 38q-51 108 -169 111h-44.5h-53h-46.5v-647q19 0 65 -2t71 -2.5t61.5 2.5t66.5 10
q63 17 114 76q40 48 79 97.5t101.5 131t76.5 99.5q20 26 59 73q1 -54 -64.5 -272.5t-107.5 -306.5q-14 22 -31.5 35.5t-43.5 18.5t-39 5.5t-48 0.5h-773q-44 0 -89 11q36 13 60.5 34t37.5 42t19.5 53.5t8 55.5t1.5 61q-1 290 -1 869v45q-2 75 -28 125.5t-95 78.5q69 6 71 6
h799q29 0 41.5 1t35 5.5t36.5 17.5t25 34q29 -43 85.5 -242.5t64.5 -285.5q-42 38 -46 43q-156 203 -213 283q-91 125 -236 113z" />
    <glyph glyph-name="E" unicode="&#xc8;" horiz-adv-x="1323" 
d="M717 1357q-13 -1 -167 -1v-627q19 0 66.5 -3t72 -2.5t61 10.5t64.5 32q35 27 54 64.5t36 99t26 84.5q16 -58 17.5 -304t-14.5 -321q-3 9 -12 31t-12 32q-4 12 -12 39.5t-15 47.5t-16 38q-51 108 -169 111h-44.5h-53h-46.5v-647q19 0 65 -2t71 -2.5t61.5 2.5t66.5 10
q63 17 114 76q40 48 79 97.5t101.5 131t76.5 99.5q20 26 59 73q1 -54 -64.5 -272.5t-107.5 -306.5q-14 22 -31.5 35.5t-43.5 18.5t-39 5.5t-48 0.5h-773q-44 0 -89 11q36 13 60.5 34t37.5 42t19.5 53.5t8 55.5t1.5 61q-1 290 -1 869v45q-2 75 -28 125.5t-95 78.5q69 6 71 6
h799q29 0 41.5 1t35 5.5t36.5 17.5t25 34q29 -43 85.5 -242.5t64.5 -285.5q-42 38 -46 43q-156 203 -213 283q-91 125 -236 113z" />
    <glyph glyph-name="F" unicode="F" horiz-adv-x="1251" 
d="M725 1357q-19 -1 -179 -1v-528v-86q100 -16 170.5 -16.5t123.5 64.5t90 216q18 -37 20.5 -281t-15.5 -337q-22 49 -23 53q-4 13 -10.5 37t-12.5 44t-13 37q-55 131 -192 130q-41 -1 -118 -1q-4 -5 -8 -9t-6 -6.5t-2 -4.5q-3 -425 -1 -478q4 -135 152 -152q29 -4 49 -16
q-26 -8 -58 -12t-55 -4t-60.5 0.5t-56.5 0.5q-38 -1 -115 0t-115 1q-169 -2 -239 9q42 16 69 41t39 59.5t15.5 64.5t3.5 75q-1 0 0 439v439q0 5 -0.5 13.5t-0.5 13.5q1 52 -7.5 90t-36.5 73.5t-78 56.5l72 6h808q33 0 52.5 3.5t43.5 22t40 55.5q65 -209 149 -540
q-3 -1 -8.5 -4t-8.5 -5l-48 57q-184 242 -209 276q-83 113 -221 104z" />
    <glyph glyph-name="G" unicode="G" horiz-adv-x="1499" 
d="M1046 1378q32 -3 58.5 -4t55 14t50.5 49q62 -286 123 -566q-3 -1 -8 -3.5l-7 -3.5q-4 5 -11 13t-12.5 15t-9.5 14q-19 30 -51.5 86t-60.5 101t-56 83q-75 100 -166 157q-114 70 -220 38t-167 -152q-55 -108 -73 -282q-34 -342 27 -599q21 -91 63 -165
q55 -96 159.5 -117.5t192.5 43.5q28 21 30 58q5 167 0 292q-5 131 -132 151q47 20 289 25t331 -10q0 -14 -2 -15q-114 -35 -114 -178q0 -231 -1 -346q0 -21 -5 -96q-30 37 -70.5 60t-69 30.5t-79.5 15.5q-101 17 -185 -30q-99 -56 -212.5 -65.5t-216 24t-191 109.5
t-141.5 182q-180 367 -12 729q150 324 559 366q45 2 66.5 3t67 -3t67.5 -6.5t67 -8t67 -8.5z" />
    <glyph glyph-name="H" unicode="H" horiz-adv-x="1587" 
d="M1534 28q-2 -3 -4 -8t-3 -8h-612q3 4 5.5 10.5t4.5 9.5t4 3q104 27 106 147q1 81 -1 487q0 3 -9 21h-471q-7 -51 -7 -67q-1 -130 -1 -390q0 -67 9 -100t35 -58t88 -61h-621q40 17 65.5 42.5t36.5 60t14 64.5t3 75q-1 146 -1 879v26q2 52 -6 90t-36.5 72.5t-79.5 53.5
q215 14 615 2q-43 -16 -69.5 -41t-37.5 -60t-13.5 -64t-1.5 -75v-404h492v143v275q0 42 -3.5 70.5t-14.5 61.5t-36 56.5t-64 39.5h606q-40 -16 -65 -40.5t-37 -57.5t-15.5 -63t-3.5 -73q1 -1 0.5 -447.5t-0.5 -447.5v-27q1 -79 28 -129t101 -68z" />
    <glyph glyph-name="I" unicode="I" horiz-adv-x="720" 
d="M552 226q1 -86 23.5 -126.5t93.5 -88.5h-626q7 5 14.5 11t10.5 8.5t6.5 4.5t6.5 3q79 20 94 116q7 45 7 97q1 299 1 896v8q0 41 -3.5 70.5t-15 61.5t-37 55.5t-65.5 38.5h608q-40 -17 -65.5 -42.5t-36.5 -60.5t-14 -64.5t-3 -74.5q1 0 1 -439l-1 -439q0 -6 0.5 -17.5
t0.5 -17.5z" />
    <glyph glyph-name="I" unicode="&#xcf;" horiz-adv-x="720" 
d="M552 226q1 -86 23.5 -126.5t93.5 -88.5h-626q7 5 14.5 11t10.5 8.5t6.5 4.5t6.5 3q79 20 94 116q7 45 7 97q1 299 1 896v8q0 41 -3.5 70.5t-15 61.5t-37 55.5t-65.5 38.5h608q-40 -17 -65.5 -42.5t-36.5 -60.5t-14 -64.5t-3 -74.5q1 0 1 -439l-1 -439q0 -6 0.5 -17.5
t0.5 -17.5z" />
    <glyph glyph-name="I" unicode="&#xce;" horiz-adv-x="720" 
d="M552 226q1 -86 23.5 -126.5t93.5 -88.5h-626q7 5 14.5 11t10.5 8.5t6.5 4.5t6.5 3q79 20 94 116q7 45 7 97q1 299 1 896v8q0 41 -3.5 70.5t-15 61.5t-37 55.5t-65.5 38.5h608q-40 -17 -65.5 -42.5t-36.5 -60.5t-14 -64.5t-3 -74.5q1 0 1 -439l-1 -439q0 -6 0.5 -17.5
t0.5 -17.5z" />
    <glyph glyph-name="I" unicode="&#xcd;" horiz-adv-x="720" 
d="M552 226q1 -86 23.5 -126.5t93.5 -88.5h-626q7 5 14.5 11t10.5 8.5t6.5 4.5t6.5 3q79 20 94 116q7 45 7 97q1 299 1 896v8q0 41 -3.5 70.5t-15 61.5t-37 55.5t-65.5 38.5h608q-40 -17 -65.5 -42.5t-36.5 -60.5t-14 -64.5t-3 -74.5q1 0 1 -439l-1 -439q0 -6 0.5 -17.5
t0.5 -17.5z" />
    <glyph glyph-name="I" unicode="&#xcc;" horiz-adv-x="720" 
d="M552 226q1 -86 23.5 -126.5t93.5 -88.5h-626q7 5 14.5 11t10.5 8.5t6.5 4.5t6.5 3q79 20 94 116q7 45 7 97q1 299 1 896v8q0 41 -3.5 70.5t-15 61.5t-37 55.5t-65.5 38.5h608q-40 -17 -65.5 -42.5t-36.5 -60.5t-14 -64.5t-3 -74.5q1 0 1 -439l-1 -439q0 -6 0.5 -17.5
t0.5 -17.5z" />
    <glyph glyph-name="J" unicode="J" horiz-adv-x="692" 
d="M164 1155q0 41 -3.5 70.5t-15 61.5t-36.5 56t-64 39h606q-40 -17 -65 -42t-36 -59t-14.5 -63t-3.5 -73q2 -610 -1 -754q-9 -392 -345 -604q-139 -88 -266 -89q-58 0 -103 19q-37 16 -53.5 50t-8.5 74q7 39 35 64t69 30q79 9 143 -55q8 -8 23 -24t27.5 -28.5t24.5 -22.5
q26 -21 49 -12.5t31 41.5q7 28 7 88v1215v18z" />
    <glyph glyph-name="K" unicode="K" horiz-adv-x="1513" 
d="M49 1366q42 20 278.5 23.5t341.5 -15.5q-71 -23 -96.5 -74t-25.5 -130v-533q0 -8 1 -18.5t2.5 -28.5t2.5 -34q26 30 69 80t64 74q-7 21 -19.5 59t-19.5 57q22 9 23 9q74 -14 126.5 16.5t98.5 97.5q20 30 64.5 83t62.5 77q38 52 53 101q17 57 -6.5 99.5t-76.5 46.5
q-6 1 -35 13q44 18 248 19t264 -17q-58 -19 -111 -44.5t-103.5 -63.5t-86.5 -67.5t-86.5 -84.5t-75.5 -83.5t-80.5 -95t-76.5 -91.5q172 -7 189 -8q29 -65 88.5 -193t89.5 -193q16 -36 49 -108.5t50 -109.5q19 -43 31.5 -66t36 -55t55 -51t72.5 -28q-49 -19 -284 -23.5
t-343 10.5q7 5 14.5 10.5t12.5 9t10 5.5q44 19 36 72q-4 29 -17 59q-2 5 -228 497q-19 -14 -36 -29.5t-34.5 -35.5t-27 -31t-30 -37.5t-25.5 -33.5q-11 -14 -11 -59q-1 -31 0 -93t0 -93q-1 -45 2 -75t13.5 -65t36.5 -61t67 -43h-609q34 13 57.5 34t36 41.5t18.5 52t7.5 54.5
t1.5 60q-1 0 0 443v444q0 8 -0.5 23t-0.5 22q-2 73 -29.5 118.5t-98.5 60.5z" />
    <glyph glyph-name="L" unicode="L" horiz-adv-x="1220" 
d="M177 1156q0 40 -4 70t-15.5 62t-37 55.5t-64.5 38.5h608q-34 -14 -57.5 -36.5t-35.5 -43.5t-18 -55t-7 -55.5t-1 -61.5q1 0 1 -492l-1 -492v-103q22 0 63.5 -1t71.5 -0.5t57 2.5q77 6 142 97q45 62 125.5 178t113.5 163q34 47 66 70q-18 -92 -43.5 -187.5t-66 -231.5
t-56.5 -194q-13 19 -29.5 32.5t-28.5 20.5t-34.5 10.5t-31 4t-36.5 0t-33 -0.5q-114 0 -341.5 0.5t-341.5 0.5q-53 0 -89 17q18 11 32 16q66 23 81 98q10 53 10 114q1 298 1 895v9z" />
    <glyph glyph-name="M" unicode="M" horiz-adv-x="1914" 
d="M1363 1218q-2 0 -6.5 1t-7.5 2q-2 -5 -11.5 -28t-13.5 -36q-32 -93 -91 -263.5t-107.5 -310t-92.5 -263.5q-22 -61 2 -119q10 -25 70 -189h-392q-82 212 -236 611.5t-206 534.5q-12 -60 -12 -63q-1 -251 -1 -755q0 -154 98 -248q13 -13 30.5 -25t44.5 -28t41 -25h-449
q115 54 160 146.5t43 225.5q-1 116 -1 246t0.5 289t0.5 246q0 97 -24.5 130t-119.5 65q-1 0 -12 20h511q24 -63 400 -1045q3 -1 9 -1t9 -1q67 181 187.5 532t180.5 517h502q-8 -6 -15.5 -13t-11 -10t-7.5 -4q-79 -22 -97 -126q-4 -26 -4 -79v-906v-35q1 -71 28.5 -117.5
t95.5 -64.5q-37 -20 -270 -24.5t-350 11.5q5 4 10.5 10t9 8.5t7.5 3.5q98 30 98 143v1037z" />
    <glyph glyph-name="N" unicode="N" horiz-adv-x="1486" 
d="M1016 1363q1 4 3 10.5t3 9.5h433q1 -2 2 -6t2 -6q-7 -3 -20 -9.5t-20 -10.5q-160 -83 -163 -294q-1 -61 0 -292.5t-4 -292.5q-11 -238 106 -391q6 -7 39 -74q-28 0 -86.5 1.5t-99.5 1t-78 -5.5q-88 -12 -145.5 22t-106.5 116q-79 134 -166.5 275t-210 333.5t-172.5 271.5
q-6 9 -50 77q-3 -1 -9 -3.5t-9 -3.5q0 -6 -1 -18t-1.5 -21.5t-0.5 -17.5q0 -518 2 -666q2 -89 29 -173q36 -114 173 -182h-438q98 51 146 125q55 83 55 175v260v306v260q0 71 -47.5 133t-116.5 84q-17 6 -25 27q50 4 75 4q288 0 346 2q39 1 64.5 -14.5t47.5 -50.5
q185 -292 559 -874q10 -16 37 -57t46 -70l4 28t3 22.5t1 15.5v666q0 108 -48 186q-63 104 -158 121z" />
    <glyph glyph-name="N" unicode="&#xd1;" horiz-adv-x="1486" 
d="M1016 1363q1 4 3 10.5t3 9.5h433q1 -2 2 -6t2 -6q-7 -3 -20 -9.5t-20 -10.5q-160 -83 -163 -294q-1 -61 0 -292.5t-4 -292.5q-11 -238 106 -391q6 -7 39 -74q-28 0 -86.5 1.5t-99.5 1t-78 -5.5q-88 -12 -145.5 22t-106.5 116q-79 134 -166.5 275t-210 333.5t-172.5 271.5
q-6 9 -50 77q-3 -1 -9 -3.5t-9 -3.5q0 -6 -1 -18t-1.5 -21.5t-0.5 -17.5q0 -518 2 -666q2 -89 29 -173q36 -114 173 -182h-438q98 51 146 125q55 83 55 175v260v306v260q0 71 -47.5 133t-116.5 84q-17 6 -25 27q50 4 75 4q288 0 346 2q39 1 64.5 -14.5t47.5 -50.5
q185 -292 559 -874q10 -16 37 -57t46 -70l4 28t3 22.5t1 15.5v666q0 108 -48 186q-63 104 -158 121z" />
    <glyph glyph-name="O" unicode="O" horiz-adv-x="1497" 
d="M94 509q-5 22 -24 167q6 242 101 408.5t292 260.5q115 55 239.5 63.5t237 -27.5t209 -105t164.5 -174.5t93 -230.5q61 -303 -79 -549q-66 -116 -173 -198t-236 -116.5t-258 -15.5q-210 31 -365 172t-201 345zM521 1133q-10 -60 -62 -437q1 0 4.5 -0.5t5.5 -0.5
q2 -28 4 -83.5t5.5 -99t9.5 -82.5q24 -145 69 -264q54 -147 191 -146q124 1 188 139q34 71 45 125q88 424 0 826q-21 94 -70 170q-63 99 -163.5 98.5t-164.5 -99.5q-50 -79 -62 -146z" />
    <glyph glyph-name="O" unicode="&#xd8;" horiz-adv-x="1497" 
d="M94 509q-5 22 -24 167q6 242 101 408.5t292 260.5q115 55 239.5 63.5t237 -27.5t209 -105t164.5 -174.5t93 -230.5q61 -303 -79 -549q-66 -116 -173 -198t-236 -116.5t-258 -15.5q-210 31 -365 172t-201 345zM521 1133q-10 -60 -62 -437q1 0 4.5 -0.5t5.5 -0.5
q2 -28 4 -83.5t5.5 -99t9.5 -82.5q24 -145 69 -264q54 -147 191 -146q124 1 188 139q34 71 45 125q88 424 0 826q-21 94 -70 170q-63 99 -163.5 98.5t-164.5 -99.5q-50 -79 -62 -146z" />
    <glyph glyph-name="O" unicode="&#xd6;" horiz-adv-x="1497" 
d="M94 509q-5 22 -24 167q6 242 101 408.5t292 260.5q115 55 239.5 63.5t237 -27.5t209 -105t164.5 -174.5t93 -230.5q61 -303 -79 -549q-66 -116 -173 -198t-236 -116.5t-258 -15.5q-210 31 -365 172t-201 345zM521 1133q-10 -60 -62 -437q1 0 4.5 -0.5t5.5 -0.5
q2 -28 4 -83.5t5.5 -99t9.5 -82.5q24 -145 69 -264q54 -147 191 -146q124 1 188 139q34 71 45 125q88 424 0 826q-21 94 -70 170q-63 99 -163.5 98.5t-164.5 -99.5q-50 -79 -62 -146z" />
    <glyph glyph-name="O" unicode="&#xd5;" horiz-adv-x="1497" 
d="M94 509q-5 22 -24 167q6 242 101 408.5t292 260.5q115 55 239.5 63.5t237 -27.5t209 -105t164.5 -174.5t93 -230.5q61 -303 -79 -549q-66 -116 -173 -198t-236 -116.5t-258 -15.5q-210 31 -365 172t-201 345zM521 1133q-10 -60 -62 -437q1 0 4.5 -0.5t5.5 -0.5
q2 -28 4 -83.5t5.5 -99t9.5 -82.5q24 -145 69 -264q54 -147 191 -146q124 1 188 139q34 71 45 125q88 424 0 826q-21 94 -70 170q-63 99 -163.5 98.5t-164.5 -99.5q-50 -79 -62 -146z" />
    <glyph glyph-name="O" unicode="&#xd4;" horiz-adv-x="1497" 
d="M94 509q-5 22 -24 167q6 242 101 408.5t292 260.5q115 55 239.5 63.5t237 -27.5t209 -105t164.5 -174.5t93 -230.5q61 -303 -79 -549q-66 -116 -173 -198t-236 -116.5t-258 -15.5q-210 31 -365 172t-201 345zM521 1133q-10 -60 -62 -437q1 0 4.5 -0.5t5.5 -0.5
q2 -28 4 -83.5t5.5 -99t9.5 -82.5q24 -145 69 -264q54 -147 191 -146q124 1 188 139q34 71 45 125q88 424 0 826q-21 94 -70 170q-63 99 -163.5 98.5t-164.5 -99.5q-50 -79 -62 -146z" />
    <glyph glyph-name="O" unicode="&#xd3;" horiz-adv-x="1497" 
d="M94 509q-5 22 -24 167q6 242 101 408.5t292 260.5q115 55 239.5 63.5t237 -27.5t209 -105t164.5 -174.5t93 -230.5q61 -303 -79 -549q-66 -116 -173 -198t-236 -116.5t-258 -15.5q-210 31 -365 172t-201 345zM521 1133q-10 -60 -62 -437q1 0 4.5 -0.5t5.5 -0.5
q2 -28 4 -83.5t5.5 -99t9.5 -82.5q24 -145 69 -264q54 -147 191 -146q124 1 188 139q34 71 45 125q88 424 0 826q-21 94 -70 170q-63 99 -163.5 98.5t-164.5 -99.5q-50 -79 -62 -146z" />
    <glyph glyph-name="O" unicode="&#xd2;" horiz-adv-x="1497" 
d="M94 509q-5 22 -24 167q6 242 101 408.5t292 260.5q115 55 239.5 63.5t237 -27.5t209 -105t164.5 -174.5t93 -230.5q61 -303 -79 -549q-66 -116 -173 -198t-236 -116.5t-258 -15.5q-210 31 -365 172t-201 345zM521 1133q-10 -60 -62 -437q1 0 4.5 -0.5t5.5 -0.5
q2 -28 4 -83.5t5.5 -99t9.5 -82.5q24 -145 69 -264q54 -147 191 -146q124 1 188 139q34 71 45 125q88 424 0 826q-21 94 -70 170q-63 99 -163.5 98.5t-164.5 -99.5q-50 -79 -62 -146z" />
    <glyph glyph-name="P" unicode="P" horiz-adv-x="1337" 
d="M729 631q-25 -1 -53 -1t-65 0.5t-60 0.5q0 -49 -1 -144t-0.5 -164.5t2.5 -132.5q3 -75 39.5 -109.5t118.5 -42.5q1 0 47 -11q-51 -19 -345 -20.5t-365 16.5q38 10 64 29t40 39t21 51t8.5 54t1.5 60v887v36q-2 77 -27.5 126.5t-95.5 73.5q6 1 16.5 3.5t19.5 4t17 1.5
q541 2 684 -2q141 -5 277 -51q215 -71 217 -321q2 -238 -212 -327q-52 -22 -116.5 -34t-111.5 -15.5t-121 -6.5zM723 1354h-168v-683h162q122 0 156 120q62 223 0 447q-31 113 -150 116z" />
    <glyph glyph-name="Q" unicode="Q" horiz-adv-x="1499" 
d="M772 -10q-73 -1 -125 -27t-91 -83q15 7 46.5 21.5t47.5 21.5q109 51 210 -17q20 -13 93 -62.5t113 -75.5q83 -53 135.5 -47t121.5 77q53 55 89 75q-5 -31 -8 -34q-13 -15 -57.5 -68t-74.5 -86.5t-62 -63.5q-89 -84 -173 -91.5t-188 58.5q-153 96 -235 159q-99 76 -204 8
q-18 -12 -54.5 -37.5t-55.5 -37.5q-23 -14 -48 -13q61 69 188.5 179t166.5 148q-20 8 -58 22.5t-66 26.5t-52 25q-349 197 -357 612q-8 476 395 667q115 54 239.5 62t237 -29t208.5 -107t163 -175.5t91 -230.5q69 -354 -127 -615q-194 -260 -509 -262zM982 287
q10 60 19 124.5t19 153t15 125.5h-9.5t-9.5 1q0 23 1 69.5t1 82.5t-3 69q-9 111 -29 197t-65 160q-43 71 -108 97.5t-129 0t-105 -98.5q-50 -88 -76 -215q-53 -270 -13 -635q20 -178 85 -287q44 -74 109 -100.5t130 0t108 100.5q48 82 60 156z" />
    <glyph glyph-name="R" unicode="R" horiz-adv-x="1449" 
d="M709 589q-9 21 -13.5 31t-12.5 22.5t-11.5 16.5t-15 8.5t-17.5 5t-24 -1t-30.5 -4t-41.5 -8.5q0 -389 1 -465q2 -125 117 -181h-608q40 16 65.5 40.5t37.5 57.5t15.5 63t3.5 73q-1 302 -1 904v36q-3 72 -29.5 120.5t-93.5 71.5q6 1 16.5 3.5t19.5 4t17 1.5q535 2 701 -2
q114 -3 251 -45q194 -62 212 -257q20 -222 -159 -332q-115 -71 -288 -79q-16 -1 -47 -3t-45 -3q15 -46 46 -65.5t78 -27.5q28 -5 167 -15q16 -1 99 -1q13 -29 110 -248q11 -26 33.5 -77.5t34.5 -76.5q14 -30 22.5 -45.5t24.5 -36t37 -30t49 -10.5q0 -4 -0.5 -7t0 -4t0 -2
t-0.5 -2q-3 -8 -4 -8h-459q-1 1 -15 30t-21 45q-37 84 -110.5 251.5t-110.5 251.5zM547 1346v-642q23 0 60 -1t65 -1t52 2q100 6 133 102q75 216 3 443q-26 81 -96 97q-113 26 -217 0z" />
    <glyph glyph-name="S" unicode="S" horiz-adv-x="1245" 
d="M202 -3q-3 2 -8.5 5.5t-8.5 4.5l-105 525q3 1 8 4t7 4q26 -31 32 -40q19 -29 58 -91t70.5 -109t62.5 -88q147 -192 372 -192q158 0 209 121q27 62 12 134.5t-68 117.5q-65 55 -165 101q-42 20 -123.5 50t-115.5 45q-92 40 -147 80q-217 159 -158 439q26 121 122.5 202.5
t227.5 90.5q52 0 66.5 2t67 -3t67 -6t67 -7.5t66.5 -8.5q32 -3 59 -4.5t55.5 13.5t50.5 50q41 -180 115 -504l-15 -9q-4 4 -11 12t-12.5 14.5t-9.5 12.5q-19 29 -54 84.5t-65 99.5t-59 81q-131 164 -335 146q-123 -10 -162 -103q-47 -110 35 -198q51 -55 135 -98
q38 -19 111.5 -47t101.5 -40q15 -7 57 -25t63.5 -28t53.5 -27t56 -34q80 -56 126.5 -136.5t53 -167.5t-16.5 -171t-85 -155t-150 -112q-144 -67 -321 -38q-120 20 -270 50q-36 11 -69.5 1t-53.5 -48z" />
    <glyph glyph-name="T" unicode="T" horiz-adv-x="1437" 
d="M1398 852q-4 -1 -11.5 -5t-10.5 -5q-8 12 -23.5 36t-22.5 36q-24 39 -67 110t-78.5 129t-67.5 109q-26 40 -42.5 59t-42.5 28.5t-54.5 7.5t-83.5 -13v-84v-993q0 -56 2 -71q7 -70 33 -111t93 -53q-41 -22 -285 -26.5t-340 13.5q7 4 20.5 12t19.5 10q69 27 82 107
q7 41 7 106q1 343 1 1029q0 12 -2 32.5t-2 26.5q-89 23 -128.5 10t-83.5 -82q-8 -12 -208 -340q-9 -14 -27.5 -45t-29.5 -49q-13 44 27 276t75 330q6 -4 21 -15.5t26 -18.5t22 -11q21 -8 79 -8q139 0 417 -0.5t417 -0.5q35 0 55 2t48 15t50 39q19 -99 57.5 -296.5
t57.5 -295.5z" />
    <glyph glyph-name="U" unicode="U" horiz-adv-x="1413" 
d="M164 1137q-1 110 -20.5 148t-106.5 97h618q-13 -22 -15 -22q-102 -28 -104 -155q-1 -133 -1 -399q0 -318 2 -381q3 -86 26 -157q56 -175 226 -198q186 -24 295 122q75 99 75 223q2 562 0 674q-5 201 -181 268q-2 1 -22 19q24 11 25 11q138 1 422 1q-12 -26 -14 -27
q-182 -63 -191 -291q-2 -68 -2.5 -141.5t0.5 -169t1 -141.5v-45v-52.5v-44.5q3 -103 -25 -188.5t-85.5 -151t-151 -103.5t-215.5 -42q-88 -3 -195 14q-170 26 -263.5 133.5t-96.5 279.5q-1 66 -1 594v125z" />
    <glyph glyph-name="U" unicode="&#xdc;" horiz-adv-x="1413" 
d="M164 1137q-1 110 -20.5 148t-106.5 97h618q-13 -22 -15 -22q-102 -28 -104 -155q-1 -133 -1 -399q0 -318 2 -381q3 -86 26 -157q56 -175 226 -198q186 -24 295 122q75 99 75 223q2 562 0 674q-5 201 -181 268q-2 1 -22 19q24 11 25 11q138 1 422 1q-12 -26 -14 -27
q-182 -63 -191 -291q-2 -68 -2.5 -141.5t0.5 -169t1 -141.5v-45v-52.5v-44.5q3 -103 -25 -188.5t-85.5 -151t-151 -103.5t-215.5 -42q-88 -3 -195 14q-170 26 -263.5 133.5t-96.5 279.5q-1 66 -1 594v125z" />
    <glyph glyph-name="U" unicode="&#xdb;" horiz-adv-x="1413" 
d="M164 1137q-1 110 -20.5 148t-106.5 97h618q-13 -22 -15 -22q-102 -28 -104 -155q-1 -133 -1 -399q0 -318 2 -381q3 -86 26 -157q56 -175 226 -198q186 -24 295 122q75 99 75 223q2 562 0 674q-5 201 -181 268q-2 1 -22 19q24 11 25 11q138 1 422 1q-12 -26 -14 -27
q-182 -63 -191 -291q-2 -68 -2.5 -141.5t0.5 -169t1 -141.5v-45v-52.5v-44.5q3 -103 -25 -188.5t-85.5 -151t-151 -103.5t-215.5 -42q-88 -3 -195 14q-170 26 -263.5 133.5t-96.5 279.5q-1 66 -1 594v125z" />
    <glyph glyph-name="U" unicode="&#xda;" horiz-adv-x="1413" 
d="M164 1137q-1 110 -20.5 148t-106.5 97h618q-13 -22 -15 -22q-102 -28 -104 -155q-1 -133 -1 -399q0 -318 2 -381q3 -86 26 -157q56 -175 226 -198q186 -24 295 122q75 99 75 223q2 562 0 674q-5 201 -181 268q-2 1 -22 19q24 11 25 11q138 1 422 1q-12 -26 -14 -27
q-182 -63 -191 -291q-2 -68 -2.5 -141.5t0.5 -169t1 -141.5v-45v-52.5v-44.5q3 -103 -25 -188.5t-85.5 -151t-151 -103.5t-215.5 -42q-88 -3 -195 14q-170 26 -263.5 133.5t-96.5 279.5q-1 66 -1 594v125z" />
    <glyph glyph-name="U" unicode="&#xd9;" horiz-adv-x="1413" 
d="M164 1137q-1 110 -20.5 148t-106.5 97h618q-13 -22 -15 -22q-102 -28 -104 -155q-1 -133 -1 -399q0 -318 2 -381q3 -86 26 -157q56 -175 226 -198q186 -24 295 122q75 99 75 223q2 562 0 674q-5 201 -181 268q-2 1 -22 19q24 11 25 11q138 1 422 1q-12 -26 -14 -27
q-182 -63 -191 -291q-2 -68 -2.5 -141.5t0.5 -169t1 -141.5v-45v-52.5v-44.5q3 -103 -25 -188.5t-85.5 -151t-151 -103.5t-215.5 -42q-88 -3 -195 14q-170 26 -263.5 133.5t-96.5 279.5q-1 66 -1 594v125z" />
    <glyph glyph-name="V" unicode="V" horiz-adv-x="1421" 
d="M958 12h-391q-37 102 -110.5 305t-109.5 304q-204 566 -214 593q-26 70 -48 96t-83 61q38 17 260 20.5t344 -10.5l-13.5 -9t-12.5 -8t-10 -7t-7 -8q-36 -59 -38 -84q-2 -39 21 -103q91 -256 277 -768q2 -4 32 -65q20 58 54 154t47 134q113 324 125 360q29 90 36 173
q7 81 -26 128.5t-113 78.5l-31 24h480q-38 -26 -45 -31q-10 -8 -38 -27.5t-45.5 -35t-28.5 -33.5q-105 -164 -150 -280q-48 -123 -127 -353.5t-101 -290.5q-25 -72 2 -136q11 -25 21 -54t22.5 -67.5t20.5 -60.5z" />
    <glyph glyph-name="W" unicode="W" horiz-adv-x="2129" 
d="M1634 211q7 -29 16 -60t23.5 -75t20.5 -64h-384q-39 125 -123.5 398t-131.5 422q-6 -12 -18 -35.5t-16 -34.5l-159 -423q-27 -67 0 -137q7 -18 60 -190h-378q-36 94 -36 95q-59 172 -177 515.5t-177 515.5q-3 8 -9.5 28t-10.5 31q-17 46 -30 72.5t-40 59.5t-64 52h586
q-66 -58 -75 -90.5t19 -117.5q88 -261 266 -781q0 -1 25 -57q28 58 33 71q16 43 72.5 196t88.5 236q24 62 3 120q-14 41 -37.5 116t-30.5 95q-14 43 -22.5 64.5t-26 54.5t-41.5 55.5t-57 38.5h587q-8 -10 -26.5 -28t-29 -31.5t-13.5 -27.5q-9 -44 14 -120q85 -282 229 -746
q2 -7 36 -96q84 257 109 337q99 316 113 364q19 66 19 140q-2 142 -127 181q-4 1 -9 4l-12.5 7.5t-13.5 7.5l30 13q262 2 427 -14q-35 -21 -37 -22q-12 -11 -44.5 -36.5t-54 -45.5t-36.5 -42q-73 -109 -118 -237q-85 -247 -213 -667q-14 -46 1 -112z" />
    <glyph glyph-name="X" unicode="X" horiz-adv-x="1429" 
d="M1253 206l21 -35t23.5 -38.5t22.5 -32t29 -35t30.5 -26.5t38.5 -26h-632q57 62 62 99t-36 106q-30 50 -66 106.5t-81 127.5t-74 116q-21 -33 -61 -94t-68.5 -106.5t-51.5 -87.5q-50 -93 -30 -151.5t114 -102.5q-32 -17 -215 -20t-277 13q8 4 25 12t24 13q18 12 58.5 36.5
t70 44t54.5 40.5q79 67 177.5 197.5t158.5 241.5q-114 181 -200 320q-56 90 -170 270q-6 9 -21 34t-22.5 36t-22.5 32t-27.5 33.5t-30 27t-36.5 25.5h631q-57 -59 -62.5 -95t34.5 -106q32 -55 181 -294q54 40 122.5 148t76.5 168q8 54 -12 90t-70 59q-25 12 -34 29h475
q0 -3 -0.5 -7t-0.5 -7t-1 -3q-156 -48 -290 -209q-37 -45 -74.5 -93.5t-90 -119t-72.5 -96.5q124 -199 136 -219q230 -367 264 -421z" />
    <glyph glyph-name="Y" unicode="Y" horiz-adv-x="1406" 
d="M1005 13h-623q33 13 56 33t35.5 40t19.5 50.5t8.5 53t2.5 58.5q1 0 0 40v40q-1 30 2 95t1 113.5t-14 90.5t-35 84t-61 98t-52 79q-29 48 -87.5 144t-87.5 144q-5 8 -19.5 32.5t-21 34.5t-20.5 31t-24.5 32.5t-25.5 27t-31.5 27t-35.5 20.5h613q-51 -58 -53.5 -84
t36.5 -93q18 -31 240 -394l31 -35q18 34 58 105t68 124t51 103q47 104 27 160t-120 105q38 14 214.5 17t249.5 -10q-3 -14 -4 -15q-152 -39 -241 -170q-84 -123 -277 -443q-13 -22 -13 -69q-2 -339 2 -470q1 -67 38 -133q6 -12 19 -21.5t37 -22.5t37 -22z" />
    <glyph glyph-name="Y" unicode="&#x178;" horiz-adv-x="1406" 
d="M1005 13h-623q33 13 56 33t35.5 40t19.5 50.5t8.5 53t2.5 58.5q1 0 0 40v40q-1 30 2 95t1 113.5t-14 90.5t-35 84t-61 98t-52 79q-29 48 -87.5 144t-87.5 144q-5 8 -19.5 32.5t-21 34.5t-20.5 31t-24.5 32.5t-25.5 27t-31.5 27t-35.5 20.5h613q-51 -58 -53.5 -84
t36.5 -93q18 -31 240 -394l31 -35q18 34 58 105t68 124t51 103q47 104 27 160t-120 105q38 14 214.5 17t249.5 -10q-3 -14 -4 -15q-152 -39 -241 -170q-84 -123 -277 -443q-13 -22 -13 -69q-2 -339 2 -470q1 -67 38 -133q6 -12 19 -21.5t37 -22.5t37 -22z" />
    <glyph glyph-name="Y" unicode="&#xdd;" horiz-adv-x="1406" 
d="M1005 13h-623q33 13 56 33t35.5 40t19.5 50.5t8.5 53t2.5 58.5q1 0 0 40v40q-1 30 2 95t1 113.5t-14 90.5t-35 84t-61 98t-52 79q-29 48 -87.5 144t-87.5 144q-5 8 -19.5 32.5t-21 34.5t-20.5 31t-24.5 32.5t-25.5 27t-31.5 27t-35.5 20.5h613q-51 -58 -53.5 -84
t36.5 -93q18 -31 240 -394l31 -35q18 34 58 105t68 124t51 103q47 104 27 160t-120 105q38 14 214.5 17t249.5 -10q-3 -14 -4 -15q-152 -39 -241 -170q-84 -123 -277 -443q-13 -22 -13 -69q-2 -339 2 -470q1 -67 38 -133q6 -12 19 -21.5t37 -22.5t37 -22z" />
    <glyph glyph-name="Z" unicode="Z" horiz-adv-x="1271" 
d="M414 680q44 80 376 671q-249 0 -270 -1q-65 -2 -124 -78q-43 -55 -119.5 -155.5t-101.5 -132.5q-17 -22 -53 -64q-3 2 -9.5 5t-9.5 4q26 95 73.5 271.5t66.5 245.5q59 -43 82 -50t102 -7h684h105q-131 -243 -379.5 -691.5t-360.5 -653.5q256 0 304 2q61 2 122 81
q37 46 249 323q10 13 29 37t27 34q7 -47 -52 -253t-111 -320q-11 17 -25.5 28.5t-25.5 17.5t-33 9t-29.5 3.5t-35.5 0t-32 -0.5h-718h-104q54 105 117 218.5t138.5 247t117.5 208.5z" />
    <glyph glyph-name="bracketleft" unicode="[" horiz-adv-x="542" 
d="M430 591q0 -407 -240 -862q137 -6 385 -18q0 -3 -0.5 -10t-0.5 -11h-441v1806h446q0 -4 0.5 -11t0.5 -10q-27 -6 -56.5 -7.5t-70 -0.5t-57.5 1h-208q117 -236 179.5 -448.5t62.5 -428.5z" />
    <glyph glyph-name="backslash" unicode="\" horiz-adv-x="606" 
d="M638 -266q1 -3 3 -48q-34 42 -322 892.5t-292 914.5q3 1 10 3t10 3q98 -294 295 -882.5t296 -882.5z" />
    <glyph glyph-name="bracketright" unicode="]" horiz-adv-x="540" 
d="M390 1499q14 -50 16 -898t-12 -913h-438q0 4 -0.5 11t-0.5 11q74 6 219.5 11t177.5 7q-479 854 1 1735q-143 3 -395 9q37 21 193 29t239 -2z" />
    <glyph glyph-name="asciicircum" unicode="^" horiz-adv-x="827" 
d="M657 948q19 -43 56.5 -128t56.5 -127q-5 -2 -15 -6.5t-15 -6.5q-141 316 -327 731q-62 -127 -169 -371t-163 -360q-6 3 -10.5 5t-6 2.5t-2.5 1.5q-6 6 -5 7q155 351 323 730q2 5 31 48q26 -38 47.5 -81t44.5 -98.5t34 -79.5q19 -39 39 -83.5t44 -99t37 -84.5z" />
    <glyph glyph-name="underscore" unicode="_" horiz-adv-x="1105" 
d="M972 -123v-15q-3 -6 -4 -6q-131 -1 -393 -2.5t-393 -2.5q-1 0 -49 6q0 3 0.5 10t0.5 10h838z" />
    <glyph glyph-name="grave" unicode="`" horiz-adv-x="411" 
d="M343 1155q3 -6 17 -59q-35 31 -111.5 97t-128 112t-98.5 90q-32 30 -36 68t18 69q19 28 53 41t64 1q41 -16 71 -60q8 -12 16 -27.5t12.5 -26.5t12 -30t11.5 -28q20 -48 56 -138.5t43 -108.5z" />
    <glyph glyph-name="a" unicode="a" horiz-adv-x="1159" 
d="M1080 160q7 5 12.5 13.5t11 20t9.5 16.5q-17 -152 -158 -198q-184 -60 -296 90q-62 -35 -67 -38q-121 -70 -245 -67q-182 3 -237 139q-74 178 39 299q58 63 169 125q34 19 74 37t91.5 39.5t76.5 32.5q15 7 42.5 19t39.5 18q0 23 1 63.5t1 73t-2 61.5q-4 59 -42 80
t-88 -11q-44 -28 -109 -123q-15 -23 -39 -74.5t-40 -74.5q-30 -46 -79 -66q-32 -13 -64 -4t-55 39q-24 32 -26.5 67.5t16.5 66.5q44 69 103 105q173 107 396 113q105 3 202 -16q125 -24 146 -159q11 -70 13 -150q1 -74 1 -443q0 -10 0.5 -31t0.5 -31q2 -60 36 -62
q26 -1 66 30zM637 132l5 7l-1 -1v521q-110 -29 -157 -79t-57 -151q-11 -113 0 -212q13 -116 64 -136.5t146 51.5z" />
    <glyph glyph-name="a" unicode="&#xe5;" horiz-adv-x="1159" 
d="M1080 160q7 5 12.5 13.5t11 20t9.5 16.5q-17 -152 -158 -198q-184 -60 -296 90q-62 -35 -67 -38q-121 -70 -245 -67q-182 3 -237 139q-74 178 39 299q58 63 169 125q34 19 74 37t91.5 39.5t76.5 32.5q15 7 42.5 19t39.5 18q0 23 1 63.5t1 73t-2 61.5q-4 59 -42 80
t-88 -11q-44 -28 -109 -123q-15 -23 -39 -74.5t-40 -74.5q-30 -46 -79 -66q-32 -13 -64 -4t-55 39q-24 32 -26.5 67.5t16.5 66.5q44 69 103 105q173 107 396 113q105 3 202 -16q125 -24 146 -159q11 -70 13 -150q1 -74 1 -443q0 -10 0.5 -31t0.5 -31q2 -60 36 -62
q26 -1 66 30zM637 132l5 7l-1 -1v521q-110 -29 -157 -79t-57 -151q-11 -113 0 -212q13 -116 64 -136.5t146 51.5z" />
    <glyph glyph-name="a" unicode="&#xe4;" horiz-adv-x="1159" 
d="M1080 160q7 5 12.5 13.5t11 20t9.5 16.5q-17 -152 -158 -198q-184 -60 -296 90q-62 -35 -67 -38q-121 -70 -245 -67q-182 3 -237 139q-74 178 39 299q58 63 169 125q34 19 74 37t91.5 39.5t76.5 32.5q15 7 42.5 19t39.5 18q0 23 1 63.5t1 73t-2 61.5q-4 59 -42 80
t-88 -11q-44 -28 -109 -123q-15 -23 -39 -74.5t-40 -74.5q-30 -46 -79 -66q-32 -13 -64 -4t-55 39q-24 32 -26.5 67.5t16.5 66.5q44 69 103 105q173 107 396 113q105 3 202 -16q125 -24 146 -159q11 -70 13 -150q1 -74 1 -443q0 -10 0.5 -31t0.5 -31q2 -60 36 -62
q26 -1 66 30zM637 132l5 7l-1 -1v521q-110 -29 -157 -79t-57 -151q-11 -113 0 -212q13 -116 64 -136.5t146 51.5z" />
    <glyph glyph-name="a" unicode="&#xe3;" horiz-adv-x="1159" 
d="M1080 160q7 5 12.5 13.5t11 20t9.5 16.5q-17 -152 -158 -198q-184 -60 -296 90q-62 -35 -67 -38q-121 -70 -245 -67q-182 3 -237 139q-74 178 39 299q58 63 169 125q34 19 74 37t91.5 39.5t76.5 32.5q15 7 42.5 19t39.5 18q0 23 1 63.5t1 73t-2 61.5q-4 59 -42 80
t-88 -11q-44 -28 -109 -123q-15 -23 -39 -74.5t-40 -74.5q-30 -46 -79 -66q-32 -13 -64 -4t-55 39q-24 32 -26.5 67.5t16.5 66.5q44 69 103 105q173 107 396 113q105 3 202 -16q125 -24 146 -159q11 -70 13 -150q1 -74 1 -443q0 -10 0.5 -31t0.5 -31q2 -60 36 -62
q26 -1 66 30zM637 132l5 7l-1 -1v521q-110 -29 -157 -79t-57 -151q-11 -113 0 -212q13 -116 64 -136.5t146 51.5z" />
    <glyph glyph-name="a" unicode="&#xe2;" horiz-adv-x="1159" 
d="M1080 160q7 5 12.5 13.5t11 20t9.5 16.5q-17 -152 -158 -198q-184 -60 -296 90q-62 -35 -67 -38q-121 -70 -245 -67q-182 3 -237 139q-74 178 39 299q58 63 169 125q34 19 74 37t91.5 39.5t76.5 32.5q15 7 42.5 19t39.5 18q0 23 1 63.5t1 73t-2 61.5q-4 59 -42 80
t-88 -11q-44 -28 -109 -123q-15 -23 -39 -74.5t-40 -74.5q-30 -46 -79 -66q-32 -13 -64 -4t-55 39q-24 32 -26.5 67.5t16.5 66.5q44 69 103 105q173 107 396 113q105 3 202 -16q125 -24 146 -159q11 -70 13 -150q1 -74 1 -443q0 -10 0.5 -31t0.5 -31q2 -60 36 -62
q26 -1 66 30zM637 132l5 7l-1 -1v521q-110 -29 -157 -79t-57 -151q-11 -113 0 -212q13 -116 64 -136.5t146 51.5z" />
    <glyph glyph-name="a" unicode="&#xe1;" horiz-adv-x="1159" 
d="M1080 160q7 5 12.5 13.5t11 20t9.5 16.5q-17 -152 -158 -198q-184 -60 -296 90q-62 -35 -67 -38q-121 -70 -245 -67q-182 3 -237 139q-74 178 39 299q58 63 169 125q34 19 74 37t91.5 39.5t76.5 32.5q15 7 42.5 19t39.5 18q0 23 1 63.5t1 73t-2 61.5q-4 59 -42 80
t-88 -11q-44 -28 -109 -123q-15 -23 -39 -74.5t-40 -74.5q-30 -46 -79 -66q-32 -13 -64 -4t-55 39q-24 32 -26.5 67.5t16.5 66.5q44 69 103 105q173 107 396 113q105 3 202 -16q125 -24 146 -159q11 -70 13 -150q1 -74 1 -443q0 -10 0.5 -31t0.5 -31q2 -60 36 -62
q26 -1 66 30zM637 132l5 7l-1 -1v521q-110 -29 -157 -79t-57 -151q-11 -113 0 -212q13 -116 64 -136.5t146 51.5z" />
    <glyph glyph-name="a" unicode="&#xe0;" horiz-adv-x="1159" 
d="M1080 160q7 5 12.5 13.5t11 20t9.5 16.5q-17 -152 -158 -198q-184 -60 -296 90q-62 -35 -67 -38q-121 -70 -245 -67q-182 3 -237 139q-74 178 39 299q58 63 169 125q34 19 74 37t91.5 39.5t76.5 32.5q15 7 42.5 19t39.5 18q0 23 1 63.5t1 73t-2 61.5q-4 59 -42 80
t-88 -11q-44 -28 -109 -123q-15 -23 -39 -74.5t-40 -74.5q-30 -46 -79 -66q-32 -13 -64 -4t-55 39q-24 32 -26.5 67.5t16.5 66.5q44 69 103 105q173 107 396 113q105 3 202 -16q125 -24 146 -159q11 -70 13 -150q1 -74 1 -443q0 -10 0.5 -31t0.5 -31q2 -60 36 -62
q26 -1 66 30zM637 132l5 7l-1 -1v521q-110 -29 -157 -79t-57 -151q-11 -113 0 -212q13 -116 64 -136.5t146 51.5z" />
    <glyph glyph-name="b" unicode="b" horiz-adv-x="1200" 
d="M1058 800q124 -292 0 -578q-44 -103 -129.5 -163t-185.5 -63t-204 49q-27 15 -40 21.5t-37.5 16.5t-42 13t-41 2.5t-46.5 -6.5q-6 -2 -40.5 -11t-46 -13t-36 -14.5t-40.5 -24.5t-30 -33q-3 2 -8.5 4.5t-8.5 4.5v96v1029v80q0 65 -22 108t-82 64q32 4 106.5 12t116 13.5
t101.5 23.5t109 45q8 -42 9.5 -86.5t0 -100t-0.5 -81.5q1 -38 1 -80.5t-0.5 -98t-0.5 -88.5q62 31 87 43q150 74 297.5 21.5t213.5 -205.5zM739 245q3 222 -1 532q-1 64 -22 130q-5 18 -18.5 35.5t-28.5 24.5q-53 25 -130.5 -24.5t-78.5 -108.5v-100.5v-118.5v-100
q0 -273 -1 -328q-2 -62 47 -87q78 -40 95 -46q89 -30 116 61q21 72 22 130z" />
    <glyph glyph-name="c" unicode="c" horiz-adv-x="1042" 
d="M724 715q2 22 11.5 63t10.5 49q10 52 -7 93t-55 59q-43 22 -96 10.5t-79 -52.5q-53 -82 -67 -161q-34 -198 11 -369q16 -59 43 -106q57 -100 159 -117t186 62q21 20 40.5 46.5t42.5 62t35 52.5q-53 -291 -292 -382q-255 -96 -447 102q-208 215 -122 536q75 279 376 349
q241 56 407 -113q88 -89 82 -199q-3 -59 -39.5 -94.5t-90.5 -32.5q-55 3 -84.5 41t-24.5 101z" />
    <glyph glyph-name="c" unicode="&#xe7;" horiz-adv-x="1042" 
d="M724 715q2 22 11.5 63t10.5 49q10 52 -7 93t-55 59q-43 22 -96 10.5t-79 -52.5q-53 -82 -67 -161q-34 -198 11 -369q16 -59 43 -106q57 -100 159 -117t186 62q21 20 40.5 46.5t42.5 62t35 52.5q-53 -291 -292 -382q-255 -96 -447 102q-208 215 -122 536q75 279 376 349
q241 56 407 -113q88 -89 82 -199q-3 -59 -39.5 -94.5t-90.5 -32.5q-55 3 -84.5 41t-24.5 101z" />
    <glyph glyph-name="d" unicode="d" horiz-adv-x="1222" 
d="M1076 228q0 -40 2 -63.5t11 -54.5t29.5 -53.5t54.5 -38.5h-429q-3 9 -7 27.5t-6 27.5q-3 -1 -11.5 -2t-12.5 -3q-5 -2 -53.5 -26t-75.5 -32q-129 -37 -248.5 16t-177.5 173q-140 294 -11 602q43 101 126.5 160.5t182 64t203.5 -42.5q4 -2 84 -43v254q0 35 -3 59.5
t-12.5 51.5t-31.5 46.5t-56 31.5q25 3 86 8.5t94 10t83 14t93.5 25t85.5 38.5v-106v-1074v-71zM739 819q2 43 -15 70.5t-55 48.5q-185 104 -199 -94q-11 -152 -13 -548q0 -57 20 -167q11 -63 62 -79q55 -17 126 33t72 107v319q0 27 -1 95.5t-0.5 118.5t3.5 96z" />
    <glyph glyph-name="e" unicode="e" horiz-adv-x="1081" 
d="M995 413l13 -9q-19 -139 -123 -253t-236 -143q-179 -38 -335 57t-215 278q-26 91 -27 177.5t29 166.5t79.5 144.5t123.5 112t162 68.5q189 45 353 -46q91 -51 137 -140.5t32 -190.5h-559q-7 -213 75 -338q48 -74 127 -102t159.5 -2.5t134.5 98.5q13 17 24.5 36.5t25 46.5
t20.5 39zM464 911q-42 -112 -33 -239h259q11 119 -24 233q-27 85 -98 87q-72 1 -104 -81z" />
    <glyph glyph-name="e" unicode="&#xeb;" horiz-adv-x="1081" 
d="M995 413l13 -9q-19 -139 -123 -253t-236 -143q-179 -38 -335 57t-215 278q-26 91 -27 177.5t29 166.5t79.5 144.5t123.5 112t162 68.5q189 45 353 -46q91 -51 137 -140.5t32 -190.5h-559q-7 -213 75 -338q48 -74 127 -102t159.5 -2.5t134.5 98.5q13 17 24.5 36.5t25 46.5
t20.5 39zM464 911q-42 -112 -33 -239h259q11 119 -24 233q-27 85 -98 87q-72 1 -104 -81z" />
    <glyph glyph-name="e" unicode="&#xea;" horiz-adv-x="1081" 
d="M995 413l13 -9q-19 -139 -123 -253t-236 -143q-179 -38 -335 57t-215 278q-26 91 -27 177.5t29 166.5t79.5 144.5t123.5 112t162 68.5q189 45 353 -46q91 -51 137 -140.5t32 -190.5h-559q-7 -213 75 -338q48 -74 127 -102t159.5 -2.5t134.5 98.5q13 17 24.5 36.5t25 46.5
t20.5 39zM464 911q-42 -112 -33 -239h259q11 119 -24 233q-27 85 -98 87q-72 1 -104 -81z" />
    <glyph glyph-name="e" unicode="&#xe9;" horiz-adv-x="1081" 
d="M995 413l13 -9q-19 -139 -123 -253t-236 -143q-179 -38 -335 57t-215 278q-26 91 -27 177.5t29 166.5t79.5 144.5t123.5 112t162 68.5q189 45 353 -46q91 -51 137 -140.5t32 -190.5h-559q-7 -213 75 -338q48 -74 127 -102t159.5 -2.5t134.5 98.5q13 17 24.5 36.5t25 46.5
t20.5 39zM464 911q-42 -112 -33 -239h259q11 119 -24 233q-27 85 -98 87q-72 1 -104 -81z" />
    <glyph glyph-name="e" unicode="&#xe8;" horiz-adv-x="1081" 
d="M995 413l13 -9q-19 -139 -123 -253t-236 -143q-179 -38 -335 57t-215 278q-26 91 -27 177.5t29 166.5t79.5 144.5t123.5 112t162 68.5q189 45 353 -46q91 -51 137 -140.5t32 -190.5h-559q-7 -213 75 -338q48 -74 127 -102t159.5 -2.5t134.5 98.5q13 17 24.5 36.5t25 46.5
t20.5 39zM464 911q-42 -112 -33 -239h259q11 119 -24 233q-27 85 -98 87q-72 1 -104 -81z" />
    <glyph glyph-name="f" unicode="f" horiz-adv-x="718" 
d="M828 1422q48 -9 71.5 -44.5t14.5 -79.5q-8 -42 -40 -65t-78 -17q-42 5 -120 48q-15 8 -38.5 31t-35.5 31q-40 27 -66.5 14t-27.5 -61q-1 -28 -1 -272h192q-32 -27 -97.5 -29t-88.5 -10q-6 -60 -6 -65v-700q0 -45 1 -53q7 -53 30 -76.5t76 -32.5q3 0 48 -9
q-47 -17 -284 -20t-329 13q116 38 116 164v782q-38 5 -116 15q0 2 0.5 7.5t0.5 8.5q86 6 133 9q10 19 32 61q145 272 456 351q65 17 157 -1z" />
    <glyph glyph-name="g" unicode="g" horiz-adv-x="1101" 
d="M898 128q85 -31 130.5 -95.5t47 -134t-26.5 -135t-79 -101.5q-96 -67 -190 -91q-278 -71 -560 14q-77 23 -134 67q-52 39 -51 89.5t54 88.5q22 16 48.5 30t63.5 32t56 28l-38 19t-48 25q-77 45 -90.5 115t42.5 139q9 11 20 22t25.5 23t22.5 18.5t27.5 21t24.5 18.5
q9 7 20.5 13.5t28.5 15.5t29 16q-61 35 -66 38q-100 62 -137.5 167.5t-1 210.5t136.5 168q82 52 175.5 65.5t209.5 4.5q13 -1 37 -5t33 -5q96 119 101 124q63 69 149 68q82 -2 108 -62q29 -65 -16 -117q-48 -54 -122 -33q-8 2 -80 37q-61 30 -96 -25q30 -19 56 -34
q178 -101 172 -299q-6 -192 -185 -281q-170 -83 -363 -46q-60 11 -82.5 1.5t-57.5 -60.5q4 -10 9.5 -18.5t14.5 -14t14.5 -9.5t18 -7t17 -4t20 -3.5t17.5 -2.5q57 -10 171 -27t171 -27q70 -12 153 -42zM446 886q-5 -32 -23 -202h7q0 -11 -1 -38.5t-0.5 -47.5t3.5 -38
q16 -104 39 -152q24 -48 68 -47.5t72 46.5t29 82q5 198 -1 378q-1 43 -38 97q-22 32 -59 32.5t-61 -31.5q-28 -37 -35 -79zM788 -387q62 31 64.5 88.5t-56.5 95.5q-47 31 -122 49q-89 20 -279 53q-55 10 -89.5 -9.5t-56.5 -71.5q-30 -66 -8 -126.5t90 -85.5q32 -12 68.5 -20
t83 -16t70.5 -13q1 2 2 6.5t1 6.5q8 0 25 -1t30 -0.5t24 2.5q120 25 153 42z" />
    <glyph glyph-name="h" unicode="h" horiz-adv-x="1230" 
d="M738 169q3 80 3 240q0 347 -1 417q-1 62 -26.5 81.5t-85.5 4.5q-42 -10 -61 -15t-39 -16.5t-26 -18.5t-12 -29.5t-6.5 -41.5t-0.5 -61v-462q0 -13 0.5 -28t1.5 -33t1 -28q3 -61 25 -97.5t81 -46.5q-1 -3 -3.5 -8.5t-4.5 -8.5h-540q34 14 55 35t30 50t11.5 53t2.5 61v976
q0 38 -2.5 60t-11.5 50.5t-31.5 47.5t-58.5 30q34 5 107.5 12.5t116 13.5t103.5 24t111 47q5 -45 6 -92t0.5 -108t-0.5 -87v-297q175 63 176 63q20 6 62 18.5t67 19.5t61 15t66 11q158 17 163 -150q2 -80 2 -479v-178q1 -83 18.5 -115t89.5 -80h-547q1 3 3 8.5t3.5 9
t3.5 3.5q83 22 87 129z" />
    <glyph glyph-name="i" unicode="i" horiz-adv-x="655" 
d="M498 178q4 -26 6.5 -39.5t10 -35t18 -32.5t30.5 -21t47 -13q-3 -3 -6.5 -10t-6.5 -10h-537v17q55 18 76 58.5t20 101.5v109v128.5v108.5v230q1 68 -21 112.5t-86 65.5q34 4 108 10.5t117 12t104 23.5t110 48q7 -84 7 -92v-683q0 -67 3 -89zM318 1086q-75 -1 -123.5 45
t-49.5 118q-1 71 47.5 117t124.5 46t124.5 -46t48.5 -117q0 -72 -48 -117t-124 -46z" />
    <glyph glyph-name="i" unicode="&#xef;" horiz-adv-x="655" 
d="M498 178q4 -26 6.5 -39.5t10 -35t18 -32.5t30.5 -21t47 -13q-3 -3 -6.5 -10t-6.5 -10h-537v17q55 18 76 58.5t20 101.5v109v128.5v108.5v230q1 68 -21 112.5t-86 65.5q34 4 108 10.5t117 12t104 23.5t110 48q7 -84 7 -92v-683q0 -67 3 -89zM318 1086q-75 -1 -123.5 45
t-49.5 118q-1 71 47.5 117t124.5 46t124.5 -46t48.5 -117q0 -72 -48 -117t-124 -46z" />
    <glyph glyph-name="i" unicode="&#xee;" horiz-adv-x="655" 
d="M498 178q4 -26 6.5 -39.5t10 -35t18 -32.5t30.5 -21t47 -13q-3 -3 -6.5 -10t-6.5 -10h-537v17q55 18 76 58.5t20 101.5v109v128.5v108.5v230q1 68 -21 112.5t-86 65.5q34 4 108 10.5t117 12t104 23.5t110 48q7 -84 7 -92v-683q0 -67 3 -89zM318 1086q-75 -1 -123.5 45
t-49.5 118q-1 71 47.5 117t124.5 46t124.5 -46t48.5 -117q0 -72 -48 -117t-124 -46z" />
    <glyph glyph-name="i" unicode="&#xed;" horiz-adv-x="655" 
d="M498 178q4 -26 6.5 -39.5t10 -35t18 -32.5t30.5 -21t47 -13q-3 -3 -6.5 -10t-6.5 -10h-537v17q55 18 76 58.5t20 101.5v109v128.5v108.5v230q1 68 -21 112.5t-86 65.5q34 4 108 10.5t117 12t104 23.5t110 48q7 -84 7 -92v-683q0 -67 3 -89zM318 1086q-75 -1 -123.5 45
t-49.5 118q-1 71 47.5 117t124.5 46t124.5 -46t48.5 -117q0 -72 -48 -117t-124 -46z" />
    <glyph glyph-name="i" unicode="&#xec;" horiz-adv-x="655" 
d="M498 178q4 -26 6.5 -39.5t10 -35t18 -32.5t30.5 -21t47 -13q-3 -3 -6.5 -10t-6.5 -10h-537v17q55 18 76 58.5t20 101.5v109v128.5v108.5v230q1 68 -21 112.5t-86 65.5q34 4 108 10.5t117 12t104 23.5t110 48q7 -84 7 -92v-683q0 -67 3 -89zM318 1086q-75 -1 -123.5 45
t-49.5 118q-1 71 47.5 117t124.5 46t124.5 -46t48.5 -117q0 -72 -48 -117t-124 -46z" />
    <glyph glyph-name="j" unicode="j" horiz-adv-x="610" 
d="M490 948q0 -709 1 -798q3 -232 -167 -407q-142 -146 -308 -185q-85 -20 -183 -7q-48 7 -72.5 42t-16.5 80q7 45 41 69.5t82 16.5q42 -7 119 -53q15 -9 41 -33t41 -33q32 -19 54.5 -7.5t28.5 48.5q1 6 1 53q0 681 1 1021q0 37 -3 62t-13.5 52.5t-33 47t-57.5 32.5
q35 4 109 10t117 11.5t103.5 24t109.5 49.5q1 -15 2 -35t2 -34.5t1 -26.5zM313 1086q-75 0 -124 46t-49 117t49 117t125 46q75 0 123.5 -46.5t48.5 -117.5t-48.5 -116.5t-124.5 -45.5z" />
    <glyph glyph-name="k" unicode="k" horiz-adv-x="1286" 
d="M1085 201q14 -36 27.5 -60.5t35.5 -49t53 -38t72 -16.5q-48 -20 -270 -24t-286 12q22 15 32 21t19.5 17t10.5 16.5t-1 20t-6.5 26t-15.5 37.5q-25 60 -74.5 173t-71.5 165q-69 -55 -100.5 -104.5t-19.5 -120.5q3 -17 2 -48.5t1 -48.5q3 -27 5.5 -40.5t10 -35t18.5 -33
t32 -21.5t50 -12q-49 -21 -274 -23.5t-294 15.5q68 20 89.5 64t21.5 117q-2 496 0 993q0 69 -20.5 113t-82.5 66q28 4 106 11.5t118 13.5t101.5 24t111.5 46v-1024q25 7 42.5 21.5t35 36.5t27.5 31q-5 14 -17 52t-20 61q44 5 66 6q11 1 38 -2t45.5 1t33.5 22q13 15 40 43
t42.5 45.5t32.5 46t25 56.5q10 40 -3.5 63t-53.5 39q-4 1 -12.5 3t-12.5 4q-3 1 -6.5 3.5t-10 7.5t-13.5 9h446q-65 -22 -124.5 -55.5t-118 -83.5t-99 -89.5t-105.5 -108.5q20 -1 48 -2.5t47.5 -2.5t37.5 -2q11 -27 34 -81t34 -81q109 -266 120 -295z" />
    <glyph glyph-name="l" unicode="l" horiz-adv-x="653" 
d="M495 189q3 -43 9.5 -69t31 -52t68.5 -34q-46 -19 -259 -22t-302 13q40 14 64.5 35t34.5 53t12 55t2 66q-1 0 0 470v469q0 6 -0.5 18t-0.5 18q0 32 -3.5 55t-13.5 47.5t-31 42t-53 28.5q17 2 85 8.5t95 10.5t79.5 13.5t93.5 25t82 37.5l5 -100v-1108q0 -67 1 -80z" />
    <glyph glyph-name="m" unicode="m" horiz-adv-x="1820" 
d="M1670 200q1 -75 18.5 -104.5t79.5 -65.5q-38 -16 -249.5 -18t-299.5 14q48 16 74 49t32 64.5t6 79.5v594q-1 74 -29 94.5t-98 -0.5q-23 -7 -111 -40q0 -4 -3 -30.5t-3 -40.5v-576q0 -37 3 -62t12 -53.5t30.5 -50t55.5 -35.5h-538q24 11 42 24.5t28.5 34t16.5 35t8 43
t2.5 40.5t0.5 45v559q0 36 -2 53q-10 78 -85 62q-27 -6 -153 -47q-5 -80 -5 -84v-524l-1 -22q0 -22 1 -22q2 -37 5.5 -60.5t13 -52.5t30.5 -50t54 -35h-540q55 25 76 67.5t21 103.5v594q0 63 -23.5 102.5t-90.5 53.5q19 14 41.5 19t39 3t35.5 0q15 2 54.5 4.5t60.5 5.5
q63 9 104 21q16 5 34 12t41 16.5t37 15.5q5 -43 14 -133q23 8 62.5 22t57.5 20q23 7 68.5 23.5t81.5 28t69 19.5q98 23 146 0.5t102 -113.5q22 8 76.5 28.5t94.5 34.5t78 25q94 27 182 30q119 4 138 -121q4 -26 4 -97l-1 -301q-1 -302 1 -302z" />
    <glyph glyph-name="n" unicode="n" horiz-adv-x="1249" 
d="M1094 187q2 -64 23.5 -102.5t83.5 -50.5q-2 -3 -5.5 -9t-5.5 -9h-551q6 5 12 12t9 10t7 4q72 20 79 107q6 79 6 159q2 337 0 506q-1 75 -28.5 95t-98.5 -2q-19 -6 -39.5 -13.5t-47 -18.5t-43.5 -17v-160v-470q0 -40 2 -63.5t11 -54.5t30.5 -53.5t55.5 -37.5h-532
q35 19 56 43.5t28.5 61.5t9 58.5t0.5 70.5v515q0 68 -21.5 114t-83.5 72q25 2 70 4.5t82 5.5t69 8t67.5 14.5t79.5 22.5t70 20q2 -22 5.5 -67t5.5 -66q25 9 73 27.5t85 32t71 22.5q135 37 225 43q112 7 131 -116q7 -41 7 -106v-524q0 -28 2 -88z" />
    <glyph glyph-name="n" unicode="&#xf1;" horiz-adv-x="1249" 
d="M1094 187q2 -64 23.5 -102.5t83.5 -50.5q-2 -3 -5.5 -9t-5.5 -9h-551q6 5 12 12t9 10t7 4q72 20 79 107q6 79 6 159q2 337 0 506q-1 75 -28.5 95t-98.5 -2q-19 -6 -39.5 -13.5t-47 -18.5t-43.5 -17v-160v-470q0 -40 2 -63.5t11 -54.5t30.5 -53.5t55.5 -37.5h-532
q35 19 56 43.5t28.5 61.5t9 58.5t0.5 70.5v515q0 68 -21.5 114t-83.5 72q25 2 70 4.5t82 5.5t69 8t67.5 14.5t79.5 22.5t70 20q2 -22 5.5 -67t5.5 -66q25 9 73 27.5t85 32t71 22.5q135 37 225 43q112 7 131 -116q7 -41 7 -106v-524q0 -28 2 -88z" />
    <glyph glyph-name="o" unicode="o" horiz-adv-x="1167" 
d="M580 1023q144 0 262.5 -67.5t185.5 -186t67 -262.5q0 -141 -69 -258.5t-187 -184.5t-258 -67q-215 1 -361.5 149t-147.5 365q0 142 66 259.5t183 185t259 67.5zM711 211q13 374 11 505q0 15 -1.5 30t-4.5 32.5t-5 29t-7.5 32.5t-8 29t-9 32t-8.5 30q-9 32 -35 48.5
t-61 16.5q-71 0 -97 -65q-20 -50 -24 -85q-6 -60 -28 -335q2 0 6.5 -0.5t6.5 -0.5q0 -23 -1 -72t-0.5 -86.5t2.5 -71.5q6 -83 33 -173q24 -80 104 -80q74 0 103 81q23 63 24 103z" />
    <glyph glyph-name="o" unicode="&#xf8;" horiz-adv-x="1167" 
d="M580 1023q144 0 262.5 -67.5t185.5 -186t67 -262.5q0 -141 -69 -258.5t-187 -184.5t-258 -67q-215 1 -361.5 149t-147.5 365q0 142 66 259.5t183 185t259 67.5zM711 211q13 374 11 505q0 15 -1.5 30t-4.5 32.5t-5 29t-7.5 32.5t-8 29t-9 32t-8.5 30q-9 32 -35 48.5
t-61 16.5q-71 0 -97 -65q-20 -50 -24 -85q-6 -60 -28 -335q2 0 6.5 -0.5t6.5 -0.5q0 -23 -1 -72t-0.5 -86.5t2.5 -71.5q6 -83 33 -173q24 -80 104 -80q74 0 103 81q23 63 24 103z" />
    <glyph glyph-name="o" unicode="&#xf6;" horiz-adv-x="1167" 
d="M580 1023q144 0 262.5 -67.5t185.5 -186t67 -262.5q0 -141 -69 -258.5t-187 -184.5t-258 -67q-215 1 -361.5 149t-147.5 365q0 142 66 259.5t183 185t259 67.5zM711 211q13 374 11 505q0 15 -1.5 30t-4.5 32.5t-5 29t-7.5 32.5t-8 29t-9 32t-8.5 30q-9 32 -35 48.5
t-61 16.5q-71 0 -97 -65q-20 -50 -24 -85q-6 -60 -28 -335q2 0 6.5 -0.5t6.5 -0.5q0 -23 -1 -72t-0.5 -86.5t2.5 -71.5q6 -83 33 -173q24 -80 104 -80q74 0 103 81q23 63 24 103z" />
    <glyph glyph-name="o" unicode="&#xf5;" horiz-adv-x="1167" 
d="M580 1023q144 0 262.5 -67.5t185.5 -186t67 -262.5q0 -141 -69 -258.5t-187 -184.5t-258 -67q-215 1 -361.5 149t-147.5 365q0 142 66 259.5t183 185t259 67.5zM711 211q13 374 11 505q0 15 -1.5 30t-4.5 32.5t-5 29t-7.5 32.5t-8 29t-9 32t-8.5 30q-9 32 -35 48.5
t-61 16.5q-71 0 -97 -65q-20 -50 -24 -85q-6 -60 -28 -335q2 0 6.5 -0.5t6.5 -0.5q0 -23 -1 -72t-0.5 -86.5t2.5 -71.5q6 -83 33 -173q24 -80 104 -80q74 0 103 81q23 63 24 103z" />
    <glyph glyph-name="o" unicode="&#xf4;" horiz-adv-x="1167" 
d="M580 1023q144 0 262.5 -67.5t185.5 -186t67 -262.5q0 -141 -69 -258.5t-187 -184.5t-258 -67q-215 1 -361.5 149t-147.5 365q0 142 66 259.5t183 185t259 67.5zM711 211q13 374 11 505q0 15 -1.5 30t-4.5 32.5t-5 29t-7.5 32.5t-8 29t-9 32t-8.5 30q-9 32 -35 48.5
t-61 16.5q-71 0 -97 -65q-20 -50 -24 -85q-6 -60 -28 -335q2 0 6.5 -0.5t6.5 -0.5q0 -23 -1 -72t-0.5 -86.5t2.5 -71.5q6 -83 33 -173q24 -80 104 -80q74 0 103 81q23 63 24 103z" />
    <glyph glyph-name="o" unicode="&#xf3;" horiz-adv-x="1167" 
d="M580 1023q144 0 262.5 -67.5t185.5 -186t67 -262.5q0 -141 -69 -258.5t-187 -184.5t-258 -67q-215 1 -361.5 149t-147.5 365q0 142 66 259.5t183 185t259 67.5zM711 211q13 374 11 505q0 15 -1.5 30t-4.5 32.5t-5 29t-7.5 32.5t-8 29t-9 32t-8.5 30q-9 32 -35 48.5
t-61 16.5q-71 0 -97 -65q-20 -50 -24 -85q-6 -60 -28 -335q2 0 6.5 -0.5t6.5 -0.5q0 -23 -1 -72t-0.5 -86.5t2.5 -71.5q6 -83 33 -173q24 -80 104 -80q74 0 103 81q23 63 24 103z" />
    <glyph glyph-name="o" unicode="&#xf2;" horiz-adv-x="1167" 
d="M580 1023q144 0 262.5 -67.5t185.5 -186t67 -262.5q0 -141 -69 -258.5t-187 -184.5t-258 -67q-215 1 -361.5 149t-147.5 365q0 142 66 259.5t183 185t259 67.5zM711 211q13 374 11 505q0 15 -1.5 30t-4.5 32.5t-5 29t-7.5 32.5t-8 29t-9 32t-8.5 30q-9 32 -35 48.5
t-61 16.5q-71 0 -97 -65q-20 -50 -24 -85q-6 -60 -28 -335q2 0 6.5 -0.5t6.5 -0.5q0 -23 -1 -72t-0.5 -86.5t2.5 -71.5q6 -83 33 -173q24 -80 104 -80q74 0 103 81q23 63 24 103z" />
    <glyph glyph-name="p" unicode="p" horiz-adv-x="1226" 
d="M1085 800q122 -288 1 -577q-43 -101 -126.5 -161.5t-182 -65.5t-202.5 42q-46 24 -78 41q-1 -5 -4.5 -27.5t-3.5 -33.5q-1 -120 0 -240q1 -103 30 -141.5t125 -63.5q-41 -15 -276.5 -18t-334.5 12q29 10 50 24t33.5 33.5t20 35t10.5 42.5t3.5 42t0.5 46q-1 313 -1 940
q0 52 -1 62q-3 29 -7.5 50t-15.5 43t-31.5 37.5t-50.5 24.5q26 3 106.5 10t118.5 12.5t99.5 23.5t110.5 47q3 -17 8.5 -47.5t8.5 -47.5q40 21 78 39q104 47 202.5 42t182 -65t126.5 -161zM760 195q11 314 11 513q0 75 -26 192q-5 20 -19 39.5t-31 27.5q-54 26 -129.5 -24.5
t-76.5 -110.5v-100.5v-118.5v-100q0 -293 -1 -319q-3 -74 62 -105q61 -31 80 -36q83 -25 111 55q18 48 19 87z" />
    <glyph glyph-name="q" unicode="q" horiz-adv-x="1198" 
d="M1079 -279q2 -39 10 -66t32 -50t64 -32q-45 -15 -97 -16t-111.5 3.5t-95.5 2.5q-65 -7 -148.5 -6t-149.5 19q30 8 36 8q92 11 108 102q10 57 11.5 121.5t0 146.5t-0.5 129q-90 -46 -101 -51q-143 -66 -285.5 -14.5t-206.5 195.5q-130 290 -5 586q67 157 217 208.5
t301 -29.5q1 -1 19 -10.5t20 -10.5t18.5 -9t20.5 -9t18.5 -6.5t21 -6t20 -2.5t22.5 -1t21.5 2.5t24.5 4.5q6 2 34.5 9.5t38 10.5t32 11t34.5 15.5t28 20t29 27.5q3 -1 8.5 -4.5t8.5 -5.5v-95v-1109q0 -60 2 -89zM736 187q1 54 1 328q0 213 -1 319q0 39 -36.5 77t-86 55
t-84.5 0q-31 -15 -44 -51q-22 -65 -23 -112q-11 -265 -9 -425q1 -55 24 -246q7 -63 59 -81q54 -19 126.5 30t73.5 106z" />
    <glyph glyph-name="r" unicode="r" horiz-adv-x="917" 
d="M880 921q14 -69 -29.5 -116.5t-112.5 -38.5q-13 2 -28.5 7t-23.5 8.5t-29 13t-25 11.5q-45 22 -69 15.5t-45 -49.5q-24 -50 -26 -110q-2 -72 -1.5 -199.5t-0.5 -199.5q-1 -49 3.5 -82.5t18.5 -69t45.5 -59t81.5 -34.5h-584q62 30 80.5 80t17.5 128q-3 241 -1 542
q0 68 -21.5 112t-81.5 68q25 3 106 10t119 12.5t99.5 24t111.5 48.5v-223q20 5 31.5 17t20 27.5t14.5 21.5q10 11 36.5 41t47 48.5t42.5 31.5q65 36 127.5 8t75.5 -94z" />
    <glyph glyph-name="s" unicode="s" horiz-adv-x="983" 
d="M728 622q184 -95 175 -304q-9 -191 -199 -281q-135 -64 -330 -24l-78 18q-39 8 -54 7.5t-29.5 -9.5t-48.5 -41q-9 43 -86 412q3 1 9.5 4t9.5 4q4 -7 18 -33.5t23 -39.5q12 -17 37.5 -55t40.5 -59.5t38.5 -51.5t44.5 -54q87 -95 234 -87q94 5 125 83q17 39 4.5 81
t-50.5 69q-41 29 -155 85q-24 12 -79 34.5t-83 36.5q-120 61 -163 180q-31 80 -19.5 155t50.5 133.5t109.5 95t157.5 40.5q33 1 68 -1.5t84.5 -9.5t67.5 -9q53 -6 69 -0.5t60 46.5q7 -31 22 -91.5t22 -90.5q25 -110 24 -177q-6 7 -17 21t-17 21q-13 17 -42 57.5t-52 70
t-46 54.5q-78 84 -200 81q-94 -3 -118 -76q-29 -86 39 -135q54 -39 146 -81q27 -13 91 -37.5t97 -41.5z" />
    <glyph glyph-name="t" unicode="t" horiz-adv-x="757" 
d="M657 163q9 11 17 24t18.5 32t17.5 30q2 -79 -45 -144.5t-124 -91.5q-100 -31 -181.5 -12t-134 89t-55.5 172q-3 89 -4 181.5t0 230.5t1 182v113q-46 6 -130 16v13q2 0 22 4t31 5q24 2 71 4q2 25 5.5 72t5.5 66q30 4 92 12q99 12 142.5 51t66.5 136q0 2 2 4t7 6.5t9 9.5
q9 -27 11.5 -56t0.5 -65.5t-1 -52.5q1 -29 1 -188h204q0 -4 0.5 -12t0.5 -12q-35 -2 -102 -4.5t-99 -3.5q-4 -62 -4 -78l-1 -301q0 -301 1 -301q0 -63 14 -105q17 -50 61.5 -58t78.5 32z" />
    <glyph glyph-name="u" unicode="u" horiz-adv-x="1232" 
d="M1088 171q4 -38 11 -63t30 -48.5t62 -31.5q-81 -14 -220.5 -12.5t-218.5 -5.5q-3 20 -8 54t-8 53q-16 -5 -45.5 -14.5t-44.5 -14.5q-200 -65 -262 -82q-41 -12 -96 -7q-100 10 -119 101q-11 53 -11 105v274.5t-1 275.5q0 89 -18 120t-98 81q21 1 77 3.5t80.5 4.5
t72.5 7.5t78 13t69 22t73 34.5q5 -92 5 -93v-701q0 -63 1 -71q12 -91 98 -69q22 5 45 12.5t55.5 19.5t47.5 17v250l-1 182q0 181 1 181q1 69 -20.5 113.5t-83.5 65.5q25 3 106.5 10t119 12.5t99 23.5t111.5 47q7 -82 7 -90v-674q0 -36 6 -106z" />
    <glyph glyph-name="u" unicode="&#xfc;" horiz-adv-x="1232" 
d="M1088 171q4 -38 11 -63t30 -48.5t62 -31.5q-81 -14 -220.5 -12.5t-218.5 -5.5q-3 20 -8 54t-8 53q-16 -5 -45.5 -14.5t-44.5 -14.5q-200 -65 -262 -82q-41 -12 -96 -7q-100 10 -119 101q-11 53 -11 105v274.5t-1 275.5q0 89 -18 120t-98 81q21 1 77 3.5t80.5 4.5
t72.5 7.5t78 13t69 22t73 34.5q5 -92 5 -93v-701q0 -63 1 -71q12 -91 98 -69q22 5 45 12.5t55.5 19.5t47.5 17v250l-1 182q0 181 1 181q1 69 -20.5 113.5t-83.5 65.5q25 3 106.5 10t119 12.5t99 23.5t111.5 47q7 -82 7 -90v-674q0 -36 6 -106z" />
    <glyph glyph-name="u" unicode="&#xfb;" horiz-adv-x="1232" 
d="M1088 171q4 -38 11 -63t30 -48.5t62 -31.5q-81 -14 -220.5 -12.5t-218.5 -5.5q-3 20 -8 54t-8 53q-16 -5 -45.5 -14.5t-44.5 -14.5q-200 -65 -262 -82q-41 -12 -96 -7q-100 10 -119 101q-11 53 -11 105v274.5t-1 275.5q0 89 -18 120t-98 81q21 1 77 3.5t80.5 4.5
t72.5 7.5t78 13t69 22t73 34.5q5 -92 5 -93v-701q0 -63 1 -71q12 -91 98 -69q22 5 45 12.5t55.5 19.5t47.5 17v250l-1 182q0 181 1 181q1 69 -20.5 113.5t-83.5 65.5q25 3 106.5 10t119 12.5t99 23.5t111.5 47q7 -82 7 -90v-674q0 -36 6 -106z" />
    <glyph glyph-name="u" unicode="&#xfa;" horiz-adv-x="1232" 
d="M1088 171q4 -38 11 -63t30 -48.5t62 -31.5q-81 -14 -220.5 -12.5t-218.5 -5.5q-3 20 -8 54t-8 53q-16 -5 -45.5 -14.5t-44.5 -14.5q-200 -65 -262 -82q-41 -12 -96 -7q-100 10 -119 101q-11 53 -11 105v274.5t-1 275.5q0 89 -18 120t-98 81q21 1 77 3.5t80.5 4.5
t72.5 7.5t78 13t69 22t73 34.5q5 -92 5 -93v-701q0 -63 1 -71q12 -91 98 -69q22 5 45 12.5t55.5 19.5t47.5 17v250l-1 182q0 181 1 181q1 69 -20.5 113.5t-83.5 65.5q25 3 106.5 10t119 12.5t99 23.5t111.5 47q7 -82 7 -90v-674q0 -36 6 -106z" />
    <glyph glyph-name="u" unicode="&#xf9;" horiz-adv-x="1232" 
d="M1088 171q4 -38 11 -63t30 -48.5t62 -31.5q-81 -14 -220.5 -12.5t-218.5 -5.5q-3 20 -8 54t-8 53q-16 -5 -45.5 -14.5t-44.5 -14.5q-200 -65 -262 -82q-41 -12 -96 -7q-100 10 -119 101q-11 53 -11 105v274.5t-1 275.5q0 89 -18 120t-98 81q21 1 77 3.5t80.5 4.5
t72.5 7.5t78 13t69 22t73 34.5q5 -92 5 -93v-701q0 -63 1 -71q12 -91 98 -69q22 5 45 12.5t55.5 19.5t47.5 17v250l-1 182q0 181 1 181q1 69 -20.5 113.5t-83.5 65.5q25 3 106.5 10t119 12.5t99 23.5t111.5 47q7 -82 7 -90v-674q0 -36 6 -106z" />
    <glyph glyph-name="v" unicode="v" horiz-adv-x="1124" 
d="M893 1004h64.5h81.5h78q-11 -7 -23.5 -14t-19 -11t-11.5 -8q-11 -9 -40 -30t-47.5 -37.5t-31.5 -34.5q-63 -89 -108 -203q-26 -66 -69.5 -191t-62.5 -176q-22 -59 1 -119q1 -3 54 -164q-126 -2 -171 -2h-174q-3 8 -18 43t-21 54q-54 155 -247 712q-15 43 -25.5 68
t-33 57.5t-51.5 53.5h509q-78 -41 -46 -139q28 -88 173 -531q1 -2 15 -15q2 4 10.5 21.5t12.5 26.5q20 55 59.5 166.5t59.5 167.5q12 34 16 51q24 99 -5 150.5t-134 93.5q34 10 67.5 12.5t77 0t60.5 -2.5z" />
    <glyph glyph-name="w" unicode="w" horiz-adv-x="1689" 
d="M1459 1004q30 1 64 1t81 -0.5t78 -0.5q-11 -7 -23 -14t-18.5 -11.5t-11.5 -8.5q-13 -12 -43 -34.5t-51.5 -41.5t-35.5 -40q-50 -72 -101 -206q-23 -61 -59 -175t-52 -161q-26 -71 0 -138q6 -15 48 -156h-347q-33 106 -93.5 302.5t-84.5 274.5q-2 1 -8 1t-8 1
q-94 -314 -101 -341q-5 -16 12 -68q9 -30 28.5 -88.5l26.5 -79.5h-347q-24 54 -28 66q-45 127 -258 745q-20 58 -44.5 99.5t-66.5 72.5h515q-51 -49 -57.5 -72.5t15.5 -90.5q50 -155 152 -463q9 -29 35 -47q6 21 19 68t24 81.5t25 64.5q18 39 24 80.5t3.5 74t-16 76
t-24.5 69.5t-33 72q-7 14 -18.5 27t-31.5 31t-29 28h533q-32 -16 -49 -35.5t-19 -44.5t1.5 -44t12.5 -50q4 -12 145 -510q23 33 24 36q95 294 122 380q2 7 4 17q23 102 -4.5 151t-133.5 91q33 11 67 13t76 -0.5t61 -1.5z" />
    <glyph glyph-name="x" unicode="x" horiz-adv-x="1116" 
d="M1092 17h-524q5 9 16.5 26t18 29t6.5 24q1 22 -34 80q-17 29 -119 195q-84 -95 -117 -194q-17 -55 -2 -83.5t73 -50.5q4 -1 7.5 -3t8 -5l7.5 -5q-40 -16 -183.5 -17t-216.5 16q131 45 228 153q27 30 55 64.5t63 79.5t50 63q-38 104 -187 330.5t-217 284.5q55 3 262 1
q86 -1 273 -1q-39 -26 -48 -56t-1.5 -48.5t30.5 -54.5q3 -5 4 -7q19 -30 56.5 -91t54.5 -89q13 24 34 59.5t36 62.5t25 52q23 59 7.5 91.5t-76.5 57.5q-2 1 -30 21h429q-43 -22 -67 -32q-101 -46 -177 -125t-148 -193q-6 -10 -3.5 -27t9.5 -29q169 -277 305 -489
q9 -14 22 -27t35 -32t35 -31z" />
    <glyph glyph-name="y" unicode="y" horiz-adv-x="1136" 
d="M723 991q40 14 174.5 17t234.5 -10q-9 -5 -19.5 -11.5t-17 -10t-12.5 -6.5q-113 -52 -180 -200q-19 -42 -37.5 -89t-41 -109.5t-33.5 -90.5q-1 -2 -4 -11t-5 -14q-111 -225 -14 -396q2 -4 3 -9.5t1.5 -15.5t1.5 -18q-25 -2 -73 -4.5t-72 -3.5q-48 -124 -51 -131
q-60 -134 -90 -182q-105 -172 -326 -153q-32 4 -52 11q-43 16 -64 50.5t-11 73.5q10 42 43 64.5t78 15.5q53 -8 113 -45q86 -55 131.5 -44.5t92.5 98.5q14 26 25.5 54t28 70t21.5 56q4 9 16 65h-150q-5 15 -31.5 90t-40.5 114q-175 503 -209 603q-11 32 -20 52.5t-25 46.5
t-39 46.5t-55 37.5h532q-5 -9 -18.5 -27t-21.5 -32.5t-10 -28.5q-1 -11 1 -25.5t5 -24t9.5 -27.5t8.5 -25q75 -233 138 -421q4 -11 9 -23.5t12.5 -32t14.5 -36.5q15 45 53 152t61.5 179t43.5 141q24 83 -5 131.5t-124 88.5z" />
    <glyph glyph-name="y" unicode="&#xff;" horiz-adv-x="1136" 
d="M723 991q40 14 174.5 17t234.5 -10q-9 -5 -19.5 -11.5t-17 -10t-12.5 -6.5q-113 -52 -180 -200q-19 -42 -37.5 -89t-41 -109.5t-33.5 -90.5q-1 -2 -4 -11t-5 -14q-111 -225 -14 -396q2 -4 3 -9.5t1.5 -15.5t1.5 -18q-25 -2 -73 -4.5t-72 -3.5q-48 -124 -51 -131
q-60 -134 -90 -182q-105 -172 -326 -153q-32 4 -52 11q-43 16 -64 50.5t-11 73.5q10 42 43 64.5t78 15.5q53 -8 113 -45q86 -55 131.5 -44.5t92.5 98.5q14 26 25.5 54t28 70t21.5 56q4 9 16 65h-150q-5 15 -31.5 90t-40.5 114q-175 503 -209 603q-11 32 -20 52.5t-25 46.5
t-39 46.5t-55 37.5h532q-5 -9 -18.5 -27t-21.5 -32.5t-10 -28.5q-1 -11 1 -25.5t5 -24t9.5 -27.5t8.5 -25q75 -233 138 -421q4 -11 9 -23.5t12.5 -32t14.5 -36.5q15 45 53 152t61.5 179t43.5 141q24 83 -5 131.5t-124 88.5z" />
    <glyph glyph-name="y" unicode="&#xfd;" horiz-adv-x="1136" 
d="M723 991q40 14 174.5 17t234.5 -10q-9 -5 -19.5 -11.5t-17 -10t-12.5 -6.5q-113 -52 -180 -200q-19 -42 -37.5 -89t-41 -109.5t-33.5 -90.5q-1 -2 -4 -11t-5 -14q-111 -225 -14 -396q2 -4 3 -9.5t1.5 -15.5t1.5 -18q-25 -2 -73 -4.5t-72 -3.5q-48 -124 -51 -131
q-60 -134 -90 -182q-105 -172 -326 -153q-32 4 -52 11q-43 16 -64 50.5t-11 73.5q10 42 43 64.5t78 15.5q53 -8 113 -45q86 -55 131.5 -44.5t92.5 98.5q14 26 25.5 54t28 70t21.5 56q4 9 16 65h-150q-5 15 -31.5 90t-40.5 114q-175 503 -209 603q-11 32 -20 52.5t-25 46.5
t-39 46.5t-55 37.5h532q-5 -9 -18.5 -27t-21.5 -32.5t-10 -28.5q-1 -11 1 -25.5t5 -24t9.5 -27.5t8.5 -25q75 -233 138 -421q4 -11 9 -23.5t12.5 -32t14.5 -36.5q15 45 53 152t61.5 179t43.5 141q24 83 -5 131.5t-124 88.5z" />
    <glyph glyph-name="z" unicode="z" horiz-adv-x="1038" 
d="M905 334q7 10 21 29t18 24q3 -2 8.5 -4.5t8.5 -3.5q-21 -76 -61 -222t-57 -210q-10 20 -24 33.5t-24.5 20t-30.5 9.5t-28 3h-32h-173h-204h-173q-9 0 -105 4q50 89 138 248t129 232q38 68 260 464q-165 64 -266 -54q-25 -29 -50 -61t-59 -79t-47 -64q-7 -9 -19.5 -27.5
t-19.5 -27.5q-3 1 -8.5 3.5t-8.5 3.5q18 66 56 198q53 177 62 207q7 -5 22 -17t25 -18.5t20 -10.5q21 -7 79 -7h515h105q-110 -195 -531 -944q206 -75 325 80q21 27 42 58.5t47 72t40 60.5z" />
    <glyph glyph-name="braceleft" unicode="{" horiz-adv-x="638" 
d="M494 -98q0 -74 25.5 -110.5t94.5 -63.5q52 -20 67 -33q-129 16 -223.5 47t-170.5 100q-66 59 -63 160q2 45 7 133.5t7 132.5q4 103 -2 167q-10 114 -118 136q-5 1 -10.5 3.5t-17 7.5t-22.5 10q49 18 52 18q105 19 114 128q7 83 4 177q-2 51 -7 142.5t-6 122.5
q-3 88 57 154q53 58 185.5 106.5t230.5 44.5q-74 -30 -83 -33q-128 -41 -122 -173q3 -54 7.5 -163t6.5 -164q1 -9 2 -27t2 -27q4 -132 -45 -199t-163 -93q-3 -1 -43 -18q28 -9 68 -21q97 -31 138.5 -85t43.5 -155q1 -43 -4.5 -122.5t-6.5 -98.5q-5 -113 -5 -204z" />
    <glyph glyph-name="verticalbar" unicode="|" horiz-adv-x="299" 
d="M148 1582q16 -55 16 -989t-16 -985q-15 54 -15 989t15 985z" />
    <glyph glyph-name="braceright" unicode="}" horiz-adv-x="634" 
d="M512 611q17 -4 56 -16q-38 -21 -39 -21q-76 -25 -104 -60.5t-28 -111.5q0 -144 16 -354q15 -200 -181 -283q-156 -66 -273 -64q51 23 60 26q132 43 126 180q-2 49 -6.5 147t-6.5 146q-4 94 -3 142q3 90 42 141t126 80q12 4 84 26q-60 20 -85 28q-87 30 -126 81.5
t-40 141.5q0 22 8 275q1 19 3.5 77.5t3.5 90.5q3 126 -119 167q-9 3 -83 33q34 11 36 10q211 -62 262 -83q188 -76 172 -269q-4 -53 -17 -328q-2 -44 5 -79q18 -104 111 -123z" />
    <glyph glyph-name="asciitilde" unicode="~" horiz-adv-x="983" 
d="M925 740q3 -3 9 -9.5t9 -9.5q-78 -125 -211 -124q-63 1 -188 38q-29 9 -81.5 32.5t-74.5 31.5q-190 69 -306 -67q-1 -1 -43 -35q4 12 8 27.5t6.5 22t6.5 11.5q108 128 270 92q24 -5 49.5 -13.5t61.5 -23t48 -18.5q17 -6 58.5 -23t64.5 -25q173 -58 283 65q5 5 30 28z" />
    <glyph glyph-name="nonbreakingspace" unicode="&#xa0;" horiz-adv-x="798" 
 />
    <glyph glyph-name="sterling" unicode="&#xa3;" horiz-adv-x="1312" 
d="M1127 555q128 -229 57 -418q-25 -67 -84 -100t-138 -25q-106 10 -222 84q-20 13 -58 38.5t-56 37.5q-10 -8 -30.5 -25t-31.5 -26q-104 -84 -213 -103q-60 -11 -114 -1q-70 13 -113 58.5t-46 107.5q-3 57 33.5 106t100.5 73q51 19 117.5 20.5t119.5 -5.5q14 -1 44.5 -4.5
t46.5 -5.5q-34 123 -36 127q-7 18 -25.5 52t-25.5 51q-49 121 -171 101q-17 -1 -24 -0.5t-29 4t-37 4.5q26 20 56 24t58.5 4.5t47.5 10.5q-3 7 -15 31.5t-20 37.5q-60 101 -68.5 201t30.5 181t122.5 141.5t199.5 84.5q231 49 439 -66q97 -52 127 -142q19 -56 -1 -104.5
t-68 -65.5q-51 -18 -96 4.5t-67 78.5q-6 15 -20.5 62.5t-26.5 71.5q-42 82 -81 113q-52 42 -106 24t-77 -83q-13 -37 -14 -82t4 -74t16 -80q11 -50 24.5 -103t35.5 -130.5t30 -107.5q47 -1 143 -3.5t145 -4.5q0 -4 0.5 -11t0.5 -10q-17 -10 -38 -12.5t-49 0t-41 1.5
q-22 -1 -145 -1q21 -114 21 -197t-36 -165q201 -56 336 -38q39 5 61 32.5t19 67.5q-1 23 -6 48t-12.5 57.5t-10.5 48.5q3 1 8.5 2t8.5 2zM226 52q104 -32 189 23.5t107 171.5q-64 39 -71 43q-48 24 -73 32q-90 30 -156 7q-52 -18 -81.5 -57t-27.5 -88q2 -46 32.5 -81.5
t80.5 -50.5z" />
    <glyph glyph-name="copyright" unicode="&#xa9;" horiz-adv-x="1605" 
d="M1382 1141q60 -85 92.5 -195t31 -229t-34.5 -232t-110.5 -214t-189.5 -165q-94 -54 -204 -77.5t-220 -16.5t-216 49t-192 112t-148 180.5t-83 247.5q-2 12 -10 115q2 251 128.5 431.5t349.5 250.5q229 71 452.5 -0.5t353.5 -256.5zM1054 89q195 73 304.5 240t110.5 391
q2 347 -249 542q-132 102 -303.5 129t-335.5 -26t-276 -174q-111 -120 -152 -291t-3 -343t147 -295q136 -152 346.5 -200t410.5 27zM956 450q102 8 157 86q7 10 22.5 32.5t22.5 32.5q-16 -138 -121 -229t-239 -86q-190 6 -305 157q-76 101 -83 251t58 262q64 110 178 159
t257 29q9 -1 31.5 -6t35 -6t31.5 0.5t35.5 12t32.5 29.5q7 -34 30.5 -146.5t35.5 -169.5q3 -18 -12 -40q-37 61 -43 69q-11 15 -40.5 58t-52 71.5t-47.5 51.5q-75 67 -153.5 47t-118.5 -114q-46 -107 -19.5 -248.5t108.5 -223.5q86 -87 199 -79z" />
    <glyph glyph-name="softhyphen" unicode="&#xad;" 
 />
    <glyph glyph-name="registered" unicode="&#xae;" horiz-adv-x="1019" 
d="M518 1500q182 -2 300.5 -124.5t117.5 -307.5q-1 -102 -40 -186.5t-101.5 -136t-139.5 -77.5t-155 -20q-59 -3 -119 14t-115 53.5t-97 88.5t-66 125.5t-21 157.5q6 182 127.5 298.5t308.5 114.5zM506 681q170 -1 282.5 108.5t114.5 278.5q2 171 -111.5 285.5t-284.5 113.5
q-169 -1 -279.5 -112t-111.5 -281q-1 -171 109 -281.5t281 -111.5zM552 1033q19 -2 53.5 -6.5t46.5 -6.5q37 -64 109 -190h-169q-74 151 -109 225q-57 -108 10 -228h-219q24 27 35 61t11.5 56t-2.5 65.5t-3 58.5q0 18 3 59t3 65t-12.5 57.5t-39.5 59.5q56 9 61 9
q245 -7 300 -14q54 -7 78.5 -42t19.5 -91q-7 -79 -85 -102q-19 -5 -94 -20q1 -3 2 -8t1 -8zM463 1082q9 0 25.5 -1.5t26.5 -1.5t21.5 2.5t19 10.5t11.5 21q20 76 0 145q-9 29 -41 33t-63 -6v-203z" />
    <glyph glyph-name="trademark" unicode="&#x2122;" horiz-adv-x="1591" 
d="M1467 1272q1 -51 0 -154.5t0 -155.5q0 -52 7 -68.5t47 -60.5h-300q14 10 24 21.5t16 25.5t9.5 24t5 27.5t2 26t0 29t-0.5 27.5q0 154 -11 235q-22 -36 -26 -46q-9 -21 -45 -115q-4 -10 -19.5 -46.5t-20 -53t-9.5 -46.5t2.5 -56t25.5 -54h-192q-56 143 -168 431
q-3 0 -8.5 -1.5t-8.5 -2.5q0 -27 -1.5 -92.5t-0.5 -113.5t5 -92q2 -19 13 -40t29 -46.5t26 -40.5h-183q35 36 47 49t22.5 38.5t11 44.5t0.5 72v239q0 45 -14.5 75.5t-62.5 54.5h265q28 -73 84.5 -218t80.5 -207q36 90 96 241t74 185h253q-35 -16 -52.5 -40.5t-20.5 -44
t-2 -51.5zM107 1437q71 -28 262 -25.5t248 33.5q21 -124 48 -274q-2 -1 -6 -1t-6 -1q-82 119 -153 218q-2 2 -7.5 2t-16.5 -1t-19 -1v-104q0 -213 -1 -319q-2 -87 49 -134h-288q6 9 16.5 24.5t17.5 27t11 23.5q6 20 6 88v388q-53 22 -86 -32q-5 -8 -63 -116q-12 -22 -38 -66
q-3 1 -10 3t-10 3q7 40 22.5 128.5t23.5 135.5z" />
    </font>
</defs>
</svg>
