<?xml version="1.0" standalone="no"?>
<!DOCTYPE svg PUBLIC "-//W3C//DTD SVG 1.1//EN" "http://www.w3.org/Graphics/SVG/1.1/DTD/svg11.dtd" >
<svg xmlns="http://www.w3.org/2000/svg" xmlns:xlink="http://www.w3.org/1999/xlink" version="1.1">
<metadata>
Created by FontForge 20170731 at Wed Oct 21 10:11:11 2020
 By Aleksey,,,
</metadata>
<defs>
<font id="BWIMedium" horiz-adv-x="0" >
  <font-face 
    font-family="BWI Medium"
    font-weight="500"
    font-stretch="normal"
    units-per-em="2048"
    panose-1="0 0 0 0 0 0 0 0 0 0"
    ascent="1638"
    descent="-410"
    x-height="1027"
    cap-height="1419"
    bbox="-227.45 -481.481 2095 1569"
    underline-thickness="102"
    underline-position="-307"
    unicode-range="U+000A-2122"
  />
<missing-glyph horiz-adv-x="1079" 
d="M102 1434h875v-1434h-875v1434zM160 1393l379 -633l381 633h-760zM514 717l-369 614v-1231zM541 674l-379 -631h758zM565 717l371 -621v1239z" />
    <glyph glyph-name=".notdef" horiz-adv-x="1079" 
d="M102 1434h875v-1434h-875v1434zM160 1393l379 -633l381 633h-760zM514 717l-369 614v-1231zM541 674l-379 -631h758zM565 717l371 -621v1239z" />
    <glyph glyph-name=".null" 
 />
    <glyph glyph-name=".null" 
 />
    <glyph glyph-name="nonmarkingreturn" horiz-adv-x="682" 
 />
    <glyph glyph-name="LF" unicode="&#xa;" 
 />
    <glyph glyph-name="controlCR" unicode="&#xd;" 
 />
    <glyph glyph-name="space" unicode=" " horiz-adv-x="729" 
 />
    <glyph glyph-name="exclam" unicode="!" horiz-adv-x="479" 
d="M154 1019q-21 106 -37 253q-4 46 12 95q14 41 48.5 62t76.5 16q43 -5 72 -32.5t33 -70.5q6 -88 -5 -167q-7 -47 -25.5 -136.5t-25.5 -132.5t-49 -359q-1 -8 -3.5 -23.5t-3.5 -22.5h-15q-8 27 -8 29q1 48 -2.5 96t-12.5 105t-15 90.5t-21 104t-19 93.5zM239 267
q56 0 96.5 -39t42.5 -94q1 -58 -40 -98.5t-100 -40.5q-60 1 -101 42t-39 99q1 54 42.5 92.5t98.5 38.5z" />
    <glyph glyph-name="quotedbl" unicode="&#x22;" horiz-adv-x="669" 
d="M596 1379q12 -54 -2 -104q-17 -63 -96 -329q-93 312 -102 347q-10 40 2 87q8 34 35.5 53t63.5 18q37 -1 64.5 -20t34.5 -52zM168 1452q44 2 75.5 -27t36.5 -76q3 -27 -4 -52q-85 -293 -103 -352q-49 165 -89 309q-16 56 -16 86q-1 49 27 79.5t73 32.5z" />
    <glyph glyph-name="quotedbl" unicode="&#x201d;" horiz-adv-x="669" 
d="M596 1379q12 -54 -2 -104q-17 -63 -96 -329q-93 312 -102 347q-10 40 2 87q8 34 35.5 53t63.5 18q37 -1 64.5 -20t34.5 -52zM168 1452q44 2 75.5 -27t36.5 -76q3 -27 -4 -52q-85 -293 -103 -352q-49 165 -89 309q-16 56 -16 86q-1 49 27 79.5t73 32.5z" />
    <glyph glyph-name="quotedbl" unicode="&#x201c;" horiz-adv-x="669" 
d="M596 1379q12 -54 -2 -104q-17 -63 -96 -329q-93 312 -102 347q-10 40 2 87q8 34 35.5 53t63.5 18q37 -1 64.5 -20t34.5 -52zM168 1452q44 2 75.5 -27t36.5 -76q3 -27 -4 -52q-85 -293 -103 -352q-49 165 -89 309q-16 56 -16 86q-1 49 27 79.5t73 32.5z" />
    <glyph glyph-name="numbersign" unicode="#" horiz-adv-x="1181" 
d="M990 954h-140q-22 -75 -68 -231t-71 -241h263q0 -4 0.5 -11.5t0.5 -11.5q-45 -14 -132 -11.5t-141 -7.5q-100 -335 -121 -403q-3 1 -11 3t-11 3q11 71 50.5 203t52.5 195h-309q-80 -270 -121 -406l-24 6q13 72 53 206.5t54 198.5q-91 2 -255 4q0 4 -0.5 11.5t-0.5 11.5
h266q26 89 73.5 251t66.5 225h-259v32h261q24 60 65.5 201t75.5 212q-4 -75 -42.5 -209t-47.5 -195h305q15 49 57.5 192t67.5 228q11 -41 10 -59t-20 -83q-23 -81 -38 -137q-24 -90 -39 -148h259q0 -4 0.5 -12.5t0.5 -12.5q-22 0 -65.5 -2t-65.5 -2zM677 482
q130 447 136 467h-306q-39 -90 -84.5 -254t-44.5 -213h299z" />
    <glyph glyph-name="dollar" unicode="$" horiz-adv-x="1144" 
d="M752 835q320 -111 287 -440q-15 -151 -117.5 -256t-254.5 -126q-10 -1 -31.5 -3.5t-36.5 -4.5q-7 -101 -9 -141q-26 23 -26.5 72.5t-11.5 67.5q-33 6 -61 10q-180 26 -288 104q-101 74 -106 166q-5 85 62 104q81 21 115 -57q9 -20 22 -59t20 -57q36 -88 87 -125t156 -50
v584l-72 27q-7 2 -44 15t-56 21q-262 106 -241 399q8 119 90.5 210t209.5 120q32 7 111 21q4 43 14 131q3 0 8 0.5t8 0.5q2 -22 6 -65t6 -66q16 -4 48 -11t40 -9q136 -30 224 -103q69 -58 84 -131q8 -42 -7.5 -73t-50.5 -42t-65.5 4.5t-47.5 54.5q-10 24 -29.5 77t-31.5 80
q-50 108 -162 112v-510q1 0 23 -9t35 -13q10 -3 29 -9t34.5 -11t29.5 -10zM558 898v497q-125 13 -217 -67q-68 -59 -76 -153t50 -157q44 -48 101.5 -73.5t141.5 -46.5zM898 296q18 255 -299 314v-569q133 4 212 71.5t87 183.5z" />
    <glyph glyph-name="percent" unicode="%" horiz-adv-x="1419" 
d="M1130 1434q-21 -59 -49.5 -116.5t-76 -139t-62.5 -108.5q-14 -27 -204 -364q-195 -345 -200 -355q-23 -39 -63 -112t-74 -132t-67 -110q-4 2 -11 6.5t-11 6.5l732 1305q-2 2 -5.5 8t-4.5 8q-201 -119 -379 -54q1 -10 2 -23t2 -22.5t3 -17.5q36 -157 -10 -289
q-64 -185 -237 -196q-195 -13 -283 147q-114 208 -2 417q42 78 117 118t160.5 33t157.5 -60q136 -101 249.5 -99t246.5 107q39 31 69 42zM594 877q31 43 41.5 99t13.5 148q-3 9 -12 41.5t-19 65.5t-22 62q-29 72 -114 106q-79 33 -133.5 4.5t-69.5 -112.5q-36 -202 -1 -406
q15 -88 71.5 -117.5t136.5 10.5q59 31 108 99zM1304 523q9 -25 15 -53t12 -65t10 -55q-3 -17 -9.5 -55.5t-13 -66t-15.5 -52.5q-32 -87 -96.5 -134t-134.5 -49t-137 23.5t-109 73.5q-86 99 -87 258.5t84 260.5q34 40 84.5 66.5t108 32.5t112.5 -8t102.5 -59.5t73.5 -117.5z
M1252 140q110 212 -2 425q-40 77 -126 105q-73 24 -121.5 -2.5t-63.5 -101.5q-6 -31 -10 -65.5t-7 -73.5t-5 -55q7 -120 11 -168q4 -47 12 -78q16 -60 52.5 -83.5t99.5 -15.5q108 15 160 113z" />
    <glyph glyph-name="ampersand" unicode="&#x26;" horiz-adv-x="1619" 
d="M1503 185q1 2 35 52q-16 -95 -75 -157.5t-148 -79.5q-129 -26 -217.5 26.5t-184.5 211.5q-11 -14 -30.5 -39t-28.5 -37q-199 -249 -508 -141q-81 29 -141.5 86t-89.5 129.5t-33 151t27 156t93 137.5q16 16 39 32.5t40 27t47 27.5t43 25q9 6 21 10.5t32.5 11.5t33.5 12
q-10 8 -28 22t-29 23.5t-20 18.5q-75 79 -91 176.5t28.5 185.5t139.5 142q113 65 266.5 54.5t253.5 -93.5q50 -41 78 -114q13 -33 -1 -61t-45 -41q-29 -13 -59.5 -3t-48.5 39q-4 6 -43 96q-44 103 -132.5 136t-189.5 -14q-92 -43 -111 -131t51 -161q43 -44 145 -100
q32 -18 97.5 -46.5t72.5 -31.5q212 -97 268 -300q1 -4 11 -24q1 -1 14 -12q7 11 23 37.5t27.5 44t24.5 32.5q85 99 140 146q57 50 151 38q40 -5 62 -27.5t21 -57.5q-1 -34 -21 -55.5t-57 -24.5q-49 -4 -114 10q-70 17 -101.5 5.5t-68.5 -71.5q-15 -25 -33.5 -55t-25.5 -38
t-14.5 -28t-8 -23t1 -24t5 -30t12.5 -43t16 -61q22 -88 68 -173q34 -63 92 -90t119.5 -6t98.5 91zM847 208q73 89 35 178q-10 24 -23 72t-18 64q-45 137 -173 203q-12 6 -52 24.5t-60 30.5q-74 43 -126 -23q-62 -79 -80 -135q-9 -30 -15.5 -62.5t-12.5 -75t-8 -53.5
q17 -180 18 -185q5 -39 24 -85q63 -164 237 -133q77 14 135 59t119 121z" />
    <glyph glyph-name="quotesingle" unicode="'" horiz-adv-x="348" 
d="M277 1359q6 -30 -2 -60q-19 -67 -54 -187.5t-49 -168.5q-69 240 -88 308q-16 55 -16 95q1 46 27.5 74.5t69.5 30.5t73.5 -22.5t38.5 -69.5z" />
    <glyph glyph-name="quotesingle" unicode="&#x2019;" horiz-adv-x="348" 
d="M277 1359q6 -30 -2 -60q-19 -67 -54 -187.5t-49 -168.5q-69 240 -88 308q-16 55 -16 95q1 46 27.5 74.5t69.5 30.5t73.5 -22.5t38.5 -69.5z" />
    <glyph glyph-name="quotesingle" unicode="&#x2018;" horiz-adv-x="348" 
d="M277 1359q6 -30 -2 -60q-19 -67 -54 -187.5t-49 -168.5q-69 240 -88 308q-16 55 -16 95q1 46 27.5 74.5t69.5 30.5t73.5 -22.5t38.5 -69.5z" />
    <glyph glyph-name="parenleft" unicode="(" horiz-adv-x="591" 
d="M364 105q63 -279 249 -426q1 -1 7 -15q-3 -2 -8 -5.5t-8 -5.5q-493 318 -499 917q-6 633 518 943q-1 -1 -8.5 -12.5t-12.5 -15.5q-175 -143 -234 -397q-115 -486 -4 -983z" />
    <glyph glyph-name="parenright" unicode=")" horiz-adv-x="591" 
d="M485 636q14 -644 -497 -982q-3 3 -9.5 8t-9.5 7q9 9 28 26t28 26q142 135 194 352q123 514 0 1026q-61 251 -234 388q-2 1 -15 20q-1 1 2 7q95 -35 188 -124.5t163 -208t114.5 -263t47.5 -282.5z" />
    <glyph glyph-name="asterisk" unicode="*" horiz-adv-x="770" 
d="M649 1114q31 -14 40.5 -45.5t-7.5 -59.5q-17 -29 -46 -35t-61 15q-10 7 -21 16.5t-18.5 17t-19.5 20t-18 18.5q-11 11 -33.5 35t-34.5 36q-2 2 -6 3.5t-12.5 4t-16.5 5.5q35 -111 38 -124q21 -79 23 -112q1 -31 -20 -52t-52 -22q-30 -1 -51 19.5t-21 53.5t16 95
q2 6 42 133q-3 2 -9.5 5.5t-9.5 4.5q-13 -13 -39.5 -40t-39.5 -41q-8 -8 -21.5 -22.5t-25 -26t-22.5 -20.5q-52 -44 -89 -14q-31 25 -37 73q-5 49 58 69q21 6 61.5 15t50.5 11q15 4 45.5 11.5t45.5 10.5q0 3 0.5 9.5t0.5 9.5q-7 2 -53.5 12.5t-70.5 17.5q-6 2 -28.5 7
t-37 9.5t-27.5 10.5q-35 17 -45 49.5t9 61.5q18 28 47.5 34t60.5 -14q14 -10 27.5 -23t30 -31t24.5 -26q26 -27 76 -81q3 2 8 6t8 5q-26 82 -37 124q-19 72 -19 103q-1 34 19 52t54 18q33 0 52.5 -19t18.5 -53q-1 -28 -24 -111q-3 -11 -33 -115q3 -1 8.5 -4t8.5 -5
q41 45 82 88q6 6 17.5 19t19 20.5t18.5 17t21 16.5q30 20 61 13t47 -35q16 -27 7 -59t-39 -48q-19 -10 -92 -29q-24 -6 -68 -14.5t-59 -11.5q0 -4 -1 -11t-1 -11q15 -4 46 -12.5t47 -12.5q11 -3 40 -9.5t49 -12t38 -13.5z" />
    <glyph glyph-name="plus" unicode="+" horiz-adv-x="983" 
d="M504 706q77 -9 219 -7t213 -5v-21h-419q-11 -36 -13.5 -74t-0.5 -83.5t1 -68.5q-1 -21 0 -106t-6 -106h-24v433h-433q17 21 36.5 27.5t52.5 5t40 -1.5h151h155v434h18q9 -31 10.5 -66t-0.5 -78.5t-1 -66.5t1 -216z" />
    <glyph glyph-name="comma" unicode="," horiz-adv-x="399" 
d="M337 151q9 -39 8.5 -84.5t-20 -94t-47 -89t-71.5 -68.5t-94 -32q84 45 133 104.5t60 152.5q-61 -30 -65 -31q-49 -19 -94 -7t-71 51q-25 37 -22.5 84t31.5 81q30 35 78.5 44t91.5 -12q60 -30 82 -99z" />
    <glyph glyph-name="hyphen" unicode="-" horiz-adv-x="1136" 
d="M133 -154q94 13 458 10.5t411 -15.5q-36 -15 -377 -22.5t-452 5.5q-4 0 -8.5 2.5t-8.5 5t-10.5 7t-12.5 7.5z" />
    <glyph glyph-name="period" unicode="." horiz-adv-x="382" 
d="M199 267q56 -3 94 -44t36 -97q-1 -58 -43.5 -95.5t-103.5 -34.5q-57 3 -93.5 42t-35.5 97q2 59 44 97.5t102 34.5z" />
    <glyph glyph-name="slash" unicode="/" horiz-adv-x="614" 
d="M567 1528q11 -17 13.5 -33.5t1 -24t-8.5 -24.5t-8 -19q-78 -234 -356 -1058q-35 -105 -105.5 -315t-105.5 -315q-5 -15 -16.5 -42t-14.5 -36q-4 2 -12 5.5t-12 5.5q101 301 309 918.5t315 937.5z" />
    <glyph glyph-name="zero" unicode="0" horiz-adv-x="1302" 
d="M1189 889q4 -23 6 -49.5t3.5 -54t2.5 -37.5q-6 -246 -78 -407q-57 -129 -152 -216q-136 -124 -314.5 -125t-316.5 120q-121 106 -176 263q-124 350 1 703q52 146 165 249q141 129 327 127.5t324 -133.5q166 -158 208 -440zM908 273q16 144 47 457q-3 0 -7 0.5t-7 0.5
l1 106q2 106 -1 106q-6 88 -9.5 129t-19.5 110.5t-43 122.5q-69 133 -224 130q-151 -3 -211 -136q-32 -74 -43 -134q-50 -275 -21 -697q11 -143 54 -276q27 -83 83 -121t144 -40q164 -3 232 158q22 54 25 84z" />
    <glyph glyph-name="one" unicode="1" horiz-adv-x="673" 
d="M87 1155q-1 0 -17 12q8 4 42 24t43.5 25.5t40.5 24t43.5 26.5t40 25.5t42 28.5t38 28.5t40 32t36 32.5t36.5 36q2 -60 2 -91v-1090v-71q-3 -67 20.5 -106.5t93.5 -49.5q-44 -16 -229 -20t-271 10q36 15 39 16q75 13 96.5 36t22.5 94q4 538 1 922q-1 67 -23.5 81
t-87.5 -11q-7 -3 -49 -15z" />
    <glyph glyph-name="two" unicode="2" horiz-adv-x="1107" 
d="M943 -105q-4 -1 -11.5 -1t-10.5 -1q-1 6 -3.5 20t-4.5 21q-12 45 -31 62t-66 22q-29 3 -89 3h-586q-13 0 -41 2t-43 3q10 12 23.5 28.5t22.5 28t17 20.5q44 51 122 138.5t143 161.5t120 141q105 128 167.5 255t72.5 269q7 91 -13 229q-17 107 -116 132q-118 29 -185 -57
q-13 -16 -25.5 -37.5t-19 -34t-21 -44.5t-17.5 -38q-7 -15 -18 -49.5t-19 -50.5q-37 -70 -112 -47q-34 11 -52.5 40t-9.5 64q19 75 62 124q76 88 196 130.5t247.5 30.5t223.5 -77q93 -62 127 -166.5t-5 -217.5q-44 -118 -123 -213q-20 -24 -42 -47.5t-49 -49.5t-44.5 -42.5
t-51.5 -47.5t-47 -43q-51 -47 -147.5 -132t-130.5 -116q-8 -8 -74 -79q129 -3 364 -2.5t359 -1.5q-5 -67 -29.5 -180.5t-29.5 -149.5z" />
    <glyph glyph-name="three" unicode="3" horiz-adv-x="1183" 
d="M429 700l-9 18q54 30 81 44q62 34 94 50q129 64 139 192q11 140 0 282q-4 56 -35 94t-88 50q-122 25 -189 -69q-16 -22 -29 -48t-30 -65.5t-23 -52.5q-5 -11 -14 -39.5t-17 -42.5q-16 -29 -45.5 -41t-60.5 -2q-61 19 -64 86q-4 72 55 136q159 173 394 170q146 -2 255 -65
q130 -77 147 -201.5t-89 -229.5q-22 -21 -49 -42.5t-64.5 -49t-57.5 -42.5q8 -2 26.5 -7.5t27.5 -7.5q101 -24 174 -87t105.5 -144t21.5 -176.5t-70 -181.5q-184 -269 -544 -219q-181 25 -297 146q-81 85 -88 179q-3 41 16 71.5t53 39.5q38 11 69 -7.5t47 -61.5
q5 -13 16 -55.5t21 -62.5q2 -4 14 -27.5t16 -31t14.5 -27t17.5 -29.5t17.5 -23.5t21.5 -24.5q56 -56 131 -65.5t141 28t96 110.5q45 107 48 223q5 156 -26 298q-16 75 -66.5 98t-122.5 -8q-26 -10 -71 -33t-57 -28q-2 -1 -53 -18z" />
    <glyph glyph-name="four" unicode="4" horiz-adv-x="1222" 
d="M619 158q1 21 1 270h-571q4 9 15 35t17 37q67 112 247.5 415t278.5 469q19 32 41 46t57 10q11 -1 145 -1q2 -220 2 -320q0 -55 0.5 -164t0.5 -164v-322q61 -20 111 40q41 49 125 171q10 14 26 41t23 38l9 -3t9 -4q-23 -111 -67 -324h-233q0 -29 -1 -97.5t-0.5 -116
t3.5 -92.5q0 -7 3 -13.5t10 -14t11.5 -12.5t14 -13.5t12.5 -11.5t18 -11.5t22 -18.5h-482q-1 2 -2 5.5t-1 5.5q28 7 58 13q51 11 73 34t24 73zM616 465v850q-80 -104 -285.5 -455t-213.5 -395h499z" />
    <glyph glyph-name="five" unicode="5" horiz-adv-x="1136" 
d="M187 708l-21 9q51 353 103 724h92q284 0 426 -1q67 0 116 16t86 62q-1 -33 -6.5 -72t-11 -63.5t-17.5 -73.5t-16 -68h-665q-35 -239 -63 -439q63 42 66 45q192 146 438 86q167 -40 249.5 -161t73.5 -303q-8 -155 -84.5 -264.5t-219.5 -165.5q-300 -118 -547 94
q-50 44 -87 130q-16 42 -1 77t50 49q39 15 75 -1t55 -59q6 -12 13 -37.5t13 -37.5q4 -9 14 -33.5t16 -37.5t16 -31.5t20 -32.5q70 -97 181.5 -89.5t170.5 112.5q29 53 39 107q49 246 3 485q-22 113 -88.5 156.5t-181.5 20.5q-172 -34 -274 -166q-5 -6 -33 -37z" />
    <glyph glyph-name="six" unicode="6" horiz-adv-x="1183" 
d="M598 1367q178 90 339 82q-242 -53 -382 -201.5t-185 -401.5q36 20 78 44q230 125 456 -8q64 -38 120 -115q42 -58 60.5 -145t10 -180.5t-58 -187t-134.5 -155.5q-105 -76 -230.5 -93t-242 28t-196.5 143q-128 159 -136 405q-19 523 501 785zM356 702q3 0 2 -70l-2 -71h-2
q1 -18 1.5 -50.5t2 -59t5.5 -49.5q34 -176 66 -265q38 -104 169 -106q121 -2 176 99q33 61 43 106q56 251 6 483q-30 138 -121 179t-218 -25q-16 -8 -53 -32q-83 -52 -75 -139z" />
    <glyph glyph-name="seven" unicode="7" horiz-adv-x="1005" 
d="M148 1516q3 0 8.5 1t8.5 2q11 -34 35.5 -52.5t47.5 -22t61 -3.5h585h98q-7 -12 -20 -35.5t-20 -34.5q-92 -138 -139 -206q-271 -390 -274 -901q0 -101 -6 -151q-15 -119 -130 -114q-55 2 -86 34.5t-32 92.5q-4 139 55 304q73 204 233 447q28 42 60 88t71.5 101.5
t60.5 86.5q8 12 25.5 38.5t28.5 43.5q-12 1 -39 3t-40 2h-355h-64t-49 -3t-39.5 -4.5t-32.5 -12t-30.5 -17t-30.5 -27.5t-36 -36.5t-44 -50.5q17 83 46.5 224t42.5 203z" />
    <glyph glyph-name="eight" unicode="8" horiz-adv-x="1183" 
d="M246 660q18 14 129 83q-15 12 -39 30t-35 26q-91 74 -123.5 179.5t1 211t125.5 178.5q116 92 285.5 95t288.5 -85q77 -56 106.5 -140.5t5 -171t-97.5 -148.5q-13 -11 -28.5 -22t-37 -25.5t-35.5 -24.5q16 -10 43.5 -26t40.5 -24q234 -138 207 -401q-27 -264 -278 -357
q-245 -92 -492 21q-93 43 -148 119.5t-64 161t28 171.5t118 149zM374 676q-81 -106 -86 -271q5 -160 63 -248q52 -79 138 -110t189 -8q90 20 145.5 83.5t67.5 158.5q28 218 -160 316q-46 24 -134 60t-117 49q-36 14 -59.5 6.5t-46.5 -36.5zM775 905q64 106 61 237
q-2 68 -5 88q-15 103 -91 159.5t-183 44.5q-111 -12 -172.5 -86t-50.5 -181q13 -123 125 -183q35 -19 75 -37t91.5 -39.5t76.5 -32.5q43 -20 73 30z" />
    <glyph glyph-name="nine" unicode="9" horiz-adv-x="1185" 
d="M306 7q-6 -1 -76 -1q33 13 95 37t105 42.5t81 37.5q120 60 209 211q67 114 97 285q-9 -5 -29.5 -16t-29.5 -17q-57 -40 -128.5 -58t-144 -13.5t-142.5 34t-124.5 79.5t-90 128.5t-39.5 174.5q-4 93 22 179t73.5 151.5t115.5 113.5t144.5 70.5t163.5 17t171 -43.5
q199 -90 271 -322q85 -270 -5.5 -520.5t-329.5 -408.5q-179 -119 -409 -161zM834 802v62h6t6 1q-6 39 -16 120.5t-20 144.5t-23 119q-43 186 -204 186q-154 0 -208 -186q-56 -193 -23 -439q10 -72 41 -153q31 -82 117 -100q67 -14 126.5 6t129.5 67q43 28 56 69.5t12 102.5z
" />
    <glyph glyph-name="colon" unicode=":" horiz-adv-x="428" 
d="M212 709q-59 1 -98 42.5t-38 100.5q1 55 41.5 93.5t96.5 38.5t96 -39.5t41 -94.5q1 -59 -40 -100.5t-99 -40.5zM216 267q59 -1 98.5 -42.5t36.5 -100.5q-3 -56 -42.5 -93t-97.5 -36q-60 1 -98.5 42t-36.5 101q2 55 42.5 92.5t97.5 36.5z" />
    <glyph glyph-name="semicolon" unicode=";" horiz-adv-x="444" 
d="M363 130q20 -104 -35 -206t-152 -142q-7 -3 -21 -5t-17 -3q86 56 133.5 116.5t55.5 152.5q-64 -33 -66 -34q-49 -19 -94.5 -6.5t-70.5 52.5q-24 37 -20 85t33 80q31 35 79.5 43t91.5 -14q67 -35 83 -119zM218 709q-56 -2 -97 36.5t-44 93.5q-3 59 36 101.5t98 43.5
q55 1 97 -37t45 -93q3 -57 -37 -100.5t-98 -44.5z" />
    <glyph glyph-name="less" unicode="&#x3c;" horiz-adv-x="886" 
d="M99 684q118 -55 368 -171.5t379 -176.5q-45 -6 -385.5 146t-409.5 205q58 35 123 67t150 69.5t124 55.5q13 6 91 43t108 50t88 36t107 37q-32 -26 -67.5 -46t-95 -46.5t-73.5 -33.5q-6 -3 -242 -112q-235 -109 -265 -123z" />
    <glyph glyph-name="equal" unicode="=" horiz-adv-x="884" 
d="M801 854q-191 -10 -460 -4.5t-313 20.5q48 16 402.5 16.5t430.5 -17.5q-13 -3 -32.5 -8.5t-27.5 -6.5zM27 506h835q-9 -5 -20 -12t-16.5 -9.5t-10.5 -2.5q-503 -2 -754 -1q-3 0 -36 11q1 2 1 6.5t1 7.5z" />
    <glyph glyph-name="greater" unicode="&#x3e;" horiz-adv-x="909" 
d="M306 947q35 -16 554 -257q-41 -30 -87 -54t-101.5 -47.5t-81.5 -36.5q-61 -31 -266 -123q-22 -10 -64 -30t-68 -32t-63.5 -25t-71.5 -20q138 79 418.5 210.5t322.5 152.5q-259 120 -747 346q5 17 6 17q6 6 7 5q195 -84 242 -106z" />
    <glyph glyph-name="question" unicode="?" horiz-adv-x="745" 
d="M626 1230q55 -109 34 -223t-112 -197q-40 -38 -108 -77q-16 -9 -34.5 -18t-47.5 -21t-46 -20v-172q-3 0 -9 0.5t-9 0.5v407q77 30 80 31q152 67 195 205q28 91 -24 146.5t-144 33.5q-14 -3 -29.5 -9t-26.5 -11.5t-29 -15t-27 -13.5q-4 -2 -36.5 -19.5t-50.5 -23.5
q-42 -14 -75.5 0t-49.5 51t-4.5 73t46.5 58q24 14 48 20q127 34 263.5 -27.5t195.5 -178.5zM302 267q57 0 95.5 -38.5t40.5 -94.5q2 -61 -37 -100.5t-100 -38.5t-99 40t-37 100q2 56 41 94t96 38z" />
    <glyph glyph-name="at" unicode="@" horiz-adv-x="1726" 
d="M1563 133q8 17 34 23q-1 -3 -6.5 -24.5t-10.5 -31.5q-149 -285 -487 -367q-112 -25 -218.5 -24.5t-205 31t-184.5 80.5t-157 124t-122 161t-80 192.5t-30 217.5q-2 129 40 258t119.5 238t196 191t259.5 115q296 70 559 -71q119 -64 202.5 -163.5t119.5 -216t33 -238
t-56.5 -239.5t-150.5 -211q-126 -120 -266 -129q-63 -5 -122 12q-55 16 -85 57t-26 96q7 89 45 214q9 31 22 63.5t33 77.5t27 62q-3 1 -8.5 3.5t-8.5 3.5q-174 -260 -233 -345q-58 -84 -128 -158q-48 -49 -100 -72q-81 -36 -140 4.5t-55 129.5q1 45 19 105q95 317 288 544
q47 55 112 100q171 117 319 -34q28 -30 43 -46q145 26 228 122q-10 -47 -13 -53q-23 -58 -102.5 -254.5t-122.5 -304.5q-35 -87 -52 -169q-15 -70 18 -101t101 -9q110 37 175 99q122 117 173 262t32 280t-96 256t-200 199t-262.5 104.5t-271.5 0t-249.5 -94t-208.5 -180.5
t-137 -255q-35 -106 -39 -216.5t19.5 -213t74.5 -197.5t123.5 -171t171 -132t212.5 -81q171 -35 328 -3t290.5 131t216.5 248zM717 237q141 204 413 604q-54 68 -56 70q-83 83 -171 4q-25 -23 -41 -46q-190 -269 -264 -621q-2 -20 -1.5 -29.5t3 -30.5t3.5 -31q30 3 53.5 17
t33.5 26.5t27 36.5z" />
    <glyph glyph-name="A" unicode="A" horiz-adv-x="1435" 
d="M1435 29l-6 -18h-469q32 21 47 31t29 25.5t16.5 24t0.5 29t-8.5 38t-20.5 53.5q-13 32 -37.5 92t-34.5 85h-635q-3 -11 -17 -52.5t-22 -68.5t-13 -54q-14 -74 10.5 -113.5t99.5 -64.5q2 -1 25 -11q-33 -17 -170.5 -21t-231.5 9q0 2 0.5 5.5t0.5 6.5t1 3q86 23 139 83.5
t93 154.5q41 94 173 426q176 445 183 461q31 76 -2 144q-8 16 -15.5 35t-17 45t-15.5 42h251q59 -143 99 -242q67 -164 199.5 -492.5t198.5 -492.5q13 -31 18.5 -43.5t19.5 -38t27.5 -38t35 -25.5t48.5 -18zM623 1162q-10 -27 -119 -304.5t-167 -425.5h597
q-100 250 -294 732q-3 0 -8.5 -1t-8.5 -1z" />
    <glyph glyph-name="A" unicode="&#xc5;" horiz-adv-x="1435" 
d="M1435 29l-6 -18h-469q32 21 47 31t29 25.5t16.5 24t0.5 29t-8.5 38t-20.5 53.5q-13 32 -37.5 92t-34.5 85h-635q-3 -11 -17 -52.5t-22 -68.5t-13 -54q-14 -74 10.5 -113.5t99.5 -64.5q2 -1 25 -11q-33 -17 -170.5 -21t-231.5 9q0 2 0.5 5.5t0.5 6.5t1 3q86 23 139 83.5
t93 154.5q41 94 173 426q176 445 183 461q31 76 -2 144q-8 16 -15.5 35t-17 45t-15.5 42h251q59 -143 99 -242q67 -164 199.5 -492.5t198.5 -492.5q13 -31 18.5 -43.5t19.5 -38t27.5 -38t35 -25.5t48.5 -18zM623 1162q-10 -27 -119 -304.5t-167 -425.5h597
q-100 250 -294 732q-3 0 -8.5 -1t-8.5 -1z" />
    <glyph glyph-name="A" unicode="&#xc4;" horiz-adv-x="1435" 
d="M1435 29l-6 -18h-469q32 21 47 31t29 25.5t16.5 24t0.5 29t-8.5 38t-20.5 53.5q-13 32 -37.5 92t-34.5 85h-635q-3 -11 -17 -52.5t-22 -68.5t-13 -54q-14 -74 10.5 -113.5t99.5 -64.5q2 -1 25 -11q-33 -17 -170.5 -21t-231.5 9q0 2 0.5 5.5t0.5 6.5t1 3q86 23 139 83.5
t93 154.5q41 94 173 426q176 445 183 461q31 76 -2 144q-8 16 -15.5 35t-17 45t-15.5 42h251q59 -143 99 -242q67 -164 199.5 -492.5t198.5 -492.5q13 -31 18.5 -43.5t19.5 -38t27.5 -38t35 -25.5t48.5 -18zM623 1162q-10 -27 -119 -304.5t-167 -425.5h597
q-100 250 -294 732q-3 0 -8.5 -1t-8.5 -1z" />
    <glyph glyph-name="A" unicode="&#xc3;" horiz-adv-x="1435" 
d="M1435 29l-6 -18h-469q32 21 47 31t29 25.5t16.5 24t0.5 29t-8.5 38t-20.5 53.5q-13 32 -37.5 92t-34.5 85h-635q-3 -11 -17 -52.5t-22 -68.5t-13 -54q-14 -74 10.5 -113.5t99.5 -64.5q2 -1 25 -11q-33 -17 -170.5 -21t-231.5 9q0 2 0.5 5.5t0.5 6.5t1 3q86 23 139 83.5
t93 154.5q41 94 173 426q176 445 183 461q31 76 -2 144q-8 16 -15.5 35t-17 45t-15.5 42h251q59 -143 99 -242q67 -164 199.5 -492.5t198.5 -492.5q13 -31 18.5 -43.5t19.5 -38t27.5 -38t35 -25.5t48.5 -18zM623 1162q-10 -27 -119 -304.5t-167 -425.5h597
q-100 250 -294 732q-3 0 -8.5 -1t-8.5 -1z" />
    <glyph glyph-name="A" unicode="&#xc2;" horiz-adv-x="1435" 
d="M1435 29l-6 -18h-469q32 21 47 31t29 25.5t16.5 24t0.5 29t-8.5 38t-20.5 53.5q-13 32 -37.5 92t-34.5 85h-635q-3 -11 -17 -52.5t-22 -68.5t-13 -54q-14 -74 10.5 -113.5t99.5 -64.5q2 -1 25 -11q-33 -17 -170.5 -21t-231.5 9q0 2 0.5 5.5t0.5 6.5t1 3q86 23 139 83.5
t93 154.5q41 94 173 426q176 445 183 461q31 76 -2 144q-8 16 -15.5 35t-17 45t-15.5 42h251q59 -143 99 -242q67 -164 199.5 -492.5t198.5 -492.5q13 -31 18.5 -43.5t19.5 -38t27.5 -38t35 -25.5t48.5 -18zM623 1162q-10 -27 -119 -304.5t-167 -425.5h597
q-100 250 -294 732q-3 0 -8.5 -1t-8.5 -1z" />
    <glyph glyph-name="A" unicode="&#xc1;" horiz-adv-x="1435" 
d="M1435 29l-6 -18h-469q32 21 47 31t29 25.5t16.5 24t0.5 29t-8.5 38t-20.5 53.5q-13 32 -37.5 92t-34.5 85h-635q-3 -11 -17 -52.5t-22 -68.5t-13 -54q-14 -74 10.5 -113.5t99.5 -64.5q2 -1 25 -11q-33 -17 -170.5 -21t-231.5 9q0 2 0.5 5.5t0.5 6.5t1 3q86 23 139 83.5
t93 154.5q41 94 173 426q176 445 183 461q31 76 -2 144q-8 16 -15.5 35t-17 45t-15.5 42h251q59 -143 99 -242q67 -164 199.5 -492.5t198.5 -492.5q13 -31 18.5 -43.5t19.5 -38t27.5 -38t35 -25.5t48.5 -18zM623 1162q-10 -27 -119 -304.5t-167 -425.5h597
q-100 250 -294 732q-3 0 -8.5 -1t-8.5 -1z" />
    <glyph glyph-name="A" unicode="&#xc0;" horiz-adv-x="1435" 
d="M1435 29l-6 -18h-469q32 21 47 31t29 25.5t16.5 24t0.5 29t-8.5 38t-20.5 53.5q-13 32 -37.5 92t-34.5 85h-635q-3 -11 -17 -52.5t-22 -68.5t-13 -54q-14 -74 10.5 -113.5t99.5 -64.5q2 -1 25 -11q-33 -17 -170.5 -21t-231.5 9q0 2 0.5 5.5t0.5 6.5t1 3q86 23 139 83.5
t93 154.5q41 94 173 426q176 445 183 461q31 76 -2 144q-8 16 -15.5 35t-17 45t-15.5 42h251q59 -143 99 -242q67 -164 199.5 -492.5t198.5 -492.5q13 -31 18.5 -43.5t19.5 -38t27.5 -38t35 -25.5t48.5 -18zM623 1162q-10 -27 -119 -304.5t-167 -425.5h597
q-100 250 -294 732q-3 0 -8.5 -1t-8.5 -1z" />
    <glyph glyph-name="B" unicode="B" horiz-adv-x="1306" 
d="M94 6q-2 0 -5 1.5t-12.5 6.5t-21.5 11q74 10 97 46t23 103q-2 361 0 1082q0 32 -3 53.5t-12 45t-29.5 39t-52.5 25.5q45 5 55 5h558q156 0 283 -63q184 -93 185 -280q2 -194 -171 -290q-16 -9 -35 -18t-43.5 -20t-41.5 -19q24 -8 58 -20q13 -4 37.5 -11t44 -13.5
t35.5 -14.5q181 -81 193 -275q12 -207 -163 -312q-131 -78 -296 -81q-102 -2 -213.5 -2.5t-256 0.5t-213.5 1zM803 696q-57 12 -119 15t-146.5 0.5t-118.5 -1.5q-14 -79 -12.5 -350t16.5 -321q33 0 101.5 -1t122 -0.5t102.5 2.5q161 7 203 144q58 184 1 375
q-34 113 -150 137zM750 1382q-50 11 -101 13.5t-131.5 0t-104.5 -2.5v-648q35 0 96 -1t109.5 -1t91.5 2q139 6 181 145q51 170 3 350q-15 56 -51.5 93t-92.5 49z" />
    <glyph glyph-name="C" unicode="C" horiz-adv-x="1314" 
d="M1238 422q3 -2 8.5 -6.5t7.5 -7.5q-163 -374 -504 -414q-181 -22 -322.5 53t-234.5 234q-223 383 -39 791q96 211 287 307t421 51q10 -2 40 -7.5t47 -9.5q46 -11 77.5 4.5t53.5 72.5q61 -186 169 -518q-3 -1 -8.5 -3.5t-7.5 -4.5q-26 34 -32 42q-137 198 -147 212
q-32 43 -91 95q-78 70 -169 93.5t-171.5 3.5t-150 -73t-112.5 -130q-94 -168 -76 -395q22 -288 160 -462q198 -250 483 -192q158 32 260 184q7 10 51 80z" />
    <glyph glyph-name="C" unicode="&#xc7;" horiz-adv-x="1314" 
d="M1238 422q3 -2 8.5 -6.5t7.5 -7.5q-163 -374 -504 -414q-181 -22 -322.5 53t-234.5 234q-223 383 -39 791q96 211 287 307t421 51q10 -2 40 -7.5t47 -9.5q46 -11 77.5 4.5t53.5 72.5q61 -186 169 -518q-3 -1 -8.5 -3.5t-7.5 -4.5q-26 34 -32 42q-137 198 -147 212
q-32 43 -91 95q-78 70 -169 93.5t-171.5 3.5t-150 -73t-112.5 -130q-94 -168 -76 -395q22 -288 160 -462q198 -250 483 -192q158 32 260 184q7 10 51 80z" />
    <glyph glyph-name="D" unicode="D" horiz-adv-x="1368" 
d="M87 6q-1 0 -36 22q41 3 66.5 15t36.5 34.5t14.5 43.5t3.5 54v1082q0 32 -3 53.5t-12.5 45.5t-30.5 39.5t-54 23.5q53 5 63 5h253q253 1 253 0q247 -1 416 -139.5t217 -381.5q53 -270 -36 -497q-72 -185 -211.5 -285.5t-336.5 -112.5q-90 -5 -185 -6t-232 1.5t-186 2.5z
M679 1390q-38 2 -80 2.5t-98 -0.5t-84 -1q-14 -89 -11 -695.5t17 -656.5q26 0 79.5 -1.5t95.5 -1t80 3.5q221 17 297 229q15 43 24 85q51 241 25 529q-14 160 -51 278q-66 215 -294 229z" />
    <glyph glyph-name="E" unicode="E" horiz-adv-x="1282" 
d="M810 885q6 21 36 146q19 -66 19 -306.5t-20 -306.5q-5 22 -14 61.5t-14 58.5q-24 97 -71.5 134.5t-147.5 39.5h-58h-70.5h-61.5v-668q6 -1 30.5 -4t37.5 -3q35 0 137.5 1t137.5 -1q122 -5 194 87q86 111 198 262q9 12 71 99q1 -52 -61 -236t-119 -302q-5 9 -11.5 17
t-12 13.5t-15 10t-13.5 7.5t-16 5t-15.5 3t-17.5 1.5t-16 0.5h-18h-17h-727h-96q13 10 37.5 27.5t38 30t20.5 26.5q4 8 7 18.5t4.5 18.5t2 21.5t0.5 20v22.5v20v1002v45q3 63 -18 103t-83 58q8 1 22.5 2.5t26 2.5t22.5 1q125 0 373 0.5t373 0.5q27 0 40 1t34 6t36.5 18.5
t28.5 35.5q28 -80 85 -241.5t85 -242.5l-27 -21q-26 50 -28 52q-65 88 -197 262q-76 101 -207 99q-47 -1 -100 -1t-120 0.5t-105 0.5v-646q26 0 83 -1.5t99.5 -1t81.5 4.5q98 9 136 135z" />
    <glyph glyph-name="E" unicode="&#xcb;" horiz-adv-x="1282" 
d="M810 885q6 21 36 146q19 -66 19 -306.5t-20 -306.5q-5 22 -14 61.5t-14 58.5q-24 97 -71.5 134.5t-147.5 39.5h-58h-70.5h-61.5v-668q6 -1 30.5 -4t37.5 -3q35 0 137.5 1t137.5 -1q122 -5 194 87q86 111 198 262q9 12 71 99q1 -52 -61 -236t-119 -302q-5 9 -11.5 17
t-12 13.5t-15 10t-13.5 7.5t-16 5t-15.5 3t-17.5 1.5t-16 0.5h-18h-17h-727h-96q13 10 37.5 27.5t38 30t20.5 26.5q4 8 7 18.5t4.5 18.5t2 21.5t0.5 20v22.5v20v1002v45q3 63 -18 103t-83 58q8 1 22.5 2.5t26 2.5t22.5 1q125 0 373 0.5t373 0.5q27 0 40 1t34 6t36.5 18.5
t28.5 35.5q28 -80 85 -241.5t85 -242.5l-27 -21q-26 50 -28 52q-65 88 -197 262q-76 101 -207 99q-47 -1 -100 -1t-120 0.5t-105 0.5v-646q26 0 83 -1.5t99.5 -1t81.5 4.5q98 9 136 135z" />
    <glyph glyph-name="E" unicode="&#xca;" horiz-adv-x="1282" 
d="M810 885q6 21 36 146q19 -66 19 -306.5t-20 -306.5q-5 22 -14 61.5t-14 58.5q-24 97 -71.5 134.5t-147.5 39.5h-58h-70.5h-61.5v-668q6 -1 30.5 -4t37.5 -3q35 0 137.5 1t137.5 -1q122 -5 194 87q86 111 198 262q9 12 71 99q1 -52 -61 -236t-119 -302q-5 9 -11.5 17
t-12 13.5t-15 10t-13.5 7.5t-16 5t-15.5 3t-17.5 1.5t-16 0.5h-18h-17h-727h-96q13 10 37.5 27.5t38 30t20.5 26.5q4 8 7 18.5t4.5 18.5t2 21.5t0.5 20v22.5v20v1002v45q3 63 -18 103t-83 58q8 1 22.5 2.5t26 2.5t22.5 1q125 0 373 0.5t373 0.5q27 0 40 1t34 6t36.5 18.5
t28.5 35.5q28 -80 85 -241.5t85 -242.5l-27 -21q-26 50 -28 52q-65 88 -197 262q-76 101 -207 99q-47 -1 -100 -1t-120 0.5t-105 0.5v-646q26 0 83 -1.5t99.5 -1t81.5 4.5q98 9 136 135z" />
    <glyph glyph-name="E" unicode="&#xc9;" horiz-adv-x="1282" 
d="M810 885q6 21 36 146q19 -66 19 -306.5t-20 -306.5q-5 22 -14 61.5t-14 58.5q-24 97 -71.5 134.5t-147.5 39.5h-58h-70.5h-61.5v-668q6 -1 30.5 -4t37.5 -3q35 0 137.5 1t137.5 -1q122 -5 194 87q86 111 198 262q9 12 71 99q1 -52 -61 -236t-119 -302q-5 9 -11.5 17
t-12 13.5t-15 10t-13.5 7.5t-16 5t-15.5 3t-17.5 1.5t-16 0.5h-18h-17h-727h-96q13 10 37.5 27.5t38 30t20.5 26.5q4 8 7 18.5t4.5 18.5t2 21.5t0.5 20v22.5v20v1002v45q3 63 -18 103t-83 58q8 1 22.5 2.5t26 2.5t22.5 1q125 0 373 0.5t373 0.5q27 0 40 1t34 6t36.5 18.5
t28.5 35.5q28 -80 85 -241.5t85 -242.5l-27 -21q-26 50 -28 52q-65 88 -197 262q-76 101 -207 99q-47 -1 -100 -1t-120 0.5t-105 0.5v-646q26 0 83 -1.5t99.5 -1t81.5 4.5q98 9 136 135z" />
    <glyph glyph-name="E" unicode="&#xc8;" horiz-adv-x="1282" 
d="M810 885q6 21 36 146q19 -66 19 -306.5t-20 -306.5q-5 22 -14 61.5t-14 58.5q-24 97 -71.5 134.5t-147.5 39.5h-58h-70.5h-61.5v-668q6 -1 30.5 -4t37.5 -3q35 0 137.5 1t137.5 -1q122 -5 194 87q86 111 198 262q9 12 71 99q1 -52 -61 -236t-119 -302q-5 9 -11.5 17
t-12 13.5t-15 10t-13.5 7.5t-16 5t-15.5 3t-17.5 1.5t-16 0.5h-18h-17h-727h-96q13 10 37.5 27.5t38 30t20.5 26.5q4 8 7 18.5t4.5 18.5t2 21.5t0.5 20v22.5v20v1002v45q3 63 -18 103t-83 58q8 1 22.5 2.5t26 2.5t22.5 1q125 0 373 0.5t373 0.5q27 0 40 1t34 6t36.5 18.5
t28.5 35.5q28 -80 85 -241.5t85 -242.5l-27 -21q-26 50 -28 52q-65 88 -197 262q-76 101 -207 99q-47 -1 -100 -1t-120 0.5t-105 0.5v-646q26 0 83 -1.5t99.5 -1t81.5 4.5q98 9 136 135z" />
    <glyph glyph-name="F" unicode="F" horiz-adv-x="1193" 
d="M660 693q-38 2 -80 2.5t-99 -0.5t-87 -1q0 -477 1 -535q1 -59 26.5 -86.5t84.5 -36.5q49 -8 72 -25h-518q25 8 42.5 19t28 27.5t17 30t9 37.5t3 37.5t0.5 41.5q-1 170 -1 1020v26q2 44 -3.5 73.5t-29 57t-67.5 39.5q48 4 74 4h728q24 0 39.5 2t34 9.5t33 24.5t25.5 45
q123 -349 177 -502q-3 -1 -9 -4.5t-9 -5.5q-46 54 -47 56q-31 41 -94 123.5t-95 123.5q-75 99 -198 98h-309q-14 -50 -16 -315t11 -346q25 0 79 -1t95 -0.5t79 2.5q107 7 144 126q4 14 34 142q19 -45 21.5 -274t-14.5 -318q-5 16 -20 67q-4 14 -11 40t-13.5 47t-14.5 39
q-38 86 -123 90z" />
    <glyph glyph-name="G" unicode="G" horiz-adv-x="1421" 
d="M915 618q2 2 5 8t5 9h439q0 -17 -1 -17q-60 -10 -81.5 -48t-21.5 -101q1 0 0 -191v-190q0 -58 -7 -90q-68 80 -155 110q-50 17 -82 -8q-101 -80 -229.5 -103t-252 10.5t-232.5 133t-169 250.5q-125 317 4 649q86 222 295 331t457 62q46 -8 69 -14q28 -7 47.5 -9t42 2.5
t40.5 22.5t32 50q34 -106 92.5 -286t74.5 -230l-18 -9q-2 4 -19.5 30.5t-27.5 40.5q-12 17 -51.5 72.5t-66.5 92t-55 70.5q-91 108 -222 140q-126 30 -228 -13t-161 -155q-52 -98 -79 -234q-66 -334 20 -640q29 -102 84 -184q62 -92 160 -127t196 -14t176 86q29 24 31 77
q2 48 1.5 128.5t0.5 128.5q1 34 -2.5 57.5t-14 46.5t-35 37t-61.5 18z" />
    <glyph glyph-name="H" unicode="H" horiz-adv-x="1458" 
d="M1056 131q1 95 1 577h-652q0 -6 -3 -36t-3 -45q-2 -284 -1 -425q0 -37 0.5 -53.5t5.5 -37.5t9 -28.5t20 -22t29.5 -22.5t46.5 -27h-444q0 1 -1.5 4.5t-2.5 5.5q3 1 18 8t23 10q53 20 58 81q2 21 2 62q0 178 0.5 532t0.5 532v18q3 60 -18.5 98t-80.5 51q33 8 65.5 9.5
t83.5 0t64 -1.5h223q-10 -8 -31.5 -23.5t-35 -28t-20.5 -26.5q-4 -8 -7 -18.5t-4.5 -18.5t-2 -21.5t-0.5 -20v-22.5v-20q-2 -255 -1 -382q0 -8 5 -90h647q7 49 7 61q1 226 0 452q-1 72 -16 94t-82 51q37 15 189 18t240 -9q-9 -7 -28.5 -20t-32.5 -24.5t-20 -24.5
q-15 -30 -15 -112q-1 0 0 -523v-523q0 -63 6.5 -87.5t26.5 -42.5t79 -48h-467q12 6 23.5 12t17.5 9t11 4q67 20 67 94z" />
    <glyph glyph-name="I" unicode="I" horiz-adv-x="552" 
d="M59 1419h435q-60 -18 -81 -58.5t-21 -103.5v-1081q0 -66 21.5 -107.5t81.5 -57.5h-431q33 11 53.5 29t29 44t11 48t2.5 58q-3 527 0 1054q0 36 -2.5 58.5t-12 48t-31 42.5t-55.5 26z" />
    <glyph glyph-name="I" unicode="&#xcf;" horiz-adv-x="552" 
d="M59 1419h435q-60 -18 -81 -58.5t-21 -103.5v-1081q0 -66 21.5 -107.5t81.5 -57.5h-431q33 11 53.5 29t29 44t11 48t2.5 58q-3 527 0 1054q0 36 -2.5 58.5t-12 48t-31 42.5t-55.5 26z" />
    <glyph glyph-name="I" unicode="&#xce;" horiz-adv-x="552" 
d="M59 1419h435q-60 -18 -81 -58.5t-21 -103.5v-1081q0 -66 21.5 -107.5t81.5 -57.5h-431q33 11 53.5 29t29 44t11 48t2.5 58q-3 527 0 1054q0 36 -2.5 58.5t-12 48t-31 42.5t-55.5 26z" />
    <glyph glyph-name="I" unicode="&#xcd;" horiz-adv-x="552" 
d="M59 1419h435q-60 -18 -81 -58.5t-21 -103.5v-1081q0 -66 21.5 -107.5t81.5 -57.5h-431q33 11 53.5 29t29 44t11 48t2.5 58q-3 527 0 1054q0 36 -2.5 58.5t-12 48t-31 42.5t-55.5 26z" />
    <glyph glyph-name="I" unicode="&#xcc;" horiz-adv-x="552" 
d="M59 1419h435q-60 -18 -81 -58.5t-21 -103.5v-1081q0 -66 21.5 -107.5t81.5 -57.5h-431q33 11 53.5 29t29 44t11 48t2.5 58q-3 527 0 1054q0 36 -2.5 58.5t-12 48t-31 42.5t-55.5 26z" />
    <glyph glyph-name="J" unicode="J" horiz-adv-x="559" 
d="M97 1395l-42 24h453q-78 -42 -93 -66.5t-15 -110.5v-398.5v-398.5q0 -238 -83 -395q-135 -258 -399 -289q-45 -6 -95 11q-29 10 -42 37t-6 57q15 64 73 65q40 0 77 -12q10 -3 20 -9t22.5 -14t19.5 -12q82 -46 125 -22.5t50 118.5q1 13 1 79v1170q0 47 -1 71q-3 75 -65 95
z" />
    <glyph glyph-name="K" unicode="K" horiz-adv-x="1398" 
d="M913 1406q0 3 0.5 8.5t0.5 7.5h413q-14 -22 -16 -22q-135 -30 -253 -158q-16 -17 -322 -368q26 3 44.5 0t31.5 -15t18.5 -20t16.5 -28q3 -5 4 -7q55 -100 167.5 -298t167.5 -297q17 -30 24.5 -42t24.5 -37.5t31 -37.5t35.5 -28t47 -24t56.5 -11q-54 -19 -247.5 -23
t-265.5 9q51 28 66.5 46t11 42t-34.5 78q-122 222 -272 488q-5 9 -11.5 18.5t-15.5 23l-15 22.5q-24 -29 -66.5 -77.5t-76 -88t-61.5 -75.5q-18 -21 -20 -74q-1 -43 -1 -115.5v-115.5q0 -27 1.5 -46t7.5 -41t17.5 -37t32.5 -27t51 -17q-35 -10 -69 -12t-86 1t-65 3h-221v14
q57 14 78 51.5t21 100.5q-2 358 0 1074q0 34 -3 56t-12 46.5t-30.5 40.5t-55.5 24h430q-8 -7 -28 -22.5t-34 -29.5t-21 -29q-5 -10 -8 -21t-4 -26t-1.5 -23.5t0 -27.5t0.5 -24q-1 -195 -1 -585v-78q3 -1 8.5 -3.5t8.5 -4.5q56 57 190 222q-6 14 -20.5 44.5t-21.5 45.5
q16 12 17 12q64 -11 111.5 14.5t88.5 83.5q31 44 98 122t77 90q35 43 51 72q30 57 16 92.5t-75 54.5q-5 1 -16 4t-16 5z" />
    <glyph glyph-name="L" unicode="L" horiz-adv-x="1177" 
d="M59 1404q2 3 6 8.5t6 8.5h440q-11 -7 -32.5 -20t-34.5 -22.5t-20 -21.5q-21 -35 -21 -102q-1 0 -1 -581l1 -580q0 -4 6 -56q27 0 105 -2t132 -0.5t105 8.5q74 10 135 95q29 40 61 86t71 102.5t60 87.5q42 62 72 89q-19 -85 -47.5 -174.5t-71 -207.5t-60.5 -173
q-49 42 -68 49t-86 7h-665h-84q0 3 -1 9t-1 9q7 3 21.5 8.5t21.5 8.5q49 19 54 74q3 43 3 89v1028v26q1 31 -2 53t-13 44t-33 34.5t-59 15.5z" />
    <glyph glyph-name="M" unicode="M" horiz-adv-x="1816" 
d="M1756 25q-2 -3 -5 -8.5t-5 -8.5h-431v17q102 22 102 144q0 745 -12 1123l-30 -54q-339 -835 -394 -969q-29 -71 3 -134q8 -16 16.5 -35.5t18.5 -45t17 -42.5h-253q-67 153 -244 557.5t-274 625.5q-3 0 -8 -0.5t-7 -0.5q-8 -48 -8 -55v-798v-27q4 -93 20 -141t55 -83
t124 -77h-410q6 17 7 17q137 27 164 185q11 63 11 141q0 46 -0.5 417t2.5 417q2 91 -27.5 147t-111.5 81h349q98 -223 288 -656t225 -514q78 192 236 581.5t239 590.5h339q-31 -18 -43 -25t-27.5 -21t-19 -20t-8 -25.5t-4.5 -34.5v-50q0 -886 -1 -1064q0 -69 20.5 -107
t86.5 -48z" />
    <glyph glyph-name="N" unicode="N" horiz-adv-x="1445" 
d="M260 1202q-3 -1 -9.5 -3.5t-9.5 -3.5v-59v-816v-27q4 -111 44 -169.5t139 -100.5q-33 -15 -177 -17.5t-214 10.5q1 2 1.5 5.5t1.5 6t2 2.5q142 31 165 194q9 68 9 115q0 46 -0.5 416.5t2.5 416.5q2 87 -30 145.5t-123 104.5q24 0 72.5 -0.5t86.5 0t72 4.5q56 6 93.5 -15
t71.5 -71q181 -269 675 -989q16 -23 60 -80q1 15 4 35.5t3 29.5q0 665 -1 798q0 58 -18 122q-32 115 -135 138q-17 3 -25 25h391l-5 -16q-96 -38 -134.5 -96t-39.5 -169q-1 -108 -1 -647v-62q-9 -119 11.5 -212t89.5 -169q3 -3 15 -42q-212 0 -243 2q-26 1 -58 47
q-83 119 -245 359q-83 121 -247.5 362.5t-246.5 362.5q-15 21 -47 63z" />
    <glyph glyph-name="N" unicode="&#xd1;" horiz-adv-x="1445" 
d="M260 1202q-3 -1 -9.5 -3.5t-9.5 -3.5v-59v-816v-27q4 -111 44 -169.5t139 -100.5q-33 -15 -177 -17.5t-214 10.5q1 2 1.5 5.5t1.5 6t2 2.5q142 31 165 194q9 68 9 115q0 46 -0.5 416.5t2.5 416.5q2 87 -30 145.5t-123 104.5q24 0 72.5 -0.5t86.5 0t72 4.5q56 6 93.5 -15
t71.5 -71q181 -269 675 -989q16 -23 60 -80q1 15 4 35.5t3 29.5q0 665 -1 798q0 58 -18 122q-32 115 -135 138q-17 3 -25 25h391l-5 -16q-96 -38 -134.5 -96t-39.5 -169q-1 -108 -1 -647v-62q-9 -119 11.5 -212t89.5 -169q3 -3 15 -42q-212 0 -243 2q-26 1 -58 47
q-83 119 -245 359q-83 121 -247.5 362.5t-246.5 362.5q-15 21 -47 63z" />
    <glyph glyph-name="O" unicode="O" horiz-adv-x="1439" 
d="M1354 866q4 -19 14 -150q3 -156 -58 -312q-73 -189 -227 -302t-346 -118t-353 100.5t-239 291.5q-153 363 11 705q87 181 234 274.5t347 90.5q194 -3 348.5 -117t223.5 -301q31 -85 45 -162zM1060 330q12 64 52 347q-3 41 -7 104t-7 104t-8 78q-25 197 -100 309
q-65 98 -169.5 133t-207.5 -2.5t-163 -137.5q-56 -93 -81 -214q-70 -336 1 -677q20 -92 70 -190q88 -167 280 -169q188 -1 282 167q46 82 58 148z" />
    <glyph glyph-name="O" unicode="&#xd8;" horiz-adv-x="1439" 
d="M1354 866q4 -19 14 -150q3 -156 -58 -312q-73 -189 -227 -302t-346 -118t-353 100.5t-239 291.5q-153 363 11 705q87 181 234 274.5t347 90.5q194 -3 348.5 -117t223.5 -301q31 -85 45 -162zM1060 330q12 64 52 347q-3 41 -7 104t-7 104t-8 78q-25 197 -100 309
q-65 98 -169.5 133t-207.5 -2.5t-163 -137.5q-56 -93 -81 -214q-70 -336 1 -677q20 -92 70 -190q88 -167 280 -169q188 -1 282 167q46 82 58 148z" />
    <glyph glyph-name="O" unicode="&#xd6;" horiz-adv-x="1439" 
d="M1354 866q4 -19 14 -150q3 -156 -58 -312q-73 -189 -227 -302t-346 -118t-353 100.5t-239 291.5q-153 363 11 705q87 181 234 274.5t347 90.5q194 -3 348.5 -117t223.5 -301q31 -85 45 -162zM1060 330q12 64 52 347q-3 41 -7 104t-7 104t-8 78q-25 197 -100 309
q-65 98 -169.5 133t-207.5 -2.5t-163 -137.5q-56 -93 -81 -214q-70 -336 1 -677q20 -92 70 -190q88 -167 280 -169q188 -1 282 167q46 82 58 148z" />
    <glyph glyph-name="O" unicode="&#xd5;" horiz-adv-x="1439" 
d="M1354 866q4 -19 14 -150q3 -156 -58 -312q-73 -189 -227 -302t-346 -118t-353 100.5t-239 291.5q-153 363 11 705q87 181 234 274.5t347 90.5q194 -3 348.5 -117t223.5 -301q31 -85 45 -162zM1060 330q12 64 52 347q-3 41 -7 104t-7 104t-8 78q-25 197 -100 309
q-65 98 -169.5 133t-207.5 -2.5t-163 -137.5q-56 -93 -81 -214q-70 -336 1 -677q20 -92 70 -190q88 -167 280 -169q188 -1 282 167q46 82 58 148z" />
    <glyph glyph-name="O" unicode="&#xd4;" horiz-adv-x="1439" 
d="M1354 866q4 -19 14 -150q3 -156 -58 -312q-73 -189 -227 -302t-346 -118t-353 100.5t-239 291.5q-153 363 11 705q87 181 234 274.5t347 90.5q194 -3 348.5 -117t223.5 -301q31 -85 45 -162zM1060 330q12 64 52 347q-3 41 -7 104t-7 104t-8 78q-25 197 -100 309
q-65 98 -169.5 133t-207.5 -2.5t-163 -137.5q-56 -93 -81 -214q-70 -336 1 -677q20 -92 70 -190q88 -167 280 -169q188 -1 282 167q46 82 58 148z" />
    <glyph glyph-name="O" unicode="&#xd3;" horiz-adv-x="1439" 
d="M1354 866q4 -19 14 -150q3 -156 -58 -312q-73 -189 -227 -302t-346 -118t-353 100.5t-239 291.5q-153 363 11 705q87 181 234 274.5t347 90.5q194 -3 348.5 -117t223.5 -301q31 -85 45 -162zM1060 330q12 64 52 347q-3 41 -7 104t-7 104t-8 78q-25 197 -100 309
q-65 98 -169.5 133t-207.5 -2.5t-163 -137.5q-56 -93 -81 -214q-70 -336 1 -677q20 -92 70 -190q88 -167 280 -169q188 -1 282 167q46 82 58 148z" />
    <glyph glyph-name="O" unicode="&#xd2;" horiz-adv-x="1439" 
d="M1354 866q4 -19 14 -150q3 -156 -58 -312q-73 -189 -227 -302t-346 -118t-353 100.5t-239 291.5q-153 363 11 705q87 181 234 274.5t347 90.5q194 -3 348.5 -117t223.5 -301q31 -85 45 -162zM1060 330q12 64 52 347q-3 41 -7 104t-7 104t-8 78q-25 197 -100 309
q-65 98 -169.5 133t-207.5 -2.5t-163 -137.5q-56 -93 -81 -214q-70 -336 1 -677q20 -92 70 -190q88 -167 280 -169q188 -1 282 167q46 82 58 148z" />
    <glyph glyph-name="P" unicode="P" horiz-adv-x="1236" 
d="M737 659q-47 -4 -99 -4.5t-124.5 1t-109.5 1.5v-252q0 -205 1 -231q3 -82 28.5 -108t108.5 -34q7 -1 50 -8q-48 -16 -246.5 -18.5t-288.5 11.5q41 17 54 22q55 20 58 82q1 17 1 106q0 864 1 1037q0 62 -20.5 99t-78.5 54q42 7 53 7q57 0 187.5 1t228 0.5t187.5 -3.5
q127 -5 249 -51q106 -40 163 -129.5t53 -205.5q-8 -251 -223 -330q-99 -37 -233 -47zM410 1380v-690q33 0 106.5 -1t124.5 -0.5t99 3.5q66 4 110 41.5t61 102.5q53 202 0 411q-26 101 -130 134q-47 15 -181.5 15t-189.5 -16z" />
    <glyph glyph-name="Q" unicode="Q" horiz-adv-x="1441" 
d="M496 -152q1 -2 3 -5.5t3 -5.5q43 14 55 19q159 62 280 -48q56 -51 145 -117q73 -55 123.5 -51.5t118.5 66.5q67 63 94 84q-28 -72 -117.5 -158.5t-153.5 -103.5q-120 -32 -218 44q-147 114 -186 150q-110 101 -243 25q-67 -38 -119 -51q18 29 41.5 52t64.5 54.5t51 39.5
q33 27 101 80t85 66q-34 9 -70 19q-306 89 -422 398q-132 348 22 672q87 183 233 277.5t345 90.5q204 -4 347.5 -108.5t224.5 -296.5q126 -300 10 -623q-71 -198 -225.5 -311t-365.5 -121q-61 -3 -104 -39q-23 -20 -67.5 -54.5t-55.5 -43.5zM1058 322q11 58 21 121.5
t19.5 137t13.5 98.5q-3 39 -7 105.5t-7.5 108.5t-8.5 80q-27 197 -105 307q-65 93 -167 126t-202.5 -3t-160.5 -132q-58 -93 -84 -212q-73 -339 0 -686q20 -96 74 -198q41 -78 117 -120t155.5 -42.5t156.5 39.5t120 116q53 92 65 154z" />
    <glyph glyph-name="R" unicode="R" horiz-adv-x="1345" 
d="M767 679q-4 0 -82 -7q16 -26 37 -44.5t40 -28.5t46.5 -16.5t46 -8t50 -4t48.5 -4.5q42 -81 128 -249q5 -10 26.5 -52.5t33.5 -65.5q31 -59 50 -84t47 -45t100 -59h-358q-213 411 -342 661h-233q-8 -67 -8 -69q-1 -204 0 -408q1 -88 18 -115t99 -68h-448v13
q56 12 76.5 47.5t20.5 96.5q-3 481 -1 1082q0 28 -1 44.5t-6 39.5t-15 37t-28.5 27.5t-45.5 20.5q6 0 22 2t25 2h604q138 0 258 -54q90 -40 144 -116.5t63.5 -161t-27 -171.5t-115.5 -146q-99 -75 -273 -96zM401 1378v-670q28 0 88 -1.5t94.5 -2t84 2.5t90.5 11
q107 19 144 131q66 200 3 400q-30 96 -125 129q-48 17 -185 17.5t-194 -17.5z" />
    <glyph glyph-name="S" unicode="S" horiz-adv-x="1200" 
d="M363 38q-25 5 -34.5 7t-31 2.5t-33.5 -4.5t-27 -18t-26 -34q-24 82 -71.5 247.5t-71.5 248.5q3 1 9 3.5t9 4.5q5 -8 14.5 -22.5t17 -26.5t13.5 -23q110 -184 217 -280q159 -143 357 -126q184 16 244 175q30 74 7 152.5t-94 132.5q-76 58 -222 126q-36 17 -117 46.5
t-121 49.5q-106 53 -167 114q-73 72 -98.5 165.5t-5.5 179t85 158t162 105.5q126 42 298 13q14 -3 44 -8.5t44 -7.5q70 -12 89 -5.5t68 60.5q30 -88 85 -247.5t70 -204.5l-18 -9q-4 5 -19.5 26.5t-23.5 33.5q-109 172 -209 251q-170 136 -366 81q-86 -24 -132.5 -90
t-37 -145.5t74.5 -140.5q57 -53 172 -106q39 -18 117.5 -46t114.5 -44q139 -62 210 -111q76 -53 118.5 -128t46.5 -153.5t-18.5 -155t-75 -140t-124.5 -101.5q-156 -82 -336 -50z" />
    <glyph glyph-name="T" unicode="T" horiz-adv-x="1394" 
d="M927 28q-47 -19 -217.5 -21.5t-250.5 14.5q35 6 59 20t36.5 29t18.5 41t7 43t1 49v1109q0 10 -1 22t-2 28t-2 28q-179 0 -195 -1q-55 -3 -101 -80q-38 -62 -106.5 -176t-85.5 -143q-13 -21 -41 -63q-3 2 -9 4.5t-9 3.5q92 362 144 568q14 -29 30.5 -46.5t40.5 -24
t36.5 -7.5t43.5 -1q373 1 746 0q29 0 43.5 1.5t38 8t40 23.5t29.5 45q27 -106 75 -293.5t70 -272.5q-2 -2 -6.5 -4t-6.5 -4q-2 2 -15.5 16t-18.5 23q-147 248 -175 298q-83 153 -247 130q-10 -1 -22 -2t-27.5 -1.5t-25.5 -1.5q0 -4 -3 -30.5t-3 -40.5q0 -762 -1 -1144
q0 -33 3 -54t13.5 -43.5t34.5 -34.5t61 -15z" />
    <glyph glyph-name="U" unicode="U" horiz-adv-x="1337" 
d="M49 1404q2 2 6 7.5t6 8.5h437q-32 -18 -45 -25.5t-29 -21.5t-19.5 -21t-8.5 -27t-5 -36v-51q0 -654 1 -736q2 -108 23 -202q28 -118 92 -180.5t173 -78.5q120 -17 223.5 30.5t152.5 146.5q53 105 56 202q8 270 2 736q-2 204 -178 261h392q-56 -18 -93 -49.5t-55.5 -74
t-25.5 -86t-7 -100.5v-639q0 -59 -4 -88q-23 -175 -129 -275.5t-283 -112.5q-126 -9 -255 19q-314 70 -319 430q-1 112 -1 673q0 16 -0.5 45t-0.5 52.5t1 44.5q3 65 -18.5 102.5t-88.5 45.5z" />
    <glyph glyph-name="U" unicode="&#xdc;" horiz-adv-x="1337" 
d="M49 1404q2 2 6 7.5t6 8.5h437q-32 -18 -45 -25.5t-29 -21.5t-19.5 -21t-8.5 -27t-5 -36v-51q0 -654 1 -736q2 -108 23 -202q28 -118 92 -180.5t173 -78.5q120 -17 223.5 30.5t152.5 146.5q53 105 56 202q8 270 2 736q-2 204 -178 261h392q-56 -18 -93 -49.5t-55.5 -74
t-25.5 -86t-7 -100.5v-639q0 -59 -4 -88q-23 -175 -129 -275.5t-283 -112.5q-126 -9 -255 19q-314 70 -319 430q-1 112 -1 673q0 16 -0.5 45t-0.5 52.5t1 44.5q3 65 -18.5 102.5t-88.5 45.5z" />
    <glyph glyph-name="U" unicode="&#xdb;" horiz-adv-x="1337" 
d="M49 1404q2 2 6 7.5t6 8.5h437q-32 -18 -45 -25.5t-29 -21.5t-19.5 -21t-8.5 -27t-5 -36v-51q0 -654 1 -736q2 -108 23 -202q28 -118 92 -180.5t173 -78.5q120 -17 223.5 30.5t152.5 146.5q53 105 56 202q8 270 2 736q-2 204 -178 261h392q-56 -18 -93 -49.5t-55.5 -74
t-25.5 -86t-7 -100.5v-639q0 -59 -4 -88q-23 -175 -129 -275.5t-283 -112.5q-126 -9 -255 19q-314 70 -319 430q-1 112 -1 673q0 16 -0.5 45t-0.5 52.5t1 44.5q3 65 -18.5 102.5t-88.5 45.5z" />
    <glyph glyph-name="U" unicode="&#xda;" horiz-adv-x="1337" 
d="M49 1404q2 2 6 7.5t6 8.5h437q-32 -18 -45 -25.5t-29 -21.5t-19.5 -21t-8.5 -27t-5 -36v-51q0 -654 1 -736q2 -108 23 -202q28 -118 92 -180.5t173 -78.5q120 -17 223.5 30.5t152.5 146.5q53 105 56 202q8 270 2 736q-2 204 -178 261h392q-56 -18 -93 -49.5t-55.5 -74
t-25.5 -86t-7 -100.5v-639q0 -59 -4 -88q-23 -175 -129 -275.5t-283 -112.5q-126 -9 -255 19q-314 70 -319 430q-1 112 -1 673q0 16 -0.5 45t-0.5 52.5t1 44.5q3 65 -18.5 102.5t-88.5 45.5z" />
    <glyph glyph-name="U" unicode="&#xd9;" horiz-adv-x="1337" 
d="M49 1404q2 2 6 7.5t6 8.5h437q-32 -18 -45 -25.5t-29 -21.5t-19.5 -21t-8.5 -27t-5 -36v-51q0 -654 1 -736q2 -108 23 -202q28 -118 92 -180.5t173 -78.5q120 -17 223.5 30.5t152.5 146.5q53 105 56 202q8 270 2 736q-2 204 -178 261h392q-56 -18 -93 -49.5t-55.5 -74
t-25.5 -86t-7 -100.5v-639q0 -59 -4 -88q-23 -175 -129 -275.5t-283 -112.5q-126 -9 -255 19q-314 70 -319 430q-1 112 -1 673q0 16 -0.5 45t-0.5 52.5t1 44.5q3 65 -18.5 102.5t-88.5 45.5z" />
    <glyph glyph-name="V" unicode="V" horiz-adv-x="1363" 
d="M995 1395q-4 1 -46 25h413q0 -2 2 -6t2 -6q-24 -13 -33 -16q-79 -27 -125 -87t-82 -153q-35 -90 -174 -483q-12 -35 -40 -117t-50 -143t-44 -116q-34 -85 4 -169q7 -15 13 -33t13.5 -41.5t12.5 -39.5h-244q-5 13 -19.5 48t-22.5 54q-72 188 -217 562t-218 562
q-20 51 -31.5 76t-41 58t-69.5 49h451q1 -2 2 -5.5t1 -5.5q-24 -10 -35 -16q-39 -21 -47 -38.5t2 -60.5q7 -30 22 -68q58 -150 175 -449.5t176 -449.5q3 -7 6.5 -15t10 -20.5t11.5 -22.5q5 12 12.5 29t12 29t8.5 22q209 596 266 761q22 60 29 102q13 72 -11.5 114.5
t-94.5 69.5z" />
    <glyph glyph-name="W" unicode="W" horiz-adv-x="2091" 
d="M1580 143q6 -15 41 -134h-242q-65 193 -186 555.5t-158 471.5q-7 -19 -20 -50.5t-18 -45.5l-213 -639q-33 -96 1 -171q5 -11 39 -121h-239q-3 7 -16 38.5t-19 49.5q-45 125 -128.5 354t-151.5 416.5t-128 354.5q-11 30 -13 35t-12.5 31.5t-16 34.5t-18 27.5t-23.5 29
t-27.5 21t-35.5 19.5h452q-2 -2 -5.5 -9.5t-6.5 -9.5q-58 -30 -69 -53.5t9 -84.5l351 -966q2 -5 14 -20q29 74 30 77q19 56 99 298.5t125 373.5q25 76 -1 137q-8 19 -20 59q-31 94 -52.5 122t-99.5 76h460q-16 -19 -17 -19q-59 -29 -69 -50t8 -79q58 -174 169 -505t162 -484
q5 10 12.5 22.5t11.5 20t6 15.5q107 334 256 811q9 28 16 69q11 66 -12 107t-86 66q-26 11 -36 25h392q0 -2 -0.5 -5t-0.5 -6t-1 -3q-96 -29 -153.5 -98.5t-91.5 -173.5q-33 -101 -196 -616q-65 -205 -73 -228q-27 -74 1 -146z" />
    <glyph glyph-name="X" unicode="X" horiz-adv-x="1343" 
d="M1075 1232q-26 -35 -301 -425q38 -61 132.5 -213t162 -258t132.5 -205q14 -21 36.5 -40.5t52.5 -40.5t43 -32q-28 -12 -206 -14.5t-287 9.5q11 18 13 19q59 28 68 53.5t-23 80.5q-76 125 -273 436q-1 2 -4 3.5t-8 4.5l-10 6q-172 -246 -257 -370q-11 -16 -26 -56
q-21 -62 -2.5 -97.5t80.5 -57.5q5 -2 13 -6t11 -5q-36 -16 -170 -19.5t-250 8.5q46 25 50 26q103 31 178 127q65 83 361 479l-28 56q-312 500 -356 572q-62 100 -164 145h507q-54 -32 -71 -52.5t-11.5 -46.5t37.5 -80q81 -132 247 -399q41 49 47 58q123 182 163 243
q38 60 51 93q27 65 10.5 101t-83.5 63q-3 1 -7 3.5t-12 7t-17 9.5h419q-2 -2 -4 -6t-3.5 -6.5t-3 -4.5t-3.5 -2q-132 -30 -234 -167z" />
    <glyph glyph-name="Y" unicode="Y" horiz-adv-x="1314" 
d="M924 1409v10h401q-39 -13 -73.5 -31t-65.5 -46.5t-51.5 -49.5t-49 -62.5t-40 -60t-41.5 -66.5q-142 -232 -209 -350q-28 -51 -30 -107q-3 -151 -1 -452q1 -85 18.5 -112.5t98.5 -69.5h-465q41 24 45 25q68 19 68 92q2 331 -1 496q0 27 -33 80q-65 104 -185 294.5
t-164 260.5q-38 62 -74.5 100t-91.5 57h490q-49 -26 -50 -26q-41 -20 -29 -67q5 -23 21 -49q59 -93 169 -265.5t158 -247.5l20 4q166 272 248 409q14 22 24 57q23 70 4.5 106t-89.5 61q-5 2 -12.5 5.5t-9.5 4.5z" />
    <glyph glyph-name="Y" unicode="&#x178;" horiz-adv-x="1314" 
d="M924 1409v10h401q-39 -13 -73.5 -31t-65.5 -46.5t-51.5 -49.5t-49 -62.5t-40 -60t-41.5 -66.5q-142 -232 -209 -350q-28 -51 -30 -107q-3 -151 -1 -452q1 -85 18.5 -112.5t98.5 -69.5h-465q41 24 45 25q68 19 68 92q2 331 -1 496q0 27 -33 80q-65 104 -185 294.5
t-164 260.5q-38 62 -74.5 100t-91.5 57h490q-49 -26 -50 -26q-41 -20 -29 -67q5 -23 21 -49q59 -93 169 -265.5t158 -247.5l20 4q166 272 248 409q14 22 24 57q23 70 4.5 106t-89.5 61q-5 2 -12.5 5.5t-9.5 4.5z" />
    <glyph glyph-name="Y" unicode="&#xdd;" horiz-adv-x="1314" 
d="M924 1409v10h401q-39 -13 -73.5 -31t-65.5 -46.5t-51.5 -49.5t-49 -62.5t-40 -60t-41.5 -66.5q-142 -232 -209 -350q-28 -51 -30 -107q-3 -151 -1 -452q1 -85 18.5 -112.5t98.5 -69.5h-465q41 24 45 25q68 19 68 92q2 331 -1 496q0 27 -33 80q-65 104 -185 294.5
t-164 260.5q-38 62 -74.5 100t-91.5 57h490q-49 -26 -50 -26q-41 -20 -29 -67q5 -23 21 -49q59 -93 169 -265.5t158 -247.5l20 4q166 272 248 409q14 22 24 57q23 70 4.5 106t-89.5 61q-5 2 -12.5 5.5t-9.5 4.5z" />
    <glyph glyph-name="Z" unicode="Z" horiz-adv-x="1251" 
d="M1082 1425h106q-177 -283 -863 -1382q72 -6 80 -6q284 0 310 -1q135 -6 216 100q71 95 211 285q7 10 22 29.5t23 29.5l18 -9q-55 -154 -193 -535q-25 44 -57.5 57t-81.5 13q-123 -1 -737 -1q-16 0 -51.5 2t-49.5 3q699 1116 862 1376q-11 1 -26 3.5t-25 4t-18 1.5
q-38 0 -133 -0.5t-133 0.5q-137 3 -215 -101q-124 -166 -187 -248q-17 -23 -53 -67q-3 1 -9.5 4.5t-9.5 5.5q19 55 54.5 156t66.5 188.5t60 170.5q11 -28 26.5 -45.5t36 -24.5t35.5 -8.5t41 -1.5q225 1 674 1z" />
    <glyph glyph-name="bracketleft" unicode="[" horiz-adv-x="462" 
d="M521 -316v-25h-374q-12 44 -13.5 904.5t10.5 951.5h368q0 -3 0.5 -9.5t0.5 -9.5q-57 -8 -167 -8.5t-156 -3.5q307 -901 -3 -1800h334z" />
    <glyph glyph-name="backslash" unicode="\" horiz-adv-x="614" 
d="M666 -311q1 -3 0 -7.5t-3 -12.5t-3 -15q-23 30 -23 31q-109 323 -314 932.5t-298 884.5q16 8 17 8q8 0 8 -2q258 -759 616 -1819z" />
    <glyph glyph-name="bracketright" unicode="]" horiz-adv-x="450" 
d="M126 1520q62 1 191 1v-1862h-376v21q214 6 330 9q-303 891 2 1802h-331q0 4 -0.5 12.5t-0.5 12.5q27 4 58 4.5t69.5 0t57.5 -0.5z" />
    <glyph glyph-name="asciicircum" unicode="^" horiz-adv-x="817" 
d="M406 1477q24 -22 110.5 -201t164 -369t76.5 -233q-55 122 -167.5 373.5t-173.5 385.5q-61 -136 -174.5 -386.5t-166.5 -368.5q-16 1 -17 2q-6 6 -5 7q106 243 320 729q6 13 33 61z" />
    <glyph glyph-name="underscore" unicode="_" horiz-adv-x="456" 
d="M35 652h385v-110h-385v110z" />
    <glyph glyph-name="grave" unicode="`" horiz-adv-x="389" 
d="M181 1502q54 -119 160 -359q-2 -1 -6 -3.5t-6 -3.5q-183 175 -271 261q-21 21 -30 54q-15 51 33 84q45 32 90 -1q22 -15 30 -32z" />
    <glyph glyph-name="a" unicode="a" horiz-adv-x="1075" 
d="M993 105q6 4 11.5 10t13.5 17.5t12 16.5q-6 -54 -41 -93t-90 -53q-72 -20 -122 3t-108 102q-113 -63 -116 -64q-94 -49 -205 -47q-183 2 -245 142q-78 178 42 307q67 73 177 131q38 21 82.5 40t100.5 41.5t85 35.5q8 3 78 36q0 181 -1 203q-3 53 -30 74.5t-82 14.5
q-118 -13 -207 -126q-15 -19 -41.5 -58t-40.5 -57q-30 -39 -64.5 -47t-64.5 18q-26 22 -27 58.5t27 68.5q44 49 97 77q217 118 472 89q94 -10 137 -62.5t45 -156.5q1 -67 1 -604q0 -7 -1 -25t-0.5 -30.5t3.5 -23.5q14 -57 35 -64q16 -6 67 26zM669 176q1 84 1 520
q-202 -86 -220 -94q-85 -41 -112 -120q-59 -175 -6 -356q14 -49 48 -69t82 -7q18 5 36.5 12t40 17t33.5 16t38.5 20t34.5 18q9 4 16.5 18t7.5 25z" />
    <glyph glyph-name="a" unicode="&#xe5;" horiz-adv-x="1075" 
d="M993 105q6 4 11.5 10t13.5 17.5t12 16.5q-6 -54 -41 -93t-90 -53q-72 -20 -122 3t-108 102q-113 -63 -116 -64q-94 -49 -205 -47q-183 2 -245 142q-78 178 42 307q67 73 177 131q38 21 82.5 40t100.5 41.5t85 35.5q8 3 78 36q0 181 -1 203q-3 53 -30 74.5t-82 14.5
q-118 -13 -207 -126q-15 -19 -41.5 -58t-40.5 -57q-30 -39 -64.5 -47t-64.5 18q-26 22 -27 58.5t27 68.5q44 49 97 77q217 118 472 89q94 -10 137 -62.5t45 -156.5q1 -67 1 -604q0 -7 -1 -25t-0.5 -30.5t3.5 -23.5q14 -57 35 -64q16 -6 67 26zM669 176q1 84 1 520
q-202 -86 -220 -94q-85 -41 -112 -120q-59 -175 -6 -356q14 -49 48 -69t82 -7q18 5 36.5 12t40 17t33.5 16t38.5 20t34.5 18q9 4 16.5 18t7.5 25z" />
    <glyph glyph-name="a" unicode="&#xe4;" horiz-adv-x="1075" 
d="M993 105q6 4 11.5 10t13.5 17.5t12 16.5q-6 -54 -41 -93t-90 -53q-72 -20 -122 3t-108 102q-113 -63 -116 -64q-94 -49 -205 -47q-183 2 -245 142q-78 178 42 307q67 73 177 131q38 21 82.5 40t100.5 41.5t85 35.5q8 3 78 36q0 181 -1 203q-3 53 -30 74.5t-82 14.5
q-118 -13 -207 -126q-15 -19 -41.5 -58t-40.5 -57q-30 -39 -64.5 -47t-64.5 18q-26 22 -27 58.5t27 68.5q44 49 97 77q217 118 472 89q94 -10 137 -62.5t45 -156.5q1 -67 1 -604q0 -7 -1 -25t-0.5 -30.5t3.5 -23.5q14 -57 35 -64q16 -6 67 26zM669 176q1 84 1 520
q-202 -86 -220 -94q-85 -41 -112 -120q-59 -175 -6 -356q14 -49 48 -69t82 -7q18 5 36.5 12t40 17t33.5 16t38.5 20t34.5 18q9 4 16.5 18t7.5 25z" />
    <glyph glyph-name="a" unicode="&#xe3;" horiz-adv-x="1075" 
d="M993 105q6 4 11.5 10t13.5 17.5t12 16.5q-6 -54 -41 -93t-90 -53q-72 -20 -122 3t-108 102q-113 -63 -116 -64q-94 -49 -205 -47q-183 2 -245 142q-78 178 42 307q67 73 177 131q38 21 82.5 40t100.5 41.5t85 35.5q8 3 78 36q0 181 -1 203q-3 53 -30 74.5t-82 14.5
q-118 -13 -207 -126q-15 -19 -41.5 -58t-40.5 -57q-30 -39 -64.5 -47t-64.5 18q-26 22 -27 58.5t27 68.5q44 49 97 77q217 118 472 89q94 -10 137 -62.5t45 -156.5q1 -67 1 -604q0 -7 -1 -25t-0.5 -30.5t3.5 -23.5q14 -57 35 -64q16 -6 67 26zM669 176q1 84 1 520
q-202 -86 -220 -94q-85 -41 -112 -120q-59 -175 -6 -356q14 -49 48 -69t82 -7q18 5 36.5 12t40 17t33.5 16t38.5 20t34.5 18q9 4 16.5 18t7.5 25z" />
    <glyph glyph-name="a" unicode="&#xe2;" horiz-adv-x="1075" 
d="M993 105q6 4 11.5 10t13.5 17.5t12 16.5q-6 -54 -41 -93t-90 -53q-72 -20 -122 3t-108 102q-113 -63 -116 -64q-94 -49 -205 -47q-183 2 -245 142q-78 178 42 307q67 73 177 131q38 21 82.5 40t100.5 41.5t85 35.5q8 3 78 36q0 181 -1 203q-3 53 -30 74.5t-82 14.5
q-118 -13 -207 -126q-15 -19 -41.5 -58t-40.5 -57q-30 -39 -64.5 -47t-64.5 18q-26 22 -27 58.5t27 68.5q44 49 97 77q217 118 472 89q94 -10 137 -62.5t45 -156.5q1 -67 1 -604q0 -7 -1 -25t-0.5 -30.5t3.5 -23.5q14 -57 35 -64q16 -6 67 26zM669 176q1 84 1 520
q-202 -86 -220 -94q-85 -41 -112 -120q-59 -175 -6 -356q14 -49 48 -69t82 -7q18 5 36.5 12t40 17t33.5 16t38.5 20t34.5 18q9 4 16.5 18t7.5 25z" />
    <glyph glyph-name="a" unicode="&#xe1;" horiz-adv-x="1075" 
d="M993 105q6 4 11.5 10t13.5 17.5t12 16.5q-6 -54 -41 -93t-90 -53q-72 -20 -122 3t-108 102q-113 -63 -116 -64q-94 -49 -205 -47q-183 2 -245 142q-78 178 42 307q67 73 177 131q38 21 82.5 40t100.5 41.5t85 35.5q8 3 78 36q0 181 -1 203q-3 53 -30 74.5t-82 14.5
q-118 -13 -207 -126q-15 -19 -41.5 -58t-40.5 -57q-30 -39 -64.5 -47t-64.5 18q-26 22 -27 58.5t27 68.5q44 49 97 77q217 118 472 89q94 -10 137 -62.5t45 -156.5q1 -67 1 -604q0 -7 -1 -25t-0.5 -30.5t3.5 -23.5q14 -57 35 -64q16 -6 67 26zM669 176q1 84 1 520
q-202 -86 -220 -94q-85 -41 -112 -120q-59 -175 -6 -356q14 -49 48 -69t82 -7q18 5 36.5 12t40 17t33.5 16t38.5 20t34.5 18q9 4 16.5 18t7.5 25z" />
    <glyph glyph-name="a" unicode="&#xe0;" horiz-adv-x="1075" 
d="M993 105q6 4 11.5 10t13.5 17.5t12 16.5q-6 -54 -41 -93t-90 -53q-72 -20 -122 3t-108 102q-113 -63 -116 -64q-94 -49 -205 -47q-183 2 -245 142q-78 178 42 307q67 73 177 131q38 21 82.5 40t100.5 41.5t85 35.5q8 3 78 36q0 181 -1 203q-3 53 -30 74.5t-82 14.5
q-118 -13 -207 -126q-15 -19 -41.5 -58t-40.5 -57q-30 -39 -64.5 -47t-64.5 18q-26 22 -27 58.5t27 68.5q44 49 97 77q217 118 472 89q94 -10 137 -62.5t45 -156.5q1 -67 1 -604q0 -7 -1 -25t-0.5 -30.5t3.5 -23.5q14 -57 35 -64q16 -6 67 26zM669 176q1 84 1 520
q-202 -86 -220 -94q-85 -41 -112 -120q-59 -175 -6 -356q14 -49 48 -69t82 -7q18 5 36.5 12t40 17t33.5 16t38.5 20t34.5 18q9 4 16.5 18t7.5 25z" />
    <glyph glyph-name="b" unicode="b" horiz-adv-x="1112" 
d="M996 764q72 -234 2 -472q-30 -102 -91.5 -173t-140 -101.5t-172.5 -20t-185 65.5q-21 13 -94 62q-35 -22 -101 -64t-92 -58v97v1099v80q7 118 -99 139q26 6 77.5 15.5t83.5 17t75.5 26.5t78.5 48q6 -101 4.5 -289t3.5 -285q68 36 79 42q90 49 180.5 57t166.5 -22
t135 -98.5t89 -165.5zM764 220q36 224 9 547q-6 68 -32 146q-42 124 -163 100q-22 -4 -47.5 -13t-41.5 -16.5t-47 -22.5t-42 -20q-62 -30 -59 -108q1 -26 1 -310t-1 -310q-3 -70 59 -108q8 -5 23.5 -15t28 -17.5t24.5 -12.5q234 -107 285 143q1 3 2 8.5t1 8.5z" />
    <glyph glyph-name="c" unicode="c" horiz-adv-x="995" 
d="M407 223q79 -119 208 -124t218 108q14 18 27.5 40t30 51.5t24.5 42.5q-55 -261 -272 -326q-241 -71 -422 111q-103 104 -135 260t14 308t158 245q89 75 194 99q255 58 408 -129q44 -54 61 -134q10 -43 -14 -72.5t-65 -31.5q-40 -2 -62 20t-26 68q-1 14 -1 44.5t-1 44.5
q-8 125 -113 164q-128 48 -212 -45q-62 -70 -84 -152q-66 -245 14 -489q18 -54 50 -103z" />
    <glyph glyph-name="c" unicode="&#xe7;" horiz-adv-x="995" 
d="M407 223q79 -119 208 -124t218 108q14 18 27.5 40t30 51.5t24.5 42.5q-55 -261 -272 -326q-241 -71 -422 111q-103 104 -135 260t14 308t158 245q89 75 194 99q255 58 408 -129q44 -54 61 -134q10 -43 -14 -72.5t-65 -31.5q-40 -2 -62 20t-26 68q-1 14 -1 44.5t-1 44.5
q-8 125 -113 164q-128 48 -212 -45q-62 -70 -84 -152q-66 -245 14 -489q18 -54 50 -103z" />
    <glyph glyph-name="d" unicode="d" horiz-adv-x="1134" 
d="M992 163q-1 -58 18.5 -94t74.5 -49h-308q-6 31 -7 37q-1 5 -3.5 17t-4.5 21q-74 -41 -97 -53q-163 -82 -314.5 -26.5t-217.5 225.5q-105 268 -6 547q64 181 219.5 241t326.5 -28q25 -12 95 -52q0 316 -1 377q-1 39 -25 58.5t-71 36.5q4 1 39 6t42.5 6t38 6.5t42 9.5
t37 12t41 16.5t36.5 20.5t39 26q6 -76 6 -93v-1179v-89zM716 106q58 39 55 102q-1 26 -1 310q0 292 -1 328q-2 55 -25 70q-106 72 -170 91q-86 25 -136.5 -4.5t-76.5 -118.5q-17 -59 -20 -104q-14 -305 -11 -397q4 -111 44 -252q17 -59 54.5 -82t101.5 -18q82 6 186 75z" />
    <glyph glyph-name="e" unicode="e" horiz-adv-x="1017" 
d="M432 195q83 -102 208.5 -98t207.5 109q14 18 27.5 40.5t30 52.5t25.5 46q-2 -89 -66 -179.5t-154 -130.5q-239 -107 -449 60q-189 151 -186 432q3 200 110 340q105 138 270 175t309 -46q180 -104 177 -336h-625q-7 -147 16.5 -259.5t98.5 -205.5zM408 964
q-91 -103 -86 -270h399q16 142 -34 235q-46 85 -131 96t-148 -61z" />
    <glyph glyph-name="e" unicode="&#xeb;" horiz-adv-x="1017" 
d="M432 195q83 -102 208.5 -98t207.5 109q14 18 27.5 40.5t30 52.5t25.5 46q-2 -89 -66 -179.5t-154 -130.5q-239 -107 -449 60q-189 151 -186 432q3 200 110 340q105 138 270 175t309 -46q180 -104 177 -336h-625q-7 -147 16.5 -259.5t98.5 -205.5zM408 964
q-91 -103 -86 -270h399q16 142 -34 235q-46 85 -131 96t-148 -61z" />
    <glyph glyph-name="e" unicode="&#xea;" horiz-adv-x="1017" 
d="M432 195q83 -102 208.5 -98t207.5 109q14 18 27.5 40.5t30 52.5t25.5 46q-2 -89 -66 -179.5t-154 -130.5q-239 -107 -449 60q-189 151 -186 432q3 200 110 340q105 138 270 175t309 -46q180 -104 177 -336h-625q-7 -147 16.5 -259.5t98.5 -205.5zM408 964
q-91 -103 -86 -270h399q16 142 -34 235q-46 85 -131 96t-148 -61z" />
    <glyph glyph-name="e" unicode="&#xe9;" horiz-adv-x="1017" 
d="M432 195q83 -102 208.5 -98t207.5 109q14 18 27.5 40.5t30 52.5t25.5 46q-2 -89 -66 -179.5t-154 -130.5q-239 -107 -449 60q-189 151 -186 432q3 200 110 340q105 138 270 175t309 -46q180 -104 177 -336h-625q-7 -147 16.5 -259.5t98.5 -205.5zM408 964
q-91 -103 -86 -270h399q16 142 -34 235q-46 85 -131 96t-148 -61z" />
    <glyph glyph-name="e" unicode="&#xe8;" horiz-adv-x="1017" 
d="M432 195q83 -102 208.5 -98t207.5 109q14 18 27.5 40.5t30 52.5t25.5 46q-2 -89 -66 -179.5t-154 -130.5q-239 -107 -449 60q-189 151 -186 432q3 200 110 340q105 138 270 175t309 -46q180 -104 177 -336h-625q-7 -147 16.5 -259.5t98.5 -205.5zM408 964
q-91 -103 -86 -270h399q16 142 -34 235q-46 85 -131 96t-148 -61z" />
    <glyph glyph-name="f" unicode="f" horiz-adv-x="671" 
d="M760 1459q26 -6 39 -26t11 -48q-2 -31 -19.5 -50t-47.5 -20q-30 -2 -86 14q-15 4 -48.5 18t-51.5 18q-118 29 -150 -85q-29 -108 -8 -250h255v-17h-256q-7 -82 -7 -86v-737q0 -35 2 -53q6 -48 26 -69.5t67 -30.5q39 -7 50 -16h-467q71 34 85 57t14 104q0 135 0.5 408
t0.5 413q-17 2 -59 6.5t-65 6.5v12q22 1 136 8q21 49 39 85q137 283 435 343q44 9 105 -5z" />
    <glyph glyph-name="g" unicode="g" horiz-adv-x="1073" 
d="M1008 1152q61 -17 52 -81q-4 -31 -24 -48t-49 -16q-23 1 -93 24q-48 17 -68.5 9t-65.5 -62q2 -1 16 -9t20 -13q172 -139 118 -366q-46 -195 -267 -257q-127 -36 -246 -5q-75 19 -153 -48q-28 -24 -24.5 -50.5t36.5 -42.5q43 -21 101 -29q50 -8 179 -24.5t199 -28.5
q83 -14 159 -50q81 -40 118 -113t19 -152.5t-87 -136.5q-74 -61 -179 -92q-264 -79 -534 2q-85 25 -163 85q-54 44 -53 102t55 103q12 10 27.5 20t26 16t32 17t28.5 15q11 6 24.5 11.5t32 12t31.5 12.5q-97 38 -108 44q-78 41 -88.5 111t54.5 129q21 19 48 37t62 39.5
t55 34.5q-31 28 -33 29q-105 74 -144 178.5t-6 224.5q30 107 123 180.5t211 82.5q91 6 142 -2q20 -3 43 -9t52 -15t47 -14q5 6 16 19.5t21 24t20 18.5q86 61 140 87q23 11 77 -4zM384 -56q-68 7 -131 -43.5t-76 -117.5q-12 -62 24 -116t108 -78q32 -11 68 -18.5t84.5 -16
t70.5 -12.5q0 2 1 5.5t1 4.5q10 1 28 0.5t33 0.5t27 5q14 4 49.5 13t54.5 15t46.5 16.5t47.5 23.5q74 47 68.5 119.5t-82.5 114.5q-42 23 -65 27q-279 49 -357 57zM680 477q56 209 0 412q-18 66 -61.5 101.5t-102.5 35.5q-60 0 -103 -35t-61 -101q-8 -30 -13.5 -64.5
t-11.5 -83.5t-10 -78q3 -16 12 -65.5t18 -88t22 -72.5q25 -66 93 -88.5t129 10.5q67 35 89 117z" />
    <glyph glyph-name="h" unicode="h" horiz-adv-x="1116" 
d="M744 87q16 29 16 104q1 222 1 665q0 18 -1 27q-5 65 -32.5 86t-89.5 3q-92 -26 -241 -88q-12 -5 -22.5 -22.5t-10.5 -31.5q-3 -338 0 -675q1 -55 22 -88.5t78 -40.5q-25 -6 -54 -8.5t-49 -2.5t-54 1t-50 1h-206q9 7 28.5 22t32 26.5t19.5 24.5q4 8 7 17t4 22.5t1 19.5v24
v20q1 355 1 1065v48t-5 33.5t-9 25t-20 19.5t-29.5 20t-45.5 23q139 14 190 29q74 21 131 65q5 -34 6.5 -68.5t0.5 -77.5t-1 -61v-195v-211q85 27 96 31l96 36t112 41q77 26 120 31q105 13 148 -26t44 -145q2 -467 0 -701q0 -31 2.5 -51.5t11 -43t27.5 -38t49 -25.5h-408
q9 8 29.5 21t34 24.5t20.5 24.5z" />
    <glyph glyph-name="i" unicode="i" horiz-adv-x="512" 
d="M60 18q23 8 40 19t27 27t16 29.5t8.5 36.5t3 36.5t0.5 40.5v567v9q0 31 -0.5 47.5t-5.5 41.5t-16 39.5t-32 28.5t-52 20q10 2 46.5 7.5t50 8t44.5 8.5t48.5 12.5t43.5 16t48 22t43 28.5v-101v-780q0 -32 2.5 -52.5t10.5 -44.5t27 -40.5t49 -26.5h-402zM264 1193
q-58 -1 -97 36t-38 94q1 54 38.5 90t92.5 36t92 -36t38 -90q1 -55 -34.5 -91.5t-91.5 -38.5z" />
    <glyph glyph-name="i" unicode="&#xef;" horiz-adv-x="512" 
d="M60 18q23 8 40 19t27 27t16 29.5t8.5 36.5t3 36.5t0.5 40.5v567v9q0 31 -0.5 47.5t-5.5 41.5t-16 39.5t-32 28.5t-52 20q10 2 46.5 7.5t50 8t44.5 8.5t48.5 12.5t43.5 16t48 22t43 28.5v-101v-780q0 -32 2.5 -52.5t10.5 -44.5t27 -40.5t49 -26.5h-402zM264 1193
q-58 -1 -97 36t-38 94q1 54 38.5 90t92.5 36t92 -36t38 -90q1 -55 -34.5 -91.5t-91.5 -38.5z" />
    <glyph glyph-name="i" unicode="&#xee;" horiz-adv-x="512" 
d="M60 18q23 8 40 19t27 27t16 29.5t8.5 36.5t3 36.5t0.5 40.5v567v9q0 31 -0.5 47.5t-5.5 41.5t-16 39.5t-32 28.5t-52 20q10 2 46.5 7.5t50 8t44.5 8.5t48.5 12.5t43.5 16t48 22t43 28.5v-101v-780q0 -32 2.5 -52.5t10.5 -44.5t27 -40.5t49 -26.5h-402zM264 1193
q-58 -1 -97 36t-38 94q1 54 38.5 90t92.5 36t92 -36t38 -90q1 -55 -34.5 -91.5t-91.5 -38.5z" />
    <glyph glyph-name="i" unicode="&#xed;" horiz-adv-x="512" 
d="M60 18q23 8 40 19t27 27t16 29.5t8.5 36.5t3 36.5t0.5 40.5v567v9q0 31 -0.5 47.5t-5.5 41.5t-16 39.5t-32 28.5t-52 20q10 2 46.5 7.5t50 8t44.5 8.5t48.5 12.5t43.5 16t48 22t43 28.5v-101v-780q0 -32 2.5 -52.5t10.5 -44.5t27 -40.5t49 -26.5h-402zM264 1193
q-58 -1 -97 36t-38 94q1 54 38.5 90t92.5 36t92 -36t38 -90q1 -55 -34.5 -91.5t-91.5 -38.5z" />
    <glyph glyph-name="i" unicode="&#xec;" horiz-adv-x="512" 
d="M60 18q23 8 40 19t27 27t16 29.5t8.5 36.5t3 36.5t0.5 40.5v567v9q0 31 -0.5 47.5t-5.5 41.5t-16 39.5t-32 28.5t-52 20q10 2 46.5 7.5t50 8t44.5 8.5t48.5 12.5t43.5 16t48 22t43 28.5v-101v-780q0 -32 2.5 -52.5t10.5 -44.5t27 -40.5t49 -26.5h-402zM264 1193
q-58 -1 -97 36t-38 94q1 54 38.5 90t92.5 36t92 -36t38 -90q1 -55 -34.5 -91.5t-91.5 -38.5z" />
    <glyph glyph-name="j" unicode="j" horiz-adv-x="495" 
d="M374 980v-843q2 -302 -209 -499q-95 -91 -210 -109q-47 -7 -105 5q-53 12 -50 73q2 32 19.5 50.5t46.5 18.5q53 0 110 -25q101 -46 139 -22t39 135q2 0 1 519l-1 519q0 27 -1 42.5t-6 38t-15 35.5t-30 24.5t-48 16.5q3 1 40 6.5t43.5 7t38 7.5t42 9.5t36 11t40.5 15
t35 18.5t38 24q1 -12 3 -29t3 -28t1 -21zM258 1193q-57 1 -92.5 37.5t-34.5 92.5t38.5 91.5t93.5 34.5t92 -38t35 -93q-1 -55 -38.5 -90.5t-93.5 -34.5z" />
    <glyph glyph-name="k" unicode="k" horiz-adv-x="1140" 
d="M1128 18h-431q23 13 76 42q-8 55 -93.5 227.5t-149.5 263.5q-16 -17 -67.5 -70t-78.5 -83q-16 -18 -16 -40q0 -176 4 -239q3 -40 18 -54t84 -45h-424q8 6 28 17.5t32.5 21t18.5 21.5q15 26 15 103q1 0 0 545v546q0 29 -0.5 43t-5 30.5t-9.5 22.5t-20.5 17t-30.5 17
t-47 19q19 3 68 9.5t73 11.5t62.5 15t70 27t61.5 42v-1073q3 -1 8.5 -4t8.5 -5q44 42 65 64q13 13 36 38t33 35q-5 14 -14.5 41t-13.5 41q103 18 133.5 35t109.5 101q44 48 62 75q33 51 22.5 80.5t-67.5 53.5q-3 1 -6.5 3.5t-9.5 7t-13 8.5h385q-16 -8 -56.5 -27t-65 -32
t-46.5 -27q-51 -34 -142 -119q-15 -14 -121 -123q10 -12 27.5 -29.5t29 -30.5t18.5 -26q15 -28 217 -427q42 -82 64.5 -106t97.5 -64z" />
    <glyph glyph-name="l" unicode="l" horiz-adv-x="497" 
d="M44 18q58 16 77.5 54t19.5 103q-1 161 -1 343t0.5 404.5t0.5 343.5q0 78 -17 101t-97 56q18 3 67.5 9.5t72 11.5t60.5 15t68 25.5t59 38.5q1 -16 2 -37.5t2 -37.5t1 -29v-1171v-80q0 -62 19.5 -100t77.5 -50h-412z" />
    <glyph glyph-name="m" unicode="m" horiz-adv-x="1718" 
d="M1261 19q8 8 27 23t31.5 27.5t18.5 26.5q5 12 7.5 27.5t3 26t0 32t-0.5 27.5v630q0 51 -1 62q-4 47 -25 64t-68 12q-20 -2 -35 -7q-47 -18 -137.5 -53.5t-106.5 -41.5v-127q0 -378 1 -567q0 -77 14.5 -101t84.5 -61h-411q7 6 27 21.5t32 27.5t19 26q13 28 13 113
q1 0 1 315l-1 315v35q-3 77 -32 98t-103 -3q-24 -8 -233 -90q-1 -7 -3.5 -33.5t-2.5 -39.5v-612v-27q1 -39 6.5 -64t26.5 -49t60 -32h-408q49 27 65.5 43t22.5 40.5t6 83.5v190v224v190v50.5t-5 35.5t-9 26t-20 20t-29.5 20t-45.5 23q82 8 119.5 13.5t98 25.5t105.5 54
q6 -64 14 -150q57 23 120 46q165 62 209 76q50 15 113 17q63 1 88.5 -17t48.5 -79q1 -3 6.5 -16.5t9.5 -25.5q207 80 230 87q133 44 206 50q74 7 107 -23.5t41 -107.5q4 -40 4 -151q0 -496 1 -595q0 -33 2 -50t6 -31.5t17.5 -25t28 -19.5t47.5 -25h-412z" />
    <glyph glyph-name="n" unicode="n" horiz-adv-x="1132" 
d="M672 18q8 7 28 22t33 27.5t19 26.5q5 11 7.5 27t3 26t0 32t-0.5 28q1 0 0 315v314v36q-2 77 -30.5 98t-102.5 -2q-40 -13 -113.5 -41t-103.5 -38q-42 -14 -42 -68v-332t1 -332q0 -113 98 -131q-25 -6 -53.5 -8.5t-49 -2.5t-54 1t-49.5 1h-208q10 7 30 20t32 23.5t18 22.5
q16 29 16 103q2 408 1 611q0 81 -13.5 104.5t-79.5 55.5q41 11 145 38.5t162 42.5q1 -15 2.5 -34.5t4 -47.5t3.5 -46q62 19 79 25q30 11 106.5 40t118.5 43q73 24 120 29q101 11 143 -27t43 -141q1 -117 1 -700q0 -78 13.5 -100.5t83.5 -60.5h-412z" />
    <glyph glyph-name="n" unicode="&#xf1;" horiz-adv-x="1132" 
d="M672 18q8 7 28 22t33 27.5t19 26.5q5 11 7.5 27t3 26t0 32t-0.5 28q1 0 0 315v314v36q-2 77 -30.5 98t-102.5 -2q-40 -13 -113.5 -41t-103.5 -38q-42 -14 -42 -68v-332t1 -332q0 -113 98 -131q-25 -6 -53.5 -8.5t-49 -2.5t-54 1t-49.5 1h-208q10 7 30 20t32 23.5t18 22.5
q16 29 16 103q2 408 1 611q0 81 -13.5 104.5t-79.5 55.5q41 11 145 38.5t162 42.5q1 -15 2.5 -34.5t4 -47.5t3.5 -46q62 19 79 25q30 11 106.5 40t118.5 43q73 24 120 29q101 11 143 -27t43 -141q1 -117 1 -700q0 -78 13.5 -100.5t83.5 -60.5h-412z" />
    <glyph glyph-name="o" unicode="o" horiz-adv-x="1101" 
d="M974 771q59 -117 54 -240q4 -197 -108 -347q-62 -81 -146 -129.5t-173 -56.5t-175 15t-161 85.5t-123 153.5q-141 272 -4 536q68 133 178 200t259 60q268 -13 399 -277zM745 180q10 50 18.5 104.5t18 129.5t13.5 106q-1 0 -4 1t-5 1q-1 18 -2 60.5t-3 73.5t-6 60
q-21 126 -56 213q-41 100 -174 97q-122 -3 -163 -102q-41 -101 -47 -169q-19 -215 -12 -345q8 -140 51 -268q26 -76 90.5 -105.5t146.5 -7.5q110 29 134 151z" />
    <glyph glyph-name="o" unicode="&#xf8;" horiz-adv-x="1101" 
d="M974 771q59 -117 54 -240q4 -197 -108 -347q-62 -81 -146 -129.5t-173 -56.5t-175 15t-161 85.5t-123 153.5q-141 272 -4 536q68 133 178 200t259 60q268 -13 399 -277zM745 180q10 50 18.5 104.5t18 129.5t13.5 106q-1 0 -4 1t-5 1q-1 18 -2 60.5t-3 73.5t-6 60
q-21 126 -56 213q-41 100 -174 97q-122 -3 -163 -102q-41 -101 -47 -169q-19 -215 -12 -345q8 -140 51 -268q26 -76 90.5 -105.5t146.5 -7.5q110 29 134 151z" />
    <glyph glyph-name="o" unicode="&#xf6;" horiz-adv-x="1101" 
d="M974 771q59 -117 54 -240q4 -197 -108 -347q-62 -81 -146 -129.5t-173 -56.5t-175 15t-161 85.5t-123 153.5q-141 272 -4 536q68 133 178 200t259 60q268 -13 399 -277zM745 180q10 50 18.5 104.5t18 129.5t13.5 106q-1 0 -4 1t-5 1q-1 18 -2 60.5t-3 73.5t-6 60
q-21 126 -56 213q-41 100 -174 97q-122 -3 -163 -102q-41 -101 -47 -169q-19 -215 -12 -345q8 -140 51 -268q26 -76 90.5 -105.5t146.5 -7.5q110 29 134 151z" />
    <glyph glyph-name="o" unicode="&#xf5;" horiz-adv-x="1101" 
d="M974 771q59 -117 54 -240q4 -197 -108 -347q-62 -81 -146 -129.5t-173 -56.5t-175 15t-161 85.5t-123 153.5q-141 272 -4 536q68 133 178 200t259 60q268 -13 399 -277zM745 180q10 50 18.5 104.5t18 129.5t13.5 106q-1 0 -4 1t-5 1q-1 18 -2 60.5t-3 73.5t-6 60
q-21 126 -56 213q-41 100 -174 97q-122 -3 -163 -102q-41 -101 -47 -169q-19 -215 -12 -345q8 -140 51 -268q26 -76 90.5 -105.5t146.5 -7.5q110 29 134 151z" />
    <glyph glyph-name="o" unicode="&#xf4;" horiz-adv-x="1101" 
d="M974 771q59 -117 54 -240q4 -197 -108 -347q-62 -81 -146 -129.5t-173 -56.5t-175 15t-161 85.5t-123 153.5q-141 272 -4 536q68 133 178 200t259 60q268 -13 399 -277zM745 180q10 50 18.5 104.5t18 129.5t13.5 106q-1 0 -4 1t-5 1q-1 18 -2 60.5t-3 73.5t-6 60
q-21 126 -56 213q-41 100 -174 97q-122 -3 -163 -102q-41 -101 -47 -169q-19 -215 -12 -345q8 -140 51 -268q26 -76 90.5 -105.5t146.5 -7.5q110 29 134 151z" />
    <glyph glyph-name="o" unicode="&#xf3;" horiz-adv-x="1101" 
d="M974 771q59 -117 54 -240q4 -197 -108 -347q-62 -81 -146 -129.5t-173 -56.5t-175 15t-161 85.5t-123 153.5q-141 272 -4 536q68 133 178 200t259 60q268 -13 399 -277zM745 180q10 50 18.5 104.5t18 129.5t13.5 106q-1 0 -4 1t-5 1q-1 18 -2 60.5t-3 73.5t-6 60
q-21 126 -56 213q-41 100 -174 97q-122 -3 -163 -102q-41 -101 -47 -169q-19 -215 -12 -345q8 -140 51 -268q26 -76 90.5 -105.5t146.5 -7.5q110 29 134 151z" />
    <glyph glyph-name="o" unicode="&#xf2;" horiz-adv-x="1101" 
d="M974 771q59 -117 54 -240q4 -197 -108 -347q-62 -81 -146 -129.5t-173 -56.5t-175 15t-161 85.5t-123 153.5q-141 272 -4 536q68 133 178 200t259 60q268 -13 399 -277zM745 180q10 50 18.5 104.5t18 129.5t13.5 106q-1 0 -4 1t-5 1q-1 18 -2 60.5t-3 73.5t-6 60
q-21 126 -56 213q-41 100 -174 97q-122 -3 -163 -102q-41 -101 -47 -169q-19 -215 -12 -345q8 -140 51 -268q26 -76 90.5 -105.5t146.5 -7.5q110 29 134 151z" />
    <glyph glyph-name="p" unicode="p" horiz-adv-x="1150" 
d="M1025 784q88 -258 2 -514q-41 -126 -130.5 -198.5t-200 -76.5t-232.5 58q-9 5 -35.5 19.5t-47.5 26.5q0 -374 2 -429q1 -48 21.5 -68.5t70.5 -31.5q9 -2 29 -4t31 -4q-41 -17 -216 -20.5t-256 8.5q9 7 28.5 19.5t32.5 23t19 23.5q14 28 14 113q1 0 1 541l-1 541
q0 76 -15.5 97t-94.5 52q24 6 104 17t127.5 29t88.5 56q14 -86 18 -112q69 38 80 44q85 47 172.5 55.5t162 -19t134 -91t91.5 -155.5zM799 214q46 308 0 617q-7 48 -26 94q-21 51 -55 72t-90 19q-86 -3 -195 -76q-61 -41 -58 -111q2 -50 2 -301v-301q0 -1 -0.5 -4t-0.5 -4
q-11 -71 56 -111q65 -40 68 -41q92 -43 154.5 -37t97 51.5t47.5 132.5z" />
    <glyph glyph-name="q" unicode="q" horiz-adv-x="1114" 
d="M992 -305q-2 -58 20 -91.5t82 -39.5q-1 -3 -3.5 -9t-3.5 -9h-463q30 20 31 20q76 16 95.5 37.5t20.5 94.5v401q-70 -38 -96 -52q-81 -43 -164 -50.5t-154.5 17.5t-130 83.5t-92.5 142.5q-107 272 -5 555q33 90 94 151.5t136.5 87t163.5 15t173 -58.5q9 -5 34 -22.5
t42 -25.5t29 -4q26 8 50.5 21.5t59 38t47.5 32.5q3 2 6.5 5t10 9t13.5 11q4 -80 4 -101v-1179v-40q1 -40 0 -40zM774 797q10 119 -97 169q-3 1 -20.5 10.5t-26.5 13.5q-71 27 -121 28t-81 -22.5t-48 -59t-28 -90.5q-1 -3 -1 -9q-46 -313 0 -625q7 -43 27 -94q38 -92 139 -87
q98 4 211 83q46 32 45 90q-1 51 -1 310q0 27 -1.5 88t-1 107t4.5 88z" />
    <glyph glyph-name="r" unicode="r" horiz-adv-x="792" 
d="M686 1048q37 -4 58 -25.5t22 -54.5q1 -36 -22 -59t-62 -25q-37 -3 -87 10q-84 22 -152 -24t-70 -131q-6 -220 0 -586q1 -60 28 -85t111 -47h-454q7 5 26.5 18t32 24t20.5 24q16 28 16 103q1 201 1 603q0 24 -1 36q-3 28 -7 46t-15 37.5t-31.5 30t-52.5 11.5
q22 6 101 20.5t128 34t93 58.5v-230l51 51q10 10 33 36.5t40.5 45t35.5 34.5q63 57 157 44z" />
    <glyph glyph-name="s" unicode="s" horiz-adv-x="935" 
d="M685 583q213 -123 162 -339q-24 -105 -107 -173.5t-194 -70.5q-61 -2 -245 28q-60 10 -82 3q-32 -10 -54 -45q-26 81 -27 87q-48 185 -60 296q28 -39 30 -43q82 -153 172 -223q146 -114 298 -71q114 32 134 138q20 108 -74 168q-52 33 -173 89q-16 7 -90.5 37.5
t-111.5 52.5q-89 51 -127 135.5t-18 179.5q20 93 90 152.5t169 61.5q75 2 219 -22q25 -3 45.5 -4t41 14t37.5 47q11 -40 46 -168.5t52 -193.5q-3 -1 -7.5 -4t-6.5 -4q-29 41 -35 52q-81 143 -169 203q-130 89 -251 47q-55 -19 -82.5 -60.5t-19.5 -90t51 -87.5
q39 -35 112 -70q35 -17 102.5 -45t84.5 -35q60 -26 88 -42z" />
    <glyph glyph-name="t" unicode="t" horiz-adv-x="630" 
d="M518 99q12 9 23.5 22t26.5 30.5t25 28.5q-15 -58 -53 -102.5t-86 -65.5t-102.5 -19t-100.5 32q-82 53 -85 176q-1 40 -1 239v471v92q-19 2 -62 5.5t-65 5.5q0 2 -0.5 6.5t-0.5 6.5q62 5 122 10q2 27 5.5 77.5t5.5 72.5q36 7 56.5 12t49 17.5t44 28.5t28 44t14.5 65
q4 -2 11.5 -7.5t11.5 -8.5v-306h198q0 -4 -0.5 -11t-0.5 -10h-187q-8 -56 -8 -67v-736q0 -42 4 -62q11 -51 48.5 -65t78.5 18z" />
    <glyph glyph-name="u" unicode="u" horiz-adv-x="1128" 
d="M980 186q0 -40 1.5 -57.5t4.5 -34.5t17 -28t27.5 -20t47.5 -27h-316q-2 22 -4.5 61t-3.5 54q-12 -4 -38.5 -12t-39.5 -13q-144 -54 -216 -80q-60 -22 -103 -28q-108 -17 -154.5 21.5t-48.5 146.5q-1 46 -1 558v80v45.5t-5.5 31.5t-9 23t-20 17.5t-29.5 18.5t-46 21
q11 1 56.5 7t60.5 8.5t52 10t57.5 16t49.5 23t53 33.5q6 -80 6 -95v-390q-1 -390 0 -390q0 -89 30 -111t116 6q44 15 128 48t98 38q8 59 8 62q2 288 0 576q0 43 -2 62t-15 37t-30.5 28t-60.5 29q138 22 168 30t157 56q0 -8 2 -40.5t2 -50.5q0 -514 1 -771z" />
    <glyph glyph-name="u" unicode="&#xfc;" horiz-adv-x="1128" 
d="M980 186q0 -40 1.5 -57.5t4.5 -34.5t17 -28t27.5 -20t47.5 -27h-316q-2 22 -4.5 61t-3.5 54q-12 -4 -38.5 -12t-39.5 -13q-144 -54 -216 -80q-60 -22 -103 -28q-108 -17 -154.5 21.5t-48.5 146.5q-1 46 -1 558v80v45.5t-5.5 31.5t-9 23t-20 17.5t-29.5 18.5t-46 21
q11 1 56.5 7t60.5 8.5t52 10t57.5 16t49.5 23t53 33.5q6 -80 6 -95v-390q-1 -390 0 -390q0 -89 30 -111t116 6q44 15 128 48t98 38q8 59 8 62q2 288 0 576q0 43 -2 62t-15 37t-30.5 28t-60.5 29q138 22 168 30t157 56q0 -8 2 -40.5t2 -50.5q0 -514 1 -771z" />
    <glyph glyph-name="u" unicode="&#xfb;" horiz-adv-x="1128" 
d="M980 186q0 -40 1.5 -57.5t4.5 -34.5t17 -28t27.5 -20t47.5 -27h-316q-2 22 -4.5 61t-3.5 54q-12 -4 -38.5 -12t-39.5 -13q-144 -54 -216 -80q-60 -22 -103 -28q-108 -17 -154.5 21.5t-48.5 146.5q-1 46 -1 558v80v45.5t-5.5 31.5t-9 23t-20 17.5t-29.5 18.5t-46 21
q11 1 56.5 7t60.5 8.5t52 10t57.5 16t49.5 23t53 33.5q6 -80 6 -95v-390q-1 -390 0 -390q0 -89 30 -111t116 6q44 15 128 48t98 38q8 59 8 62q2 288 0 576q0 43 -2 62t-15 37t-30.5 28t-60.5 29q138 22 168 30t157 56q0 -8 2 -40.5t2 -50.5q0 -514 1 -771z" />
    <glyph glyph-name="u" unicode="&#xfa;" horiz-adv-x="1128" 
d="M980 186q0 -40 1.5 -57.5t4.5 -34.5t17 -28t27.5 -20t47.5 -27h-316q-2 22 -4.5 61t-3.5 54q-12 -4 -38.5 -12t-39.5 -13q-144 -54 -216 -80q-60 -22 -103 -28q-108 -17 -154.5 21.5t-48.5 146.5q-1 46 -1 558v80v45.5t-5.5 31.5t-9 23t-20 17.5t-29.5 18.5t-46 21
q11 1 56.5 7t60.5 8.5t52 10t57.5 16t49.5 23t53 33.5q6 -80 6 -95v-390q-1 -390 0 -390q0 -89 30 -111t116 6q44 15 128 48t98 38q8 59 8 62q2 288 0 576q0 43 -2 62t-15 37t-30.5 28t-60.5 29q138 22 168 30t157 56q0 -8 2 -40.5t2 -50.5q0 -514 1 -771z" />
    <glyph glyph-name="u" unicode="&#xf9;" horiz-adv-x="1128" 
d="M980 186q0 -40 1.5 -57.5t4.5 -34.5t17 -28t27.5 -20t47.5 -27h-316q-2 22 -4.5 61t-3.5 54q-12 -4 -38.5 -12t-39.5 -13q-144 -54 -216 -80q-60 -22 -103 -28q-108 -17 -154.5 21.5t-48.5 146.5q-1 46 -1 558v80v45.5t-5.5 31.5t-9 23t-20 17.5t-29.5 18.5t-46 21
q11 1 56.5 7t60.5 8.5t52 10t57.5 16t49.5 23t53 33.5q6 -80 6 -95v-390q-1 -390 0 -390q0 -89 30 -111t116 6q44 15 128 48t98 38q8 59 8 62q2 288 0 576q0 43 -2 62t-15 37t-30.5 28t-60.5 29q138 22 168 30t157 56q0 -8 2 -40.5t2 -50.5q0 -514 1 -771z" />
    <glyph glyph-name="v" unicode="v" horiz-adv-x="1042" 
d="M691 1027h346q-83 -29 -132.5 -91t-82.5 -154q-26 -71 -90.5 -253t-101.5 -280q-18 -51 2 -102l43 -129h-227q-17 40 -29 71q-159 430 -290 790q-15 39 -25.5 61t-35 48t-58.5 38h410q-37 -22 -49.5 -30.5t-19.5 -26t-2.5 -33t18.5 -55.5q69 -194 223 -621l13.5 22.5
t12 20.5t7.5 16q28 79 85 237.5t86 237.5q1 3 2.5 8.5t2.5 8.5q26 90 4 134t-112 82z" />
    <glyph glyph-name="w" unicode="w" horiz-adv-x="1636" 
d="M1262 1027h368q-36 -12 -66 -30.5t-53.5 -45.5t-39.5 -49.5t-32.5 -60.5t-25 -60.5t-23.5 -66.5q-123 -357 -150 -427q-37 -94 2 -177q5 -11 9.5 -25.5t9.5 -33.5t9 -32h-229q-44 123 -126 356t-118 335q-5 -12 -16.5 -36t-15.5 -35q-9 -26 -52.5 -155t-69.5 -197
q-36 -93 3 -179q7 -15 16 -48t12 -41h-227q-24 57 -34 84q-225 610 -284 773q-11 30 -19 47t-22 39t-34.5 36.5t-47.5 22.5q24 5 53 7.5t48.5 2.5t54 -0.5t49.5 -0.5h206q-9 -8 -26 -20.5t-27 -22.5t-14 -21q-7 -22 16 -85q134 -372 202 -558q3 -8 7.5 -17.5t11.5 -24
t13 -27.5q9 26 23.5 67.5t21.5 60.5q12 35 34 99.5t40 117.5t34 101q29 87 -13 183t-125 134q40 14 191.5 16t220.5 -10q-63 -32 -70.5 -50.5t16.5 -89.5q40 -117 185 -536q9 -26 33 -86q5 11 12.5 23.5t11.5 21.5t7 16q53 150 157 452q5 13 11.5 37.5t8.5 30.5
q18 62 -8 110t-88 57q-1 0 -41 18z" />
    <glyph glyph-name="x" unicode="x" horiz-adv-x="1030" 
d="M595 21q6 5 21.5 15t25 19t11.5 18q6 28 -27 80q-20 32 -172 268q-39 -31 -104.5 -124t-78.5 -134q-17 -54 1.5 -82.5t93.5 -62.5h-348q56 21 104 54.5t87.5 80t67 86t66 98.5t62.5 92q23 31 -4 73q-29 45 -83.5 131.5t-99 156t-85.5 130.5q-12 18 -29 35t-43 39.5
t-40 35.5q31 3 63.5 3.5t78 -1.5t62.5 -2h64h76.5h65.5q-6 -8 -20.5 -22t-22.5 -25t-9 -21q-2 -20 34 -79q22 -35 47.5 -75.5t59 -91.5t54.5 -85q114 172 134 206q44 76 28 116t-104 74h350q-45 -17 -86 -43.5t-70 -54t-60.5 -68t-51.5 -70.5t-50.5 -78t-48.5 -75
q-23 -33 3 -74q246 -384 283 -440q12 -18 30 -34.5t42 -36.5t37 -32h-415z" />
    <glyph glyph-name="y" unicode="y" horiz-adv-x="1036" 
d="M672 1027h360q-49 -17 -86.5 -45.5t-64 -68.5t-43.5 -77.5t-35 -90.5q-98 -283 -168 -467q-34 -87 2 -162q6 -13 11.5 -28t11.5 -35.5t11 -33.5q-27 -2 -71.5 -5t-64.5 -4q-57 -131 -67 -152q-79 -158 -119 -217q-83 -122 -246 -116q-32 2 -60 12q-58 20 -51 74
q4 30 23 47.5t49 17.5q40 0 103 -23q80 -32 117.5 -21t78.5 83q22 40 44.5 85t53 111t46.5 99q-10 0 -19 1t-16 2t-13 4.5t-10 5.5t-8.5 8.5t-6.5 8.5t-5.5 10t-4.5 10t-4 11t-4 11q-95 261 -287 783q-1 4 -7.5 21.5t-8.5 22.5t-8.5 20.5t-10.5 21.5t-11.5 18.5t-14.5 18.5
t-16.5 15t-20.5 14.5t-24 10.5h406q-8 -7 -25 -18.5t-27.5 -21.5t-13.5 -20q-7 -28 17 -93q83 -237 200 -560q3 -9 12 -27.5t14 -29.5q28 59 36 81q30 82 83.5 233.5t74.5 209.5q0 2 1 4.5t2 3.5q35 101 12.5 148t-127.5 89z" />
    <glyph glyph-name="y" unicode="&#xff;" horiz-adv-x="1036" 
d="M672 1027h360q-49 -17 -86.5 -45.5t-64 -68.5t-43.5 -77.5t-35 -90.5q-98 -283 -168 -467q-34 -87 2 -162q6 -13 11.5 -28t11.5 -35.5t11 -33.5q-27 -2 -71.5 -5t-64.5 -4q-57 -131 -67 -152q-79 -158 -119 -217q-83 -122 -246 -116q-32 2 -60 12q-58 20 -51 74
q4 30 23 47.5t49 17.5q40 0 103 -23q80 -32 117.5 -21t78.5 83q22 40 44.5 85t53 111t46.5 99q-10 0 -19 1t-16 2t-13 4.5t-10 5.5t-8.5 8.5t-6.5 8.5t-5.5 10t-4.5 10t-4 11t-4 11q-95 261 -287 783q-1 4 -7.5 21.5t-8.5 22.5t-8.5 20.5t-10.5 21.5t-11.5 18.5t-14.5 18.5
t-16.5 15t-20.5 14.5t-24 10.5h406q-8 -7 -25 -18.5t-27.5 -21.5t-13.5 -20q-7 -28 17 -93q83 -237 200 -560q3 -9 12 -27.5t14 -29.5q28 59 36 81q30 82 83.5 233.5t74.5 209.5q0 2 1 4.5t2 3.5q35 101 12.5 148t-127.5 89z" />
    <glyph glyph-name="y" unicode="&#xfd;" horiz-adv-x="1036" 
d="M672 1027h360q-49 -17 -86.5 -45.5t-64 -68.5t-43.5 -77.5t-35 -90.5q-98 -283 -168 -467q-34 -87 2 -162q6 -13 11.5 -28t11.5 -35.5t11 -33.5q-27 -2 -71.5 -5t-64.5 -4q-57 -131 -67 -152q-79 -158 -119 -217q-83 -122 -246 -116q-32 2 -60 12q-58 20 -51 74
q4 30 23 47.5t49 17.5q40 0 103 -23q80 -32 117.5 -21t78.5 83q22 40 44.5 85t53 111t46.5 99q-10 0 -19 1t-16 2t-13 4.5t-10 5.5t-8.5 8.5t-6.5 8.5t-5.5 10t-4.5 10t-4 11t-4 11q-95 261 -287 783q-1 4 -7.5 21.5t-8.5 22.5t-8.5 20.5t-10.5 21.5t-11.5 18.5t-14.5 18.5
t-16.5 15t-20.5 14.5t-24 10.5h406q-8 -7 -25 -18.5t-27.5 -21.5t-13.5 -20q-7 -28 17 -93q83 -237 200 -560q3 -9 12 -27.5t14 -29.5q28 59 36 81q30 82 83.5 233.5t74.5 209.5q0 2 1 4.5t2 3.5q35 101 12.5 148t-127.5 89z" />
    <glyph glyph-name="z" unicode="z" horiz-adv-x="968" 
d="M849 281q10 13 29.5 40.5t30.5 42.5q1 -48 -44 -183t-88 -216q-6 9 -12 16t-14.5 12t-14 8.5t-16.5 6t-15 4t-17.5 2t-16.5 0.5h-18h-17h-479h-104q15 36 35 70.5t45 74t37 60.5q14 24 114 190q20 33 59.5 98.5t59.5 98.5q19 31 57.5 94.5t57.5 95.5q33 55 123 207
q-74 7 -103 9t-81.5 -0.5t-93.5 -14.5q-49 -15 -98 -71q-28 -32 -56 -67.5t-66 -84t-55 -70.5q-5 42 39.5 175t85.5 201q22 -29 52.5 -38t74.5 -9h461h106q-289 -477 -599 -991q167 -12 234 -6q35 4 66 11q58 13 110 67q22 23 43.5 50t48.5 64t39 53z" />
    <glyph glyph-name="braceleft" unicode="{" horiz-adv-x="563" 
d="M600 -328q1 -1 4 -18q-110 20 -185 49t-133 89q-66 69 -63 179q2 47 7 135t7 122q4 112 2 168q-3 77 -30.5 112t-103.5 58q-4 1 -14.5 6.5t-18.5 9.5q7 4 19.5 11t18.5 9q71 23 99 58t29 108q1 40 -0.5 86t-4.5 102t-4 86q-6 155 -5 169q5 141 120 214q112 70 261 75
q-6 -3 -18 -8t-21.5 -9t-17.5 -7q-87 -32 -118 -77t-27 -135q2 -64 10 -181.5t10 -154.5q3 -61 -1 -115q-10 -158 -163 -209q-16 -6 -24 -10q-1 0 -11 -12q35 -17 54 -24q128 -53 141 -188q7 -70 5 -115q-2 -33 -10 -155t-10 -189q-1 -74 15 -117t45.5 -64t86.5 -39
q17 -5 49 -19z" />
    <glyph glyph-name="braceright" unicode="}" horiz-adv-x="565" 
d="M449 602q12 -2 47 -13q-10 -4 -21.5 -10.5t-18.5 -10t-14 -4.5q-111 -26 -116 -138q-1 -37 4 -274q0 -25 4 -75.5t4 -75.5q3 -114 -41.5 -182.5t-150.5 -112.5q-115 -47 -187 -35q11 4 31 11.5t31 11.5q79 30 106.5 69t27.5 124q0 51 -4.5 145t-5.5 112q-2 59 -4 177
q-3 189 164 244q2 1 28 15q-3 12 -4 12q-204 57 -189 299q3 47 13 292q2 38 2 116q1 131 -125 172q-46 15 -67 34q56 -8 92 -16t82 -23t83 -41t67 -63q55 -67 51 -193q-2 -48 -7.5 -138t-7.5 -128q-3 -80 1 -150q6 -126 125 -151z" />
    <glyph glyph-name="asciitilde" unicode="~" horiz-adv-x="987" 
d="M931 739l19 -19q-70 -110 -193 -123q-96 -11 -232 44q-135 54 -174 67q-161 53 -272 -74q-15 -17 -42 -17q15 36 19 40q107 120 245 90q49 -10 186 -55q22 -7 75 -27.5t83 -28.5q154 -44 257 72q18 20 29 31z" />
    <glyph glyph-name="nonbreakingspace" unicode="&#xa0;" horiz-adv-x="729" 
 />
    <glyph glyph-name="sterling" unicode="&#xa3;" horiz-adv-x="1261" 
d="M1068 532q80 -91 94.5 -222t-42.5 -218q-43 -68 -118 -91.5t-166 4.5q-28 9 -54 20.5t-70 34.5t-52 27q-18 9 -52 31.5t-42 27.5q-8 -7 -30 -29t-35 -32q-138 -115 -286 -91q-62 10 -99 46t-43 90q-7 56 19.5 99.5t83.5 68.5q88 40 244 13q10 -2 103 -23q6 52 0 101
t-26.5 102.5t-36 86.5t-47.5 93h-231q34 30 107 30t102 11q-6 12 -17.5 37t-17.5 38q-75 158 -80 270q-9 188 150 305q125 91 291.5 88.5t289.5 -97.5q85 -65 103 -140q11 -45 -3.5 -80t-48.5 -47q-39 -14 -71.5 5.5t-49.5 67.5q-5 14 -20.5 65t-27.5 77q-30 66 -78 94.5
t-120 24.5q-127 -6 -161 -117q-24 -80 -17 -156q15 -141 109 -415q6 -21 10 -31h174q23 0 49 -0.5t57.5 -1.5t48.5 -1q0 -4 0.5 -12t0.5 -12q-47 -2 -149 -4q-53 -1 -166 -1q2 -21 7.5 -66.5t8 -77.5t1.5 -62t-5 -62t-11 -77.5t-10 -64.5q156 -65 306 -78q84 -7 132 40.5
t40 131.5q-2 18 -6.5 37.5t-13 45.5t-11.5 37q-2 7 -7.5 25.5t-9.5 33.5zM208 27q87 -25 168.5 20t124.5 142q-6 3 -45.5 25t-60.5 33q-89 44 -171 32q-51 -7 -84.5 -40.5t-37.5 -79.5q-4 -47 24 -81.5t82 -50.5z" />
    <glyph glyph-name="copyright" unicode="&#xa9;" horiz-adv-x="1638" 
d="M820 1448q208 -1 373 -95.5t256.5 -262t90.5 -377.5q-1 -209 -94 -373.5t-257.5 -256t-372.5 -90.5q-208 -3 -375 94t-258.5 268t-86.5 379q8 312 211 513.5t513 200.5zM829 22q200 2 355 92t239.5 248t84.5 359q0 278 -160.5 465t-434.5 224q-163 22 -313 -23
t-266.5 -155.5t-169.5 -271.5q-43 -131 -33 -306q7 -123 54.5 -235t132 -202.5t217 -143.5t294.5 -51zM1132 486q29 34 53 43l-12 -39q-121 -216 -352 -216q-115 0 -203.5 54t-142.5 156q-120 227 -4 460q60 120 178.5 173.5t263.5 26.5q1 0 14.5 -2.5t15.5 -3t14 -2t15 -1
t13.5 1t15 2.5t13.5 5.5t14.5 8.5t13 11.5t13.5 15.5q72 -196 106 -291q1 -3 -2 -43q-58 76 -61 79q-13 13 -46 50.5t-58 61.5t-52 43q-62 44 -128 46t-118 -37.5t-76 -110.5q-91 -274 79 -486q85 -106 213.5 -107t219.5 101z" />
    <glyph glyph-name="softhyphen" unicode="&#xad;" 
 />
    <glyph glyph-name="registered" unicode="&#xae;" horiz-adv-x="1044" 
d="M517 1520q193 2 317.5 -122t124.5 -317q0 -192 -121 -315.5t-311 -124.5q-194 -1 -318.5 122.5t-124.5 316.5q0 190 122.5 314.5t310.5 125.5zM520 672q177 -1 293.5 114t117.5 291q1 177 -114.5 293.5t-291.5 117.5q-179 1 -293.5 -112.5t-115.5 -292.5t113 -294.5
t291 -116.5zM658 1019q13 -18 31.5 -61.5t43.5 -75.5t67 -52h-168q-71 147 -88 184q-14 31 -32.5 39.5t-55.5 -5.5q0 -17 -3.5 -52.5t-4 -58t10.5 -52.5t37 -54h-187q25 27 36 61t10.5 59t-4.5 67t-4 60q0 19 4 60.5t4 67t-13.5 60.5t-44.5 63q268 0 299 -1q110 -4 140 -89
q20 -55 -4 -103t-81 -67q-6 -2 -22.5 -6.5t-28.5 -9t-24 -12.5q37 -10 82 -22zM456 1081q17 1 49 -1t50 -2t38 11.5t30 36.5q12 31 11 73t-16 70q-9 17 -22.5 27t-32 12.5t-32.5 2.5t-38.5 -2.5t-36.5 -3.5v-224z" />
    <glyph glyph-name="trademark" unicode="&#x2122;" horiz-adv-x="1515" 
d="M1395 940q0 -27 2 -42.5t14 -34.5t35 -29h-241q34 20 46 45.5t11 62.5q-1 38 -1 352q-4 -3 -10.5 -5.5t-9.5 -4.5t-4 -4q-102 -239 -129 -320q-5 -26 -4.5 -37.5t6 -42t6.5 -44.5h-124q-148 352 -190 450q-2 0 -6.5 -0.5t-6.5 -0.5q-8 -37 -8 -42q-1 -40 0 -119.5
t0 -119.5q-1 -65 14 -106t67 -64h-181q46 23 61.5 61t15.5 95v275q0 32 -1 47.5t-6.5 40.5t-20 42.5t-38.5 31.5h189q3 -8 194 -460q133 320 190 460h191q-15 -8 -26 -17.5t-17.5 -22t-11 -20.5t-6 -25t-2 -23.5t0 -26.5t0.5 -24q0 -219 1 -328zM112 1444
q58 -15 234.5 -13.5t236.5 17.5q10 -37 32 -111.5t32 -111.5l-21 -6q-14 22 -42.5 66t-43.5 66q-49 72 -132 43v-144v-293q0 -53 6.5 -68t43.5 -54q-22 -5 -26 -5h-214q40 25 52 55.5t11 75.5q0 1 -3 416l-8 24q-47 7 -80 -11.5t-48.5 -46.5t-37.5 -64.5t-43 -53.5
q-10 76 51 219z" />
    </font>
</defs>
</svg>
