<svg width="30" height="23" viewBox="0 0 30 23" fill="none" xmlns="http://www.w3.org/2000/svg">
<path d="M17.3438 0.593754C15.5688 0.881252 13.9563 1.54375 12.5 2.58125C11.8 3.08125 10.5125 4.38125 9.98125 5.125C9.475 5.8375 8.76875 7.24375 8.5 8.0625C8.275 8.75625 8.08125 9.6625 8.03125 10.2813C7.9625 11.0688 8.05 11 7.16875 11H6.40625L6.075 10.375C5.89375 10.0313 5.69375 9.725 5.625 9.6875C5.55 9.65 4.54375 9.625 2.90625 9.625H0.30625L0.15625 9.78125C0.06875 9.8625 0 10.0063 0 10.0938C0 10.1813 0.15 10.5313 0.3375 10.875L0.675 11.5L0.3375 12.125C0.15 12.4688 0 12.8188 0 12.9063C0 12.9938 0.06875 13.1375 0.15625 13.2188L0.30625 13.375H2.90625C4.54375 13.375 5.55 13.35 5.625 13.3125C5.69375 13.275 5.89375 12.9688 6.075 12.625L6.40625 12H7.16875C8.05 12 7.9625 11.9313 8.03125 12.7188C8.08125 13.3375 8.275 14.2438 8.5 14.9375C8.775 15.7625 9.48125 17.1688 9.98125 17.875C10.5125 18.6188 11.8 19.9188 12.5 20.4188C14.4563 21.8188 16.5875 22.5 18.9938 22.5C22.025 22.5 24.75 21.35 26.85 19.1813C27.7813 18.2188 28.2625 17.5438 28.8375 16.3938C30.7563 12.575 30.2625 8 27.5563 4.59375C27.1 4.0125 25.9688 2.95625 25.3125 2.4875C24.1688 1.675 22.6063 0.993753 21.1563 0.687504C20.3313 0.506252 18.2 0.456253 17.3438 0.593754ZM20.6625 1.625C22.975 2.01875 25.1625 3.275 26.6375 5.05625C27.7688 6.41875 28.475 7.90625 28.825 9.65625C29.025 10.6375 29.025 12.3625 28.825 13.3438C28.1 16.975 25.5875 19.85 22.125 21.0063C19.5 21.8813 16.4625 21.5938 14.0938 20.2438C12.7938 19.5 11.4563 18.2688 10.6688 17.0875C9.75625 15.7188 9.13125 13.9813 9.01875 12.4875L8.98125 12H9.8875H10.7938L10.8375 12.45C10.9 13.025 11.1188 13.9063 11.3688 14.5375C12.3063 16.8875 14.425 18.775 16.8438 19.4063C17.7375 19.6438 18.3688 19.7063 19.3375 19.6688C22.6688 19.5375 25.5625 17.3875 26.7125 14.2C27.3063 12.55 27.3063 10.45 26.7125 8.8C25.5625 5.60625 22.675 3.4625 19.3375 3.33125C18.3688 3.29375 17.7375 3.35625 16.8375 3.59375C14.425 4.225 12.3063 6.1125 11.3688 8.4625C11.1188 9.09375 10.9 9.975 10.8375 10.55L10.7938 11H9.8875H8.98125L9.01875 10.5125C9.13125 9.01875 9.75625 7.28125 10.6688 5.91875C11.125 5.225 12.1063 4.16875 12.8 3.61875C14.05 2.61875 15.8125 1.84375 17.4063 1.6C18.2813 1.4625 19.7875 1.475 20.6625 1.625ZM20.1938 4.4125C22.8125 4.8625 25 6.75625 25.8063 9.28125C26.0813 10.125 26.15 10.5688 26.15 11.5C26.15 12.4313 26.0813 12.875 25.8063 13.7188C24.5875 17.5125 20.475 19.5813 16.675 18.3125C14.825 17.6938 13.3188 16.3375 12.4625 14.5313C12.1688 13.9125 11.9125 13.0313 11.8375 12.3813L11.7938 12H12.575H13.3563L13.4625 12.5375C13.9625 15.1 16.0688 16.9438 18.6875 17.1063C21.3375 17.2688 23.8188 15.4063 24.4375 12.7875C24.6188 12.0375 24.6188 10.9625 24.4375 10.2125C23.9125 7.98125 22.0625 6.29375 19.7438 5.93125C19.2063 5.85 18.275 5.89375 17.6938 6.03125C15.5313 6.55 13.8938 8.26875 13.4625 10.4625L13.3563 11H12.575H11.7938L11.8375 10.6188C11.9125 9.96875 12.1688 9.0875 12.4625 8.46875C13.8625 5.5125 17 3.8625 20.1938 4.4125ZM20.1563 7.03125C22.9938 7.8 24.4125 11.0188 23.0625 13.6125C21.9938 15.675 19.625 16.6125 17.425 15.85C16.3625 15.4813 15.3375 14.5563 14.8438 13.5375C14.6313 13.0875 14.375 12.275 14.375 12.0375C14.375 12.0125 14.8125 12 15.3438 12C16.0688 12 16.325 12.0188 16.3375 12.075C16.725 13.3313 17.6 14.0813 18.7813 14.1688C20.8188 14.325 22.2625 12.2063 21.3875 10.3563C20.9063 9.34375 19.8938 8.74375 18.7813 8.83125C17.6 8.91875 16.6875 9.7 16.3375 10.9188C16.325 10.9813 16.0688 11 15.3438 11C14.8125 11 14.375 10.9875 14.375 10.9625C14.375 10.9438 14.4188 10.7313 14.475 10.4813C14.85 8.76875 16.275 7.36875 18.0438 6.975C18.5688 6.85625 19.6125 6.8875 20.1563 7.03125ZM19.5875 9.9375C19.9688 10.0813 20.3688 10.4688 20.5375 10.8563C20.6688 11.1688 20.6688 11.8313 20.5375 12.1438C20.3688 12.5313 19.9688 12.9188 19.5875 13.0625C18.8 13.3563 18.0063 13.0938 17.5563 12.3875C17.4563 12.2313 17.375 12.075 17.375 12.05C17.375 12.025 17.7688 12 18.2438 12C19.0625 12 19.1313 11.9938 19.2813 11.8563C19.5125 11.6625 19.5125 11.3438 19.2875 11.1438C19.125 11.0063 19.0688 11 18.2438 11C17.7688 11 17.375 10.975 17.375 10.95C17.375 10.925 17.4563 10.7688 17.5563 10.6125C18 9.9125 18.8 9.64375 19.5875 9.9375ZM5.3125 11.0563L5.5375 11.4875L5.31875 11.9313L5.1 12.375H3.2375C2.2125 12.375 1.375 12.3563 1.375 12.325C1.38125 12.3 1.4625 12.125 1.5625 11.9375C1.66875 11.75 1.75 11.55 1.75 11.5C1.75 11.45 1.66875 11.25 1.5625 11.0625C1.4625 10.875 1.38125 10.7 1.375 10.6688C1.375 10.6438 2.2125 10.625 3.2375 10.625H5.09375L5.3125 11.0563Z" fill="black"/>
</svg>
