<svg width="24" height="24" viewBox="0 0 24 24" fill="none" xmlns="http://www.w3.org/2000/svg">
<path d="M7.5 6.75C7.30109 6.75 7.11032 6.67098 6.96967 6.53033C6.82902 6.38968 6.75 6.19891 6.75 6V3C6.75 2.80109 6.82902 2.61032 6.96967 2.46967C7.11032 2.32902 7.30109 2.25 7.5 2.25C7.69891 2.25 7.88968 2.32902 8.03033 2.46967C8.17098 2.61032 8.25 2.80109 8.25 3V6C8.25 6.19891 8.17098 6.38968 8.03033 6.53033C7.88968 6.67098 7.69891 6.75 7.5 6.75ZM16.5 6.75C16.3011 6.75 16.1103 6.67098 15.9697 6.53033C15.829 6.38968 15.75 6.19891 15.75 6V3C15.75 2.80109 15.829 2.61032 15.9697 2.46967C16.1103 2.32902 16.3011 2.25 16.5 2.25C16.6989 2.25 16.8897 2.32902 17.0303 2.46967C17.171 2.61032 17.25 2.80109 17.25 3V6C17.25 6.19891 17.171 6.38968 17.0303 6.53033C16.8897 6.67098 16.6989 6.75 16.5 6.75Z" fill="black"/>
<path d="M19.5 21.75H4.5C3.2595 21.75 2.25 20.7405 2.25 19.5V6C2.25 4.7595 3.2595 3.75 4.5 3.75H19.5C20.7405 3.75 21.75 4.7595 21.75 6V19.5C21.75 20.7405 20.7405 21.75 19.5 21.75ZM4.5 5.25C4.30109 5.25 4.11032 5.32902 3.96967 5.46967C3.82902 5.61032 3.75 5.80109 3.75 6V19.5C3.75 19.6989 3.82902 19.8897 3.96967 20.0303C4.11032 20.171 4.30109 20.25 4.5 20.25H19.5C19.6989 20.25 19.8897 20.171 20.0303 20.0303C20.171 19.8897 20.25 19.6989 20.25 19.5V6C20.25 5.80109 20.171 5.61032 20.0303 5.46967C19.8897 5.32902 19.6989 5.25 19.5 5.25H4.5Z" fill="black"/>
<path d="M21 9.75H3C2.80109 9.75 2.61032 9.67098 2.46967 9.53033C2.32902 9.38968 2.25 9.19891 2.25 9C2.25 8.80109 2.32902 8.61032 2.46967 8.46967C2.61032 8.32902 2.80109 8.25 3 8.25H21C21.1989 8.25 21.3897 8.32902 21.5303 8.46967C21.671 8.61032 21.75 8.80109 21.75 9C21.75 9.19891 21.671 9.38968 21.5303 9.53033C21.3897 9.67098 21.1989 9.75 21 9.75ZM8.25 11.25H9.75V12.75H8.25V11.25ZM11.25 11.25H12.75V12.75H11.25V11.25ZM14.25 11.25H15.75V12.75H14.25V11.25ZM17.25 11.25H18.75V12.75H17.25V11.25ZM5.25 14.25H6.75V15.75H5.25V14.25ZM8.25 14.25H9.75V15.75H8.25V14.25ZM11.25 14.25H12.75V15.75H11.25V14.25ZM14.25 14.25H15.75V15.75H14.25V14.25ZM17.25 14.25H18.75V15.75H17.25V14.25ZM5.25 17.25H6.75V18.75H5.25V17.25ZM8.25 17.25H9.75V18.75H8.25V17.25ZM11.25 17.25H12.75V18.75H11.25V17.25Z" fill="black"/>
</svg>
