<svg width="164" height="164" viewBox="0 0 164 164" fill="none" xmlns="http://www.w3.org/2000/svg">
<path d="M43.7335 82.0001L76.5335 109.333L120.267 54.6668M82.0001 158.533C71.9496 158.533 61.9976 156.554 52.7121 152.708C43.4266 148.862 34.9897 143.224 27.8829 136.117C20.7761 129.011 15.1387 120.574 11.2926 111.288C7.44639 102.003 5.4668 92.0506 5.4668 82.0001C5.4668 71.9496 7.44639 61.9976 11.2926 52.7121C15.1387 43.4266 20.7761 34.9897 27.8829 27.8829C34.9897 20.7761 43.4266 15.1387 52.7121 11.2926C61.9976 7.44639 71.9496 5.4668 82.0001 5.4668C102.298 5.4668 121.765 13.5301 136.117 27.8829C150.47 42.2357 158.533 61.7022 158.533 82.0001C158.533 102.298 150.47 121.765 136.117 136.117C121.765 150.47 102.298 158.533 82.0001 158.533Z" stroke="url(#paint0_linear_1095_58308)" stroke-width="5.07"/>
<defs>
<linearGradient id="paint0_linear_1095_58308" x1="82.4876" y1="158.533" x2="82.4876" y2="5.4668" gradientUnits="userSpaceOnUse">
<stop stop-color="#E4B781"/>
<stop offset="1" stop-color="#C19A6B"/>
</linearGradient>
</defs>
</svg>
