<svg width="20" height="24" viewBox="0 0 20 24" fill="none" xmlns="http://www.w3.org/2000/svg">
<path d="M17.6079 19.3616H17.0119V10.7902C17.0119 7.23308 14.4216 4.29358 11.0516 3.80451V2.82383C11.0516 2.26669 10.6071 1.81543 10.0582 1.81543C9.5094 1.81543 9.06486 2.26669 9.06486 2.82383V3.80451C5.69483 4.29358 3.1046 7.23308 3.1046 10.7902V19.3616H2.50857C2.069 19.3616 1.71387 19.7222 1.71387 20.1684V20.9751C1.71387 21.086 1.80327 21.1768 1.91254 21.1768H7.27678C7.27678 22.7348 8.52347 24.0003 10.0582 24.0003C11.593 24.0003 12.8397 22.7348 12.8397 21.1768H18.2039C18.3132 21.1768 18.4026 21.086 18.4026 20.9751V20.1684C18.4026 19.7222 18.0475 19.3616 17.6079 19.3616ZM10.0582 22.3869C9.40013 22.3869 8.86619 21.8448 8.86619 21.1768H11.2503C11.2503 21.8448 10.7164 22.3869 10.0582 22.3869ZM4.89268 19.3616V10.7902C4.89268 9.38854 5.4291 8.07257 6.40509 7.08182C7.38109 6.09106 8.67744 5.54652 10.0582 5.54652C11.439 5.54652 12.7354 6.09106 13.7114 7.08182C14.6874 8.07257 15.2238 9.38854 15.2238 10.7902V19.3616H4.89268Z" fill="black"/>
</svg>
