<svg width="40" height="40" viewBox="0 0 40 40" fill="none" xmlns="http://www.w3.org/2000/svg">
<path d="M31.6615 21.6665C31.2194 21.6665 30.7955 21.8421 30.4829 22.1546C30.1704 22.4672 29.9948 22.8911 29.9948 23.3332V23.9665L27.5281 21.4998C26.6572 20.6357 25.48 20.1509 24.2531 20.1509C23.0262 20.1509 21.8491 20.6357 20.9781 21.4998L19.8115 22.6665L15.6781 18.5332C14.795 17.6925 13.6224 17.2236 12.4031 17.2236C11.1838 17.2236 10.0113 17.6925 9.12812 18.5332L6.66146 20.9998V11.6665C6.66146 11.2245 6.83705 10.8005 7.14961 10.488C7.46217 10.1754 7.8861 9.99983 8.32812 9.99983H19.9948C20.4368 9.99983 20.8607 9.82423 21.1733 9.51167C21.4859 9.19911 21.6615 8.77519 21.6615 8.33316C21.6615 7.89113 21.4859 7.46721 21.1733 7.15465C20.8607 6.84209 20.4368 6.66649 19.9948 6.66649H8.32812C7.00204 6.66649 5.73027 7.19328 4.79259 8.13096C3.85491 9.06864 3.32813 10.3404 3.32812 11.6665V31.6665C3.32813 32.9926 3.85491 34.2644 4.79259 35.202C5.73027 36.1397 7.00204 36.6665 8.32812 36.6665H28.3281C29.6542 36.6665 30.926 36.1397 31.8637 35.202C32.8013 34.2644 33.3281 32.9926 33.3281 31.6665V23.3332C33.3281 22.8911 33.1525 22.4672 32.84 22.1546C32.5274 21.8421 32.1035 21.6665 31.6615 21.6665ZM8.32812 33.3332C7.8861 33.3332 7.46217 33.1576 7.14961 32.845C6.83705 32.5324 6.66146 32.1085 6.66146 31.6665V25.7165L11.4948 20.8832C11.7396 20.6498 12.0649 20.5197 12.4031 20.5197C12.7414 20.5197 13.0666 20.6498 13.3115 20.8832L18.5948 26.1665L25.7615 33.3332H8.32812ZM29.9948 31.6665C29.9924 31.9855 29.8872 32.2953 29.6948 32.5498L22.1781 24.9998L23.3448 23.8332C23.4643 23.7112 23.6069 23.6143 23.7643 23.5482C23.9217 23.482 24.0907 23.448 24.2615 23.448C24.4322 23.448 24.6012 23.482 24.7586 23.5482C24.916 23.6143 25.0586 23.7112 25.1781 23.8332L29.9948 28.6832V31.6665ZM37.8448 7.14983L32.8448 2.14983C32.6863 1.99809 32.4994 1.87915 32.2948 1.79983C31.889 1.63313 31.4339 1.63313 31.0281 1.79983C30.8235 1.87915 30.6366 1.99809 30.4781 2.14983L25.4781 7.14983C25.3227 7.30522 25.1995 7.48971 25.1154 7.69275C25.0313 7.89578 24.988 8.1134 24.988 8.33316C24.988 8.777 25.1643 9.20265 25.4781 9.51649C25.792 9.83033 26.2176 10.0066 26.6615 10.0066C27.1053 10.0066 27.531 9.83033 27.8448 9.51649L29.9948 7.34983V16.6665C29.9948 17.1085 30.1704 17.5324 30.4829 17.845C30.7955 18.1576 31.2194 18.3332 31.6615 18.3332C32.1035 18.3332 32.5274 18.1576 32.84 17.845C33.1525 17.5324 33.3281 17.1085 33.3281 16.6665V7.34983L35.4781 9.51649C35.6331 9.67271 35.8174 9.7967 36.0205 9.88131C36.2236 9.96593 36.4414 10.0095 36.6615 10.0095C36.8815 10.0095 37.0993 9.96593 37.3024 9.88131C37.5055 9.7967 37.6898 9.67271 37.8448 9.51649C38.001 9.36156 38.125 9.17722 38.2096 8.97412C38.2942 8.77102 38.3378 8.55318 38.3378 8.33316C38.3378 8.11314 38.2942 7.8953 38.2096 7.6922C38.125 7.4891 38.001 7.30477 37.8448 7.14983Z" fill="black"/>
</svg>
